<svg xmlns="http://www.w3.org/2000/svg" xml:space="preserve" viewBox="0 0 1378.1 1417.3"><path d="M1140.7 660.2c0-251.5-203.9-455.3-455.3-455.3S230.1 408.7 230.1 660.2c0 251.4 203.9 455.3 455.3 455.3s455.3-203.9 455.3-455.3m-862.6 0c0-225 182.4-407.4 407.4-407.4s407.4 182.4 407.4 407.4-182.4 407.4-407.4 407.4-407.4-182.5-407.4-407.4"/><path d="M642 670.3c.8-.6 1.5-1.2 2.6-2v12.5h149.7v-12.9H659.2v-23.5h-18.3c-7.2 15.4-23.3 21.4-37 17.8-13.3-3.4-23.1-15.4-23.7-29.1-.6-14.1 8-26.9 21.1-31.4 6.7-2.3 13.4-2.5 20.1-.3 8.8 2.8 15.1 8.6 19.2 16.8h18.9c-.1-.5-.1-.9-.2-1.2-5.5-16.7-16.7-27.8-33.5-33.1-1.4-.4-6.7-1.5-12.2-1.6-5.1-.2-10.5.5-11.1.6-20.9 4.3-36.2 20.5-39.4 41.9 0 .2-.5 3.3-.4 6.6.1 3.8.6 7.9.7 8.3 5.9 36.5 49.5 53.5 78.6 30.6"/><path d="M725.3 618.8V666h14.1v-24c0-2.8.4-5.6 1.5-8.2 1.2-2.9 4.4-4.7 7.6-4.1 2.6.5 4.1 2.6 4.2 6V664c0 .7-.2 1.4.2 2H767c0-8.2.1-16.2 0-24.2 0-3.8.5-7.3 3.1-10.1 1.6-1.7 3.5-2.9 6-2.2 2.4.6 3.3 2.6 3.9 4.8.2.8.2 1.6.2 2.5v27.3c0 .7-.2 1.4.2 2h13.7c.1-.3.2-.4.2-.6 0-10.7.2-21.4-.1-32.1-.1-5.9-2.6-10.8-8.3-13.4-5.8-2.6-11.4-1.6-16.8 1.4-1.7 1-3.2 2.3-4.7 3.5-8.4-8.2-17-8.1-25.9-.4v-5.6c-4.5-.1-8.8-.1-13.2-.1m-59.4 14.3c5.4.7 10.7 1.3 16.1 2 .9-3.4 3.2-5.3 6.4-5.8 2.4-.3 4.9-.3 7.2 0 3.3.5 5.8 2.1 4.9 6.4-3.1.5-6.2 1-9.2 1.5-3.1.5-6.2 1-9.2 1.6-4 .8-8.1 1.3-11.6 3.6-5.9 4-7.1 11.2-2.8 16.8 2.4 3.1 5.6 4.9 9.4 5.9 7 1.8 13.8.3 20.4-2.1 1.9-.7 3.7-1.5 5.7-2.3.5 1.9 1 3.5 1.5 5.2h17.2c-3.2-4.2-3.9-8.8-4.1-13.7-.3-5.9.4-11.8.3-17.8-.1-8.2-3.8-13-11.8-14.8-7.9-1.8-15.9-1.5-23.8-.6-8.3 1.2-13.7 6.2-16.6 14.1m34.7 18.5c-3.8 3.6-8 6.2-13.6 4.9-1.5-.4-2.9-1.1-3.9-2.2-1.7-1.8-1.4-3.6.6-5 1.8-1.3 3.8-2.1 5.9-2.6 3.6-.9 7.3-1.2 11.1-1.7-.1 2.3-.1 4.4-.1 6.6m-106.5-20.3c0 9.8 8 17.8 17.7 17.9 9.8.1 17.9-7.9 18-17.8.1-9.8-8-17.9-17.8-17.9-9.8-.1-18 8-17.9 17.8m27 .2c-.1 5-4.2 9-9.3 9-5 0-9.1-4.2-9.1-9.2s4.2-9.1 9.2-9.1c5.1-.1 9.3 4.2 9.2 9.3m27.8-11c-6.1.1-11 5.2-11 11.2.1 6.1 5.1 11 11.1 11 6.2 0 11.1-5 11.1-11.2.1-6.2-4.9-11.1-11.2-11m.2 16.9c-3.2 0-5.8-2.6-5.8-5.8s2.7-5.8 5.9-5.7c3.2 0 5.8 2.7 5.8 5.8-.1 3.2-2.7 5.7-5.9 5.7M570 696.6l10.2 17.7h5.2v-25h-4.9v17.5l-9.9-17.5h-5.5v25h4.9zm39.4 13.2h-13.8v-6.4h12.1v-4.3h-12.1v-5.4h13.2v-4.4h-18.3v25h18.9zm15.2 5.2c3.6 0 6.3-1 8.2-2.9 2.5-2.4 3.8-5.8 3.8-10.3 0-4.6-1.3-8-3.8-10.3-1.9-1.9-4.6-2.9-8.2-2.9s-6.3 1-8.2 2.9c-2.5 2.3-3.8 5.7-3.8 10.3 0 4.5 1.3 7.9 3.8 10.3 1.9 2 4.6 2.9 8.2 2.9m-5-19.7c1.2-1.5 2.9-2.3 5-2.3s3.7.8 4.9 2.3 1.8 3.7 1.8 6.5-.6 5-1.8 6.5-2.9 2.3-4.9 2.3c-2.1 0-3.7-.8-5-2.3-1.2-1.5-1.9-3.7-1.9-6.5.1-2.8.7-5 1.9-6.5m40.9-2c1.8 0 3.2.5 4.1 1.6.5.6.9 1.5 1.3 2.7h5.2c-.1-1.6-.6-3.1-1.7-4.7-1.9-2.8-5-4.1-9.1-4.1-3.1 0-5.7 1-7.7 3.1-2.3 2.4-3.5 5.7-3.5 10.1 0 4 1 7.2 3.1 9.5 2 2.3 4.8 3.5 8.4 3.5 2.9 0 5.2-.9 7.1-2.6 1.8-1.7 3-3.9 3.4-6.7h-5.2c-.3 1.3-.8 2.3-1.3 2.9-.9 1.2-2.3 1.8-4.1 1.8-1.7 0-3.2-.7-4.3-2.1s-1.7-3.5-1.7-6.3.5-5 1.6-6.5c1-1.4 2.5-2.2 4.4-2.2m22.7 1.9c-3.2 0-5.6 1-7.1 2.9-1.6 2-2.3 4.3-2.3 6.9 0 2.7.8 5 2.3 7 1.6 1.9 3.9 2.9 7.1 2.9s5.6-1 7.1-2.9c1.6-1.9 2.3-4.2 2.3-7 0-2.7-.8-5-2.3-6.9s-3.9-2.9-7.1-2.9m3.3 14.2c-.8 1-1.8 1.5-3.3 1.5q-2.1 0-3.3-1.5c-.8-1-1.1-2.4-1.1-4.3s.4-3.3 1.1-4.3q1.2-1.5 3.3-1.5t3.3 1.5c.8 1 1.1 2.4 1.1 4.3s-.4 3.3-1.1 4.3m18-14.2c-3.2 0-5.6 1-7.1 2.9-1.6 2-2.3 4.3-2.3 6.9 0 2.7.8 5 2.3 7 1.6 1.9 3.9 2.9 7.1 2.9s5.6-1 7.1-2.9c1.6-1.9 2.3-4.2 2.3-7 0-2.7-.8-5-2.3-6.9-1.6-1.9-4-2.9-7.1-2.9m3.2 14.2c-.8 1-1.8 1.5-3.3 1.5q-2.1 0-3.3-1.5c-.8-1-1.1-2.4-1.1-4.3s.4-3.3 1.1-4.3q1.2-1.5 3.3-1.5t3.3 1.5c.8 1 1.1 2.4 1.1 4.3s-.3 3.3-1.1 4.3m9.8-20.1h4.8v25h-4.8zm17.4 10.2c1.1 0 2 .4 2.5 1.1.4.6.6 1.2.7 1.9h5c-.3-2.6-1.1-4.5-2.6-5.5s-3.4-1.6-5.7-1.6c-2.7 0-4.9.9-6.4 2.6s-2.3 4.2-2.3 7.4q0 4.2 2.1 6.9c1.4 1.8 3.6 2.6 6.6 2.6s5.2-1.1 6.7-3.2c1-1.3 1.5-2.7 1.6-4.2h-4.9q-.15 1.5-.9 2.4t-2.4.9c-1.6 0-2.7-.8-3.3-2.3-.3-.8-.5-1.9-.5-3.3s.2-2.6.5-3.4c.5-1.5 1.6-2.3 3.3-2.3m20.7 3.2c-.4.2-1 .3-1.9.4l-1.7.2c-1.9.2-3.3.6-4.3 1.2-1.8 1-2.7 2.7-2.7 4.9 0 1.8.5 3.1 1.6 4.1s2.5 1.4 4.2 1.4q1.95 0 3.6-.9c.9-.5 1.7-1.1 2.3-1.8 0 .4.1.8.1 1.1.1.3.2.7.3 1.1h5.3v-.7c-.3-.1-.6-.3-.7-.6-.2-.2-.3-.7-.3-1.3v-10.6q0-3.3-2.4-4.5t-5.4-1.2q-4.65 0-6.6 2.4c-.8 1-1.3 2.4-1.4 4h4.7c.1-.7.3-1.3.7-1.7.5-.6 1.3-.8 2.5-.8 1 0 1.8.1 2.3.4s.8.8.8 1.6c.1.5-.3 1-1 1.3m1.1 4.4c0 1.6-.5 2.7-1.4 3.3s-1.9.9-2.9.9c-.7 0-1.2-.2-1.7-.6s-.7-1-.7-1.8c0-.9.4-1.6 1.1-2.1.4-.3 1.2-.5 2.2-.7l1.1-.2c.6-.1 1-.2 1.3-.3s.6-.3.9-.5v2zm8.9-11.2v18.5h4.9v-11.1c0-1 .1-1.8.4-2.3.5-.9 1.4-1.3 2.8-1.3 1.2 0 2 .4 2.4 1.3q.3.75.3 2.4v11h4.9v-11c0-.8.1-1.5.4-2.1.5-1.1 1.4-1.7 2.8-1.7 1.2 0 1.9.4 2.4 1.3.2.5.3 1 .3 1.7v11.8h5v-11.7c0-1.2-.1-2.1-.2-2.7-.2-.9-.5-1.7-1.1-2.4-.6-.8-1.4-1.3-2.2-1.7-.8-.3-1.6-.5-2.4-.5-1.2 0-2.3.3-3.3.8q-1.35.75-2.4 2.4c-.4-.9-.9-1.6-1.6-2.2-.9-.6-2-.9-3.4-.9-1.5 0-2.7.4-3.6 1.1-.5.4-1.1 1.1-1.7 2.1V696h-4.7zM645.2 873.4c1.3.3 2.6.4 3.9.4 3.8 0 7.5-1.1 10.7-3.3 4.3-2.9 7.3-7.3 8.3-12.4s0-10.3-2.9-14.6c-5.9-8.9-18.1-11.4-27-5.4-4.3 2.9-7.3 7.3-8.3 12.4s0 10.3 2.9 14.6 7.3 7.3 12.4 8.3m-11.7-22.2c.8-4.2 3.2-7.7 6.8-10.1 2.7-1.8 5.7-2.6 8.8-2.6 5.1 0 10.2 2.5 13.2 7.1 2.3 3.5 3.2 7.8 2.3 11.9-.8 4.2-3.2 7.7-6.8 10.1-3.5 2.3-7.8 3.2-11.9 2.3-4.2-.8-7.7-3.2-10.1-6.8-2.3-3.5-3.1-7.8-2.3-11.9m76.3 18.9c3.5 2.6 7.5 3.8 11.5 3.8 6 0 11.9-2.7 15.7-7.9 3.1-4.2 4.4-9.3 3.6-14.5-.8-5.1-3.5-9.7-7.7-12.8s-9.3-4.4-14.5-3.6c-5.1.8-9.7 3.5-12.8 7.7s-4.4 9.3-3.6 14.5c.9 5.2 3.6 9.7 7.8 12.8m-1.2-25.1c2.5-3.4 6.2-5.6 10.4-6.3.8-.1 1.6-.2 2.4-.2 3.4 0 6.6 1.1 9.4 3.1 3.4 2.5 5.6 6.2 6.3 10.4.6 4.2-.4 8.4-2.9 11.8-5.2 7-15.1 8.5-22.2 3.4-3.4-2.5-5.6-6.2-6.3-10.4-.6-4.2.4-8.4 2.9-11.8"/><circle cx="789.3" cy="829.7" r="17.7" transform="rotate(-73.602 789.36 829.743)"/><circle cx="844.8" cy="783.3" r="17.7" transform="rotate(-3.603 844.769 783.302)scale(.99998)"/><circle cx="881" cy="720.7" r="17.7" transform="rotate(-23.604 880.961 720.706)"/><circle cx="893.6" cy="649.5" r="17.7" transform="rotate(-43.606 893.566 649.513)"/><path d="M889.8 560.9c-4.7-2.3-9.9-2.7-14.9-1-4.9 1.7-8.9 5.1-11.2 9.8s-2.7 9.9-1 14.9c1.7 4.9 5.1 8.9 9.8 11.2 2.8 1.4 5.7 2 8.6 2 7.2 0 14.1-4 17.5-10.8 4.8-9.7.8-21.4-8.8-26.1m5.6 24.5c-3.9 7.8-13.4 11-21.3 7.2-3.8-1.9-6.6-5.1-8-9.1s-1.1-8.3.8-12.1 5.1-6.6 9.1-8c1.7-.6 3.4-.8 5.1-.8 2.4 0 4.8.6 7 1.7 8 3.7 11.2 13.2 7.3 21.1M842.9 535c.7.1 1.5.1 2.2.1 4.4 0 8.6-1.5 12.1-4.3 4.1-3.2 6.6-7.9 7.2-13 .6-5.2-.9-10.3-4.1-14.3-3.2-4.1-7.9-6.6-13-7.2-10.7-1.2-20.3 6.5-21.5 17.2-1.3 10.6 6.4 20.3 17.1 21.5m-13.6-21.1c1-8.7 8.8-15 17.5-14 4.2.5 8 2.6 10.6 5.9s3.8 7.5 3.4 11.7c-.5 4.2-2.6 8-5.9 10.6s-7.4 3.9-11.7 3.4c-8.6-1.1-14.9-8.9-13.9-17.6"/><circle cx="789.7" cy="469.1" r="17.7" transform="rotate(-13.604 789.662 469.07)"/><circle cx="721.8" cy="444.3" r="17.7" transform="rotate(-33.601 721.854 444.307)"/><circle cx="649.5" cy="444.2" r="17.7" transform="rotate(-53.601 649.525 444.221)"/><circle cx="581.5" cy="468.9" r="17.7" transform="rotate(-73.602 581.528 468.877)"/><path d="M513.2 529.9c3.6 3.2 8.1 4.9 12.9 4.9h1.2c5.2-.3 9.9-2.7 13.4-6.6 3.4-3.9 5.2-8.9 4.8-14.1-.7-10.7-10-18.9-20.7-18.2-5.2.3-9.9 2.7-13.4 6.6-3.4 3.9-5.2 8.9-4.8 14.1.4 5.1 2.7 9.9 6.6 13.3m1-25.1c2.8-3.2 6.7-5.1 10.9-5.3h1c3.9 0 7.5 1.4 10.5 4 3.2 2.8 5.1 6.7 5.3 10.9.3 4.2-1.1 8.3-3.9 11.5s-6.7 5.1-10.9 5.3c-4.2.3-8.3-1.1-11.5-3.9s-5.1-6.7-5.3-10.9c-.3-4.3 1.1-8.4 3.9-11.6m-6.5 65.3c-4.3-9.8-15.8-14.4-25.6-10-9.8 4.3-14.3 15.8-10 25.6 3.2 7.3 10.4 11.7 17.9 11.7 2.6 0 5.2-.5 7.8-1.6 9.7-4.4 14.2-15.9 9.9-25.7m-11.5 22.3c-3.9 1.7-8.2 1.8-12.1.2-3.9-1.5-7.1-4.5-8.7-8.4-1.7-3.9-1.8-8.2-.2-12.1 1.5-3.9 4.5-7.1 8.4-8.7 2.1-.9 4.2-1.3 6.3-1.3 6.1 0 12 3.6 14.6 9.5 3.4 7.9-.3 17.3-8.3 20.8"/><circle cx="477.2" cy="649.1" r="17.7" transform="rotate(-43.606 477.164 649.052)"/><circle cx="489.7" cy="720.3" r="17.7" transform="rotate(-63.602 489.715 720.32)"/><circle cx="525.8" cy="783" r="17.7" transform="rotate(-83.604 525.771 782.971)"/><circle cx="581.1" cy="829.5" r="17.7" transform="rotate(-13.604 581.076 829.457)"/><path d="M696.5 845.9c4.3-2.9 7.3-7.3 8.3-12.4s0-10.3-2.9-14.6-7.3-7.3-12.4-8.3-10.3 0-14.6 2.9-7.3 7.3-8.3 12.4 0 10.3 2.9 14.6c3.7 5.6 9.9 8.7 16.2 8.7 3.8-.1 7.5-1.1 10.8-3.3m-24-7.5c-2.3-3.5-3.2-7.8-2.3-11.9.8-4.2 3.2-7.7 6.8-10.1 2.7-1.8 5.7-2.6 8.8-2.6 5.1 0 10.2 2.5 13.2 7.1 2.3 3.5 3.2 7.8 2.3 11.9-.8 4.2-3.2 7.7-6.8 10.1-7.3 4.8-17.1 2.8-22-4.5M548.2 551.2c-1.9-4.8-5.6-8.6-10.4-10.7s-10.1-2.1-14.9-.2-8.6 5.6-10.7 10.4-2.1 10.1-.2 14.9c3 7.6 10.4 12.3 18.1 12.3 2.4 0 4.8-.4 7.2-1.4 10-4 14.9-15.3 10.9-25.3m-12.2 22c-8.1 3.2-17.4-.7-20.6-8.9-1.6-3.9-1.5-8.2.2-12.1s4.8-6.9 8.7-8.5c1.9-.8 3.9-1.1 5.9-1.1 2.1 0 4.2.4 6.3 1.3 3.9 1.7 6.9 4.8 8.5 8.7 3.1 8.1-.9 17.3-9 20.6m291-7.5c1.9 4.8 5.6 8.6 10.4 10.7 2.5 1.1 5.1 1.6 7.7 1.6 2.4 0 4.9-.5 7.2-1.4 10-4 14.8-15.3 10.9-25.3-1.9-4.8-5.6-8.6-10.4-10.7s-10.1-2.1-14.9-.2-8.6 5.6-10.7 10.4c-2.1 4.7-2.1 10-.2 14.9m3.5-13.5c1.7-3.9 4.8-6.9 8.7-8.5 1.9-.8 3.9-1.1 5.9-1.1 2.1 0 4.2.4 6.3 1.3 3.9 1.7 6.9 4.8 8.5 8.7s1.5 8.2-.2 12.1-4.8 6.9-8.7 8.5-8.2 1.5-12.1-.2-6.9-4.8-8.5-8.7-1.6-8.2.1-12.1"/><circle cx="685.4" cy="375.8" r="17.7" transform="rotate(-53.601 685.46 375.8)"/><circle cx="614.2" cy="385.2" r="17.7" transform="rotate(-68.605 614.187 385.177)"/><circle cx="547.8" cy="412.7" r="17.7" transform="rotate(-83.604 547.831 412.667)"/><circle cx="490.9" cy="456.4" r="17.7" transform="rotate(-8.604 490.779 456.34)"/><circle cx="447.1" cy="513.4" r="17.7" transform="rotate(-23.604 447.092 513.367)"/><circle cx="419.6" cy="579.8" r="17.7" transform="rotate(-38.602 419.649 579.77)"/><circle cx="410.3" cy="651" r="17.7" transform="rotate(-53.601 410.277 650.992)"/><circle cx="419.6" cy="722.2" r="17.7" transform="rotate(-68.605 419.605 722.187)"/><circle cx="447.1" cy="788.6" r="17.7" transform="rotate(-83.604 447.106 788.562)"/><circle cx="490.9" cy="845.6" r="17.7" transform="rotate(-8.604 490.769 845.437)"/><circle cx="547.8" cy="889.3" r="17.7" transform="rotate(-23.604 547.807 889.252)"/><circle cx="614.2" cy="916.8" r="17.7" transform="rotate(-38.602 614.24 916.802)"/><circle cx="685.4" cy="926.2" r="17.7" transform="rotate(-53.601 685.468 926.174)"/><circle cx="756.7" cy="916.8" r="17.7" transform="rotate(-68.605 756.616 916.769)"/><circle cx="823" cy="889.3" r="17.7" transform="rotate(-83.604 823.001 889.287)"/><circle cx="880" cy="845.6" r="17.7" transform="rotate(-8.604 879.873 845.443)"/><circle cx="923.7" cy="788.6" r="17.7" transform="rotate(-23.604 923.692 788.54)"/><circle cx="951.2" cy="722.2" r="17.7" transform="rotate(-38.602 951.272 722.211)"/><circle cx="960.6" cy="651" r="17.7" transform="rotate(-53.601 960.65 650.983)"/><circle cx="951.2" cy="579.8" r="17.7" transform="rotate(-68.605 951.197 579.758)"/><circle cx="923.7" cy="513.4" r="17.7" transform="rotate(-83.604 923.726 513.392)"/><circle cx="880" cy="456.4" r="17.7" transform="rotate(-8.604 879.887 456.344)"/><circle cx="823" cy="412.7" r="17.7" transform="rotate(-23.604 822.973 412.654)"/><circle cx="756.7" cy="385.2" r="17.7" transform="rotate(-38.602 756.681 385.18)"/><circle cx="721.8" cy="313.3" r="17.7" transform="rotate(-53.601 721.837 313.256)"/><circle cx="650.6" cy="313.1" r="17.7" transform="rotate(-65.6 650.645 313.09)"/><circle cx="581" cy="327.7" r="17.7" transform="rotate(-77.602 580.955 327.732)"/><circle cx="515.8" cy="356.5" r="17.7" transform="matrix(.00693 -1 1 .00693 155.743 869.903)"/><circle cx="458.2" cy="398.3" r="17.7" transform="rotate(-11.601 458.24 398.31)"/><circle cx="410.4" cy="451" r="17.7" transform="rotate(-23.604 410.374 451.027)"/><circle cx="374.7" cy="512.6" r="17.7" transform="rotate(-35.604 374.651 512.608)"/><circle cx="352.5" cy="580.3" r="17.7" transform="rotate(-47.602 352.519 580.28)"/><circle cx="344.9" cy="651.1" r="17.7" transform="rotate(-59.601 344.92 651.065)"/><circle cx="352.2" cy="721.9" r="17.7" transform="rotate(-71.603 352.177 721.87)"/><circle cx="374" cy="789.6" r="17.7" transform="rotate(-83.604 374.009 789.622)"/><circle cx="409.5" cy="851.4" r="17.7" transform="rotate(-5.603 409.465 851.343)scale(.99998)"/><circle cx="457" cy="904.4" r="17.7" transform="rotate(-17.601 457.034 904.441)"/><circle cx="514.5" cy="946.4" r="17.7" transform="rotate(-29.603 514.489 946.358)"/><circle cx="579.5" cy="975.5" r="17.7" transform="rotate(-41.603 579.45 975.458)"/><circle cx="649.1" cy="990.4" r="17.7" transform="rotate(-53.601 649.09 990.443)"/><circle cx="720.2" cy="990.6" r="17.7" transform="rotate(-65.6 720.288 990.604)"/><circle cx="789.9" cy="975.9" r="17.7" transform="rotate(-77.602 789.924 975.949)"/><circle cx="855" cy="947.1" r="17.7" transform="matrix(.00693 -1 1 .00693 -98.028 1795.572)"/><circle cx="912.7" cy="905.4" r="17.7" transform="rotate(-11.601 912.875 905.567)"/><circle cx="960.5" cy="852.6" r="17.7" transform="rotate(-23.604 960.407 852.602)"/><circle cx="996.2" cy="791.1" r="17.7" transform="rotate(-35.604 996.183 791.058)"/><circle cx="1018.4" cy="723.4" r="17.7" transform="rotate(-47.602 1018.385 723.415)"/><circle cx="1026" cy="652.6" r="17.7" transform="rotate(-59.601 1025.997 652.628)"/><circle cx="1018.7" cy="581.8" r="17.7" transform="rotate(-71.603 1018.681 581.81)"/><circle cx="996.8" cy="514.1" r="17.7" transform="rotate(-83.604 996.825 514.057)"/><circle cx="961.4" cy="452.3" r="17.7" transform="rotate(-5.603 961.367 452.309)scale(.99998)"/><circle cx="913.9" cy="399.3" r="17.7" transform="rotate(-17.601 913.956 399.324)"/><circle cx="856.4" cy="357.3" r="17.7" transform="rotate(-29.603 856.382 357.326)"/><circle cx="791.4" cy="328.2" r="17.7" transform="rotate(-41.603 791.406 328.22)"/><path d="M689 0C309.1 0 0 309.1 0 689c0 133.6 38.3 263.2 110.7 374.7 70.6 108.7 169.8 195 287 249.8 16.6 7.4 43 27.8 51.4 42.1.3.7.6 1.4.9 1.9.4.8.8 1.6 1.2 2.3l.2.4c4.5 7.4 12.8 14.6 24.5 21.2 20 11.3 49.1 20.5 84.2 26.6 5.9 1 12 2 18.2 2.8 9.6 1.3 19.7 2.5 30 3.4 21.8 1.9 45.3 2.9 69.9 2.9h14.2c36.2 0 69.8-2.1 99.9-6.3 35-4.8 65.4-12.6 88-22.4 3.5-1.5 6.8-3.1 9.9-4.7s6-3.2 8.6-4.9c9.5-5.9 16.4-12.2 20.4-18.8l.3-.6c.3-.6.7-1.2 1-1.8s.6-1.3.9-1.9c7.7-12.8 33.2-30.8 51.6-39 246.1-111.4 405.1-357.9 405.1-628C1378.1 309.1 1069 0 689 0m386.3 1237.6c-46.2 31.7-96.6 57.8-150.3 77.7 4-38.5 3.1-86.8 3.1-89.7 0-33.1 0-70.6 6.1-103.9 164.1-90.8 266-263.3 266-450.8 0-283.8-230.9-514.8-514.8-514.8-283.8 0-514.8 230.9-514.8 514.8 0 187.4 101.8 359.8 265.8 450.6 6.2 33.3 6.2 70.8 6.2 103.9-.1 2.9-.9 48.3 2.7 86.2-62.6-24.1-119.8-56.2-170.7-95-57.8-45.5-108.1-100.3-148.7-162.8C55.3 945.3 18.1 819.1 18.1 689c0-370 301-671 671-671s671 301 671 671c-.1 220.3-108.7 424.4-284.8 548.6m-608.5 113.2c-.2-.3-.3-.6-.5-1l-.6-1.5-.5-1c-1.8-3.1-4.1-6.3-6.8-9.6-1.2-5.6-2.4-12.3-3.3-19.2-3.5-31.3-3.8-73.3-3.4-92.8 0-34.3 0-73.2-6.7-107.8l-.4-2.1-1.9-1c-162.2-88.9-262.9-259-262.9-443.7 0-278.9 226.9-505.7 505.7-505.7s505.7 226.9 505.7 505.7c0 184.9-100.8 355-263.2 443.9l-1.9 1-.4 2.1c-6.7 34.6-6.7 73.4-6.7 107.7.4 20.2.1 64.5-3.8 96-.9 5.9-2 11.6-3 16.5-2.7 3.1-5 6.1-6.7 9.2l-.5 1c-.2.5-.4 1-.7 1.5-.2.3-.3.6-.5.9l-.2.3c-1.8 2.8-5.7 7.2-14.3 12.6-2.2 1.4-4.7 2.8-7.4 4.2s-5.7 2.8-8.8 4.2c-21.1 9.2-49.9 16.4-83.3 21.1-29.2 4-62 6.1-97.4 6.1h-14.2c-24 0-47-1-68.3-2.8-10-.9-19.8-2-29.1-3.3-6-.8-11.9-1.7-17.5-2.7-41.8-7.3-65.7-17.4-78.4-24.6-11.3-6.4-15.9-11.7-17.8-14.6zm-20.4-29c.2 1.3.3 2.6.5 3.9-2.4-2.2-5-4.4-7.6-6.6 2.3.9 4.7 1.8 7.1 2.7m477.4 3.6c1.2-.4 2.4-.9 3.6-1.3-1.3 1-2.6 2.1-3.8 3.1.1-.6.2-1.2.2-1.8"/></svg>