<?xml version="1.0" encoding="UTF-8" standalone="no"?>
<!-- Created with Inkscape (http://www.inkscape.org/) -->

<svg
   width="960"
   height="960"
   viewBox="0 0 253.99999 254"
   version="1.1"
   id="svg1"
   xml:space="preserve"
   inkscape:version="1.4.4 (dcaf3e7, 2026-05-05)"
   sodipodi:docname="1gang.svg"
   xmlns:inkscape="http://www.inkscape.org/namespaces/inkscape"
   xmlns:sodipodi="http://sodipodi.sourceforge.net/DTD/sodipodi-0.dtd"
   xmlns="http://www.w3.org/2000/svg"
   xmlns:svg="http://www.w3.org/2000/svg"><sodipodi:namedview
     id="namedview1"
     pagecolor="#ffffff"
     bordercolor="#000000"
     borderopacity="0.25"
     inkscape:showpageshadow="2"
     inkscape:pageopacity="0.0"
     inkscape:pagecheckerboard="0"
     inkscape:deskcolor="#d1d1d1"
     inkscape:document-units="mm"
     inkscape:zoom="0.85789141"
     inkscape:cx="396.90338"
     inkscape:cy="654.51174"
     inkscape:window-width="2044"
     inkscape:window-height="1112"
     inkscape:window-x="0"
     inkscape:window-y="30"
     inkscape:window-maximized="0"
     inkscape:current-layer="layer1" /><defs
     id="defs1" /><g
     inkscape:label="Camada 1"
     inkscape:groupmode="layer"
     id="layer1"><path
       style="fill:#000000"
       d="m 172.90798,247.38477 -0.44988,-0.43004 -62.3809,-0.75336 c -34.309489,-0.41435 -63.835682,-0.78373 -65.613758,-0.82086 -3.189235,-0.0666 -3.24438,-0.0745 -4.086085,-0.59024 -1.585052,-0.97113 -1.564118,-0.8406 -1.50915,-9.40989 0.02629,-4.09815 -0.05137,-53.66901 -0.172579,-110.15748 L 38.475254,22.516598 38.942836,21.775899 c 0.285373,-0.452059 0.702045,-0.828193 1.069253,-0.965224 0.436307,-0.162817 6.790776,-0.364825 23.120539,-0.735002 36.875732,-0.835929 47.075702,-1.077962 57.295992,-1.359561 5.34369,-0.147235 12.69864,-0.3493 16.34434,-0.449033 3.6457,-0.09973 11.94045,-0.301212 18.43278,-0.447728 6.49234,-0.146517 13.24392,-0.318862 15.00353,-0.382989 3.68139,-0.134165 4.76913,0.06107 5.90715,1.060268 1.01082,0.887513 1.51368,2.452437 0.90095,2.803834 -0.21643,0.124124 -0.22785,16.096969 -0.0786,109.924716 0.10724,67.43042 0.23996,109.84605 0.34403,109.95202 0.0932,0.0949 0.16866,0.62608 0.16772,1.18042 -0.001,0.77776 -0.12127,1.21524 -0.52533,1.91592 -0.50009,0.86722 -3.07323,3.54128 -3.40762,3.54128 -0.0878,0 -0.36213,-0.19352 -0.60957,-0.43005 z m 0.90474,-2.22484 c 0.3109,-0.2616 0.69802,-0.7315 0.86028,-1.04422 0.27171,-0.52367 0.28601,-9.4 0.1811,-112.36346 -0.0761,-74.647572 -0.17494,-111.955389 -0.29756,-112.277927 l -0.18366,-0.483044 -3.13663,0.09656 c -1.72515,0.05311 -31.37149,0.708591 -65.88074,1.456627 -34.509261,0.748035 -63.26208,1.407115 -63.895155,1.464621 -1.086134,0.09866 -1.163593,0.136929 -1.373512,0.678598 -0.175554,0.452994 -0.175263,17.959804 0.0014,83.022163 0.123114,45.34647 0.228051,94.74724 0.233192,109.77949 l 0.0093,27.33137 0.385139,0.40609 c 0.575941,0.60727 1.413378,0.74229 4.710358,0.75946 4.605283,0.024 125.2668,1.56701 127.06331,1.62489 0.57552,0.0186 0.8939,-0.09 1.32315,-0.45122 z m -13.15886,-0.98903 c -3.79552,-0.0745 -13.47954,-0.22689 -21.52005,-0.33861 -8.04051,-0.11173 -19.89015,-0.28047 -26.33255,-0.37498 -6.44239,-0.0945 -15.145754,-0.22039 -19.340801,-0.27972 -4.195047,-0.0593 -11.876887,-0.18174 -17.070755,-0.27202 -5.193868,-0.0903 -14.91875,-0.25693 -21.61085,-0.37034 -13.185638,-0.22345 -13.007912,-0.20745 -13.679284,-1.23176 -0.280649,-0.42818 -0.312788,-3.00319 -0.415026,-33.25174 -0.142007,-42.01481 -0.141868,-120.983292 2.74e-4,-156.399894 l 0.110546,-27.543861 0.435313,-0.463254 c 0.239422,-0.25479 0.688892,-0.543035 0.998821,-0.640545 0.632317,-0.198939 7.342862,-0.436207 23.536385,-0.832186 6.042866,-0.147765 13.888149,-0.350771 17.433963,-0.451123 9.061532,-0.256455 25.519904,-0.680169 38.863204,-1.000517 19.93167,-0.478522 26.45748,-0.642445 32.87029,-0.825675 3.44593,-0.09846 8.47181,-0.22462 11.16863,-0.280358 5.40374,-0.111684 5.5149,-0.09414 6.13547,0.968425 0.33636,0.575916 0.34605,3.061294 0.43432,111.322718 l 0.0903,110.73365 -0.38294,0.60114 c -0.54868,0.8613 -1.33946,1.12946 -3.22942,1.09511 -0.87718,-0.0159 -4.70029,-0.09 -8.49581,-0.16446 z m 10.93261,-0.64418 c 0.21978,-0.13671 0.48492,-0.55579 0.5892,-0.93129 0.20855,-0.75097 0.22427,-93.01316 0.0298,-174.931574 -0.122,-51.392625 -0.0108,-47.187657 -1.25873,-47.59951 -0.38107,-0.125765 -1.32594,-0.160123 -2.5439,-0.0925 -1.06572,0.05917 -4.30759,0.14972 -7.20417,0.201227 -2.89658,0.05151 -6.5332,0.136982 -8.08137,0.189942 -1.54817,0.05296 -7.71816,0.215121 -13.71109,0.360358 -5.99292,0.145237 -15.18661,0.38753 -20.43042,0.538428 -5.24381,0.150899 -16.27624,0.439585 -24.51651,0.641526 -42.704267,1.046533 -51.227631,1.288564 -51.984567,1.476166 -0.415513,0.102981 -0.805349,0.357882 -0.998821,0.653096 -0.299054,0.456319 -0.325297,3.197467 -0.455874,47.618464 -0.145295,49.428259 0.06945,168.769749 0.304638,169.297329 0.07525,0.1688 0.35285,0.44846 0.616889,0.62147 0.433844,0.28426 1.450969,0.32798 10.563171,0.45408 5.545705,0.0767 14.741238,0.22599 20.434516,0.33166 5.693279,0.10568 16.031074,0.27641 22.972878,0.3794 6.9418,0.10299 20.01728,0.30622 29.0566,0.45162 9.03933,0.14541 22.31911,0.35046 29.51062,0.45568 7.19151,0.10522 13.64752,0.20944 14.3467,0.23161 1.59614,0.0506 2.25396,-0.0321 2.76044,-0.34718 z m -14.11068,-0.73656 c -0.94888,-0.0253 -8.50814,-0.13302 -16.79835,-0.2394 -26.97453,-0.34616 -47.382984,-0.64907 -86.053639,-1.27726 -6.959102,-0.11304 -11.548166,-0.25696 -11.756965,-0.36871 -0.930972,-0.49824 -0.867605,2.22358 -1.087025,-46.69178 -0.217766,-48.54686 -0.07182,-168.612494 0.205848,-169.342811 0.08554,-0.224978 0.351906,-0.537727 0.591933,-0.694998 0.45927,-0.300926 0.714068,-0.310767 21.190649,-0.818474 4.045225,-0.100299 10.09263,-0.262583 13.43868,-0.360631 6.477887,-0.189818 15.988329,-0.437916 27.966979,-0.72957 15.93325,-0.38794 23.00785,-0.566511 32.59788,-0.822809 30.46012,-0.81406 32.60751,-0.850704 33.04524,-0.563895 0.22774,0.149225 0.46637,0.501036 0.53028,0.781801 0.0639,0.280766 0.16858,49.974436 0.2326,110.430377 l 0.11641,109.9199 -0.42258,0.44981 -0.42257,0.44981 -5.82507,-0.0377 c -3.20378,-0.0207 -6.60142,-0.0584 -7.5503,-0.0837 z m 13.63291,-0.60506 c 0.207,-0.31239 0.0872,-208.322837 -0.12429,-215.886762 -0.0908,-3.247507 -0.19581,-4.682201 -0.35883,-4.903302 -0.20239,-0.274487 -0.55824,-0.307845 -2.92184,-0.273897 -3.09083,0.04439 -13.60416,0.306887 -27.75271,0.692921 -5.39364,0.147161 -18.14222,0.472168 -28.33019,0.722236 -10.18798,0.250068 -26.328011,0.657284 -35.866749,0.904925 -35.944028,0.933163 -32.603264,0.784094 -33.260924,1.484143 l -0.426577,0.45407 0.03082,96.280776 c 0.01695,52.95443 0.10336,101.19484 0.192024,107.2009 0.142153,9.62942 0.196337,10.97373 0.458431,11.37374 l 0.297223,0.45362 5.776083,0.11838 c 7.326609,0.15017 22.526738,0.38488 48.90698,0.7552 11.436502,0.16054 30.722822,0.43924 42.858492,0.61934 26.31308,0.39048 30.26546,0.39096 30.52206,0.004 z m -36.37878,-2.11791 c 0.12485,-0.0504 0.32915,-0.0504 0.45401,0 0.12485,0.0504 0.0227,0.0916 -0.22701,0.0916 -0.2497,0 -0.35185,-0.0412 -0.227,-0.0916 z m -14.57371,-81.18257 c -1.59811,-0.0248 -14.16058,-0.17394 -27.916591,-0.33147 -13.756015,-0.15753 -25.483079,-0.36198 -26.060143,-0.45433 -0.854223,-0.1367 -1.158891,-0.28646 -1.639419,-0.80584 -0.324616,-0.35086 -0.590212,-0.82709 -0.590212,-1.05829 0,-0.23119 -0.09962,-0.51997 -0.221379,-0.64173 -0.311884,-0.31189 -0.211277,-47.94283 0.102062,-48.31999 0.115565,-0.1391 0.376856,-0.58227 0.580645,-0.98481 0.70571,-1.39399 0.788774,-1.40929 8.664495,-1.59639 6.502911,-0.15448 31.268662,-0.60399 60.805572,-1.10366 l 12.81701,-0.21682 0.68791,0.42515 c 1.00077,0.61852 1.19105,1.24238 1.19105,3.90522 0,1.96408 -0.0398,2.27588 -0.29024,2.27588 -0.26471,0 -0.28548,2.08843 -0.23612,23.7447 0.0413,18.14104 0.003,23.8378 -0.16262,24.13922 -0.11921,0.21698 -0.43259,0.5643 -0.6964,0.77181 -0.4757,0.37419 -0.57695,0.37696 -12.3048,0.33685 -6.50384,-0.0223 -13.1327,-0.0607 -14.73082,-0.0855 z m 26.20134,-0.70157 c 0.22199,-0.15549 0.40362,-0.44634 0.40362,-0.64633 0,-0.2 0.0724,-0.31887 0.16096,-0.26415 0.18648,0.11525 0.38353,-0.50893 0.36861,-1.16767 -0.008,-0.34902 -0.0388,-0.38199 -0.13373,-0.14255 -0.14979,0.37796 -0.068,-26.99801 0.12172,-40.7183 0.14889,-10.7697 0.15276,-10.71876 -0.84407,-11.09902 -0.59097,-0.22544 -4.84995,-0.21895 -16.01783,0.0244 -4.54464,0.099 -19.05024,0.38388 -32.234673,0.63301 -29.659333,0.56043 -31.270366,0.59937 -32.036496,0.77423 -0.794734,0.18139 -1.235636,0.78995 -1.478003,2.04002 -0.184251,0.95033 -0.601387,43.3918 -0.428225,43.56978 0.04049,0.0416 0.08984,-0.65302 0.109661,-1.54364 0.01982,-0.89061 0.08112,0.27933 0.136203,2.59986 l 0.100161,4.21916 0.586944,0.58658 0.586944,0.58658 11.762113,0.15159 c 41.960101,0.54079 49.814871,0.62819 58.620881,0.6523 8.6153,0.0236 9.86081,-0.008 10.21521,-0.25585 z m -14.21549,-2.26803 c -5.49351,-0.0702 -18.93673,-0.22428 -29.87382,-0.34248 -26.940591,-0.29115 -34.137779,-0.44916 -34.800162,-0.76404 -0.597243,-0.28392 -1.181787,-1.73519 -1.150964,-2.85755 0.0099,-0.3622 0.07386,-9.93396 0.142036,-21.27058 0.135179,-22.47931 0.07435,-21.29567 1.145149,-22.28123 0.425791,-0.39189 0.564127,-0.40088 9.058192,-0.58873 4.744189,-0.10491 13.610822,-0.27566 19.703629,-0.37942 6.09281,-0.10377 17.1661,-0.30824 24.60731,-0.45438 17.7761,-0.3491 23.06172,-0.35139 23.52838,-0.0102 0.34544,0.25257 0.3535,0.73853 0.40121,24.18534 l 0.0487,23.92759 -0.49128,0.51278 c -0.42381,0.44237 -0.61753,0.5085 -1.41072,0.48162 -0.50569,-0.0171 -5.41413,-0.0886 -10.90765,-0.15872 z m 11.92033,-0.71209 c 0.2358,-0.19645 0.34292,-0.35989 0.23805,-0.36321 -0.10488,-0.003 -0.29249,0.0961 -0.41692,0.22096 -0.14511,0.14561 -1.05348,0.26339 -2.53337,0.32849 l -2.30714,0.10149 2.29533,0.0347 c 2.04617,0.0309 2.34186,-0.004 2.72405,-0.32244 z m -11.87493,0.0397 c -1.67302,-0.03 -4.4107,-0.03 -6.08372,0 -1.67303,0.03 -0.30419,0.0545 3.04186,0.0545 3.34605,0 4.71489,-0.0245 3.04186,-0.0545 z m -15.42509,-0.18146 c -1.46709,-0.0305 -3.91874,-0.0306 -5.44812,-1.4e-4 -1.52937,0.0304 -0.32903,0.0554 2.66744,0.0554 2.99646,8e-5 4.24777,-0.0248 2.78068,-0.0553 z m -14.26712,-0.18173 c -1.62309,-0.0301 -4.279042,-0.0301 -5.902126,0 -1.623083,0.0301 -0.295106,0.0547 2.951062,0.0547 3.246164,0 4.574144,-0.0246 2.951064,-0.0547 z m -14.982315,-0.18168 c -1.872789,-0.0295 -4.937352,-0.0295 -6.810141,0 -1.872789,0.0295 -0.340507,0.0537 3.405071,0.0537 3.745577,0 5.277859,-0.0241 3.40507,-0.0537 z m 44.095005,-0.14223 c -0.19388,-0.14664 -0.43905,-0.26373 -0.54481,-0.26019 -0.10576,0.004 0.012,0.12323 0.26172,0.26597 0.58826,0.33628 0.73147,0.33336 0.28309,-0.006 z m 1.08963,0 c -0.19389,-0.14664 -0.43905,-0.26373 -0.54482,-0.26019 -0.10576,0.004 0.012,0.12323 0.26172,0.26597 0.58826,0.33628 0.73147,0.33336 0.2831,-0.006 z m 1.5178,0.21198 c -0.0416,-0.0364 -0.27997,-0.1635 -0.52967,-0.28242 -0.42809,-0.20388 -0.43389,-0.2001 -0.1015,0.0662 0.2893,0.23177 0.88039,0.43427 0.63117,0.21622 z m 1.01396,-0.1154 c -0.0617,-0.0999 -0.20957,-0.18035 -0.32853,-0.17882 -0.12995,0.002 -0.10756,0.073 0.0561,0.17882 0.34889,0.22547 0.41175,0.22547 0.27241,0 z m 0.91871,-0.0966 c -0.19389,-0.14664 -0.43905,-0.26373 -0.54481,-0.26019 -0.10577,0.004 0.012,0.12323 0.26171,0.26597 0.58826,0.33628 0.73147,0.33336 0.2831,-0.006 z m 1.16973,0.0966 c -0.14982,-0.0968 -0.35413,-0.17604 -0.45401,-0.17604 -0.0999,0 -0.059,0.0792 0.0908,0.17604 0.14983,0.0968 0.35413,0.17604 0.45401,0.17604 0.0999,0 0.059,-0.0792 -0.0908,-0.17604 z m 1.18043,0 c -0.0617,-0.0999 -0.20957,-0.18035 -0.32853,-0.17882 -0.12996,0.002 -0.10756,0.073 0.0561,0.17882 0.34888,0.22547 0.41175,0.22547 0.27241,0 z m 1.18042,0.11023 c 0,-0.0393 -0.12683,-0.12004 -0.28184,-0.17952 -0.16161,-0.062 -0.23451,-0.0316 -0.17088,0.0714 0.10664,0.17256 0.45272,0.25524 0.45272,0.10815 z m 2.36085,0 c 0,-0.0393 -0.12683,-0.12004 -0.28184,-0.17952 -0.16161,-0.062 -0.23451,-0.0316 -0.17088,0.0714 0.10664,0.17256 0.45272,0.25524 0.45272,0.10815 z m -69.951396,-0.28487 -3.938423,-0.0978 -0.571281,-0.54481 -0.57128,-0.54482 0.217331,0.48091 c 0.119532,0.26449 0.391882,0.56542 0.605222,0.66872 0.235851,0.1142 1.918318,0.17757 4.292372,0.16167 l 3.904481,-0.0262 z m 45.899586,-0.10354 c -0.19388,-0.14665 -0.47991,-0.25999 -0.63561,-0.25188 -0.15571,0.008 -0.0379,0.12701 0.26171,0.26422 0.70403,0.32236 0.81172,0.31881 0.3739,-0.0123 z m 2.44096,0.19377 c 0,-0.0464 -0.18387,-0.17352 -0.40861,-0.28242 -0.39238,-0.19015 -0.3946,-0.1868 -0.0561,0.0844 0.37052,0.29685 0.4647,0.33698 0.4647,0.19801 z m 0.99882,-0.0972 c -0.0617,-0.0999 -0.20957,-0.18035 -0.32852,-0.17882 -0.12996,0.002 -0.10756,0.073 0.0561,0.17882 0.34888,0.22546 0.41175,0.22546 0.2724,0 z m 1.18043,0.0972 c 0,-0.0464 -0.18388,-0.17352 -0.40861,-0.28242 -0.39238,-0.19015 -0.39461,-0.1868 -0.0561,0.0844 0.37052,0.29685 0.46471,0.33698 0.46471,0.19801 z m 1.08962,-0.0972 c -0.14982,-0.0968 -0.35413,-0.17604 -0.45401,-0.17604 -0.0999,0 -0.059,0.0792 0.0908,0.17604 0.14982,0.0968 0.35413,0.17604 0.45401,0.17604 0.0999,0 0.059,-0.0792 -0.0908,-0.17604 z m 1.08962,0 c -0.14982,-0.0968 -0.35413,-0.17604 -0.45401,-0.17604 -0.0999,0 -0.059,0.0792 0.0908,0.17604 0.14983,0.0968 0.35413,0.17604 0.45401,0.17604 0.0999,0 0.059,-0.0792 -0.0908,-0.17604 z m 2.17925,0 c -0.14983,-0.0968 -0.35413,-0.17604 -0.45401,-0.17604 -0.0999,0 -0.059,0.0792 0.0908,0.17604 0.14982,0.0968 0.35413,0.17604 0.45401,0.17604 0.0999,0 0.059,-0.0792 -0.0908,-0.17604 z m 1.08962,0 c -0.14982,-0.0968 -0.35413,-0.17604 -0.45401,-0.17604 -0.0999,0 -0.059,0.0792 0.0908,0.17604 0.14982,0.0968 0.35413,0.17604 0.45401,0.17604 0.0999,0 0.059,-0.0792 -0.0908,-0.17604 z m 1.08962,0 c -0.14982,-0.0968 -0.35413,-0.17604 -0.45401,-0.17604 -0.0999,0 -0.059,0.0792 0.0908,0.17604 0.14983,0.0968 0.35413,0.17604 0.45401,0.17604 0.0999,0 0.059,-0.0792 -0.0908,-0.17604 z m 1.27123,0 c -0.14983,-0.0968 -0.35413,-0.17604 -0.45401,-0.17604 -0.0999,0 -0.059,0.0792 0.0908,0.17604 0.14982,0.0968 0.35413,0.17604 0.45401,0.17604 0.0999,0 0.059,-0.0792 -0.0908,-0.17604 z m 12.71086,-0.14692 c -7.7e-4,-0.069 -0.32765,-0.3118 -0.72641,-0.53952 -0.72235,-0.41251 -0.72502,-0.41264 -0.72502,-0.0366 0,0.25357 0.19307,0.45857 0.58842,0.6248 0.56378,0.23706 0.86601,0.22002 0.86301,-0.0486 z m -40.85945,0.0625 c 0,-0.0464 -0.18387,-0.17352 -0.40861,-0.28243 -0.39237,-0.19014 -0.3946,-0.18679 -0.0561,0.0844 0.37052,0.29685 0.4647,0.33698 0.4647,0.19802 z m 0.90802,-0.188 c -0.12434,-0.14982 -0.31822,-0.2698 -0.43084,-0.26663 -0.11263,0.003 -0.0461,0.12576 0.14774,0.27241 0.45286,0.34252 0.57018,0.34013 0.2831,-0.006 z m 1.4377,0.20621 c -0.0416,-0.0364 -0.27997,-0.16351 -0.52968,-0.28243 -0.42809,-0.20388 -0.43388,-0.2001 -0.10149,0.0662 0.28929,0.23178 0.88039,0.43427 0.63117,0.21623 z m 0.84304,-0.21198 c -0.19388,-0.14665 -0.43905,-0.26374 -0.54481,-0.2602 -0.10576,0.004 0.012,0.12323 0.26171,0.26597 0.58826,0.33628 0.73148,0.33336 0.2831,-0.006 z m 1.3362,0.22679 c -0.0416,-0.0283 -0.23911,-0.17128 -0.43887,-0.31781 -0.33597,-0.24643 -0.34452,-0.24258 -0.11397,0.0514 0.13708,0.1748 0.33458,0.31781 0.43888,0.31781 0.1043,0 0.15558,-0.0231 0.11396,-0.0514 z m 1.01396,-0.13022 c -0.0617,-0.0999 -0.19396,-0.1816 -0.29384,-0.1816 -0.0999,0 -0.1311,0.0817 -0.0694,0.1816 0.0617,0.0999 0.19396,0.18161 0.29384,0.18161 0.0999,0 0.1311,-0.0817 0.0694,-0.18161 z m 1.18042,0 c -0.14982,-0.0968 -0.35413,-0.17604 -0.45401,-0.17604 -0.0999,0 -0.059,0.0792 0.0908,0.17604 0.14983,0.0968 0.35413,0.17605 0.45401,0.17605 0.0999,0 0.059,-0.0792 -0.0908,-0.17605 z m 1.08962,0 c -0.14982,-0.0968 -0.35412,-0.17604 -0.454,-0.17604 -0.0999,0 -0.059,0.0792 0.0908,0.17604 0.14982,0.0968 0.35412,0.17605 0.45401,0.17605 0.0999,0 0.059,-0.0792 -0.0908,-0.17605 z m 1.08963,0 c -0.14983,-0.0968 -0.35413,-0.17604 -0.45401,-0.17604 -0.0999,0 -0.059,0.0792 0.0908,0.17604 0.14982,0.0968 0.35413,0.17605 0.45401,0.17605 0.0999,0 0.059,-0.0792 -0.0908,-0.17605 z m 1.08962,0 c -0.14982,-0.0968 -0.35413,-0.17604 -0.45401,-0.17604 -0.0999,0 -0.059,0.0792 0.0908,0.17604 0.14983,0.0968 0.35413,0.17605 0.45401,0.17605 0.0999,0 0.059,-0.0792 -0.0908,-0.17605 z m 1.08962,0 c -0.35565,-0.22983 -0.59605,-0.22983 -0.45401,0 0.0617,0.0999 0.25043,0.18036 0.41933,0.17883 0.26465,-0.002 0.26944,-0.0271 0.0347,-0.17883 z m 1.18043,0 c -0.0617,-0.0999 -0.25043,-0.18035 -0.41933,-0.17882 -0.26465,0.002 -0.26944,0.0271 -0.0347,0.17882 0.35565,0.22984 0.59605,0.22984 0.45401,0 z m 1.08962,0 c -0.0617,-0.0999 -0.19396,-0.1816 -0.29384,-0.1816 -0.0999,0 -0.1311,0.0817 -0.0694,0.1816 0.0617,0.0999 0.19396,0.18161 0.29384,0.18161 0.0999,0 0.1311,-0.0817 0.0694,-0.18161 z m 1.18042,0.11024 c 0,-0.0393 -0.12682,-0.12004 -0.28183,-0.17953 -0.16162,-0.062 -0.23451,-0.0316 -0.17089,0.0714 0.10665,0.17257 0.45272,0.25524 0.45272,0.10816 z m 2.08845,-0.11024 c -0.0617,-0.0999 -0.19396,-0.1816 -0.29384,-0.1816 -0.0999,0 -0.1311,0.0817 -0.0694,0.1816 0.0617,0.0999 0.19396,0.18161 0.29384,0.18161 0.0999,0 0.1311,-0.0817 0.0694,-0.18161 z m -31.406764,-0.27818 c -0.193885,-0.14664 -0.43905,-0.26373 -0.544812,-0.26019 -0.105762,0.004 0.01201,0.12322 0.261715,0.26597 0.588261,0.33628 0.731472,0.33336 0.283097,-0.006 z m 1.169733,0.006 c -0.249705,-0.14275 -0.535731,-0.25954 -0.635613,-0.25954 -0.09988,0 0.0227,0.11679 0.272405,0.25954 0.249706,0.14274 0.535732,0.25953 0.635614,0.25953 0.09988,0 -0.0227,-0.11679 -0.272406,-0.25953 z m 1.271226,0.18799 c 0,-0.0464 -0.183873,-0.17352 -0.408608,-0.28242 -0.392378,-0.19015 -0.394606,-0.1868 -0.05609,0.0844 0.370519,0.29685 0.4647,0.33698 0.4647,0.19801 z m 1.089623,0 c 0,-0.0464 -0.183874,-0.17352 -0.408608,-0.28242 -0.392378,-0.19015 -0.394606,-0.1868 -0.05609,0.0844 0.370519,0.29685 0.4647,0.33698 0.4647,0.19801 z m 1.089623,-0.0972 c -0.149823,-0.0968 -0.354128,-0.17604 -0.45401,-0.17604 -0.09988,0 -0.05902,0.0792 0.0908,0.17604 0.149823,0.0968 0.354128,0.17604 0.45401,0.17604 0.09988,0 0.05902,-0.0792 -0.0908,-0.17604 z m 1.089622,0 c -0.149823,-0.0968 -0.354127,-0.17604 -0.454009,-0.17604 -0.09988,0 -0.05902,0.0792 0.0908,0.17604 0.149823,0.0968 0.354127,0.17604 0.454009,0.17604 0.09988,0 0.05902,-0.0792 -0.0908,-0.17604 z m 1.089623,0 c -0.149823,-0.0968 -0.354127,-0.17604 -0.454009,-0.17604 -0.09988,0 -0.05902,0.0792 0.0908,0.17604 0.149823,0.0968 0.354127,0.17604 0.454009,0.17604 0.09988,0 0.05902,-0.0792 -0.0908,-0.17604 z m 1.089623,0 c -0.355648,-0.22984 -0.596057,-0.22984 -0.45401,0 0.06173,0.0999 0.250428,0.18035 0.419327,0.17882 0.264646,-0.002 0.26944,-0.0271 0.03468,-0.17882 z m 1.089622,0 c -0.149823,-0.0968 -0.354127,-0.17604 -0.454009,-0.17604 -0.09988,0 -0.05902,0.0792 0.0908,0.17604 0.149823,0.0968 0.354127,0.17604 0.454009,0.17604 0.09988,0 0.05902,-0.0792 -0.0908,-0.17604 z m 1.089623,0 c -0.149823,-0.0968 -0.354127,-0.17604 -0.454009,-0.17604 -0.09988,0 -0.05902,0.0792 0.0908,0.17604 0.149823,0.0968 0.354127,0.17604 0.454009,0.17604 0.09988,0 0.05902,-0.0792 -0.0908,-0.17604 z m 1.089623,0 c -0.149823,-0.0968 -0.354128,-0.17604 -0.45401,-0.17604 -0.09988,0 -0.05902,0.0792 0.0908,0.17604 0.149823,0.0968 0.354128,0.17604 0.45401,0.17604 0.09988,0 0.05902,-0.0792 -0.0908,-0.17604 z m 1.271226,0.11023 c 0,-0.0393 -0.126827,-0.12004 -0.281838,-0.17952 -0.161613,-0.062 -0.234508,-0.0316 -0.170886,0.0714 0.106649,0.17256 0.452724,0.25524 0.452724,0.10815 z m 1.089627,0 c 0,-0.0393 -0.12683,-0.12004 -0.28184,-0.17952 -0.16162,-0.062 -0.23451,-0.0316 -0.17089,0.0714 0.10665,0.17256 0.45273,0.25524 0.45273,0.10815 z m -29.318323,-0.38841 c -0.193884,-0.14665 -0.439049,-0.26373 -0.544811,-0.2602 -0.105763,0.004 0.01201,0.12323 0.261714,0.26598 0.588261,0.33628 0.731472,0.33335 0.283097,-0.006 z m 1.271226,0 c -0.193884,-0.14665 -0.47991,-0.26373 -0.635613,-0.2602 -0.181457,0.004 -0.120095,0.0996 0.170913,0.26598 0.594214,0.33968 0.916148,0.33568 0.4647,-0.006 z m 1.089623,0 c -0.193884,-0.14665 -0.439049,-0.26403 -0.544811,-0.26086 -0.105763,0.003 -0.03366,0.12576 0.160221,0.27241 0.193884,0.14665 0.439049,0.26403 0.544812,0.26086 0.105762,-0.003 0.03366,-0.12576 -0.160222,-0.27241 z m 1.169733,0.19377 c 0,-0.0464 -0.183873,-0.17352 -0.408608,-0.28243 -0.392378,-0.19014 -0.394606,-0.18679 -0.05609,0.0844 0.370519,0.29684 0.4647,0.33698 0.4647,0.19801 z m 0.827909,-0.19377 c -0.193885,-0.14665 -0.43905,-0.26373 -0.544812,-0.2602 -0.105762,0.004 0.01201,0.12323 0.261715,0.26598 0.588261,0.33628 0.731472,0.33335 0.283097,-0.006 z m 1.351337,0.0966 c -0.149823,-0.0968 -0.354128,-0.17605 -0.45401,-0.17605 -0.09988,0 -0.05902,0.0792 0.0908,0.17605 0.149823,0.0968 0.354128,0.17604 0.45401,0.17604 0.09988,0 0.05902,-0.0792 -0.0908,-0.17604 z m 1.256093,0.1154 c -0.04162,-0.0364 -0.279973,-0.1635 -0.529678,-0.28243 -0.428089,-0.20387 -0.433883,-0.20009 -0.101493,0.0662 0.289294,0.23177 0.88039,0.43426 0.631171,0.21622 z m 0.923152,-0.1154 c -0.149823,-0.0968 -0.354127,-0.17605 -0.454009,-0.17605 -0.09988,0 -0.05902,0.0792 0.0908,0.17605 0.149823,0.0968 0.354127,0.17604 0.454009,0.17604 0.09988,0 0.05902,-0.0792 -0.0908,-0.17604 z m 1.089623,0 c -0.149823,-0.0968 -0.354128,-0.17605 -0.45401,-0.17605 -0.09988,0 -0.05902,0.0792 0.0908,0.17605 0.149823,0.0968 0.354128,0.17604 0.45401,0.17604 0.09988,0 0.05902,-0.0792 -0.0908,-0.17604 z m 1.089622,0 c -0.149823,-0.0968 -0.354127,-0.17605 -0.454009,-0.17605 -0.09988,0 -0.05902,0.0792 0.0908,0.17605 0.149823,0.0968 0.354127,0.17604 0.454009,0.17604 0.09988,0 0.05902,-0.0792 -0.0908,-0.17604 z m 1.271227,0 c -0.149823,-0.0968 -0.394988,-0.17605 -0.544811,-0.17605 -0.242139,0 -0.242139,0.0196 0,0.17605 0.149823,0.0968 0.394988,0.17604 0.544811,0.17604 0.242138,0 0.242138,-0.0196 0,-0.17604 z m 1.089623,0 c -0.149824,-0.0968 -0.354128,-0.17605 -0.45401,-0.17605 -0.09988,0 -0.05902,0.0792 0.0908,0.17605 0.149823,0.0968 0.354127,0.17604 0.454009,0.17604 0.09988,0 0.05902,-0.0792 -0.0908,-0.17604 z m 1.089622,0 c -0.149823,-0.0968 -0.354127,-0.17605 -0.454009,-0.17605 -0.09988,0 -0.05902,0.0792 0.0908,0.17605 0.149823,0.0968 0.354127,0.17604 0.454009,0.17604 0.09988,0 0.05902,-0.0792 -0.0908,-0.17604 z m 1.089623,0 c -0.149823,-0.0968 -0.354127,-0.17605 -0.45401,-0.17605 -0.09988,0 -0.05902,0.0792 0.0908,0.17605 0.149823,0.0968 0.354128,0.17604 0.45401,0.17604 0.09988,0 0.05902,-0.0792 -0.0908,-0.17604 z m 45.49175,-0.20679 c -23.87562,-0.36 -53.461062,-0.61033 -53.285579,-0.45087 0.04162,0.0378 6.654265,0.12188 14.694772,0.1868 8.040507,0.0649 15.354597,0.1542 16.253537,0.19839 0.89894,0.0442 7.7227,0.13184 15.16392,0.19477 7.44121,0.0629 13.54292,0.12659 13.55935,0.14146 0.0164,0.0149 0.50676,-0.011 1.08963,-0.0574 0.58286,-0.0464 -2.78118,-0.14236 -7.47563,-0.21314 z m -62.380901,0.0252 c -0.149824,-0.0968 -0.354128,-0.17604 -0.45401,-0.17604 -0.09988,0 -0.05902,0.0792 0.0908,0.17604 0.149823,0.0968 0.354127,0.17605 0.454009,0.17605 0.09988,0 0.05902,-0.0792 -0.0908,-0.17605 z m 1.089622,0 c -0.355648,-0.22983 -0.596056,-0.22983 -0.454009,0 0.06173,0.0999 0.250427,0.18036 0.419326,0.17883 0.264647,-0.002 0.26944,-0.0271 0.03468,-0.17883 z m 70.734669,0 c 0.0617,-0.0999 -0.0152,-0.1816 -0.17088,-0.1816 -0.15572,0 -0.28313,0.0817 -0.28313,0.1816 0,0.0999 0.0769,0.18161 0.17089,0.18161 0.094,0 0.22139,-0.0817 0.28312,-0.18161 z m 2.08845,0.0955 c 0,-0.0474 -0.24517,-0.21292 -0.54482,-0.36787 -0.68299,-0.35319 -0.72431,-0.19979 -0.0454,0.16853 0.5707,0.30961 0.59022,0.3162 0.59022,0.19934 z m 0.1816,-0.64295 c 0,-0.21407 -1.07283,-0.90367 -1.40743,-0.90467 -0.44561,-0.001 -0.2158,0.35977 0.45401,0.71337 0.78371,0.41374 0.95342,0.44779 0.95342,0.1913 z m -0.0443,-0.95075 c -0.041,-0.12485 -0.34591,-0.41088 -0.6776,-0.63561 -0.62276,-0.42195 -0.33059,-0.59588 0.3706,-0.22062 0.1932,0.1034 0.34861,0.12383 0.34536,0.0454 -0.006,-0.13458 -1.29088,-0.81317 -1.37704,-0.72701 -0.0222,0.0222 -0.0953,0.25917 -0.1624,0.5266 -0.10772,0.42919 -0.0402,0.52943 0.57545,0.85422 0.81872,0.43193 1.02753,0.46735 0.92563,0.15702 z M 140.8317,151.247 c 0.0607,-0.57432 0.16283,-8.56262 0.22697,-17.75177 0.11198,-16.04578 0.26121,-22.72429 0.53719,-24.0414 l 0.12876,-0.61451 -7.87854,0.12174 c -23.02085,0.35571 -48.916659,0.83855 -50.192225,0.93587 -0.799057,0.061 -4.612794,0.16533 -8.474971,0.23193 -3.862178,0.0666 -7.090185,0.18912 -7.17335,0.27228 -0.161372,0.16135 -0.300515,7.95996 -0.513291,28.76851 l -0.132302,12.93858 23.129269,0.0468 c 12.7211,0.0257 29.22741,0.0669 36.68069,0.0915 l 13.55143,0.0447 z m -12.43241,-11.4784 -0.53677,-0.53677 0.0513,-7.37804 0.0513,-7.37804 0.59307,-0.52976 c 0.77874,-0.69561 1.61703,-0.70957 2.41256,-0.0402 l 0.58184,0.48959 -0.0925,7.09237 c -0.0999,7.65714 -0.15254,8.08455 -1.054,8.55071 -0.79682,0.41206 -1.40699,0.33 -2.00687,-0.26988 z m 1.57422,-0.45302 c 0.34256,-0.25593 0.34141,-0.26058 -0.0407,-0.16445 -0.63053,0.15863 -0.95905,-0.56753 -1.13071,-2.49935 l -0.15139,-1.70372 -0.025,1.95224 c -0.0221,1.7296 0.0164,1.99366 0.33824,2.31545 0.43321,0.43322 0.54808,0.44458 1.00951,0.0998 z m 0.77145,-0.37704 c -0.0559,-0.0559 -0.15746,0.0449 -0.22565,0.22398 -0.0986,0.25882 -0.0777,0.27968 0.10166,0.10166 0.12411,-0.12319 0.17991,-0.26973 0.12399,-0.32564 z m 0.16026,-1.13022 c -0.0457,-0.17479 -0.0831,-0.0318 -0.0831,0.31781 0,0.34958 0.0374,0.4926 0.0831,0.3178 0.0457,-0.17479 0.0457,-0.46082 0,-0.63561 z m -1.21481,-13.50438 c 0.41336,-0.1139 0.41859,-0.12672 0.0584,-0.1432 -0.58863,-0.0269 -0.96842,0.46017 -0.95178,1.22069 l 0.0146,0.66804 0.21239,-0.81021 c 0.16251,-0.61992 0.31903,-0.83961 0.6664,-0.93532 z m 13.65142,26.11974 c -0.10165,-0.1215 -0.43626,-0.36853 -0.74359,-0.54897 -0.53882,-0.31637 -0.55875,-0.31637 -0.55828,0 2.9e-4,0.19211 0.28251,0.48086 0.68101,0.69677 0.66861,0.36224 0.98463,0.28701 0.62086,-0.1478 z m 0.15047,-0.74777 c 0,-0.13996 -0.2907,-0.42599 -0.64599,-0.63562 -0.76496,-0.45133 -0.80684,-0.45785 -0.80684,-0.12545 0,0.14062 0.2656,0.41988 0.59021,0.62056 0.7203,0.4453 0.86262,0.46849 0.86262,0.14051 z m -0.0521,-1.0722 c -0.0533,-0.13898 -0.39032,-0.42578 -0.74885,-0.63732 -0.90786,-0.53565 -0.8917,-0.0281 0.0188,0.5906 0.69261,0.47064 0.89775,0.48377 0.73004,0.0467 z m 0.0521,-0.92857 c 0,-0.22757 -1.03766,-1.01363 -1.33806,-1.01363 -0.3364,0 -0.0368,0.5591 0.47544,0.88712 0.69951,0.44798 0.86262,0.4719 0.86262,0.12651 z m -0.001,-0.96823 c -7.9e-4,-0.17962 -0.31665,-0.49784 -0.72641,-0.73184 -0.58663,-0.335 -0.72502,-0.36151 -0.72502,-0.13885 0,0.15135 0.30646,0.47587 0.68101,0.72115 0.83128,0.54437 0.77211,0.53289 0.77042,0.14954 z m 0.001,-1.02629 c 0,-0.13995 -0.2907,-0.42598 -0.64599,-0.63561 -0.76885,-0.45363 -0.80684,-0.45896 -0.80684,-0.11308 0,0.14744 0.30646,0.42985 0.68101,0.62759 0.82958,0.43795 0.77182,0.42888 0.77182,0.1211 z m 0,-0.98332 c 0,-0.19561 -0.29551,-0.49585 -0.72642,-0.73803 -0.6014,-0.33801 -0.72641,-0.35985 -0.72641,-0.12689 0,0.15476 0.30646,0.48207 0.68101,0.72735 0.83265,0.54527 0.77182,0.53443 0.77182,0.13757 z m 0,-1.01745 c 0,-0.23021 -1.0391,-1.01363 -1.34445,-1.01363 -0.26941,0 0.29692,0.73749 0.7588,0.98814 0.61625,0.33443 0.58565,0.3331 0.58565,0.0255 z m 0,-1.07528 c 0,-0.20705 -0.2215,-0.36518 -1.13502,-0.81027 -0.0749,-0.0365 -0.13621,0.0441 -0.13621,0.17911 0,0.13501 0.22474,0.38482 0.49941,0.55512 0.60817,0.37706 0.77182,0.39319 0.77182,0.076 z m -0.0321,-0.94571 c -0.0323,-0.15453 -0.32431,-0.44858 -0.64892,-0.65345 -0.56074,-0.3539 -0.5902,-0.35574 -0.58989,-0.0369 1.8e-4,0.18461 0.22491,0.47118 0.49941,0.63685 0.64294,0.38802 0.81188,0.40023 0.7394,0.0535 z m 0.0321,-0.95112 c 0,-0.17823 -0.23734,-0.46426 -0.52743,-0.63562 -0.63995,-0.37803 -0.7438,-0.38583 -0.7438,-0.0559 0,0.1927 0.82833,0.86877 1.22583,1.00049 0.025,0.008 0.0454,-0.13078 0.0454,-0.309 z m 0,-1.02004 c 0,-0.13996 -0.28603,-0.42323 -0.63561,-0.62949 -0.59107,-0.34874 -0.63562,-0.35231 -0.63562,-0.0509 0,0.24843 0.72631,0.79544 1.22583,0.92323 0.025,0.006 0.0454,-0.1029 0.0454,-0.24285 z m -0.47339,-1.50254 c -0.60639,-0.48522 -0.79784,-0.52519 -0.79784,-0.16655 0,0.31745 1.15204,1.02625 1.25185,0.77021 0.0393,-0.10077 -0.16502,-0.37241 -0.45401,-0.60366 z m 0.4413,-0.52159 c -0.0323,-0.15452 -0.32431,-0.44857 -0.64892,-0.65344 -0.56074,-0.3539 -0.5902,-0.35574 -0.58989,-0.0369 1.8e-4,0.1846 0.22491,0.47118 0.49941,0.63684 0.64294,0.38803 0.81188,0.40024 0.7394,0.0535 z m 0.0321,-0.96112 c 0,-0.2851 -0.20531,-0.4481 -1.13502,-0.90108 -0.0749,-0.0365 -0.13621,0.0555 -0.13621,0.20446 0,0.20418 0.81512,0.87953 1.22583,1.01563 0.025,0.008 0.0454,-0.13528 0.0454,-0.31901 z m -0.0321,-1.03652 c -0.0323,-0.15452 -0.32431,-0.44857 -0.64892,-0.65345 -0.56074,-0.35389 -0.5902,-0.35573 -0.58989,-0.0369 1.8e-4,0.1846 0.22491,0.47118 0.49941,0.63684 0.64294,0.38802 0.81188,0.40024 0.7394,0.0535 z m 0.0321,-0.96112 c 0,-0.28511 -0.20531,-0.4481 -1.13502,-0.90108 -0.0749,-0.0365 -0.13514,0.0426 -0.13383,0.17578 0.001,0.13317 0.26691,0.42093 0.59022,0.63946 0.72652,0.49106 0.67863,0.485 0.67863,0.0858 z m 0,-1.01004 c 0,-0.13996 -0.28603,-0.42322 -0.63561,-0.62949 -0.51362,-0.30303 -0.63562,-0.32339 -0.63562,-0.10607 0,0.14793 0.2656,0.43089 0.59022,0.62881 0.70444,0.42951 0.68101,0.42584 0.68101,0.10675 z m 0,-0.98761 c 0,-0.2851 -0.20531,-0.44809 -1.13502,-0.90107 -0.0749,-0.0365 -0.13621,0.0555 -0.13621,0.20446 0,0.20418 0.81512,0.87952 1.22583,1.01563 0.025,0.008 0.0454,-0.13529 0.0454,-0.31902 z m -0.0481,-1.15634 c -0.0511,-0.12916 -0.34726,-0.38247 -0.65805,-0.56291 -0.54808,-0.31822 -0.56506,-0.31784 -0.56506,0.0125 0,0.20495 0.235,0.45344 0.59022,0.62411 0.6389,0.30698 0.77723,0.29088 0.63289,-0.0737 z m 0.0481,-0.9321 c 0,-0.20705 -0.2215,-0.36518 -1.13502,-0.81027 -0.0749,-0.0365 -0.13621,0.0604 -0.13621,0.21537 0,0.15496 0.22474,0.40366 0.49941,0.55268 0.62679,0.34004 0.77182,0.34797 0.77182,0.0422 z m -0.0481,-1.06554 c -0.0511,-0.12916 -0.34726,-0.38247 -0.65805,-0.56291 -0.54808,-0.31822 -0.56506,-0.31785 -0.56506,0.0125 0,0.20495 0.235,0.45344 0.59022,0.62411 0.6389,0.30698 0.77723,0.29088 0.63289,-0.0737 z m 0.0481,-0.83681 c 0,-0.19786 -0.25404,-0.45072 -0.63561,-0.63268 -0.51891,-0.24745 -0.63562,-0.25669 -0.63562,-0.0503 0,0.19048 0.83097,0.8667 1.22583,0.99755 0.025,0.008 0.0454,-0.13326 0.0454,-0.31452 z m 0,-1.0278 c 0,-0.2255 -0.85,-0.82188 -1.17141,-0.82188 -0.29376,0 -0.0318,0.49466 0.39992,0.75521 0.63781,0.38493 0.77149,0.39648 0.77149,0.0667 z m -0.059,-1.07696 c -0.0572,-0.1489 -0.35327,-0.39969 -0.65805,-0.5573 -0.46899,-0.24253 -0.55416,-0.24656 -0.55416,-0.0262 0,0.23977 1.09375,1.0372 1.24826,0.91008 0.0373,-0.0307 0.0211,-0.17765 -0.0361,-0.32656 z m 0.059,-0.88619 c 0,-0.20678 -0.88221,-0.85637 -1.16304,-0.85637 -0.30032,0 -0.0471,0.49855 0.39122,0.77032 0.60373,0.37431 0.77182,0.39305 0.77182,0.0861 z m -0.059,-1.11145 c -0.0572,-0.14891 -0.35327,-0.39969 -0.65805,-0.55731 -0.52108,-0.26945 -0.55416,-0.26657 -0.55416,0.0484 0,0.19863 0.2402,0.45033 0.59022,0.61851 0.65349,0.31399 0.77622,0.29237 0.62199,-0.10956 z m 0.0568,-0.87994 c -0.001,-0.12486 -0.28726,-0.41163 -0.63561,-0.63729 -0.57415,-0.37191 -0.63337,-0.38009 -0.63337,-0.0875 0,0.17755 0.22474,0.46215 0.49941,0.63245 0.6008,0.37249 0.77255,0.39309 0.76957,0.0923 z m -0.0568,-1.1177 c -0.0572,-0.14891 -0.35327,-0.3997 -0.65805,-0.55731 -0.46731,-0.24165 -0.55416,-0.24593 -0.55416,-0.0273 0,0.25257 1.09886,1.07262 1.2435,0.92799 0.0399,-0.0399 0.0258,-0.19444 -0.0313,-0.34335 z m 0.059,-0.88619 c 0,-0.20679 -0.88221,-0.85637 -1.16304,-0.85637 -0.3168,0 -0.0392,0.57065 0.39122,0.80414 0.62245,0.33768 0.77182,0.34779 0.77182,0.0522 z m -0.47339,-1.52375 c -0.61437,-0.49161 -0.79784,-0.52545 -0.79784,-0.14717 0,0.35928 1.15215,1.07758 1.25185,0.78047 0.0393,-0.11707 -0.16502,-0.40206 -0.45401,-0.6333 z m 0.47339,-0.50838 c 0,-0.2986 -1.05556,-0.91713 -1.2427,-0.7282 -0.11964,0.12079 0.85065,0.99334 1.1065,0.99504 0.0749,4.9e-4 0.1362,-0.11959 0.1362,-0.26684 z m -0.47339,-1.48926 c -0.60592,-0.48485 -0.79784,-0.52518 -0.79784,-0.16768 0,0.34102 1.15567,1.07581 1.25185,0.79595 0.0393,-0.11431 -0.16502,-0.39703 -0.45401,-0.62827 z m 0.47339,-0.49522 c 0,-0.34102 -1.15567,-1.0758 -1.25185,-0.79594 -0.0685,0.19918 0.8335,1.04775 1.11565,1.04961 0.0749,5e-4 0.1362,-0.11365 0.1362,-0.25367 z m 0,-0.9775 c 0,-0.17822 -0.24517,-0.46887 -0.54481,-0.64588 -0.45529,-0.26894 -0.54481,-0.27786 -0.54481,-0.0543 0,0.14714 0.22473,0.4352 0.49941,0.64013 0.61233,0.45685 0.59021,0.4546 0.59021,0.0601 z m 0,-1.02561 c 0,-0.14302 -0.24517,-0.43461 -0.54481,-0.64797 -0.54209,-0.38601 -0.54481,-0.3861 -0.54481,-0.0182 0,0.21664 0.20682,0.48198 0.49941,0.64071 0.62172,0.33729 0.59021,0.33593 0.59021,0.0254 z m 0,-1.0811 c 0,-0.22101 -0.73073,-0.8381 -0.99243,-0.8381 -0.26129,0 -0.0495,0.55758 0.30642,0.80692 0.49831,0.34903 0.68601,0.35756 0.68601,0.0312 z m -0.001,-1.06511 c -6.3e-4,-0.12485 -0.24579,-0.36621 -0.54481,-0.53636 -0.43882,-0.2497 -0.54366,-0.26044 -0.54366,-0.0557 0,0.24617 0.66338,0.81907 0.94842,0.81907 0.0777,0 0.14068,-0.10215 0.14005,-0.22701 z m 0.10398,-0.81714 c -0.0257,-0.17475 -0.30444,-0.4683 -0.61954,-0.65233 -0.47995,-0.28031 -0.57291,-0.29058 -0.57291,-0.0633 0,0.19962 0.94266,1.00246 1.20975,1.03031 0.0161,0.002 0.008,-0.13992 -0.0173,-0.31467 z m 0.0788,-1.02636 c 0,-0.13995 -0.28602,-0.42322 -0.63561,-0.62949 -0.57594,-0.33981 -0.63558,-0.34576 -0.63529,-0.0633 1.8e-4,0.17142 0.22491,0.44722 0.49941,0.61288 0.63266,0.38182 0.77149,0.3962 0.77149,0.0799 z m -0.0443,-1.06216 c -0.041,-0.12485 -0.3134,-0.24867 -0.60534,-0.27515 l -0.53081,-0.0481 0.45401,0.26871 c 0.56227,0.3328 0.7792,0.35015 0.68214,0.0546 z m -1.04535,-1.04422 c 0,-0.19976 -0.0817,-0.36321 -0.1816,-0.36321 -0.0999,0 -0.18161,0.16345 -0.18161,0.36321 0,0.19977 0.0817,0.36321 0.18161,0.36321 0.0999,0 0.1816,-0.16344 0.1816,-0.36321 z m 0.97369,-0.0908 c -0.0575,-0.14982 -0.21837,-0.27241 -0.35751,-0.27241 -0.36237,0 -0.31278,0.32095 0.0648,0.41963 0.17479,0.0457 0.33567,0.0925 0.3575,0.10412 0.0218,0.0116 -0.007,-0.10152 -0.0648,-0.25134 z m 0.11593,-0.81722 c 0,-0.0999 -0.24998,-0.1816 -0.55553,-0.1816 -0.3241,0 -0.50877,0.0756 -0.44329,0.1816 0.0617,0.0999 0.31172,0.18161 0.55553,0.18161 0.24381,0 0.44329,-0.0817 0.44329,-0.18161 z m -63.288913,-0.18393 c 4.994104,-0.10226 16.80289,-0.34769 26.241743,-0.54542 9.43886,-0.19772 21.69126,-0.44235 27.22756,-0.54361 5.53629,-0.10126 10.1059,-0.22402 10.15467,-0.27279 0.0488,-0.0488 -0.76258,-0.0882 -1.80302,-0.0877 -3.16221,0.002 -31.8644,0.55116 -47.383453,0.90715 -4.145106,0.0951 -11.745224,0.22727 -16.889151,0.29376 -5.143927,0.0665 -9.516038,0.18583 -9.715802,0.26519 -0.508658,0.2021 1.628436,0.19918 12.167453,-0.0166 z m 67.376763,47.82266 c 0.1029,-1.0102 -0.1413,-0.44458 -0.32757,0.75868 -0.0791,0.51096 -0.0604,0.63605 0.063,0.42175 0.0965,-0.16757 0.21555,-0.69877 0.26462,-1.18043 z m 0.27064,-50.87289 c 0,-0.18067 -0.11903,-0.48713 -0.26452,-0.68101 -0.23757,-0.3166 -0.24372,-0.28313 -0.0603,0.3285 0.22408,0.74735 0.32485,0.85671 0.32485,0.35251 z m 27.62089,103.79222 c -0.0405,-18.99979 -0.12757,-54.73034 -0.19342,-79.40122 -0.11403,-42.726994 -0.12131,-41.091912 -0.15331,34.4475 -0.0233,55.09419 -0.0921,79.4597 -0.22515,79.81487 l -0.19156,0.51123 0.41857,-0.41365 0.41856,-0.41366 z M 175.22754,30.131287 c -0.0266,-5.875781 -0.0483,-1.121799 -0.0483,10.564405 -1e-5,11.686204 0.0217,16.493662 0.0483,10.683239 0.0266,-5.810423 0.0266,-15.371863 1e-5,-21.247644 z m 5.75228,206.787303 c 0,-2.14746 0.0263,-3.02597 0.0584,-1.95224 0.0321,1.07373 0.0321,2.83075 0,3.90448 -0.0321,1.07373 -0.0584,0.19522 -0.0584,-1.95224 z m 0.0131,-117.58846 c 0,-59.13019 0.0207,-83.292678 0.046,-53.694412 0.0253,29.598266 0.0253,77.977512 0,107.509442 -0.0253,29.53193 -0.046,5.31517 -0.046,-53.81503 z"
       id="path1" /></g></svg>
