<svg xmlns="http://www.w3.org/2000/svg" xml:space="preserve" width="900" height="900" viewBox="0 0 238.125 238.125"><path d="M159.331 234.481c-.892-.097-3.917-.49-6.722-.876-2.804-.385-8.958-1.215-13.675-1.845a8771 8771 0 0 1-20.398-2.738 12532 12532 0 0 0-25.96-3.473c-1.658-.219-5.1-.632-7.65-.918s-5.678-.719-6.953-.961c-1.275-.243-4.717-.749-7.65-1.125-2.932-.376-8.825-1.138-13.096-1.694l-7.765-1.01V11.773l3.063-1.434 3.063-1.433 4.934.298c6.743.408 16.172 1.083 26.954 1.932 4.972.391 11.856.907 15.298 1.147 3.442.239 10.431.76 15.53 1.16 5.1.398 12.088.916 15.53 1.15 7.578.516 25.713 1.845 30.829 2.26l3.708.3.12 105.928c.088 77.216-.02 106.27-.397 107.188-.47 1.143-5.858 4.674-6.808 4.461-.183-.04-1.062-.153-1.955-.25m5.543-2.907 2.106-1.238.117-105.548c.067-60.204-.057-105.548-.289-105.548-.223 0-1.371.539-2.55 1.198l-2.145 1.199-.097 102.76c-.053 56.517-.123 103.51-.156 104.428-.09 2.567-.422 3.071-1.906 2.89-.725-.088-6.012-.783-11.749-1.544a7068 7068 0 0 0-22.947-3.022c-3.06-.398-7.023-.923-8.808-1.167s-6.687-.883-10.894-1.42-9.11-1.17-10.894-1.407l-8.345-1.109c-2.805-.372-6.664-.894-8.576-1.159-3.623-.502-11.783-1.525-18.543-2.326-2.168-.256-4.619-.686-5.447-.955l-1.507-.489V12.607l5.91.315c3.251.174 8.415.512 11.474.752s12.656.96 21.325 1.602c8.669.641 18.37 1.374 21.557 1.628 14.694 1.172 32.857 2.562 42.374 3.243l6.447.46 1.782-1c2.624-1.475 2.482-1.524-6.216-2.126-4.398-.304-12.273-.87-17.5-1.257s-12.32-.904-15.761-1.149c-19.997-1.423-32.461-2.338-37.782-2.775-9.383-.77-24.74-1.867-27.815-1.987l-2.782-.109-2.202 1.292-2.202 1.293v205.82l.58.172c.318.095 3.395.513 6.838.93s7.405.954 8.808 1.193c2.14.365 19.403 2.669 31.291 4.176 3.136.398 15.447 2.05 25.96 3.485a1957 1957 0 0 0 21.326 2.817c5.1.653 10.314 1.35 11.59 1.55 3.095.486 5.095.13 7.628-1.358m-4.152-105.21V22.094l-1.275-.262c-.701-.145-4.508-.476-8.46-.735-3.952-.26-9.689-.682-12.749-.939-10.828-.906-17.264-1.405-26.887-2.085-5.355-.377-12.239-.896-15.299-1.152s-9.943-.782-15.298-1.168c-5.354-.386-12.134-.898-15.066-1.139-2.932-.24-6.948-.558-8.924-.706l-3.593-.27v202.957l4.752.566c6.003.716 9.81 1.2 16.805 2.133 3.06.409 7.023.928 8.808 1.154 1.784.226 5.644.74 8.576 1.144s6.896.924 8.808 1.156 5.876.741 8.808 1.131c5.196.692 20.382 2.708 26.424 3.508 1.658.22 5.725.733 9.04 1.14 3.315.409 7.8 1.021 9.967 1.362 2.167.34 4.306.647 4.752.681l.811.063zm-33.841 15.256c-5.227-.7-18.996-2.468-30.597-3.927l-21.093-2.654-1.043-1.137-1.043-1.136.007-20.025c.005-15.333.146-20.295.6-21.183l.592-1.159 6.47.062c3.559.035 10.33.3 15.047.591 4.717.29 16.086.948 25.265 1.46l16.689.93 1.159.847 1.159.846.12 22.636.12 22.635-1.25 1.305c-.687.718-1.576 1.277-1.974 1.243-.399-.034-5.001-.635-10.228-1.334m11.694-1.038c.46-.813.563-5.927.466-23.193l-.125-22.15-1.034-.423c-.569-.233-6.875-.746-14.015-1.141-7.139-.395-20.841-1.165-30.45-1.71-9.608-.546-17.796-.868-18.195-.714l-.726.278v20.849c0 14.665.151 20.942.51 21.163.28.174 6.174 1.04 13.096 1.926s20.305 2.611 29.739 3.834c20.572 2.669 19.97 2.631 20.734 1.281m-14.476-3.357c-4.462-.594-16.77-2.148-27.351-3.454s-19.708-2.573-20.282-2.814l-1.043-.438.006-17.278c.007-17.383.104-19.133 1.083-19.502 1.39-.524 58.245 2.412 59.066 3.05.457.355.558 4.89.463 20.907l-.12 20.452-1.855.078c-1.02.042-5.505-.408-9.967-1.001M134.578 99.1c-.107-.106-.84.14-1.628.548l-1.434.741V136.5l1.507.39 1.507.391.12-18.992c.067-10.446.035-19.08-.072-19.187zm-4.452 19.39v-17.98l.81-.71c.447-.39 1.436-1.028 2.198-1.418l1.385-.708-2.08-.257c-1.145-.14-6.88-.475-12.744-.742s-15.214-.713-20.778-.991c-9.92-.497-14.074-.358-6.942.231 6.832.565 29.116 2.641 33.63 3.134 2.487.272 4.52.702 4.52.958 0 .281-.774.352-1.97.178-1.85-.267-7.104-.747-26.076-2.38a1119 1119 0 0 1-10.199-.912c-1.275-.13-4.612-.446-7.417-.703-2.805-.258-5.64-.58-6.3-.717l-1.2-.248-.306 10.526c-.169 5.79-.307 13.603-.307 17.364v6.838l1.739.28c.956.153 12.586 1.631 25.844 3.284 13.259 1.654 24.42 3.074 24.802 3.157s.852.071 1.043-.026c.191-.098.348-8.27.348-18.158" style="fill:#000;stroke-width:1.75212"/></svg>