<?xml version="1.0" encoding="UTF-8" standalone="no"?>
<!-- Created with Inkscape (http://www.inkscape.org/) -->

<svg
   width="960"
   height="960"
   viewBox="0 0 253.99999 254"
   version="1.1"
   id="svg1"
   xml:space="preserve"
   inkscape:version="1.4.4 (dcaf3e7, 2026-05-05)"
   sodipodi:docname="icon2gang.svg"
   xmlns:inkscape="http://www.inkscape.org/namespaces/inkscape"
   xmlns:sodipodi="http://sodipodi.sourceforge.net/DTD/sodipodi-0.dtd"
   xmlns="http://www.w3.org/2000/svg"
   xmlns:svg="http://www.w3.org/2000/svg"><sodipodi:namedview
     id="namedview1"
     pagecolor="#ffffff"
     bordercolor="#000000"
     borderopacity="0.25"
     inkscape:showpageshadow="2"
     inkscape:pageopacity="0.0"
     inkscape:pagecheckerboard="0"
     inkscape:deskcolor="#d1d1d1"
     inkscape:document-units="mm"
     inkscape:zoom="0.86056397"
     inkscape:cx="397.4138"
     inkscape:cy="560.67883"
     inkscape:window-width="2240"
     inkscape:window-height="1230"
     inkscape:window-x="0"
     inkscape:window-y="30"
     inkscape:window-maximized="0"
     inkscape:current-layer="layer1" /><defs
     id="defs1" /><g
     inkscape:label="Camada 1"
     inkscape:groupmode="layer"
     id="layer1"><path
       style="fill:#000000"
       d="m 144.13512,246.71402 c -0.34662,-0.16343 -28.81411,-5.43185 -63.759594,-11.79985 -7.482327,-1.36348 -13.899263,-2.56637 -14.259857,-2.67309 -1.178403,-0.34877 -2.77953,-1.76965 -3.429247,-3.0432 -1.364624,-2.67488 -1.40506,-3.51273 -0.689721,-14.29117 0.370715,-5.58577 1.340629,-20.70333 2.155366,-33.59457 0.814737,-12.89124 1.77396,-27.79033 2.131607,-33.1091 0.357647,-5.31876 1.097613,-16.97251 1.644368,-25.89721 0.546755,-8.92471 1.868419,-29.945704 2.937031,-46.713331 1.068613,-16.767627 2.181371,-34.543278 2.472796,-39.501447 0.341005,-5.801684 0.708615,-9.578084 1.031365,-10.59505 0.580189,-1.828139 2.209274,-3.607602 3.77192,-4.120099 0.597865,-0.19608 12.445741,-2.800099 26.328616,-5.786707 13.88287,-2.986609 27.97063,-6.0179712 31.30612,-6.7363612 19.74664,-4.2529784 24.84113,-5.2605675 25.89721,-5.1219526 1.75174,0.2299227 8.23268,2.8645722 9.04517,3.6770641 0.39561,0.3956063 1.04975,1.7453364 1.45365,2.9994007 l 0.73436,2.280116 -0.70442,12.60328 c -0.93843,16.790127 -1.95562,35.94989 -2.0701,38.992213 l -0.0925,2.458597 2.92369,4.717213 c 2.32147,3.745571 3.11414,5.357835 3.84834,7.827356 0.50856,1.710578 0.92466,3.536029 0.92466,4.056557 0,0.724172 -0.76979,1.848432 -3.27813,4.78761 l -3.27813,3.841194 v 2.367618 2.367618 l 1.0654,0.182895 c 0.58596,0.100592 2.6143,0.405237 4.50742,0.676988 3.68361,0.528772 4.39323,0.867843 6.01831,2.875678 l 0.97515,1.20484 -0.40005,6.47755 c -0.22003,3.56266 -0.54618,6.62507 -0.72477,6.80537 -0.1786,0.1803 -0.79764,0.48766 -1.37566,0.68302 -0.91938,0.31075 -1.06105,0.51594 -1.13166,1.63907 -0.0712,1.13309 0.0443,1.36142 0.98344,1.94445 0.97296,0.60399 1.07256,0.82098 1.16221,2.53201 0.12221,2.33244 -0.25641,3.06424 -1.72824,3.34035 -1.13579,0.21308 -1.15623,0.24524 -1.15623,1.81903 0,1.27652 0.12446,1.64162 0.6124,1.79649 0.33681,0.1069 0.87633,0.48601 1.19892,0.84247 0.51094,0.56459 0.5482,0.93188 0.28909,2.85017 -0.29697,2.19858 -0.29938,2.20252 -1.52673,2.49031 -1.18705,0.27834 -1.2293,0.33707 -1.2293,1.70875 0,1.09917 0.13853,1.46447 0.61239,1.61487 0.33682,0.1069 0.8784,0.4883 1.20351,0.84755 0.55758,0.61611 0.56782,1.01859 0.18052,7.09114 l -0.4106,6.43797 -3.13339,5.43932 c -8.85598,15.37332 -10.79784,18.72201 -11.95805,20.62132 -0.72692,1.18999 -1.33245,2.65278 -1.42484,3.44203 -0.0884,0.75491 -0.68209,10.96109 -1.31938,22.6804 -1.71804,31.59403 -1.94968,34.888 -2.5551,36.33418 -0.85157,2.0342 -2.41017,3.73016 -4.23771,4.61123 -1.50632,0.7262 -2.26656,0.84361 -6.4605,0.99773 -2.61431,0.0961 -4.90081,0.10513 -5.0811,0.0201 z m 3.62608,-2.47426 c 1.15649,-0.71475 2.76627,-3.51105 2.76627,-4.8052 0,-0.61119 -0.17761,-0.75517 -0.93155,-0.75517 -0.80102,0 -0.98598,0.18166 -1.31999,1.29648 -0.48207,1.609 -1.69182,3.08155 -2.96479,3.60883 -0.61461,0.25458 -0.90343,0.56931 -0.79109,0.86205 0.25882,0.67448 1.99422,0.56365 3.24115,-0.20699 z m 6.87641,-0.33596 c 1.16266,-0.70353 2.27209,-2.56684 2.58981,-4.34961 l 0.22384,-1.25598 -2.9844,0.10824 c -2.8799,0.10446 -2.99068,0.13696 -3.16353,0.92817 -0.46075,2.10908 -0.9233,3.21142 -1.83609,4.37573 l -0.98867,1.26111 2.58156,-0.23251 c 1.56203,-0.14069 2.97487,-0.47051 3.57748,-0.83515 z m -10.7433,0.28161 c -0.0816,-0.24485 -6.90359,-1.61573 -17.97507,-3.6121 -9.81394,-1.76962 -26.030657,-4.69559 -36.037143,-6.50215 -10.006486,-1.80656 -19.447494,-3.51001 -20.980019,-3.78544 -3.407899,-0.61249 -4.038102,-0.99757 -4.770337,-2.9149 -0.473845,-1.24075 -0.537928,-2.11103 -0.369113,-5.01276 0.547821,-9.41638 4.153326,-66.37209 4.310377,-68.09048 0.09887,-1.08178 0.990662,-15.02202 1.981762,-30.97831 2.818212,-45.371983 3.081733,-49.535631 3.267743,-51.630525 0.09605,-1.081782 0.543753,-8.015024 0.994887,-15.407203 1.864078,-30.544344 1.772757,-29.403523 2.469175,-30.845946 0.356573,-0.738534 1.029353,-1.516403 1.495067,-1.728596 0.465714,-0.212194 10.088941,-2.366008 21.384948,-4.786253 11.296003,-2.420245 25.406213,-5.449373 31.356013,-6.731395 21.6869,-4.6729408 27.55084,-5.896106 28.27386,-5.8976716 0.70413,-0.00152 1.82848,0.8428901 2.08981,1.5694964 0.17812,0.4952706 1.9259,0.076034 1.9259,-0.4619641 0,-0.9113584 -1.27052,-1.7647552 -2.62733,-1.7647552 -1.07784,0 -16.19814,3.1277593 -37.20193,7.6955255 -8.0858,1.758446 -18.03144,3.902269 -29.667059,6.394855 -6.761139,1.448373 -12.99197,2.794024 -13.84629,2.990337 -2.827987,0.649838 -4.075053,2.209604 -4.355947,5.448194 -0.09031,1.04123 -0.45955,6.687408 -0.820535,12.547063 -0.662687,10.757009 -3.521736,56.059387 -4.41697,69.988038 -0.266529,4.14684 -1.005464,15.80058 -1.642077,25.89722 -0.636614,10.09663 -1.599715,25.29076 -2.140225,33.76472 -3.827372,60.00448 -3.639544,55.70916 -2.521576,57.66424 1.296748,2.26772 1.555694,2.35609 13.033742,4.44802 10.303797,1.87792 29.011857,5.29599 53.097097,9.70117 6.40055,1.17066 11.78487,2.18606 11.96517,2.25644 0.75745,0.2957 1.85089,0.15958 1.72607,-0.21487 z m 2.13771,-1.90361 c 1.41198,-1.11066 1.80594,-2.91364 2.18395,-9.99476 0.89722,-16.80733 3.28214,-59.32715 4.7714,-85.06743 0.62067,-10.72768 1.43179,-24.96295 1.80249,-31.63394 1.06679,-19.197384 2.84802,-50.731435 4.0737,-72.118829 1.79411,-31.305979 1.94416,-34.397055 1.7142,-35.3133156 -0.40786,-1.625025 3.70976,-2.3846172 -51.02689,9.4131096 -7.84293,1.690432 -17.873997,3.828562 -22.291275,4.751399 -4.417278,0.922837 -8.375646,1.902996 -8.796373,2.178131 -0.420728,0.275135 -0.954319,0.968198 -1.185757,1.54014 -0.267431,0.660889 -0.858177,8.088985 -1.62086,20.380851 -0.660035,10.637527 -1.632414,25.979168 -2.160842,34.092536 -0.528428,8.113368 -1.559616,24.413858 -2.291529,36.223318 -0.731913,11.80946 -1.69655,27.00358 -2.143637,33.76472 -2.984381,45.13168 -4.717254,74.98873 -4.415664,76.081 0.641658,2.32389 0.626103,2.31878 14.747155,4.84611 21.422032,3.83403 52.608462,9.4754 58.022862,10.49587 6.25027,1.178 7.51135,1.23085 8.61707,0.36109 z m -41.62157,-57.95212 c -3.26576,-1.16675 -6.052754,-4.23971 -7.642292,-8.42645 -1.010279,-2.66101 -1.263813,-7.94319 -0.531035,-11.06369 1.914931,-8.15466 8.937557,-13.46113 15.348227,-11.5975 8.22618,2.39142 11.94845,14.1817 7.4871,23.71538 -1.20255,2.56979 -4.38101,5.85406 -6.73518,6.95937 -2.2445,1.05383 -5.63805,1.23059 -7.92682,0.41289 z m 6.22746,-2.8838 c 4.30629,-1.4673 7.7639,-7.3792 7.7639,-13.27486 0,-4.9553 -2.44693,-9.61343 -6.06454,-11.54484 -1.72639,-0.92171 -5.38596,-0.97888 -7.00351,-0.10941 -1.49575,0.80401 -3.90367,3.06017 -4.83163,4.52713 -2.909215,4.59901 -2.940253,11.90508 -0.0697,16.4156 2.46692,3.87635 6.22279,5.34343 10.20551,3.98638 z m -4.69299,-4.26231 c -3.78214,-1.63824 -5.47674,-6.20468 -4.06574,-10.95601 0.59579,-2.00625 2.36524,-4.05736 3.21792,-3.73016 0.76616,0.29401 1.02259,1.68411 0.43449,2.35535 -1.63614,1.86745 -2.08494,5.46666 -0.94938,7.61356 1.73003,3.27078 5.92465,2.76782 7.47315,-0.89607 0.66942,-1.58393 0.5663,-4.31634 -0.21103,-5.59127 -0.87425,-1.4339 -0.8664,-2.91288 0.017,-3.19325 2.23041,-0.7079 3.98942,5.03993 2.79731,9.14064 -0.93087,3.20209 -4.06057,5.81301 -6.9107,5.76518 -0.3606,-0.006 -1.17194,-0.23464 -1.80298,-0.50797 z m 1.51504,-6.73906 c -0.57915,-0.33642 -0.60157,-0.68174 -0.37721,-5.80871 0.13121,-2.99806 0.37661,-5.70918 0.54534,-6.0247 0.37308,-0.69765 1.37049,-0.74742 1.91162,-0.0954 0.56885,0.68541 0.12339,10.54302 -0.52279,11.56884 -0.52258,0.82961 -0.68416,0.86696 -1.55696,0.35996 z m -0.0399,-79.050707 c -3.39841,-1.630669 -6.13031,-5.874384 -6.70169,-10.410354 -0.968657,-7.689739 2.89175,-15.733124 9.04255,-18.840727 1.70412,-0.860979 2.2534,-0.970468 4.87102,-0.97095 3.37927,-6.23e-4 4.25451,0.344852 6.72274,2.653593 1.00733,0.942238 1.91762,2.260085 2.63637,3.816733 1.00082,2.167535 1.10951,2.710631 1.23027,6.147431 0.0994,2.828178 -0.006,4.302095 -0.42114,5.900631 -1.23795,4.764766 -4.69061,9.435944 -8.36883,11.322374 -1.45735,0.747422 -2.32909,0.946127 -4.58581,1.045298 -2.41963,0.10633 -3.00217,0.01892 -4.42548,-0.664029 z m 7.99441,-3.006831 c 6.78438,-3.478206 9.63122,-14.681422 5.33152,-20.981257 -1.47288,-2.158043 -3.31379,-3.233838 -5.80523,-3.392481 -1.88761,-0.120194 -2.38089,-0.01561 -4.23757,0.898425 -6.43554,3.168209 -9.6231,13.180819 -6.24518,19.617059 1.00662,1.917993 1.35028,2.338552 2.79815,3.424268 2.31055,1.732619 5.31367,1.892372 8.15831,0.433986 z m -5.75999,-3.74274 c -2.60385,-1.217015 -4.07264,-4.808874 -3.41693,-8.355955 0.57019,-3.084453 2.27043,-5.702878 3.41732,-5.262777 0.93371,0.358301 0.95735,1.366951 0.0676,2.885194 -1.20282,2.052455 -1.40887,4.29161 -0.56953,6.189079 0.80335,1.816101 1.67986,2.347113 3.47649,2.106136 1.01622,-0.136305 1.6402,-0.496879 2.55267,-1.475094 2.03226,-2.178688 2.40293,-5.369473 0.90528,-7.792723 -0.8351,-1.351231 -0.4253,-2.754505 0.8044,-2.754505 1.76413,0 3.19433,4.327467 2.51372,7.605941 -1.13722,5.478001 -5.75349,8.723109 -9.75102,6.854704 z m 2.3603,-6.384788 c -0.52761,-0.385798 -0.55628,-0.876155 -0.33528,-5.734407 0.20102,-4.418903 0.34214,-5.434857 0.83894,-6.039729 0.48651,-0.59234 0.70746,-0.658706 1.19148,-0.357878 0.53868,0.334803 0.58579,0.840277 0.50411,5.408912 -0.0495,2.771778 -0.16193,5.367248 -0.24973,5.767713 -0.22149,1.010262 -1.21118,1.495275 -1.94952,0.955389 z m 45.85193,163.113076 c 0.66136,-1.27893 1.06035,-3.51371 0.57362,-3.21289 -0.20526,0.12685 -0.37319,0.59546 -0.37319,1.04135 0,0.4459 -0.21375,1.32228 -0.47499,1.94753 -0.56878,1.36128 -0.38928,1.50773 0.27456,0.22401 z m -7.01145,-5.65947 c 0,-1.09059 0.51143,-11.01103 1.13651,-22.04541 0.62508,-11.03438 1.51103,-26.77449 1.96876,-34.978 1.35625,-24.3063 2.73313,-48.71082 3.60651,-63.92351 0.45028,-7.84292 1.11964,-19.791696 1.48747,-26.552836 0.36783,-6.76114 1.03314,-18.63616 1.47847,-26.388934 1.32907,-23.138247 2.74176,-48.359622 2.84575,-50.806408 0.0856,-2.0137863 0.0239,-2.3042579 -0.51117,-2.4073854 -0.33467,-0.064503 -0.75186,0.02609 -0.92709,0.2013185 -0.17523,0.1752282 -0.67259,6.5691199 -1.10524,14.2086479 -0.43266,7.639528 -1.37958,24.142398 -2.10427,36.673043 -0.7247,12.530646 -2.05538,36.059413 -2.95709,52.286144 -0.9017,16.22674 -1.85789,33.26481 -2.12487,37.86239 -0.71803,12.36542 -1.96671,34.54413 -3.43282,60.97319 -0.71512,12.89124 -1.36952,24.21307 -1.45423,25.15963 l -0.15401,1.72102 h 1.12366 1.12366 z m 6.69855,-0.72156 c 0.21213,-2.85212 1.35739,-23.21814 2.46558,-43.84496 0.36324,-6.76114 0.81313,-14.80075 0.99976,-17.8658 0.18662,-3.06505 0.62907,-11.03091 0.98321,-17.7019 0.35414,-6.67099 0.79494,-14.7106 0.97956,-17.8658 0.58798,-10.04861 1.94747,-34.58823 2.45171,-44.254731 0.26804,-5.138466 0.56794,-10.449034 0.66644,-11.801262 0.0985,-1.352228 0.61827,-10.866996 1.15505,-21.143928 0.53679,-10.276933 1.35293,-25.299502 1.81365,-33.383486 0.46072,-8.083985 0.79224,-15.080683 0.7367,-15.548219 -0.0877,-0.738452 -0.44034,-0.972813 -2.68567,-1.7849316 -1.42158,-0.5141764 -2.62526,-0.8932669 -2.67483,-0.8424232 -0.12465,0.1278262 -2.85457,47.2548748 -4.41084,76.1450228 -0.36907,6.851288 -1.03607,18.726308 -1.48223,26.388938 -0.44615,7.66262 -1.25535,21.89789 -1.79821,31.63393 -0.54286,9.73605 -1.20314,21.46355 -1.46729,26.06113 -0.26414,4.59757 -0.70876,12.56342 -0.98805,17.70189 -0.42034,7.73385 -1.74335,31.13475 -2.66419,47.1231 l -0.2124,3.68789 h 2.96545 2.96545 z m 1.78264,-5.16305 c 0.38203,-7.37753 1.04859,-19.36665 1.67674,-30.15878 0.88175,-15.1491 1.69821,-29.8187 2.29886,-41.30442 0.36301,-6.94144 0.80517,-14.83353 0.98259,-17.53799 0.30384,-4.63173 1.35237,-23.75927 2.4529,-44.746448 0.26945,-5.138466 0.63617,-11.850434 0.81493,-14.915484 0.17875,-3.06505 0.47881,-9.03944 0.66679,-13.27642 0.31461,-7.091059 2.32435,-44.620113 2.8024,-52.330829 0.1208,-1.94856 0.0793,-3.401118 -0.10036,-3.512153 -0.18065,-0.111648 -0.3919,1.655377 -0.51482,4.306248 -0.11465,2.472575 -0.65235,12.313927 -1.1949,21.869671 -0.54255,9.555745 -1.2796,22.979681 -1.63789,29.830969 -0.35829,6.851288 -0.80183,15.259688 -0.98564,18.685332 -0.18382,3.425644 -0.48121,9.031244 -0.66088,12.456888 -0.17967,3.425646 -0.47703,8.662456 -0.66082,11.637356 -0.18378,2.9749 -0.85065,14.77616 -1.48193,26.22503 -0.63128,11.44886 -1.36217,24.65152 -1.62421,29.33925 -0.26203,4.68772 -0.85716,15.45637 -1.32251,23.93033 -0.46534,8.47397 -1.24738,22.53421 -1.73786,31.245 -0.49048,8.71078 -0.82494,15.90463 -0.74324,15.98634 0.43901,0.439 0.62262,-1.02441 0.96985,-7.72989 z m 8.24755,-58.8424 c 8.2609,-14.28517 10.52047,-18.26206 10.41829,-18.33645 -0.0564,-0.041 -3.03703,-0.25836 -6.62371,-0.48297 -4.8973,-0.30667 -6.57909,-0.31474 -6.75359,-0.0324 -0.12779,0.20678 -0.33277,2.68908 -0.45552,5.51623 -0.12274,2.82715 -0.35747,7.2055 -0.52162,9.72966 -0.49606,7.62775 -0.68147,11.43767 -0.54933,11.28781 0.069,-0.0782 2.08742,-3.53504 4.48548,-7.68187 z m 11.19535,-23.11081 c 0.12315,-2.07342 0.2811,-4.63216 0.351,-5.6861 l 0.12708,-1.91625 -1.72319,-0.7882 c -0.94776,-0.43352 -1.88016,-0.78821 -2.07201,-0.78821 -0.4011,0 -0.42453,-0.17572 -0.34932,-2.62012 0.0305,-0.99033 0.21497,-1.89921 0.41,-2.01974 0.19502,-0.12054 1.01287,-0.31787 1.81743,-0.43852 2.21456,-0.33209 2.36245,-0.44375 2.36245,-1.78364 0,-1.16482 -0.0875,-1.26171 -1.96613,-2.17767 l -1.96612,-0.9586 -7.5e-4,-2.19065 c -6.3e-4,-1.80798 0.0994,-2.21824 0.57292,-2.34865 0.31552,-0.0869 1.33498,-0.34263 2.26548,-0.56829 1.52234,-0.3692 1.70724,-0.51156 1.84589,-1.4212 0.0847,-0.556 0.10453,-1.0967 0.044,-1.20156 -0.0606,-0.10486 -1.00185,-0.54486 -2.09175,-0.97777 l -1.98165,-0.7871 v -2.1508 -2.15079 l 1.95726,-0.43421 c 1.0765,-0.23882 2.16737,-0.60116 2.42415,-0.8052 0.34114,-0.27106 0.52714,-1.57973 0.69059,-4.8588 l 0.22369,-4.48782 -1.09074,-0.18238 c -2.23575,-0.37383 -13.11858,-1.54249 -13.23935,-1.42172 -0.15636,0.15636 -0.87245,10.78121 -0.73566,10.9152 0.0548,0.0537 2.01729,0.29515 4.36115,0.53667 l 4.26156,0.43912 0.1072,1.12532 c 0.0589,0.61893 0.0117,1.63411 -0.10492,2.25595 l -0.21211,1.13064 -2.8454,-0.21886 c -1.56497,-0.12037 -3.53383,-0.30471 -4.37526,-0.40965 l -1.52986,-0.19079 -0.1092,2.48998 c -0.12614,2.87619 -0.44865,2.64391 4.15236,2.99079 4.58139,0.34541 4.42625,0.2609 4.42045,2.40807 -0.008,2.79991 0.0889,2.75055 -4.5501,2.32722 -2.20842,-0.20153 -4.11093,-0.27079 -4.2278,-0.15392 -0.11686,0.11687 -0.26963,1.22374 -0.33946,2.45971 l -0.12698,2.24722 2.24804,0.20016 c 1.23642,0.1101 3.13313,0.30793 4.21492,0.43964 l 1.96687,0.23948 0.0962,1.99682 c 0.0649,1.34557 -0.0421,2.10283 -0.32781,2.32184 -0.27735,0.21257 -1.76411,0.21912 -4.29745,0.0189 -2.13036,-0.16834 -3.94396,-0.23548 -4.03023,-0.14921 -0.24168,0.24168 -0.8816,12.37723 -0.66413,12.5947 0.24474,0.24475 10.00377,1.01421 12.17369,0.95985 l 1.63906,-0.0411 z m -1.76226,-11.74454 c -0.0778,-1.29399 -0.19977,-1.61427 -0.53533,-1.4053 -0.64724,0.40305 -0.9207,2.98432 -0.35331,3.33499 0.72793,0.44988 0.99657,-0.13346 0.88864,-1.92969 z m -5.18181,0.10719 v -1.47516 l -1.55711,-0.003 c -0.85641,-0.002 -2.33157,-0.0959 -3.27813,-0.20957 l -1.72102,-0.20672 v 1.34206 c 0,1.48249 0.13765,1.55139 3.60594,1.80499 0.81134,0.0593 1.80707,0.13363 2.21274,0.16513 0.66411,0.0516 0.73758,-0.0897 0.73758,-1.41788 z m 1.36256,0 c 0.11705,-1.47178 -0.13101,-1.93895 -0.50796,-0.95663 -0.30236,0.78794 -0.23758,2.43178 0.0958,2.43178 0.16214,0 0.3476,-0.66382 0.41213,-1.47515 z m 4.28049,-9.42462 c 0.15315,-1.97421 0.13474,-2.03373 -0.54781,-1.77181 -0.5167,0.19828 -0.74634,2.81526 -0.28732,3.27428 0.50046,0.50046 0.70883,0.12557 0.83513,-1.50247 z m -4.98743,-0.22228 v -1.28766 l -1.72101,-0.17527 c -0.94656,-0.0964 -2.42172,-0.23641 -3.27813,-0.31113 l -1.55711,-0.13587 v 1.25613 c 0,1.37144 0.13888,1.44085 3.44203,1.72032 3.32236,0.28108 3.11422,0.35236 3.11422,-1.06652 z m 1.31126,-0.18749 c 0,-0.81134 -0.14752,-1.47516 -0.32782,-1.47516 -0.18029,0 -0.32781,0.66382 -0.32781,1.47516 0,0.81134 0.14752,1.47516 0.32781,1.47516 0.1803,0 0.32782,-0.66382 0.32782,-1.47516 z m 4.38198,-9.23232 c 0.23163,-1.68993 0.14679,-1.92209 -0.598,-1.63629 -0.67155,0.2577 -0.72547,3.16501 -0.0587,3.16501 0.28379,0 0.52371,-0.55851 0.65669,-1.52872 z m -3.72636,-0.27425 c 0,-0.81134 -0.14751,-1.47516 -0.32781,-1.47516 -0.1803,0 -0.32781,0.66382 -0.32781,1.47516 0,0.81133 0.14751,1.47516 0.32781,1.47516 0.1803,0 0.32781,-0.66383 0.32781,-1.47516 z m -1.31125,0.0409 v -1.10646 l -3.19617,-0.31598 c -1.7579,-0.17379 -3.21898,-0.30283 -3.24684,-0.28675 -0.0279,0.0161 -0.10162,0.54554 -0.16391,1.17658 l -0.11324,1.14734 1.96687,0.19075 c 1.08179,0.10492 2.59382,0.21556 3.36009,0.24586 1.37477,0.0544 1.3932,0.0405 1.3932,-1.05134 z m 8.85095,-14.23422 c 0,-0.32401 -0.55319,-1.12309 -1.2293,-1.77573 l -1.2293,-1.186641 -5.962,-0.779292 -5.96199,-0.779293 -0.18002,0.670102 c -0.099,0.368555 -0.18203,1.195254 -0.18449,1.837114 l -0.004,1.16701 5.98258,0.67408 c 8.00995,0.9025 8.769,0.91745 8.769,0.17265 z m -12.7847,-7.898967 c 0,-2.401785 -0.0949,-2.951648 -0.53864,-3.121938 -0.29625,-0.113683 -0.60706,-0.138277 -0.69068,-0.05465 -0.0836,0.08362 -0.23002,1.401858 -0.32532,2.929411 -0.17013,2.727051 -0.1591,2.780049 0.60873,2.925255 0.4301,0.08134 0.81888,0.167974 0.86395,0.192527 0.0451,0.02455 0.082,-1.267217 0.082,-2.870601 z m 3.25682,-7.237492 c 1.62677,-1.887914 2.85025,-3.531583 2.71883,-3.652598 -0.28735,-0.264616 -6.60443,-1.41018 -6.78431,-1.230295 -0.0693,0.06932 -0.23081,1.917107 -0.35885,4.106188 -0.21827,3.731603 -0.1942,3.989915 0.3854,4.136598 0.34001,0.08605 0.72237,0.137603 0.84968,0.114566 0.12731,-0.02304 1.56247,-1.586544 3.18925,-3.474459 z m 3.29943,-4.858874 c 0,-0.143018 -0.36901,-1.532874 -0.82002,-3.088569 -0.60046,-2.071204 -1.50011,-3.94481 -3.36008,-6.997661 l -2.54006,-4.169123 -0.37914,6.520113 c -0.20852,3.586063 -0.30787,6.593871 -0.22078,6.68402 0.17921,0.185492 5.45293,1.201199 6.5825,1.267778 0.40567,0.02391 0.73758,-0.07354 0.73758,-0.216558 z M 169.86842,9.5890185 c 0,-0.5897303 -1.42941,-1.520355 -3.68047,-2.3961781 -1.29165,-0.5025475 -2.386,-0.8761863 -2.43188,-0.8303085 -0.0459,0.045878 0.0936,0.4291854 0.31001,0.8517947 0.25541,0.4988278 1.19842,1.0927031 2.68812,1.6928867 2.43437,0.9807816 3.11422,1.1296237 3.11422,0.6818052 z"
       id="path1" /></g></svg>
