<svg xmlns="http://www.w3.org/2000/svg" xml:space="preserve" width="960" height="960" viewBox="0 0 254 254"><path d="M94.908 156.465c-2.765-.483-6.872-1.19-9.128-1.572a1310 1310 0 0 1-9.26-1.616 1029 1029 0 0 0-8.202-1.43c-1.674-.282-6.555-1.121-10.848-1.867s-10.494-1.818-13.78-2.384c-13.712-2.358-19.304-4.835-26.419-11.7-18.323-17.681-14.827-50.207 6.464-60.14 3.145-1.468 3.694-1.653 8.935-3.008 16.238-4.198 17.03-4.228 47.157-1.75 4.366.36 11.093.891 14.95 1.181 3.855.29 10.761.826 15.345 1.19 4.584.365 10.894.853 14.023 1.084 10.907.805 17.434 2.891 24.132 7.713 4.185 3.014 10.621 10.543 11.65 13.629.059.176 2.116-.036 5.794-.597l5.703-.871 1.238.6c3.918 1.896 2.381 6.657-2.347 7.273-.728.095-2.67.42-4.316.723l-2.993.55.172.431c.263.66 1.443 5.926 1.446 6.45.003.588.19.585 4.754-.082l3.737-.546.906.299c1.973.651 2.919 2.825 2.128 4.895-.66 1.73-1.457 2.09-6.496 2.932-2.4.402-4.393.747-4.426.767s-.247 1.374-.475 3.009c-1.519 10.887-7.43 19.857-16.243 24.646-3.479 1.89-5.103 2.365-25.818 7.544-13.409 3.352-14.592 3.57-19.184 3.544l-3.572-.02zm15.751-1.081c24.68-6.605 30.7-44.133 10.336-64.424-6.407-6.384-14.116-10.002-22.78-10.69-1.236-.098-4.927-.468-8.201-.822a999 999 0 0 0-11.51-1.164c-3.056-.287-7.878-.768-10.715-1.07a3917 3917 0 0 0-12.7-1.316c-4.148-.423-9.982-1.025-12.965-1.337l-5.424-.568-2.91.272-2.91.273-2.708.92C17.26 79.172 9.898 87.774 7.31 99.839l-.454 2.116-.015 5.16-.016 5.159.45 2.262c2.792 14.028 12.457 25.207 25.456 29.443 2.733.89 3.456 1.043 11.51 2.433 3.71.64 9.842 1.707 13.626 2.37 6.45 1.132 12.696 2.21 23.68 4.088 2.547.436 7.726 1.325 11.51 1.976 8.82 1.52 8.2 1.45 11.942 1.313l3.212-.119zm-15.618-7.185c-.655-.054-3.691-.507-6.747-1.007s-6.688-1.082-8.07-1.293c-1.382-.212-7.514-1.22-13.626-2.24s-11.708-1.933-12.435-2.028-3.296-.515-5.708-.933a430 430 0 0 0-11.588-1.858c-11.81-1.739-21.954-12.821-24.012-26.232l-.417-2.716.142-3.043c.566-12.08 7.393-21.175 17.996-23.977 2.215-.586 6.247-.544 12.739.132 5.699.593 7.946.81 16.933 1.631 6.561.6 18.65 1.778 28.707 2.796 18.195 1.841 28.516 10.24 32.068 26.096l.608 2.715-.014 4.762-.015 4.763-.556 2.564c-2.857 13.16-13.026 20.93-26.005 19.868m5.82-1.144c9.593-1.513 16.383-8.11 19.054-18.51l.578-2.25.14-4.232.14-4.234-.56-2.8c-3.107-15.54-13.379-24.836-29.08-26.317-2.29-.216-6.841-.683-10.115-1.037s-6.787-.71-7.805-.792c-4.285-.345-11.006-.957-13.097-1.194-1.237-.14-4.154-.434-6.483-.653-2.328-.218-7.48-.704-11.447-1.078l-7.215-.68-2.096.286c-27.989 3.832-24.035 50.36 4.619 54.356 3.072.428 23.877 3.807 46.566 7.563 11.73 1.941 13.444 2.102 16.801 1.572m-25.003-11.27c-2.28-.348-18.06-2.49-20.108-2.73-1.31-.153-3.73-.457-5.376-.675l-2.996-.397-1.486-.727c-1.805-.883-2.978-2.012-7.083-6.812-1.742-2.037-4.165-4.776-5.384-6.085-1.29-1.386-2.506-2.99-2.907-3.837l-.69-1.455-.004-1.852-.003-1.852.58-.926c.319-.51 2.035-2.236 3.812-3.837 1.778-1.6 4.553-4.13 6.167-5.619 3.38-3.12 4.946-4.027 7.046-4.086 6.534-.184 26.247 1.329 31.904 2.448 2.317.459 3.403 1.404 8.315 7.238 8.894 10.565 8.983 10.706 8.983 14.193 0 3.517-.178 3.721-12.188 13.91-3.53 2.995-5.237 3.612-8.582 3.101m3.705-1.314c.815-.19 2.703-1.363 3.245-2.015l.304-.367-5.876-.854c-8.884-1.292-14.29-2.067-17.563-2.518l-2.957-.408-1.343-.68c-1.768-.896-6.317-5.664-12.779-13.393-3.43-4.102-2.847-5.766 4.485-12.81l5.233-5.028-.927-.184c-.51-.101-1.721-.204-2.692-.227l-1.766-.043-1.41.663c-.79.372-2.46 1.632-3.805 2.873a1636 1636 0 0 1-6.144 5.62l-3.748 3.412-.44 1.153-.44 1.153.163 1.195c.245 1.785.758 2.58 4.088 6.345a806 806 0 0 1 6.04 6.924c4.493 5.22 4.418 5.183 12.093 6.168 8.109 1.04 15.693 2.065 20.55 2.775 2.256.33 4.28.561 4.498.515s.754-.168 1.19-.27m9.9-7.759c3.215-2.764 5.051-4.537 5.4-5.213l.527-1.024.002-1.855.002-1.854-.64-1.254c-.614-1.204-3.149-4.338-9.835-12.16-3.835-4.484-4.015-4.587-9.221-5.255-13.526-1.736-18.795-2.037-21.535-1.232l-1.058.31-5.292 5.147c-7.845 7.629-7.823 7.387-1.323 14.734 9.32 10.532 8.47 9.88 13.906 10.669 9.995 1.45 18.781 2.738 19.96 2.925.728.116 1.979.22 2.779.23l1.455.021zm-19.387-3.27c-.56-.347-1.364-1.146-1.786-1.773l-.766-1.141v-1.574c0-2.736.954-4.018 3.22-4.329l1.2-.164.975.462c2.954 1.402 3.98 5.735 1.895 8.01l-.853.93-1.432.107-1.433.106zm15.022-6.107c-2.427-1.097-3.645-4.458-2.517-6.942l.493-1.086 1.23-.596 1.229-.595.888.167c4.845.909 5.243 8.781.471 9.312-.539.06-1.346-.057-1.794-.26m-28.707-5.002c-2.654-1.789-3.091-5.646-.86-7.604l.899-.79h2.549l.893.601c1.877 1.265 2.667 3.5 2.073 5.863l-.311 1.235-.85.648-.85.648h-2.651zm51.085 7.48c-1.087-1.086-.38-2.91 1.126-2.91.934 0 1.52.655 1.52 1.698 0 1.568-1.57 2.288-2.646 1.213m23.68 30.558c3.493-.914 7.005-1.812 7.805-1.996 18.988-4.364 28.627-21.82 23.434-42.437-4.747-18.848-17.405-28.64-39.176-30.309-3.784-.29-8.903-.702-11.377-.916a486 486 0 0 0-8.864-.67c-2.4-.154-10.08-.746-17.065-1.317-34.786-2.84-34.11-2.829-44.583-.75-3.193.634-3.9 1.006-1.91 1.006 1.169 0 10.687.918 26.252 2.53 2.11.22 6.218.63 9.128.913s6.363.628 7.673.765 4.822.499 7.805.804c13.635 1.391 14.67 1.586 19.805 3.732 27.513 11.496 33.275 53.814 9.676 71.064l-.774.566 2.91-.662c1.602-.364 5.769-1.41 9.261-2.323m12.949-21.532c-6.089-2.766-6.237-19.356-.198-22.279l1.225-.593h3.037l1.438.704c.836.409 2.103 1.396 3.026 2.359l1.588 1.656.607 1.587.607 1.588.126 2.645.126 2.646-.448 1.72c-.647 2.49-1.59 4.041-3.62 5.956l-1.792 1.691-1.38.41c-1.801.535-3.022.51-4.342-.09m5.287-1.706 1.608-.881 1.26-1.723 1.258-1.723.56-2.216.561-2.216-.145-2.125c-.207-3.025-.77-4.393-2.621-6.372l-1.573-1.681-1.446-.541c-3.568-1.335-6.05.077-7.499 4.267l-.579 1.674-.148 3.175-.149 3.175.58 2.109c.808 2.945 1.753 4.57 3.194 5.498l1.19.766 1.17-.153c.644-.084 1.894-.549 2.779-1.033m-3.088-4.175c-.72-.536-.96-1.382-.48-1.679.136-.084.547.147.914.514 1.602 1.602 3.6-.383 3.6-3.576 0-3.534-1.885-5.369-3.623-3.526l-.907.962-.283-.283-.283-.283.502-.86c.277-.473.87-1.01 1.32-1.194l.818-.334 1.05.52c2.836 1.403 3.274 6.897.75 9.42l-.878.879-.886-.008c-.488-.005-1.214-.253-1.614-.551zm24.394-6.457 3.558-.592.609-.708.609-.709v-2.127l-.773-.774c-.932-.931-.776-.928-5.691-.105-4.713.79-4.193.347-3.97 3.384l.184 2.518.958-.147c.527-.08 2.559-.414 4.516-.74m-2.5-15.068c3.723-.536 4.468-.776 5.168-1.667.994-1.263.434-3.408-1.05-4.022l-.801-.332-5.387.872-5.387.872.777 2.002c.428 1.101.877 2.257.999 2.567l.22.565 1.143-.2c.629-.11 2.572-.406 4.318-.657" style="fill:#000" transform="matrix(1.3326 0 0 1.4051 -1.8 -28.083)"/></svg>