<svg xmlns="http://www.w3.org/2000/svg" xml:space="preserve" width="960" height="960" viewBox="0 0 960 960"><path d="M623.767 552.04s35.377.771 42.55-5.33c6.22-5.29 6.586-22.513 6.586-22.513l19.655-429.12s-1.467-18.675-3.276-27.844c-2.828-14.326-13.28-16.592-24.568-16.378l-432.396 8.19L207.75 77.06l-3.275 27.843 21.292 427.482s.529 11.808 4.317 15.846c6.984 7.444 15.337 7.084 15.337 7.084z" style="fill:none;stroke:#000;stroke-width:4.92472;stroke-linecap:butt;stroke-linejoin:miter;stroke-miterlimit:4;stroke-dasharray:none;stroke-opacity:1"/><path d="m263.438 555.316 1.638 368.52 275.16 6.55-1.637-379.983M623.767 552.04v375.07l-83.53 3.277" style="fill:none;stroke:#000;stroke-width:4.92472;stroke-linecap:butt;stroke-linejoin:miter;stroke-miterlimit:4;stroke-dasharray:none;stroke-opacity:1"/><path d="M299.47 704.362h57.326v63.876H299.66zM443.603 706h55.687v60.6h-55.588zM327.314 560.33v42.484h22.93V560.23zM446.878 560.23v45.86h26.206v-45.76zM569.718 863.234v27.025l23.749-.819v-26.206z" style="fill:none;stroke:#000;stroke-width:4.92472;stroke-linecap:butt;stroke-linejoin:miter;stroke-miterlimit:4;stroke-dasharray:none;stroke-opacity:1"/><circle style="fill:#000;fill-opacity:1;fill-rule:evenodd;stroke-width:1.64157"/><path d="M204.475 104.904 219 97.516l339.336-9.266s99.017-1.94 113.498 0c7.209.966 20.724 6.827 20.724 6.827" style="fill:none;stroke:#000;stroke-width:4.92472;stroke-linecap:butt;stroke-linejoin:miter;stroke-miterlimit:4;stroke-dasharray:none;stroke-opacity:1"/><path d="M571.277 552.376s-5.236-2.633-6.793-4.966c-1.645-2.465-2.09-8.642-2.09-8.642L575.91 87.092s.749-15.94-1.716-21.731c-2.123-4.992-8.997-12.144-8.997-12.144M562.394 538.768s-.746 5.76-2.211 8.171c-1.32 2.169-5.61 5.148-5.61 5.148" style="fill:none;stroke:#000;stroke-width:1.64157px;stroke-linecap:butt;stroke-linejoin:miter;stroke-opacity:1"/><path d="M575.91 87.092s-.058-15.922 3.054-22.9c2.074-4.651 8.905-11.554 8.905-11.554" style="fill:none;stroke:#000;stroke-width:1.64157px;stroke-linecap:butt;stroke-linejoin:miter;stroke-opacity:1"/></svg>