<?xml version="1.0" encoding="UTF-8" standalone="no"?>
<!-- Created with Inkscape (http://www.inkscape.org/) -->

<svg
   width="960"
   height="960"
   viewBox="0 0 253.99999 254"
   version="1.1"
   id="svg1"
   xml:space="preserve"
   inkscape:version="1.4.4 (dcaf3e7, 2026-05-05)"
   sodipodi:docname="aqara-icon2.svg"
   xmlns:inkscape="http://www.inkscape.org/namespaces/inkscape"
   xmlns:sodipodi="http://sodipodi.sourceforge.net/DTD/sodipodi-0.dtd"
   xmlns="http://www.w3.org/2000/svg"
   xmlns:svg="http://www.w3.org/2000/svg"><sodipodi:namedview
     id="namedview1"
     pagecolor="#ffffff"
     bordercolor="#000000"
     borderopacity="0.25"
     inkscape:showpageshadow="2"
     inkscape:pageopacity="0.0"
     inkscape:pagecheckerboard="0"
     inkscape:deskcolor="#d1d1d1"
     inkscape:document-units="mm"
     inkscape:zoom="0.60977048"
     inkscape:cx="396.87064"
     inkscape:cy="560.86677"
     inkscape:window-width="1391"
     inkscape:window-height="1115"
     inkscape:window-x="419"
     inkscape:window-y="30"
     inkscape:window-maximized="0"
     inkscape:current-layer="layer1" /><defs
     id="defs1" /><g
     inkscape:label="Camada 1"
     inkscape:groupmode="layer"
     id="layer1"><path
       style="fill:#000000;stroke-width:1.3;stroke-dasharray:none;stroke:#000000;stroke-opacity:1"
       d="m 171.94736,198.63218 c -4.4161,-0.29305 -10.49339,-1.64456 -15.05207,-3.34739 -5.04077,-1.88291 -17.42844,-7.80668 -40.05983,-19.15657 -12.72048,-6.37947 -15.63717,-8.19426 -20.09526,-12.50346 -3.402386,-3.28876 -6.256342,-7.3309 -7.79833,-11.04501 -0.353276,-0.85091 -0.654805,-1.57121 -0.670065,-1.60064 -0.01526,-0.0294 -1.29064,0.48167 -2.834177,1.13581 -3.674194,1.55708 -7.450309,2.6859 -10.670381,3.18977 -3.502103,0.548 -11.236159,0.37828 -14.584448,-0.32005 -9.365602,-1.95333 -22.44153,-8.66929 -28.595358,-14.68692 -1.537543,-1.50351 -4.800727,-5.77931 -10.078642,-13.20617 -5.84535,-8.22534 -6.358941,-9.34335 -6.533507,-14.22243 -0.08895,-2.48619 -0.02562,-3.13972 0.502755,-5.18835 1.422745,-5.51626 5.405299,-11.986972 11.906546,-19.345334 C 30.490716,84.819807 41.522904,73.917587 44.893692,71.032609 59.410354,58.60814 71.180276,51.703102 81.35121,49.644147 c 3.545056,-0.717644 11.234652,-0.778743 14.387654,-0.11432 8.369556,1.763694 15.837126,5.373008 24.289666,11.739971 l 1.88935,1.423171 3.40632,-3.533723 c 5.47447,-5.67924 10.03359,-9.186782 15.09679,-11.614672 5.09044,-2.440954 8.67057,-3.286319 13.94815,-3.293528 7.68304,-0.01049 11.65207,1.402581 22.78544,8.112214 19.81059,11.939049 37.09772,23.417697 45.40091,30.146199 7.25475,5.878888 11.71204,12.143283 14.35679,20.177421 1.8527,5.62805 2.11847,7.53654 2.11115,15.16009 -0.007,7.38993 -0.23384,9.47641 -1.66169,15.29146 -4.54236,18.49921 -17.10077,40.45655 -29.79428,52.09288 -10.38307,9.51832 -22.93968,14.24232 -35.6201,13.40087 z m 7.50092,-1.03182 c 5.26362,-0.53125 9.97633,-1.90135 15.01792,-4.36608 11.48119,-5.61292 20.92175,-15.63275 30.69759,-32.5812 1.58265,-2.74386 5.02056,-9.75529 6.58636,-13.43254 7.06087,-16.58225 8.54308,-31.78773 4.33058,-44.42564 -3.12041,-9.3615 -7.65983,-15.013406 -18.50308,-23.037682 -3.36984,-2.493762 -3.24991,-2.43187 -6.08276,-3.13901 -11.25097,-2.808477 -22.13067,0.252369 -33.74004,9.492278 -2.76438,2.200174 -9.38059,8.85286 -12.23173,12.299168 -4.8462,5.857816 -9.39633,12.303206 -14.27685,20.223546 -1.31082,2.12726 -2.33019,4.00617 -2.26527,4.17534 0.0649,0.16918 -0.63437,1.96915 -1.55397,3.99995 -4.62375,10.21085 -8.236,20.65389 -9.82562,28.40593 -1.85801,9.06091 -1.84899,17.08803 0.0259,23.07786 0.74741,2.38776 2.25444,5.44131 3.48157,7.05438 0.51968,0.68312 0.95083,1.4857 0.95811,1.78352 0.0114,0.46507 0.63211,0.83865 4.39849,2.64715 8.74997,4.20146 13.62843,6.03546 18.92619,7.11507 4.48324,0.91363 9.51022,1.16681 14.05657,0.70796 z M 209.4902,154.1023 c -0.0154,-0.12385 -0.0128,-0.31322 0.006,-0.42083 0.0187,-0.1076 -0.16091,-0.13377 -0.39918,-0.0581 -1.15012,0.36504 -1.65733,-1.24672 -0.93578,-2.97363 0.4375,-1.04707 1.68371,-2.48621 2.29027,-2.64483 0.74974,-0.19606 1.43721,0.45887 1.43721,1.36917 0,1.04881 -2.29352,5.57019 -2.39847,4.72827 z m 0.7382,-1.96553 c 0.37052,-0.37052 0.79707,-1.13196 0.94791,-1.69211 0.23289,-0.86492 0.21699,-1.07568 -0.10551,-1.39818 -0.3422,-0.3422 -0.44323,-0.34411 -1.02183,-0.0194 -0.71571,0.40172 -1.706,1.97997 -1.712,2.72847 -0.004,0.55811 0.41528,1.05483 0.89138,1.05483 0.17951,0 0.62954,-0.30315 1.00005,-0.67366 z m -4.64832,-0.64512 c 0.0782,-0.20384 0.56998,-1.10304 1.0928,-1.99823 0.94482,-1.61776 1.90293,-2.609 2.5218,-2.609 0.59223,0 0.32372,0.58766 -0.43324,0.94816 -0.5133,0.24447 -1.08569,0.92909 -1.83193,2.19114 -0.59695,1.00957 -1.17678,1.83625 -1.28851,1.83707 -0.11172,8.1e-4 -0.13914,-0.1653 -0.0609,-0.36914 z m -0.9149,-0.62683 c 0.0879,-0.22903 -0.0686,-0.32303 -0.52612,-0.31611 -1.60177,0.0242 -1.38042,-2.82109 0.35957,-4.62209 1.06733,-1.10475 1.74352,-1.33629 2.29422,-0.7856 0.30326,0.30327 0.37345,0.65034 0.27726,1.37103 -0.14264,1.06867 -1.78731,4.43115 -2.24143,4.58252 -0.16615,0.0554 -0.23552,-0.0421 -0.1635,-0.22975 z m 0.83119,-1.85537 c 1.24476,-1.33251 1.43356,-3.31023 0.31602,-3.31023 -1.04729,0 -2.62261,2.90355 -1.98933,3.66661 0.45146,0.54397 0.92683,0.44273 1.67331,-0.35638 z m -4.97711,1.59892 c -0.005,-0.10298 0.20698,-0.60965 0.47037,-1.12595 l 0.4789,-0.93871 h -0.58908 c -1.5772,0 -1.36857,-2.62226 0.36536,-4.59211 1.02769,-1.16752 1.8014,-1.39925 2.37287,-0.71068 0.61755,0.74411 0.33451,2.10048 -0.88377,4.23516 -1.14332,2.00332 -2.19813,3.49518 -2.21465,3.13229 z m 1.85155,-3.8374 c 0.89319,-1.01728 1.20718,-2.37281 0.6733,-2.90669 -0.33741,-0.33741 -0.42842,-0.33434 -0.98971,0.0334 -0.83546,0.54741 -1.5417,1.76091 -1.54278,2.6509 -0.002,1.33871 0.79533,1.43402 1.85919,0.22235 z m -3.7564,0.2136 c 0,-0.25781 0.42924,-1.8446 0.95387,-3.5262 1.21691,-3.90059 1.02757,-4.25064 -1.03556,-1.91449 -2.59602,2.93955 -3.43568,3.7985 -3.57602,3.65816 -0.34191,-0.3419 4.93608,-6.13995 5.58922,-6.13995 0.76537,0 0.6837,0.87623 -0.4108,4.40746 -1.06588,3.43892 -1.52071,4.49022 -1.52071,3.51502 z m -1.10927,-3.71501 c 0.38712,-0.94881 1.10927,-1.18388 1.10927,-0.36109 0,0.66986 -0.40644,1.13147 -0.99625,1.13147 -0.38859,0 -0.39884,-0.0699 -0.11302,-0.77038 z m -57.31285,42.39504 c -2.27235,-3.18441 -3.97281,-7.72844 -4.61207,-12.32452 -0.36743,-2.64174 -0.31466,-8.80733 0.10434,-12.19178 1.17942,-9.52662 4.96194,-21.64504 10.66714,-34.17527 0.742,-1.62966 1.38229,-3.20777 1.42286,-3.50693 0.17642,-1.30076 7.93575,-13.37478 12.62695,-19.64835 5.30665,-7.09661 12.03562,-14.333091 17.1163,-18.407233 6.56305,-5.262833 13.82663,-8.836134 20.38548,-10.028582 3.23383,-0.587934 8.5891,-0.533427 11.8367,0.120476 1.36048,0.273933 2.5041,0.467559 2.54138,0.43028 0.0373,-0.03728 -3.79588,-2.636339 -8.51813,-5.77569 -13.34969,-8.874869 -30.87011,-19.646471 -35.78899,-22.003172 -13.28879,-6.36684 -26.85796,-3.21135 -39.73142,9.239484 -7.79428,7.538401 -17.66094,21.55982 -27.27797,38.764457 -7.19765,12.87644 -11.773129,24.70218 -13.435944,34.72642 -0.655546,3.95195 -0.606864,10.74642 0.102289,14.27642 2.140655,10.65566 8.059966,18.4629 18.655955,24.60618 2.22949,1.2926 34.38902,17.37538 34.79766,17.4021 0.10437,0.007 -0.29727,-0.67011 -0.89253,-1.50429 z M 74.109151,154.57396 c 3.266874,-0.48509 7.307345,-1.66629 10.903634,-3.18762 1.597059,-0.6756 2.903745,-1.2789 2.903745,-1.34068 0,-0.0618 -0.258461,-1.145 -0.574357,-2.40716 -0.789205,-3.15326 -1.083473,-5.92051 -1.084259,-10.19619 -3.79e-4,-2.06686 -0.09314,-3.60054 -0.215047,-3.5556 -0.117908,0.0435 -4.079513,3.58799 -8.803566,7.87675 -4.724053,4.28876 -8.891313,7.94846 -9.260578,8.13267 -0.600356,0.2995 -0.784876,0.28473 -1.744032,-0.13955 -1.209018,-0.5348 -20.367345,-12.44953 -23.134856,-14.38777 -3.409981,-2.38818 -4.498086,-4.1948 -3.800163,-6.30952 0.422187,-1.27924 0.683846,-1.52447 32.95778,-30.887603 22.686986,-20.64084 22.793424,-20.736022 23.224037,-20.768196 1.099657,-0.08216 2.086972,0.420564 7.579761,3.859495 2.26728,1.419505 4.13674,2.551498 4.15435,2.51554 0.18733,-0.382547 6.57491,-9.945377 7.99297,-11.966247 1.02516,-1.460961 1.86393,-2.753552 1.86393,-2.872425 0,-0.281054 -3.8018,-1.732275 -6.91637,-2.64011 C 104.55125,64.66603 99.324584,64.267068 94.435142,65.09973 85.795735,66.571003 76.630543,71.053521 65.87177,79.069521 52.798329,88.810103 37.043035,104.81575 30.835343,114.66267 c -1.611491,2.55622 -3.312233,6.36648 -3.855589,8.63787 -0.709932,2.96772 -0.561087,6.79973 0.361836,9.31544 0.787459,2.14647 1.318972,3.08322 2.805846,4.94508 5.531082,6.92603 21.488991,15.33118 32.287248,17.00594 2.944047,0.45661 8.623414,0.46 11.674467,0.007 z m 3.215089,-13.94862 9.139619,-8.27393 0.265064,-1.68177 c 0.349472,-2.21732 1.695196,-7.66904 2.694527,-10.91592 l 0.799315,-2.59702 -0.446227,-1.57682 c -0.828819,-2.92877 -1.546965,-4.84412 -1.816264,-4.84412 -0.147338,0 -2.324152,1.87178 -4.837365,4.15952 -2.513212,2.28774 -8.089527,7.31158 -12.39181,11.1641 -10.639424,9.52717 -11.839617,10.62199 -11.931861,10.8843 -0.08649,0.24596 1.83427,3.00806 6.054247,8.70613 1.947712,2.62993 2.773194,3.57323 3.007795,3.43709 0.177838,-0.1032 4.43617,-3.9109 9.46296,-8.46156 z m -11.613795,7.62779 c -0.125885,-0.16611 -1.812123,-2.48872 -3.747195,-5.16135 -3.33352,-4.6041 -4.766109,-6.4001 -5.105091,-6.4001 -0.08256,0 -1.421658,-0.71142 -2.975766,-1.58095 -6.252882,-3.49848 -10.691811,-5.29322 -13.091718,-5.29322 h -1.031021 l 0.159029,0.77038 c 0.21406,1.03697 1.107854,2.37683 2.080334,3.11858 1.160753,0.88535 23.737019,15.01446 23.847271,14.92456 0.05117,-0.0417 -0.01,-0.21178 -0.135843,-0.3779 z M 65.22381,130.0192 c 3.941614,-3.5395 10.310217,-9.27292 14.15245,-12.74093 3.842233,-3.46801 7.341616,-6.62548 7.776406,-7.01659 l 0.790529,-0.71113 -0.95549,-3.08152 C 83.376543,94.822759 82.076909,90.85156 81.852409,90.777472 81.51803,90.667123 40.66521,127.88188 40.420404,128.51984 c -0.07628,0.19877 0.355546,0.38709 1.324848,0.57779 0.790904,0.1556 2.356195,0.6034 3.478425,0.99511 2.019453,0.70488 8.998066,4.17347 11.285361,5.60919 0.65166,0.40904 1.266594,0.74573 1.366518,0.74821 0.09992,0.002 3.406639,-2.89145 7.348254,-6.43094 z m -39.168201,1.11948 c -0.134019,-0.3525 -0.243672,-2.04946 -0.243672,-3.77103 0,-3.80595 0.407588,-5.50237 2.230514,-9.28364 2.951045,-6.12131 7.910073,-12.3989 17.29255,-21.890493 13.120603,-13.27319 24.140486,-21.784107 35.351796,-27.303028 6.7486,-3.322091 11.375145,-4.635944 17.240344,-4.895938 5.534659,-0.245341 10.262209,0.575518 16.649909,2.890972 1.655,0.599916 3.1019,1.058168 3.21532,1.018336 0.26938,-0.09459 3.54686,-4.184324 3.54686,-4.42586 0,-0.234886 -4.86167,-3.786035 -7.82233,-5.713733 -3.00518,-1.956681 -8.76305,-4.766924 -11.92237,-5.818949 C 84.344113,46.201078 69.120464,51.477939 46.143416,71.16593 32.524014,82.835778 22.175127,94.619616 18.096362,103.10192 c -1.729597,3.59692 -2.283181,5.76427 -2.3131,9.05608 -0.02674,2.94215 0.365999,4.81451 1.496645,7.13512 0.854529,1.75388 8.699028,12.80681 8.927278,12.57856 0.05065,-0.0506 -0.01756,-0.3805 -0.151576,-0.733 z m 65.427355,-17.2571 c 0.949332,-2.58239 3.976885,-9.15348 6.215649,-13.49063 l 2.158554,-4.181757 -2.789036,-8.464339 -2.789035,-8.464339 -0.514579,0.458955 c -1.463104,1.304953 -9.627455,8.76649 -10.286383,9.400899 l -0.76427,0.73583 1.016985,3.437086 c 2.162621,7.308975 6.918836,22.230515 7.058641,22.144875 0.08085,-0.0495 0.392911,-0.75898 0.693474,-1.57658 z M 103.08575,90.676598 c 2.21208,-3.781179 2.5992,-4.585073 2.33406,-4.846907 -0.44815,-0.442578 -9.779909,-6.006879 -9.890063,-5.897209 -0.08148,0.08112 4.752033,15.277127 4.859313,15.277127 0.0246,0 1.23813,-2.039855 2.69669,-4.533011 z m 3.41867,-5.812175 c 0.0822,-0.214219 0.12029,-0.408365 0.0846,-0.431438 -3.94965,-2.555323 -10.233265,-6.290287 -10.582624,-6.290287 -1.124851,0 -0.544591,0.551 2.635911,2.502992 1.857963,1.140299 4.284793,2.637049 5.392953,3.326112 1.10816,0.689062 2.08343,1.259426 2.16726,1.267474 0.0838,0.008 0.21968,-0.160635 0.30188,-0.374853 z"
       id="path1" /></g></svg>
