<?xml version="1.0" encoding="UTF-8" standalone="no"?>
<!-- Created with Inkscape (http://www.inkscape.org/) -->

<svg
   width="960"
   height="960"
   viewBox="0 0 253.99999 254"
   version="1.1"
   id="svg1"
   xml:space="preserve"
   inkscape:version="1.4.4 (dcaf3e7, 2026-05-05)"
   sodipodi:docname="3gang.svg"
   xmlns:inkscape="http://www.inkscape.org/namespaces/inkscape"
   xmlns:sodipodi="http://sodipodi.sourceforge.net/DTD/sodipodi-0.dtd"
   xmlns="http://www.w3.org/2000/svg"
   xmlns:svg="http://www.w3.org/2000/svg"><sodipodi:namedview
     id="namedview1"
     pagecolor="#ffffff"
     bordercolor="#000000"
     borderopacity="0.25"
     inkscape:showpageshadow="2"
     inkscape:pageopacity="0.0"
     inkscape:pagecheckerboard="0"
     inkscape:deskcolor="#d1d1d1"
     inkscape:document-units="mm"
     inkscape:zoom="0.60662084"
     inkscape:cx="396.45852"
     inkscape:cy="676.69947"
     inkscape:window-width="1844"
     inkscape:window-height="1112"
     inkscape:window-x="0"
     inkscape:window-y="30"
     inkscape:window-maximized="0"
     inkscape:current-layer="layer1" /><defs
     id="defs1" /><g
     inkscape:label="Camada 1"
     inkscape:groupmode="layer"
     id="layer1"><path
       style="fill:#000000"
       d="m 121.34813,241.21258 c -42.666588,-0.79382 -64.058946,-1.12992 -64.138565,-1.00768 -0.06571,0.10087 -0.294747,0.27563 -0.508981,0.38835 -0.346488,0.1823 -0.44262,0.1247 -0.870255,-0.5215 -0.264407,-0.39955 -0.828132,-0.97689 -1.252723,-1.28299 -0.424591,-0.3061 -0.95306,-0.78584 -1.174376,-1.06609 L 53.000837,237.21313 52.816595,147.5469 C 52.715262,98.230481 52.583369,49.156285 52.523499,38.493135 c -0.09824,-17.497573 -0.08108,-19.387546 0.176075,-19.387546 0.229164,0 0.284929,-0.233165 0.284929,-1.191339 v -1.191338 l 1.140444,-1.15046 1.140443,-1.150459 34.304553,-0.772391 c 18.867507,-0.424816 41.735687,-0.967212 50.818177,-1.205325 9.0825,-0.238113 23.5342,-0.617305 32.1149,-0.842649 8.5807,-0.225343 15.89414,-0.352592 16.25209,-0.282776 0.85773,0.167297 2.08823,0.978064 2.37979,1.568017 0.37578,0.760372 0.48861,16.767503 0.51267,72.729406 0.02,46.412845 0.10471,69.577665 0.48785,133.340695 0.11733,19.52477 0.10425,21.12102 -0.17301,21.12102 -0.16496,0 -0.30031,0.1437 -0.30076,0.31933 -5.8e-4,0.21909 -0.53558,0.59139 -1.70436,1.18606 -1.6306,0.82964 -1.7653,0.86574 -3.14679,0.84351 -0.7938,-0.0128 -30.25187,-0.55922 -65.46237,-1.21431 z M 189.5806,238.503 c 0.12936,-0.68954 -0.94344,-207.203073 -1.1346,-218.410234 l -0.10922,-6.4029 -0.66365,-0.237463 c -0.36502,-0.130604 -0.7663,-0.275699 -0.89175,-0.322432 -0.3474,-0.129418 -0.27941,0.689771 0.0912,1.099198 0.30037,0.331811 0.32724,2.200224 0.45275,31.490619 0.0734,17.125833 0.11444,67.402212 0.0912,111.725292 -0.042,80.29934 -0.0435,80.58889 -0.40713,80.9967 -0.82822,0.92885 -0.24222,0.90877 -18.3578,0.6291 -9.27251,-0.14315 -25.11136,-0.38758 -35.19745,-0.54317 -19.04623,-0.29383 -42.742418,-0.66965 -64.229796,-1.01869 -10.03947,-0.16308 -12.603533,-0.25347 -13.029095,-0.45927 -0.676,-0.32692 -0.656232,-0.33207 -0.656232,0.17065 0,0.53311 0.752132,0.95102 1.016416,0.56476 0.142584,-0.20839 10.328064,-0.0607 63.852037,0.9259 35.02531,0.64561 64.70878,1.19675 65.96327,1.22477 2.16019,0.0482 2.30218,0.0292 2.68332,-0.36035 0.22133,-0.22621 0.45824,-0.70882 0.52646,-1.07248 z m -3.36481,0.10054 c 0.37083,-0.19846 0.88491,-1.19358 0.88491,-1.71293 0,-0.15792 -0.15879,-0.27957 -0.36494,-0.27957 -0.20274,0 -0.36494,0.12165 -0.36494,0.27371 0,0.15054 -0.17728,0.45099 -0.39396,0.66767 l -0.39396,0.39395 -9.59633,-0.12418 c -15.13707,-0.19588 -46.17679,-0.63268 -66.98346,-0.94261 -49.507933,-0.73747 -51.590454,-0.77697 -51.980858,-0.9859 -0.213581,-0.11431 -0.520998,-0.41031 -0.683149,-0.65778 -0.268317,-0.40951 -0.308317,-4.39903 -0.444957,-44.37966 -0.08258,-24.16134 -0.189934,-72.8947 -0.238575,-108.296354 l -0.08844,-64.366652 h 0.550477 c 0.386578,0 0.577363,-0.102809 0.640774,-0.345294 0.113169,-0.432759 0.356039,-0.440779 28.432253,-0.938818 11.340574,-0.201169 25.504892,-0.487361 31.476252,-0.635984 21.35148,-0.531421 39.73163,-1.000514 53.97404,-1.37751 13.22788,-0.350142 14.50694,-0.358179 14.91059,-0.0937 0.47821,0.313338 1.18424,0.389078 1.18424,0.127041 0,-0.08924 -0.15301,-0.351221 -0.34003,-0.582178 l -0.34003,-0.419923 -17.86145,0.406745 c -16.4206,0.373934 -28.36977,0.672439 -66.58122,1.663279 -7.627288,0.197779 -20.724146,0.530061 -29.104128,0.738405 -8.379982,0.208344 -15.544582,0.460782 -15.921334,0.560975 -1.365984,0.363266 -1.272425,-0.855806 -1.375307,17.920167 -0.05071,9.253842 0.0091,58.209595 0.132917,108.79056 l 0.225111,91.9654 0.436584,0.44803 0.436585,0.44803 13.734942,0.22487 c 17.782353,0.29113 44.13935,0.70292 74.49779,1.16392 13.34776,0.20268 25.6235,0.38953 27.27942,0.41521 9.0408,0.14021 13.91342,0.11666 14.26018,-0.0689 z m -0.50178,-1.42949 c 0.29182,-0.24268 0.30164,-6.3602 0.16427,-102.36624 -0.0804,-56.15947 -0.14611,-105.853648 -0.14611,-110.431503 v -8.323373 l -2.37212,0.0684 c -1.30467,0.03762 -30.20808,0.564934 -64.2298,1.171806 -36.562831,0.6522 -62.032661,1.175393 -62.285592,1.27945 l -0.427914,0.176046 0.114111,15.095482 c 0.06276,8.302515 0.284258,57.054692 0.492215,108.338171 0.207956,51.28348 0.412799,93.27895 0.455207,93.32327 0.138224,0.14446 21.795186,0.49485 91.577223,1.48166 7.828,0.11069 17.96883,0.26601 22.53517,0.34514 11.24662,0.19489 13.73212,0.16703 14.12334,-0.15831 z m -36.56728,-2.11401 c 0,-0.18834 0.18496,-0.2719 0.59303,-0.2679 0.56095,0.005 0.57387,0.0203 0.23883,0.2737 -0.45615,0.34502 -0.83186,0.3424 -0.83186,-0.006 z m -30.47266,-33.97377 c -22.333033,-0.26387 -37.259137,-0.50813 -37.449701,-0.61285 -0.174266,-0.0958 -0.635336,-0.17411 -1.0246,-0.17411 -0.765839,0 -1.571221,-0.49827 -1.758347,-1.08786 -0.06083,-0.19165 -0.250433,-0.37538 -0.421345,-0.4083 -0.292193,-0.0563 -0.306787,-4.34764 -0.244375,-71.8597 0.03835,-41.486121 0.13465,-71.825514 0.228089,-71.860658 0.08894,-0.03345 0.161713,-0.185002 0.161713,-0.336774 0,-0.151773 0.163934,-0.506175 0.364298,-0.78756 0.788199,-1.106923 2.633196,-1.221404 25.090408,-1.556843 10.63806,-0.158898 25.66455,-0.405981 33.3922,-0.549073 17.21256,-0.318723 23.49106,-0.326129 24.35087,-0.02872 0.39524,0.136714 0.76885,0.455537 1.00359,0.856438 l 0.37395,0.638649 0.0558,71.984815 c 0.0307,39.59165 0.003,72.58586 -0.0624,73.32048 -0.10034,1.1336 -0.20136,1.43034 -0.66778,1.96156 -0.53216,0.60609 -0.59193,0.62591 -1.88841,0.62591 -0.73638,0 -1.38961,0.0821 -1.45164,0.18247 -0.062,0.10036 -0.74429,0.17086 -1.51615,0.15667 -0.77186,-0.0142 -18.11317,-0.22323 -38.53624,-0.46454 z m 42.12434,-0.49957 c 0.27656,-0.14301 0.60686,-0.48834 0.73401,-0.76741 0.18557,-0.40726 0.22376,-14.89332 0.19354,-73.41265 -0.0393,-76.183744 -0.0132,-73.564111 -0.73884,-74.012589 -0.412,-0.254635 -1.49607,-0.412172 -1.78329,-0.259151 -0.24148,0.128652 -19.33813,0.47089 -75.394879,1.351177 -3.949702,0.06202 -4.245177,0.119383 -4.899412,0.951109 l -0.379093,0.481938 0,71.601126 c 0,78.42824 -0.08642,72.52957 1.07139,73.12829 0.465106,0.24052 1.414713,0.28622 5.990301,0.2883 2.990666,0.001 11.144355,0.0788 18.119313,0.17205 6.97495,0.0933 17.56739,0.22671 23.53876,0.29652 13.45801,0.15735 29.72509,0.36827 31.62217,0.41 0.93068,0.0205 1.59722,-0.0587 1.92603,-0.22871 z m -48.94808,-2.86444 c -25.309477,-0.28568 -29.784062,-0.37495 -30.129197,-0.60109 -0.222932,-0.14607 -0.633698,-0.65526 -0.912813,-1.13153 l -0.50748,-0.86595 0.255247,-17.71209 c 0.140386,-9.74165 0.23391,-20.15492 0.207832,-23.1406 -0.08074,-9.244 -0.102798,-33.93196 -0.05889,-65.910234 0.04463,-32.505272 0.01876,-31.549726 0.866356,-31.995185 0.37378,-0.196442 4.462704,-0.320725 19.585462,-0.595301 5.67029,-0.102952 20.8168,-0.467429 33.65891,-0.809948 l 23.3493,-0.622762 0.50599,0.585494 c 0.27829,0.322021 0.54355,0.749717 0.58946,0.950435 0.0459,0.200718 0.12118,32.079909 0.16727,70.842651 0.0832,69.9559 0.0811,70.48109 -0.27638,70.9356 l -0.36019,0.45791 -8.60851,-0.0259 c -4.73469,-0.0143 -21.98425,-0.17693 -38.33237,-0.36145 z m 44.27592,-0.0984 c -0.12545,-0.0506 -0.33073,-0.0506 -0.45618,0 -0.12545,0.0506 -0.0228,0.092 0.22809,0.092 0.2509,0 0.35354,-0.0414 0.22809,-0.092 z m -12.48956,-0.19754 c -0.97316,-0.0327 -2.6154,-0.0329 -3.64942,-2.9e-4 -1.03402,0.0326 -0.2378,0.0594 1.76939,0.0595 2.00718,1.7e-4 2.85319,-0.0265 1.88003,-0.0592 z m 15.27053,-0.4115 c 0.12179,-0.30164 0.15328,-6.60662 0.093,-18.61204 l -0.0912,-18.15587 -0.13685,11.02395 c -0.0753,6.06317 -0.13685,14.21818 -0.13685,18.12225 0,7.04655 -0.0446,7.62503 -0.62035,8.0402 -0.11466,0.0827 -0.006,0.12182 0.25369,0.0912 0.28443,-0.0335 0.52338,-0.22423 0.63865,-0.50973 z m -29.59262,0.22847 c -1.62446,-0.0302 -4.33416,-0.0303 -6.02155,-1.2e-4 -1.68738,0.0301 -0.35828,0.0549 2.95357,0.0549 3.31185,7e-5 4.69244,-0.0246 3.06798,-0.0548 z m -15.9658,-0.18255 c -1.87512,-0.0296 -4.99538,-0.0297 -6.93389,-1e-4 -1.93852,0.0296 -0.40433,0.0538 3.40932,0.0539 3.81364,5e-5 5.3997,-0.0241 3.52457,-0.0538 z M 98.179036,196.8781 c -2.490852,-0.0287 -6.514338,-0.0287 -8.94108,6e-5 -2.426743,0.0287 -0.388774,0.0522 4.52882,0.0522 4.917594,-3e-5 6.903114,-0.0235 4.41226,-0.0522 z m 59.604974,-1.2e-4 c 0.0455,-0.0753 -0.19602,-0.27881 -0.53665,-0.45232 -0.59724,-0.30421 -0.61932,-0.30313 -0.61932,0.0304 0,0.19023 -0.10264,0.38729 -0.22808,0.43791 -0.12545,0.0506 0.11604,0.0985 0.53664,0.10644 0.4206,0.008 0.80194,-0.0472 0.84741,-0.12245 z m -1.52091,-0.52333 c 0,-0.15054 -0.0821,-0.22296 -0.18247,-0.16094 -0.10036,0.062 -0.18247,0.23594 -0.18247,0.38648 0,0.15054 0.0821,0.22296 0.18247,0.16094 0.10036,-0.062 0.18247,-0.23594 0.18247,-0.38648 z m -1.09482,-22.23993 v -21.80529 l -2.96516,0.002 c -10.33805,0.008 -70.465826,0.56195 -70.554002,0.65013 -0.203219,0.20321 -0.776423,39.18671 -0.606829,41.27032 0.05563,0.68342 0.154455,0.95797 0.344838,0.95797 0.146775,0 0.227483,0.0637 0.179351,0.1416 -0.04813,0.0779 0.706558,0.14509 1.677089,0.14936 0.97053,0.004 12.357043,0.0908 25.303363,0.19227 12.94632,0.10149 28.73234,0.1985 35.08005,0.21559 l 11.5413,0.0311 z m -12.186,8.01765 c -0.22363,-0.15663 -0.54111,-0.54492 -0.70552,-0.86285 -0.26835,-0.51894 -0.28622,-1.29706 -0.17463,-7.60709 l 0.1243,-7.02902 0.73887,-0.70558 c 0.6573,-0.62769 0.81266,-0.69386 1.40735,-0.59937 0.41128,0.0653 0.85032,0.3078 1.14107,0.63015 0.40541,0.44946 0.49035,0.75505 0.59757,2.14997 0.12766,1.66076 0.002,9.98797 -0.18268,12.10529 -0.0844,0.9671 -0.19252,1.26269 -0.61768,1.68785 -0.59728,0.59729 -1.65556,0.7021 -2.32865,0.23065 z m 2.46573,-3.31495 c -0.0395,-0.37859 -0.0725,-0.11355 -0.0733,0.58896 -8.1e-4,0.70251 0.0315,1.01226 0.0718,0.68834 0.0403,-0.32393 0.041,-0.89872 0.001,-1.2773 z m -2.73824,-0.46025 c -0.0405,-0.32617 -0.0736,-0.0593 -0.0736,0.59303 0,0.65234 0.0331,0.9192 0.0736,0.59303 0.0405,-0.32616 0.0405,-0.85989 0,-1.18606 z m 2.73152,-1.73 c -0.0463,-0.17754 -0.0872,-0.0765 -0.0909,0.22462 -0.004,0.30107 0.0341,0.44633 0.0841,0.32279 0.05,-0.12354 0.053,-0.36987 0.007,-0.54741 z m -0.006,-5.93378 c -0.0506,-0.12545 -0.092,-0.0228 -0.092,0.22809 0,0.25089 0.0414,0.35353 0.092,0.22809 0.0506,-0.12545 0.0506,-0.33073 0,-0.45618 z m 0.19455,-2.8283 c -0.0394,-0.37635 -0.0716,-0.0684 -0.0716,0.68426 0,0.7527 0.0322,1.06062 0.0716,0.68427 0.0394,-0.37635 0.0394,-0.99219 0,-1.36853 z m -0.55569,-0.44478 c -0.0582,-0.14556 -0.10149,-0.10232 -0.11025,0.11025 -0.008,0.19235 0.0352,0.30012 0.0958,0.23949 0.0606,-0.0606 0.0671,-0.21801 0.0144,-0.34974 z m -2.18966,-0.36494 c -0.0582,-0.14556 -0.10148,-0.10232 -0.11024,0.11025 -0.008,0.19235 0.0352,0.30012 0.0958,0.23949 0.0606,-0.0606 0.0671,-0.21802 0.0144,-0.34974 z m 14.14459,28.4632 c -0.11709,-0.11709 -0.27346,-0.15231 -0.34749,-0.0783 -0.074,0.074 -0.0162,0.20779 0.12852,0.29724 0.34079,0.21061 0.49467,0.0567 0.21897,-0.21897 z m -0.36054,-36.40321 c 0.13008,-3.89474 0.16202,-6.89974 0.0724,-6.80997 -0.29956,0.30001 -0.48209,8.98955 -0.55204,26.27987 l -0.0698,17.24351 0.15831,-14.87139 c 0.0871,-8.17926 0.26307,-18.00817 0.39111,-21.84202 z m 0.44355,35.62645 c -0.0594,-0.15486 -0.19274,-0.28157 -0.29625,-0.28157 -0.26742,0 -0.23405,0.50062 0.0399,0.59846 0.30999,0.11071 0.38491,0.0181 0.25636,-0.31689 z m -0.14717,-1.21287 c -0.16398,-0.10259 -0.26724,-0.0563 -0.30961,0.13874 -0.035,0.16096 0.0471,0.36191 0.18247,0.44656 0.16398,0.10259 0.26724,0.0563 0.30961,-0.13874 0.035,-0.16096 -0.0471,-0.36191 -0.18247,-0.44656 z m 0.21014,-0.60018 c 0,-0.1398 -0.12317,-0.30145 -0.27371,-0.35922 -0.18617,-0.0714 -0.27371,0.01 -0.27371,0.25419 0,0.19765 0.12311,0.35921 0.27371,0.35921 0.15054,0 0.27371,-0.11438 0.27371,-0.25418 z m -0.063,-1.10648 c -0.0594,-0.15487 -0.19274,-0.28158 -0.29625,-0.28158 -0.26742,0 -0.23405,0.50063 0.0399,0.59846 0.30999,0.11071 0.38491,0.0181 0.25636,-0.31688 z m 0.063,-0.9007 c 0,-0.13981 -0.12317,-0.30145 -0.27371,-0.35922 -0.18617,-0.0714 -0.27371,0.01 -0.27371,0.25418 0,0.19766 0.12311,0.35922 0.27371,0.35922 0.15054,0 0.27371,-0.11438 0.27371,-0.25418 z m 0,-0.92111 c 0,-0.29061 -0.33107,-0.56165 -0.49086,-0.40185 -0.15011,0.1501 0.0842,0.66479 0.30266,0.66479 0.10351,0 0.1882,-0.11833 0.1882,-0.26294 z m -0.21014,-1.39825 c -0.16398,-0.10258 -0.26724,-0.0563 -0.30961,0.13874 -0.035,0.16096 0.0471,0.36191 0.18247,0.44657 0.16398,0.10258 0.26724,0.0563 0.30961,-0.13874 0.035,-0.16096 -0.0471,-0.36192 -0.18247,-0.44657 z m 0.21014,-0.60893 c 0,-0.29061 -0.33107,-0.56165 -0.49086,-0.40186 -0.15011,0.15011 0.0842,0.66479 0.30266,0.66479 0.10351,0 0.1882,-0.11832 0.1882,-0.26293 z m -0.21014,-1.39825 c -0.16398,-0.10258 -0.26724,-0.0563 -0.30961,0.13874 -0.035,0.16096 0.0471,0.36191 0.18247,0.44657 0.16398,0.10258 0.26724,0.0563 0.30961,-0.13875 0.035,-0.16096 -0.0471,-0.36191 -0.18247,-0.44656 z m 0.21014,-0.60893 c 0,-0.29061 -0.33107,-0.56165 -0.49086,-0.40186 -0.15011,0.15011 0.0842,0.66479 0.30266,0.66479 0.10351,0 0.1882,-0.11832 0.1882,-0.26293 z m -0.21014,-1.39825 c -0.16398,-0.10259 -0.26724,-0.0563 -0.30961,0.13874 -0.035,0.16096 0.0471,0.36191 0.18247,0.44656 0.16398,0.10259 0.26724,0.0563 0.30961,-0.13874 0.035,-0.16096 -0.0471,-0.36191 -0.18247,-0.44656 z m 0.21014,-0.60894 c 0,-0.2906 -0.33107,-0.56164 -0.49086,-0.40185 -0.15011,0.15011 0.0842,0.66479 0.30266,0.66479 0.10351,0 0.1882,-0.11832 0.1882,-0.26294 z m -0.21014,-1.39825 c -0.16398,-0.10258 -0.26724,-0.0563 -0.30961,0.13875 -0.035,0.16096 0.0471,0.36191 0.18247,0.44656 0.16398,0.10258 0.26724,0.0563 0.30961,-0.13874 0.035,-0.16096 -0.0471,-0.36191 -0.18247,-0.44657 z m 0.21014,-0.60893 c 0,-0.29061 -0.33107,-0.56164 -0.49086,-0.40185 -0.15011,0.15011 0.0842,0.66479 0.30266,0.66479 0.10351,0 0.1882,-0.11832 0.1882,-0.26294 z m 0,-1.08607 c 0,-0.1398 -0.12317,-0.30145 -0.27371,-0.35922 -0.18617,-0.0714 -0.27371,0.01 -0.27371,0.25419 0,0.19765 0.12311,0.35921 0.27371,0.35921 0.15054,0 0.27371,-0.11438 0.27371,-0.25418 z m 0,-0.92111 c 0,-0.29061 -0.33107,-0.56164 -0.49086,-0.40185 -0.15011,0.15011 0.0842,0.66479 0.30266,0.66479 0.10351,0 0.1882,-0.11832 0.1882,-0.26294 z m -0.0322,-1.13609 c -0.0888,-0.45778 -0.51518,-0.52064 -0.51518,-0.076 0,0.22414 0.11782,0.38015 0.28709,0.38015 0.16992,0 0.26301,-0.12414 0.22809,-0.3042 z m 0.0322,-0.97309 c 0,-0.20275 -0.12165,-0.36495 -0.27371,-0.36495 -0.49717,0 -0.32473,0.54091 0.22809,0.71548 0.0251,0.008 0.0456,-0.14982 0.0456,-0.35053 z m -0.0322,-1.03409 c -0.0888,-0.45778 -0.51518,-0.52064 -0.51518,-0.076 0,0.22414 0.11782,0.38015 0.28709,0.38015 0.16992,0 0.26301,-0.12415 0.22809,-0.3042 z m -0.1779,-1.35699 c -0.16398,-0.10258 -0.26724,-0.0563 -0.30961,0.13875 -0.035,0.16096 0.0471,0.36191 0.18247,0.44656 0.16398,0.10258 0.26724,0.0563 0.30961,-0.13874 0.035,-0.16096 -0.0471,-0.36191 -0.18247,-0.44657 z m 0.14717,-0.7943 c -0.0594,-0.15486 -0.19274,-0.28157 -0.29625,-0.28157 -0.26742,0 -0.23405,0.50062 0.0399,0.59846 0.30999,0.11071 0.38491,0.0181 0.25636,-0.31689 z m 0.063,-0.92022 c 0,-0.15054 -0.0821,-0.27371 -0.18247,-0.27371 -0.10036,0 -0.18248,0.12317 -0.18248,0.27371 0,0.15054 0.0821,0.2737 0.18248,0.2737 0.10036,0 0.18247,-0.12316 0.18247,-0.2737 z m 0,-0.90159 c 0,-0.14461 -0.0821,-0.31368 -0.18247,-0.37571 -0.10036,-0.062 -0.18248,0.0563 -0.18248,0.26294 0,0.20664 0.0821,0.37571 0.18248,0.37571 0.10036,0 0.18247,-0.11832 0.18247,-0.26294 z m 0,-1.10559 c 0,-0.15054 -0.0821,-0.27371 -0.18247,-0.27371 -0.10036,0 -0.18248,0.12317 -0.18248,0.27371 0,0.15054 0.0821,0.2737 0.18248,0.2737 0.10036,0 0.18247,-0.12316 0.18247,-0.2737 z m 0,-0.90159 c 0,-0.14462 -0.0821,-0.31369 -0.18247,-0.37571 -0.10036,-0.062 -0.18248,0.0563 -0.18248,0.26294 0,0.20664 0.0821,0.37571 0.18248,0.37571 0.10036,0 0.18247,-0.11832 0.18247,-0.26294 z m 0,-1.10559 c 0,-0.15054 -0.0821,-0.27371 -0.18247,-0.27371 -0.10036,0 -0.18248,0.12317 -0.18248,0.27371 0,0.15053 0.0821,0.2737 0.18248,0.2737 0.10036,0 0.18247,-0.12317 0.18247,-0.2737 z m 0,-0.90159 c 0,-0.14462 -0.0821,-0.31369 -0.18247,-0.37571 -0.10036,-0.062 -0.18248,0.0563 -0.18248,0.26294 0,0.20664 0.0821,0.37571 0.18248,0.37571 0.10036,0 0.18247,-0.11833 0.18247,-0.26294 z m 0,-1.1056 c 0,-0.15053 -0.0821,-0.2737 -0.18247,-0.2737 -0.10036,0 -0.18248,0.12317 -0.18248,0.2737 0,0.15054 0.0821,0.27371 0.18248,0.27371 0.10036,0 0.18247,-0.12317 0.18247,-0.27371 z m -0.0751,-1.32199 c -0.19933,-0.19933 -0.33601,0.11767 -0.1929,0.44739 0.1357,0.31264 0.14553,0.31235 0.22114,-0.006 0.0435,-0.18348 0.0308,-0.38192 -0.0282,-0.44097 z m 0.0173,-0.81064 c -0.0582,-0.14556 -0.10148,-0.10232 -0.11024,0.11025 -0.008,0.19235 0.0352,0.30012 0.0958,0.23949 0.0606,-0.0606 0.0671,-0.21801 0.0144,-0.34974 z m -0.004,-1.10623 c -0.0506,-0.12545 -0.092,-0.0228 -0.092,0.22809 0,0.2509 0.0414,0.35354 0.092,0.22809 0.0506,-0.12545 0.0506,-0.33073 0,-0.45618 z m 0.004,-0.90095 c -0.0582,-0.14556 -0.10148,-0.10232 -0.11024,0.11025 -0.008,0.19235 0.0352,0.30012 0.0958,0.23949 0.0606,-0.0606 0.0671,-0.21802 0.0144,-0.34974 z m -0.004,-1.10623 c -0.0506,-0.12545 -0.092,-0.0228 -0.092,0.22809 0,0.2509 0.0414,0.35354 0.092,0.22809 0.0506,-0.12545 0.0506,-0.33073 0,-0.45618 z m 0.004,-0.90095 c -0.0582,-0.14556 -0.10148,-0.10232 -0.11024,0.11024 -0.008,0.19236 0.0352,0.30013 0.0958,0.2395 0.0606,-0.0606 0.0671,-0.21802 0.0144,-0.34974 z m -0.004,-1.10623 c -0.0506,-0.12545 -0.092,-0.0228 -0.092,0.22809 0,0.2509 0.0414,0.35354 0.092,0.22809 0.0506,-0.12545 0.0506,-0.33073 0,-0.45618 z m 0.004,-0.90095 c -0.0582,-0.14556 -0.10148,-0.10232 -0.11024,0.11024 -0.008,0.19236 0.0352,0.30013 0.0958,0.2395 0.0606,-0.0606 0.0671,-0.21802 0.0144,-0.34974 z m -0.49795,-8.19261 c -0.11202,-0.20931 -0.24822,-0.33602 -0.30267,-0.28158 -0.1504,0.15041 0.0905,0.66215 0.31173,0.66215 0.13495,0 0.13217,-0.11668 -0.009,-0.38057 z m 1.6506,-0.16684 c 0,-0.10036 -0.19856,-0.18247 -0.44125,-0.18247 -0.24269,0 -0.57207,-0.0502 -0.73195,-0.11156 -0.21277,-0.0816 -0.26046,-0.0327 -0.17788,0.18247 0.12473,0.32503 1.35108,0.42628 1.35108,0.11156 z m -14.36959,-0.13576 c -0.82796,-0.0338 -2.18281,-0.0338 -3.01077,0 -0.82796,0.0338 -0.15054,0.0615 1.50538,0.0615 1.65593,0 2.33335,-0.0277 1.50539,-0.0615 z m -19.35628,-0.18355 c -7.861,-0.0263 -20.67046,-0.0263 -28.465483,0 -7.795022,0.0263 -1.363301,0.0479 14.292713,0.0479 15.65601,0 22.03376,-0.0215 14.17277,-0.0479 z m -41.711527,-0.61581 0.897987,-0.0228 -0.956414,-0.13958 c -0.526027,-0.0768 -1.080283,-0.18712 -1.231679,-0.24522 -0.209168,-0.0803 -0.275266,0.0312 -0.275266,0.46434 0,0.54062 0.01718,0.55442 0.333692,0.26798 0.205228,-0.18573 0.679398,-0.31075 1.23168,-0.32475 z m 75.984817,-0.10907 c 0,-0.67232 -0.003,-0.67504 -0.28955,-0.26587 -0.22938,0.32749 -0.2437,0.46862 -0.0689,0.67925 0.31985,0.38539 0.35844,0.34088 0.35844,-0.41338 z m -5.60151,0.17847 c -0.92311,-0.033 -2.48324,-0.0332 -3.46695,-3.1e-4 -0.98371,0.0329 -0.22844,0.0599 1.67838,0.0601 1.90682,1.8e-4 2.71168,-0.0267 1.78857,-0.0598 z m -27.92754,-0.18347 c -7.55202,-0.0264 -19.90987,-0.0264 -27.461893,0 -7.55202,0.0264 -1.373095,0.0479 13.730943,0.0479 15.10404,0 21.28297,-0.0216 13.73095,-0.0479 z m 32.20477,-0.72297 c -0.48463,-0.48463 -0.50032,-0.48746 -0.75872,-0.13686 -0.24747,0.33579 -0.22215,0.3649 0.40778,0.46897 0.36939,0.061 0.71082,0.12261 0.75871,0.13686 0.0479,0.0142 -0.1356,-0.1968 -0.40777,-0.46897 z m -63.684827,0.0197 c -0.06063,-0.0606 -0.218015,-0.0671 -0.349736,-0.0144 -0.145564,0.0582 -0.102326,0.10149 0.110242,0.11024 0.192355,0.008 0.300127,-0.0352 0.239494,-0.0958 z m 1.831779,-0.0201 c -0.27419,-0.0416 -0.766862,-0.0425 -1.094826,-0.002 -0.327964,0.0406 -0.103627,0.0747 0.498528,0.0757 0.602154,0.001 0.870488,-0.0322 0.596298,-0.0738 z m 1.182794,0.01 c -0.125449,-0.0506 -0.330729,-0.0506 -0.456178,0 -0.125448,0.0506 -0.02281,0.092 0.228089,0.092 0.250898,0 0.353538,-0.0414 0.228089,-0.092 z m 0.912355,0 c -0.125449,-0.0506 -0.330729,-0.0506 -0.456177,0 -0.125449,0.0506 -0.02281,0.092 0.228088,0.092 0.250898,0 0.353538,-0.0414 0.228089,-0.092 z m 58.652229,-0.64325 c -0.0583,-0.14556 -0.10149,-0.10233 -0.11024,0.11024 -0.008,0.19236 0.0352,0.30013 0.0958,0.2395 0.0606,-0.0606 0.0671,-0.21802 0.0144,-0.34974 z m -74.572826,-0.35386 c 0,-0.15214 8.219966,-0.17552 31.613106,-0.0899 17.38721,0.0636 33.93277,0.16624 36.76791,0.22802 l 5.15481,0.11234 v -21.64524 -21.64523 l -1.23168,0.001 c -5.39037,0.006 -72.382178,1.11065 -72.466377,1.19484 -0.191946,0.19195 -0.34814,7.65286 -0.486841,23.25489 -0.139202,15.65836 -0.07372,18.79451 0.392395,18.79451 0.141172,0 0.256677,-0.0925 0.256677,-0.2056 z m 61.510326,-13.34556 c -0.24122,-0.12397 -0.61073,-0.45692 -0.82112,-0.73989 -0.49072,-0.65999 -0.55543,-2.57911 -0.33185,-9.84187 0.15676,-5.09235 0.17373,-5.26016 0.57524,-5.68754 0.64508,-0.68666 1.36618,-0.92298 2.00672,-0.65766 0.80797,0.33467 1.0677,0.72592 1.277,1.92365 0.10501,0.60092 0.32826,1.66737 0.49611,2.36988 0.22591,0.94549 0.30431,2.10681 0.30182,4.47054 -0.003,2.82632 -0.0562,3.39243 -0.46329,4.92672 -0.25295,0.95341 -0.51301,1.96183 -0.5779,2.24093 -0.12727,0.54738 -1.04821,1.22601 -1.6592,1.22265 -0.20072,-0.001 -0.56231,-0.10344 -0.80353,-0.22741 z m -0.61654,-2.8231 c -0.0419,-0.27737 -0.0774,-0.0937 -0.0787,0.40805 -0.001,0.50179 0.0329,0.72873 0.0763,0.5043 0.0433,-0.22443 0.0444,-0.63499 0.002,-0.91235 z m 14.78607,15.9637 c -0.0488,-0.24413 -0.32341,-0.49442 -0.54741,-0.499 -0.22947,-0.005 -0.15232,0.50797 0.0912,0.60624 0.38835,0.1567 0.50355,0.12962 0.45618,-0.10724 z m -1.09639,-3.27732 c -0.0357,-0.63118 -0.0653,-0.16226 -0.0656,1.04205 -3.6e-4,1.20431 0.0289,1.72073 0.065,1.1476 0.0361,-0.57313 0.0364,-1.55848 6.6e-4,-2.18965 z m 1.07904,2.14475 c -0.0594,-0.15487 -0.23379,-0.28158 -0.38748,-0.28158 -0.38673,0 -0.35272,0.50435 0.0399,0.59168 0.4137,0.092 0.47941,0.0334 0.34759,-0.3101 z m 0.063,-0.73134 c 0,-0.147 -0.16422,-0.35517 -0.36494,-0.46259 -0.3073,-0.16446 -0.36495,-0.13877 -0.36495,0.16267 0,0.19689 0.1437,0.39553 0.31933,0.44143 0.17563,0.0459 0.33985,0.093 0.36494,0.10461 0.0251,0.0117 0.0456,-0.0991 0.0456,-0.24612 z m -0.0969,-1.00085 c 0.0589,-0.0953 -0.0594,-0.26244 -0.26294,-0.37136 -0.28797,-0.15412 -0.37006,-0.14265 -0.37006,0.0517 0,0.44965 0.4212,0.66238 0.633,0.31969 z m 0.0969,-1.01275 c 0,-0.15053 -0.0343,-0.2737 -0.0763,-0.2737 -0.042,0 -0.2062,-0.0498 -0.36494,-0.11076 -0.18537,-0.0711 -0.28864,-0.0113 -0.28864,0.16726 0,0.25225 0.23177,0.43848 0.59304,0.4765 0.0753,0.008 0.13685,-0.10876 0.13685,-0.2593 z m 0,-0.90593 c 0,-0.14701 -0.16422,-0.35518 -0.36494,-0.4626 -0.3073,-0.16446 -0.36495,-0.13877 -0.36495,0.16267 0,0.19689 0.1437,0.39554 0.31933,0.44143 0.17563,0.0459 0.33985,0.093 0.36494,0.10462 0.0251,0.0116 0.0456,-0.0991 0.0456,-0.24612 z m 0,-1.10125 c 0,-0.15054 -0.0754,-0.2737 -0.16755,-0.2737 -0.0922,0 -0.30698,-0.0535 -0.4774,-0.11891 -0.26753,-0.10266 -0.28116,-0.0653 -0.0997,0.27371 0.24001,0.44847 0.74469,0.52905 0.74469,0.1189 z m 0,-0.88306 c 0,-0.13443 -0.20528,-0.33795 -0.45618,-0.45227 -0.37073,-0.16891 -0.45618,-0.15901 -0.45618,0.0529 0,0.1434 0.1437,0.34442 0.31933,0.44672 0.43596,0.25392 0.59303,0.24138 0.59303,-0.0473 z m -0.28348,-1.3363 c -0.43672,-0.31934 -0.62888,-0.30846 -0.62888,0.0356 0,0.33242 0.78574,0.68342 0.89185,0.3984 0.0389,-0.10449 -0.0794,-0.29979 -0.26297,-0.43399 z m 0.28348,-0.68065 c 0,-0.23909 -0.37047,-0.4757 -0.74481,-0.4757 -0.25162,0 -0.20159,0.50326 0.0605,0.60904 0.42604,0.1719 0.68427,0.12158 0.68427,-0.13334 z m 0,-0.93776 c 0,-0.33242 -0.78574,-0.68342 -0.89185,-0.3984 -0.0707,0.18981 0.46523,0.67799 0.74425,0.67799 0.0812,0 0.1476,-0.12582 0.1476,-0.27959 z m -0.0295,-1.26303 c -0.034,-0.0299 -0.2465,-0.11108 -0.47231,-0.18049 -0.29175,-0.0897 -0.41056,-0.0515 -0.41056,0.13192 0,0.37803 0.80207,0.71067 0.88287,0.36614 0.034,-0.1448 0.034,-0.28771 0,-0.31757 z m 0.0295,-0.74415 c 0,-0.33242 -0.78574,-0.68342 -0.89185,-0.3984 -0.0707,0.18981 0.46523,0.67799 0.74425,0.67799 0.0812,0 0.1476,-0.12582 0.1476,-0.27959 z m -0.28348,-1.30112 c -0.43672,-0.31934 -0.62888,-0.30847 -0.62888,0.0356 0,0.33243 0.78574,0.68343 0.89185,0.3984 0.0389,-0.10449 -0.0794,-0.29978 -0.26297,-0.43398 z m 0.28348,-0.67089 c 0,-0.13443 -0.20528,-0.33795 -0.45618,-0.45227 -0.39969,-0.18211 -0.45618,-0.1648 -0.45618,0.1398 0,0.30047 0.21506,0.44904 0.77551,0.53572 0.0753,0.0116 0.13685,-0.0888 0.13685,-0.22325 z m 0,-0.93523 c 0,-0.23354 -0.51619,-0.64507 -0.80912,-0.64507 -0.24119,0 -0.0766,0.5448 0.21609,0.71527 0.44376,0.25847 0.59303,0.2408 0.59303,-0.0702 z m 0,-1.07195 c 0,-0.13443 -0.20528,-0.33795 -0.45618,-0.45227 -0.39924,-0.1819 -0.45618,-0.16468 -0.45618,0.13798 0,0.33746 0.22344,0.51519 0.68427,0.5443 0.12545,0.008 0.22809,-0.0956 0.22809,-0.23001 z m -0.0746,-0.95624 c -0.0766,-0.52165 -0.83775,-0.83464 -0.83775,-0.34447 0,0.23124 0.1662,0.35261 0.8506,0.6212 0.0162,0.006 0.0104,-0.11817 -0.0129,-0.27673 z m 0.0746,-1.05094 c 0,-0.13443 -0.20528,-0.33795 -0.45618,-0.45227 -0.39924,-0.1819 -0.45618,-0.16468 -0.45618,0.13798 0,0.33746 0.22344,0.51519 0.68427,0.5443 0.12545,0.008 0.22809,-0.0956 0.22809,-0.23001 z m 0,-1.03288 c 0,-0.20072 -0.0754,-0.36495 -0.16755,-0.36495 -0.0922,0 -0.29743,-0.0498 -0.45618,-0.11075 -0.40359,-0.15488 -0.37683,0.40619 0.0307,0.64355 0.46985,0.27367 0.59303,0.2388 0.59303,-0.16785 z m 0,-0.97431 c 0,-0.13443 -0.20528,-0.33794 -0.45618,-0.45226 -0.39924,-0.18191 -0.45618,-0.16468 -0.45618,0.13797 0,0.33747 0.22344,0.5152 0.68427,0.54431 0.12545,0.008 0.22809,-0.0956 0.22809,-0.23002 z m -0.28348,-1.33629 c -0.43672,-0.31934 -0.62888,-0.30847 -0.62888,0.0356 0,0.33242 0.78574,0.68342 0.89185,0.3984 0.0389,-0.10449 -0.0794,-0.29979 -0.26297,-0.43399 z m 0.25124,-0.7252 c -0.0325,-0.1643 -0.24375,-0.36694 -0.46956,-0.4503 -0.33414,-0.12335 -0.41056,-0.0876 -0.41056,0.19229 0,0.18912 0.10264,0.38527 0.22809,0.43589 0.45553,0.18381 0.70976,0.11445 0.65203,-0.17788 z m 0.003,-1.24389 c -0.034,-0.0299 -0.2465,-0.11107 -0.47231,-0.18048 -0.29175,-0.0897 -0.41056,-0.0515 -0.41056,0.13192 0,0.37803 0.80207,0.71066 0.88287,0.36614 0.034,-0.14481 0.034,-0.28772 0,-0.31758 z m 0.0295,-0.71875 c 0,-0.23908 -0.37047,-0.47569 -0.74481,-0.47569 -0.30438,0 -0.17399,0.51897 0.15178,0.6041 0.54674,0.14288 0.59303,0.13285 0.59303,-0.12841 z m -0.0295,-1.28843 c -0.034,-0.0299 -0.23969,-0.10891 -0.45718,-0.17568 -0.32963,-0.1012 -0.37966,-0.061 -0.3006,0.24126 0.11086,0.42393 0.66768,0.59755 0.75778,0.23629 0.034,-0.13617 0.034,-0.27201 0,-0.30187 z m -0.005,-0.78179 c -0.0763,-0.39643 -0.69556,-0.54557 -0.69556,-0.16754 0,0.25072 0.23759,0.435 0.60642,0.47036 0.0826,0.008 0.12274,-0.12835 0.0891,-0.30282 z m 0.0343,-0.93879 c 0,-0.1902 -0.16296,-0.38627 -0.36494,-0.43909 -0.45981,-0.12024 -0.49443,0.32426 -0.0456,0.58567 0.42087,0.24513 0.41056,0.24881 0.41056,-0.14658 z m -0.87661,-14.57371 c 0.0305,-1.12925 0.006,-2.05301 -0.055,-2.0528 -0.2458,8.2e-4 -0.34173,2.80218 -0.31556,9.21515 l 0.0275,6.75143 0.14375,-5.93031 c 0.0791,-3.26167 0.16873,-6.85423 0.19924,-7.98347 z m 0.84228,13.50532 c -0.0763,-0.39643 -0.69556,-0.54558 -0.69556,-0.16754 0,0.25072 0.23759,0.43499 0.60642,0.47036 0.0826,0.008 0.12274,-0.12835 0.0891,-0.30282 z m 0.0343,-1.03178 c 0,-0.25638 -0.52475,-0.5592 -0.68731,-0.39663 -0.0482,0.0482 -0.039,0.21437 0.0204,0.36923 0.13463,0.35083 0.66692,0.37269 0.66692,0.0274 z m 0,-0.92546 c 0,-0.14701 -0.16422,-0.35518 -0.36494,-0.4626 -0.30701,-0.1643 -0.36495,-0.13877 -0.36495,0.16085 0,0.32024 0.20719,0.51401 0.59304,0.55463 0.0753,0.008 0.13685,-0.10587 0.13685,-0.25288 z m -0.21014,-1.39591 c -0.38212,-0.24217 -0.51975,-0.19185 -0.51975,0.19005 0,0.40975 0.60827,0.60284 0.70223,0.22292 0.035,-0.14138 -0.0472,-0.32721 -0.18248,-0.41297 z m 0.13114,-0.66331 c -0.0577,-0.3945 -0.65089,-0.54527 -0.65089,-0.16544 0,0.24226 0.22882,0.42882 0.57689,0.47036 0.0664,0.008 0.0997,-0.12929 0.074,-0.30492 z m 0.079,-0.93669 c 0,-0.1902 -0.16296,-0.38628 -0.36494,-0.4391 -0.45981,-0.12024 -0.49443,0.32427 -0.0456,0.58567 0.42087,0.24513 0.41056,0.24881 0.41056,-0.14657 z m -0.079,-1.07049 c -0.0577,-0.3945 -0.65089,-0.54527 -0.65089,-0.16544 0,0.24226 0.22882,0.42882 0.57689,0.47036 0.0664,0.008 0.0997,-0.12929 0.074,-0.30492 z m 0.016,-1.04134 c -0.0594,-0.15487 -0.19274,-0.28158 -0.29625,-0.28158 -0.26741,0 -0.23404,0.50063 0.0399,0.59847 0.30999,0.1107 0.38491,0.0181 0.25636,-0.31689 z m 0.063,-0.90946 c 0,-0.2906 -0.33107,-0.56164 -0.49086,-0.40185 -0.15011,0.15011 0.0842,0.66479 0.30266,0.66479 0.10351,0 0.1882,-0.11832 0.1882,-0.26294 z m -0.21014,-1.39825 c -0.16398,-0.10258 -0.26724,-0.0563 -0.30961,0.13875 -0.035,0.16096 0.0472,0.36191 0.18247,0.44656 0.16399,0.10259 0.26725,0.0563 0.30962,-0.13874 0.035,-0.16096 -0.0472,-0.36191 -0.18248,-0.44657 z m 0.21014,-0.60017 c 0,-0.1398 -0.12317,-0.30145 -0.27371,-0.35922 -0.27435,-0.10528 -0.38648,0.25733 -0.15206,0.49175 0.20459,0.20459 0.42577,0.13574 0.42577,-0.13253 z m -0.063,-1.10648 c -0.0594,-0.15487 -0.19274,-0.28158 -0.29625,-0.28158 -0.26741,0 -0.23404,0.50063 0.0399,0.59846 0.30999,0.11071 0.38491,0.0181 0.25636,-0.31688 z m 0.063,-0.9007 c 0,-0.13981 -0.12317,-0.30145 -0.27371,-0.35922 -0.27435,-0.10528 -0.38648,0.25733 -0.15206,0.49175 0.20459,0.20459 0.42577,0.13574 0.42577,-0.13253 z m -0.0777,-0.96761 c -0.025,-0.17019 -0.14088,-0.34125 -0.25756,-0.38015 -0.28727,-0.0957 -0.2719,0.45259 0.0159,0.56874 0.12545,0.0506 0.24136,0.0985 0.25757,0.10644 0.0162,0.008 0.009,-0.12484 -0.016,-0.29503 z m -0.13243,-1.35175 c -0.16398,-0.10258 -0.26724,-0.0563 -0.30961,0.13874 -0.035,0.16096 0.0472,0.36191 0.18247,0.44657 0.16399,0.10258 0.26725,0.0563 0.30962,-0.13874 0.035,-0.16096 -0.0472,-0.36192 -0.18248,-0.44657 z m 0.21014,-0.6197 c 0,-0.15054 -0.0821,-0.27371 -0.18247,-0.27371 -0.10036,0 -0.18247,0.12317 -0.18247,0.27371 0,0.15054 0.0821,0.2737 0.18247,0.2737 0.10036,0 0.18247,-0.12316 0.18247,-0.2737 z m -50.362,-0.62842 c 10.68824,-0.17694 17.87303,-0.33308 15.96621,-0.34697 -2.96313,-0.0216 -26.318555,0.21114 -37.724751,0.37593 -1.981469,0.0286 -3.603181,0.11363 -3.603803,0.1889 -0.0015,0.18189 2.526669,0.16018 25.362344,-0.21786 z m 48.66374,-0.32608 c -0.0463,-0.17754 -0.0872,-0.0765 -0.0909,0.22461 -0.004,0.30108 0.0341,0.44634 0.0841,0.3228 0.05,-0.12354 0.053,-0.36988 0.007,-0.54741 z m 1.69826,0.13338 c 0,-0.10036 -0.0821,-0.18247 -0.18247,-0.18247 -0.10036,0 -0.18247,0.0821 -0.18247,0.18247 0,0.10036 0.0821,0.18247 0.18247,0.18247 0.10036,0 0.18247,-0.0821 0.18247,-0.18247 z m -74.125586,-0.31285 c -0.27419,-0.0416 -0.766862,-0.0425 -1.094826,-0.002 -0.327965,0.0406 -0.103627,0.0747 0.498527,0.0757 0.602154,0.001 0.870489,-0.0322 0.596299,-0.0738 z m 53.551976,-0.006 c -1.02868,-0.0325 -2.71197,-0.0325 -3.74065,0 -1.02869,0.0325 -0.18704,0.0591 1.87032,0.0591 2.05736,0 2.89901,-0.0266 1.87033,-0.0591 z m -37.680265,-0.18309 c -2.684605,-0.0284 -7.077595,-0.0284 -9.7622,0 -2.684605,0.0284 -0.48811,0.0517 4.8811,0.0517 5.36921,0 7.565705,-0.0233 4.8811,-0.0517 z m 58.983755,-0.0393 c 0,-0.21655 -0.60387,-0.55383 -0.99159,-0.55383 -0.44307,0 -0.33667,0.51221 0.12486,0.60111 0.72628,0.13989 0.86673,0.13223 0.86673,-0.0473 z m -75.451765,-0.48593 1.094826,-0.20582 -1.10395,-0.0223 c -0.607172,-0.0123 -1.202484,-0.12081 -1.322914,-0.24125 -0.170307,-0.1703 -0.218966,-0.0868 -0.218966,0.37572 0,0.43282 0.06208,0.55449 0.228089,0.44705 0.125449,-0.0812 0.720761,-0.24024 1.322915,-0.35343 z m 36.187585,0.34284 c -2.47689,-0.0287 -6.58249,-0.0287 -9.12355,-6e-5 -2.54105,0.0286 -0.5145,0.0521 4.50345,0.0521 5.01796,4e-5 7.097,-0.0234 4.6201,-0.052 z m 20.25419,-0.18246 c -2.37659,-0.0288 -6.31796,-0.0288 -8.75861,-6e-5 -2.44064,0.0288 -0.49616,0.0523 4.32108,0.0523 4.81723,4e-5 6.81412,-0.0235 4.43753,-0.0523 z m 13.93565,-0.18226 c -1.33568,-0.0312 -3.47059,-0.0311 -4.74424,1.9e-4 -1.27366,0.0313 -0.18083,0.0569 2.42851,0.0568 2.60933,-1.1e-4 3.65141,-0.0257 2.31573,-0.057 z m -38.99241,-0.22541 c 35.33554,-0.32166 42.99031,-0.41046 42.90308,-0.49769 -0.0896,-0.0896 -71.508489,0.46503 -72.463385,0.56269 -1.279187,0.13083 11.018096,0.10379 29.560305,-0.065 z m 44.61417,-0.45926 v -0.63865 l -0.37716,0.37716 c -0.2998,0.2998 -0.33264,0.43077 -0.16012,0.63864 0.35552,0.42839 0.53728,0.30081 0.53728,-0.37715 z m -32.47985,-0.46427 c 10.6853,-0.10424 8.50673,-0.11464 -8.57613,-0.0409 -12.59507,0.0543 -25.815092,0.15966 -29.377839,0.23404 -3.871663,0.0808 -0.42139,0.0973 8.576138,0.0409 8.279621,-0.0519 21.499651,-0.15719 29.377831,-0.23404 z m 31.34604,-0.39246 c -0.33367,-0.50254 -0.6909,-0.63351 -0.6909,-0.2533 0,0.1589 -0.1437,0.2971 -0.31933,0.3071 -0.38313,0.0218 0.40993,0.30063 0.93461,0.32857 0.31126,0.0166 0.31797,-0.0174 0.0756,-0.38237 z m -75.652997,-0.28371 0.05774,-0.5018 36.494209,-0.14605 c 25.60462,-0.10248 36.58948,-0.0884 36.81352,0.0472 0.17563,0.10627 0.31933,0.1192 0.31933,0.0287 0,-0.0905 -0.1235,-0.21189 -0.27444,-0.26981 -0.24253,-0.0931 -0.26905,-2.677821 -0.22809,-22.235369 l 0.0464,-22.130058 0.41056,-0.05831 c 0.22581,-0.03207 0.41056,-0.13471 0.41056,-0.228089 0,-0.237739 -1.20838,-0.224606 -25.91088,0.281601 -12.09327,0.247817 -26.50392,0.534386 -32.023669,0.63682 -13.335585,0.247478 -15.530829,0.340531 -15.804189,0.669909 -0.29786,0.3589 -0.464411,4.811888 -0.698618,18.678644 -0.262491,15.54134 -0.314374,24.61809 -0.144197,25.22662 0.07718,0.27599 0.215423,0.50179 0.307204,0.50179 0.09178,0 0.192856,-0.2258 0.224612,-0.50179 z M 143.36521,87.722756 c -0.82849,-0.353213 -0.87515,-0.684354 -0.93951,-6.668256 -0.0335,-3.111131 -0.004,-6.433298 0.0655,-7.382594 0.11961,-1.633941 0.15838,-1.758019 0.72686,-2.326505 0.78384,-0.783836 1.79252,-0.832969 2.63019,-0.128116 l 0.56142,0.472398 -0.013,6.142177 c -0.0162,7.671655 -0.10512,8.806584 -0.73961,9.441069 -0.5155,0.515508 -1.62639,0.733542 -2.29186,0.449827 z m 1.97291,-0.874801 c 0.22697,-0.289409 0.22051,-0.295863 -0.0689,-0.06889 -0.17563,0.137737 -0.31932,0.281433 -0.31932,0.319324 0,0.15018 0.14984,0.05352 0.38822,-0.250431 z m -0.47946,-0.228089 c 0.0686,-0.111006 -0.19517,-0.181377 -0.67349,-0.179677 -0.57489,0.002 -0.71269,0.05035 -0.51257,0.179677 0.35817,0.231465 1.04301,0.231465 1.18606,0 z m -1.09482,-0.729884 c -0.062,-0.100359 -0.19489,-0.182471 -0.29525,-0.182471 -0.10036,0 -0.13172,0.08211 -0.0697,0.182471 0.062,0.100359 0.19489,0.182471 0.29525,0.182471 0.10036,0 0.13172,-0.08211 0.0697,-0.182471 z m 12.25897,16.023238 c -0.0582,-0.14556 -0.10149,-0.10233 -0.11024,0.11024 -0.008,0.19236 0.0352,0.30013 0.0958,0.23949 0.0606,-0.0606 0.0671,-0.21801 0.0144,-0.34973 z m 0.514,-0.33073 c 0.062,-0.10036 0.0258,-0.18247 -0.0805,-0.18247 -0.10628,0 -0.19324,0.0821 -0.19324,0.18247 0,0.10036 0.0362,0.18247 0.0805,0.18247 0.0443,0 0.13121,-0.0821 0.19324,-0.18247 z m 0.95417,-0.47519 c -0.0606,-0.0606 -0.21802,-0.0671 -0.34974,-0.0144 -0.14556,0.0583 -0.10232,0.10149 0.11025,0.11024 0.19235,0.008 0.30012,-0.0352 0.23949,-0.0958 z m -0.97131,-9.788805 c -0.0199,-9.190761 0.046,-14.117756 0.38451,-28.711267 0.0852,-3.673801 0.0769,-6.262477 -0.0203,-6.321253 -0.0946,-0.05722 -0.1841,1.230447 -0.21046,3.028471 -0.0252,1.720406 -0.12749,6.781992 -0.22726,11.24797 -0.21369,9.565525 -0.24404,30.472664 -0.0442,30.472664 0.0764,0 0.12934,-4.372465 0.11774,-9.716585 z m 1.02073,9.097455 c 0,-0.1398 -0.12317,-0.30145 -0.27371,-0.35921 -0.18617,-0.07145 -0.2737,0.01 -0.2737,0.25418 0,0.19765 0.1231,0.35921 0.2737,0.35921 0.15054,0 0.27371,-0.11438 0.27371,-0.25418 z m -0.063,-1.106478 c -0.0594,-0.154867 -0.19274,-0.281577 -0.29625,-0.281577 -0.26741,0 -0.23404,0.500626 0.0399,0.598462 0.30999,0.110709 0.38491,0.0181 0.25636,-0.316885 z m 0.063,-0.82899 c 0,-0.202745 -0.12165,-0.364942 -0.27371,-0.364942 -0.49717,0 -0.32473,0.540904 0.22809,0.715479 0.0251,0.0079 0.0456,-0.149819 0.0456,-0.350537 z m 0,-0.984068 c 0,-0.139801 -0.12317,-0.301448 -0.27371,-0.359215 -0.18617,-0.07144 -0.2737,0.0098 -0.2737,0.254184 0,0.197655 0.1231,0.359215 0.2737,0.359215 0.15054,0 0.27371,-0.114383 0.27371,-0.254184 z m 0,-0.912355 c 0,-0.139801 -0.12317,-0.301448 -0.27371,-0.359215 -0.27435,-0.10528 -0.38648,0.25733 -0.15206,0.491752 0.20459,0.204589 0.42577,0.135739 0.42577,-0.132537 z m -0.063,-1.106479 c -0.0594,-0.154867 -0.19274,-0.281576 -0.29625,-0.281576 -0.26741,0 -0.23404,0.500626 0.0399,0.598461 0.30999,0.110709 0.38491,0.0181 0.25636,-0.316885 z m 0.063,-0.900702 c 0,-0.139802 -0.12317,-0.301448 -0.27371,-0.359215 -0.18617,-0.07144 -0.2737,0.0098 -0.2737,0.254184 0,0.197655 0.1231,0.359215 0.2737,0.359215 0.15054,0 0.27371,-0.114383 0.27371,-0.254184 z m 0,-0.931878 c 0,-0.150538 -0.0343,-0.273706 -0.0763,-0.273706 -0.042,0 -0.21575,-0.05351 -0.38617,-0.118904 -0.26753,-0.102661 -0.28116,-0.06527 -0.0997,0.273707 0.24219,0.452531 0.56222,0.520215 0.56222,0.118903 z m -0.14598,-1.222556 c -0.10287,-0.102868 -0.28732,-0.153601 -0.40991,-0.112741 -0.15508,0.0517 -0.12079,0.17637 0.11275,0.409909 0.23353,0.233538 0.35821,0.267828 0.4099,0.112741 0.0409,-0.122582 -0.01,-0.307041 -0.11274,-0.409909 z m 0.14598,-0.784625 c 0,-0.150539 -0.0343,-0.273706 -0.0763,-0.273706 -0.042,0 -0.20021,-0.04754 -0.35163,-0.105649 -0.20676,-0.07934 -0.25061,-0.01118 -0.17611,0.273706 0.11338,0.433586 0.60405,0.519404 0.60405,0.105649 z m -0.0343,-0.955877 c -0.0336,-0.174476 -0.21066,-0.346033 -0.39347,-0.381238 -0.28465,-0.05482 -0.30307,-0.0093 -0.12834,0.317229 0.247,0.461518 0.60686,0.505662 0.52181,0.06401 z m -0.0265,-1.264187 c -0.0512,-0.0512 -0.23735,-0.0653 -0.41366,-0.03134 -0.29846,0.05749 -0.2963,0.08603 0.0313,0.41366 0.32763,0.327628 0.35617,0.329791 0.41366,0.03134 0.034,-0.176317 0.0199,-0.362464 -0.0313,-0.41366 z m 0.0608,-0.699472 c 0,-0.150539 -0.0343,-0.273707 -0.0763,-0.273707 -0.042,0 -0.20021,-0.04754 -0.35163,-0.105649 -0.20676,-0.07934 -0.25061,-0.01118 -0.17611,0.273707 0.11338,0.433586 0.60405,0.519404 0.60405,0.105649 z m -0.0343,-0.955878 c -0.0336,-0.174476 -0.21066,-0.346032 -0.39347,-0.381237 -0.28465,-0.05482 -0.30307,-0.0093 -0.12834,0.317229 0.247,0.461518 0.60686,0.505661 0.52181,0.06401 z m 0.0343,-0.938786 c 0,-0.189013 -0.15808,-0.384999 -0.35129,-0.435525 -0.2664,-0.06967 -0.32474,-0.01969 -0.2414,0.206807 0.0932,0.253161 0.38769,0.559821 0.54707,0.569584 0.0251,0.0015 0.0456,-0.151853 0.0456,-0.340866 z m 0,-1.014104 c 0,-0.290608 -0.33107,-0.561644 -0.49086,-0.401852 -0.15011,0.150108 0.0842,0.66479 0.30266,0.66479 0.10351,0 0.1882,-0.118322 0.1882,-0.262938 z m 0,-1.014359 c 0,-0.202746 -0.12165,-0.364942 -0.27371,-0.364942 -0.49717,0 -0.32473,0.540903 0.22809,0.715478 0.0251,0.0079 0.0456,-0.149818 0.0456,-0.350536 z m 0,-0.984068 c 0,-0.139802 -0.12317,-0.301449 -0.27371,-0.359216 -0.27435,-0.105279 -0.38648,0.257331 -0.15206,0.491752 0.20459,0.20459 0.42577,0.13574 0.42577,-0.132536 z m -0.063,-1.106479 c -0.0594,-0.154867 -0.19274,-0.281576 -0.29625,-0.281576 -0.26741,0 -0.23404,0.500626 0.0399,0.598461 0.30999,0.110709 0.38491,0.0181 0.25636,-0.316885 z m 0.063,-0.900703 c 0,-0.139801 -0.12317,-0.301448 -0.27371,-0.359215 -0.18617,-0.07144 -0.2737,0.0098 -0.2737,0.254184 0,0.197655 0.1231,0.359216 0.2737,0.359216 0.15054,0 0.27371,-0.114383 0.27371,-0.254185 z m 0,-0.912355 c 0,-0.139801 -0.12317,-0.301448 -0.27371,-0.359215 -0.27435,-0.10528 -0.38648,0.257331 -0.15206,0.491752 0.20459,0.204589 0.42577,0.135739 0.42577,-0.132537 z m -0.063,-1.106479 c -0.0594,-0.154866 -0.19274,-0.281576 -0.29625,-0.281576 -0.26741,0 -0.23404,0.500626 0.0399,0.598462 0.30999,0.110709 0.38491,0.0181 0.25636,-0.316886 z m 0.063,-0.900702 c 0,-0.139801 -0.12317,-0.301448 -0.27371,-0.359215 -0.27435,-0.10528 -0.38648,0.257331 -0.15206,0.491752 0.20459,0.204589 0.42577,0.135739 0.42577,-0.132537 z m -0.18247,-1.114348 c 0,-0.150539 -0.0821,-0.273707 -0.18247,-0.273707 -0.10036,0 -0.18247,0.123168 -0.18247,0.273707 0,0.150538 0.0821,0.273706 0.18247,0.273706 0.10036,0 0.18247,-0.123168 0.18247,-0.273706 z m 0,-0.901587 c 0,-0.144615 -0.0821,-0.313685 -0.18247,-0.375711 -0.10036,-0.06202 -0.18247,0.0563 -0.18247,0.262938 0,0.206641 0.0821,0.375711 0.18247,0.375711 0.10036,0 0.18247,-0.118322 0.18247,-0.262938 z m -0.16194,-1.249291 c -0.14902,-0.149018 -0.203,-0.128598 -0.203,0.07679 0,0.362727 0.24537,0.608096 0.33605,0.336051 0.0385,-0.115413 -0.0214,-0.301191 -0.13305,-0.412841 z m 0.16194,-0.768659 c 0,-0.150538 -0.0821,-0.273706 -0.18247,-0.273706 -0.10036,0 -0.18247,0.123168 -0.18247,0.273706 0,0.150539 0.0821,0.273707 0.18247,0.273707 0.10036,0 0.18247,-0.123168 0.18247,-0.273707 z m -0.16194,-1.238522 c -0.14902,-0.149018 -0.203,-0.128598 -0.203,0.07679 0,0.362726 0.24537,0.608096 0.33605,0.336051 0.0385,-0.115413 -0.0214,-0.301191 -0.13305,-0.412841 z m 0.0868,-0.995824 c -0.19933,-0.199331 -0.33601,0.117668 -0.1929,0.447384 0.1357,0.31264 0.14553,0.312355 0.22114,-0.0064 0.0435,-0.183483 0.0308,-0.381921 -0.0282,-0.440972 z m 0.0751,-0.68519 c 0,-0.150539 -0.0821,-0.273707 -0.18247,-0.273707 -0.10036,0 -0.18247,0.123168 -0.18247,0.273707 0,0.150539 0.0821,0.273706 0.18247,0.273706 0.10036,0 0.18247,-0.123167 0.18247,-0.273706 z m -0.0578,-1.037804 c -0.0582,-0.145563 -0.10149,-0.102325 -0.11025,0.110243 -0.008,0.192355 0.0352,0.300127 0.0958,0.239493 0.0606,-0.06063 0.0671,-0.218015 0.0144,-0.349736 z m -0.004,-1.106231 c -0.0506,-0.125448 -0.092,-0.02281 -0.092,0.228089 0,0.250898 0.0414,0.353538 0.092,0.228089 0.0506,-0.125449 0.0506,-0.330729 0,-0.456178 z m 0.004,-0.90095 c -0.0582,-0.145563 -0.10149,-0.102326 -0.11025,0.110243 -0.008,0.192355 0.0352,0.300127 0.0958,0.239493 0.0606,-0.06063 0.0671,-0.218015 0.0144,-0.349736 z m 0,-0.912355 c -0.0582,-0.145563 -0.10149,-0.102326 -0.11025,0.110243 -0.008,0.192355 0.0352,0.300126 0.0958,0.239493 0.0606,-0.06063 0.0671,-0.218015 0.0144,-0.349736 z m 0,-1.094826 c -0.0582,-0.145563 -0.10149,-0.102326 -0.11025,0.110243 -0.008,0.192354 0.0352,0.300126 0.0958,0.239493 0.0606,-0.06063 0.0671,-0.218015 0.0144,-0.349736 z m 0,-0.912355 c -0.0582,-0.145564 -0.10149,-0.102326 -0.11025,0.110242 -0.008,0.192355 0.0352,0.300127 0.0958,0.239494 0.0606,-0.06063 0.0671,-0.218015 0.0144,-0.349736 z m 0,-0.912356 c -0.0582,-0.145563 -0.10149,-0.102325 -0.11025,0.110243 -0.008,0.192355 0.0352,0.300127 0.0958,0.239494 0.0606,-0.06063 0.0671,-0.218015 0.0144,-0.349737 z m -1.08399,-7.127774 c -0.0346,-0.727603 -0.063,-0.132291 -0.063,1.322915 0,1.455206 0.0283,2.050518 0.063,1.322915 0.0346,-0.727603 0.0346,-1.918227 0,-2.64583 z m -74.702229,0.264043 c 0.0741,-0.741146 0.05074,-1.110401 -0.0657,-1.03844 -0.09938,0.06142 -0.180684,0.61318 -0.180684,1.226138 0,1.388356 0.09613,1.315123 0.24638,-0.187698 z m 80.689339,-4.700786 c -0.0633,-0.337714 -0.19387,-0.662655 -0.29004,-0.72209 -0.10769,-0.06656 -0.10498,0.07573 0.007,0.37042 0.10005,0.263166 0.19144,0.740003 0.20308,1.059636 0.0125,0.343774 0.0567,0.443277 0.10813,0.243606 0.0478,-0.185651 0.0351,-0.613858 -0.0282,-0.951572 z M 54.901408,18.553805 c 0.06666,-0.303482 0.326815,-0.796153 0.578132,-1.094826 l 0.45694,-0.543042 h -0.439075 c -0.370602,0 -0.486955,0.151894 -0.746104,0.97401 -0.355281,1.12708 -0.365412,1.215642 -0.139057,1.215642 0.09239,0 0.222509,-0.248303 0.289164,-0.551784 z M 179.02636,15.139574 c -0.4767,-0.03759 -1.25677,-0.03759 -1.73347,0 -0.47671,0.03759 -0.0867,0.06834 0.86673,0.06834 0.95342,0 1.34345,-0.03075 0.86674,-0.06834 z m 5.3829,-0.177123 c -0.22581,-0.04349 -0.59531,-0.04349 -0.82112,0 -0.22581,0.04349 -0.0411,0.07908 0.41056,0.07908 0.45161,0 0.63637,-0.03558 0.41056,-0.07908 z"
       id="path1" /></g></svg>
