<svg xmlns="http://www.w3.org/2000/svg" xml:space="preserve" width="960" height="960" viewBox="0 0 254 254"><path d="M173.213 247.704a1661 1661 0 0 0-16.908-2.148 2783 2783 0 0 1-17.399-2.176l-11.517-1.491a3409 3409 0 0 0-29.65-3.686c-5.392-.645-12.229-1.5-15.194-1.902a919 919 0 0 0-12.865-1.609l-7.474-.879V12.66l3.308-1.51c2.547-1.161 3.816-1.465 5.514-1.317 1.213.105 5.734.424 10.047.708 11.576.764 27.579 1.907 34.552 2.469 3.37.27 10.868.82 16.663 1.218 5.796.399 13.294.956 16.664 1.239 3.369.282 12.522.96 20.339 1.507s15.922 1.122 18.01 1.278l3.799.284V131.34c0 89.515-.127 112.96-.613 113.556-2.934 3.604-6.76 4.226-17.276 2.808m14.147-2.082 2.272-1.332.061-110.741.061-111.477c0-.404-.027-.953-.061-1.22s-1.274.11-2.756.837l-2.694 1.321-.124 111.273-.123 111.274-2.94-.152c-2.99-.154-5.852-.468-15.93-1.747-3.099-.394-6.958-.847-8.576-1.008-1.617-.16-4.595-.514-6.616-.786-3.81-.513-12.79-1.591-30.876-3.708a3396 3396 0 0 1-13.968-1.657 1512 1512 0 0 0-10.047-1.182c-3.64-.417-8.38-.972-10.537-1.233-2.157-.26-6.016-.713-8.577-1.004s-6.034-.772-7.72-1.066l-3.062-.536-.007-56.919c-.015-118.175-.016-137.605-.005-148.9.011-10.908.067-11.625.93-11.899.845-.268 11.454.41 26.527 1.698 3.37.288 12.412.969 20.094 1.513 7.683.545 21.026 1.532 29.651 2.194s18.771 1.424 22.545 1.694 9.499.7 12.722.956l5.86.465 2.471-1.44 2.472-1.442-1.716-.026c-.943-.014-4.472-.236-7.841-.493a4671 4671 0 0 0-16.419-1.205c-5.66-.405-13.159-.953-16.663-1.217s-12.657-.924-20.339-1.468-16.725-1.208-20.094-1.476c-3.37-.269-12.977-.97-21.35-1.559l-15.224-1.07-2.665 1.428-2.665 1.428-.123 109.37-.124 109.37 3.31.535c3.964.642 14.023 1.897 35.41 4.418 2.291.27 8.577 1.06 13.968 1.755 5.391.696 11.456 1.465 13.478 1.71 2.021.244 6.322.8 9.557 1.233 5.931.795 8.87 1.161 19.603 2.441 8.133.97 14.214 1.744 17.399 2.216 4.9.726 8.921.316 11.45-1.166m-4.582-111.545c.008-60.736-.063-110.509-.161-110.606-.098-.098-3.687-.398-7.976-.665-4.29-.268-10.004-.698-12.7-.955s-8.43-.71-12.742-1.008c-9.977-.687-25.12-1.802-33.327-2.455-6.04-.48-11.345-.88-25.975-1.961-3.504-.259-9.9-.7-14.213-.98-4.313-.279-8.227-.591-8.697-.693-.812-.176-.862 5.356-.98 107.835l-.125 108.021 1.47.227c.809.125 4.668.571 8.577.993 3.908.42 8.54.98 10.292 1.24 2.766.412 12.496 1.557 24.995 2.94 4.84.536 30.375 3.6 40.923 4.912 19.811 2.462 30.394 3.732 30.504 3.66.065-.042.125-49.77.135-110.505m-31.129 61.448c-4.313-.63-9.385-1.359-11.272-1.617-52.575-7.21-54.643-7.542-54.652-8.789-.241-33.29.126-136.163.488-136.524.454-.455 21.116.952 31.62 2.152 2.156.246 8.22.8 13.477 1.228 5.256.43 11.1.977 12.988 1.218 1.886.24 6.849.714 11.027 1.054 6.768.55 7.716.737 8.699 1.72l1.103 1.102v68.914c0 81.877 1.953 71.8-13.478 69.542m11.887-69.441.124-69.483-1.104-.41c-.608-.225-3.42-.558-6.25-.74-2.831-.183-8.345-.662-12.253-1.066a963 963 0 0 0-15.684-1.45c-8.862-.737-10.88-.921-29.343-2.678-6.03-.574-11.269-.927-11.64-.784-1.036.397-1.008 135.324.028 135.721.386.149 2.537.512 4.778.807 2.242.295 7.053.964 10.692 1.486 3.64.523 13.123 1.845 21.075 2.94 23.35 3.212 31.945 4.423 34.551 4.87 1.348.23 3.002.385 3.676.344l1.225-.074zm-15.563 65.058c-14.992-2.212-52.254-7.514-55.136-7.846-2.181-.251-3.288-.664-4.288-1.6l-1.348-1.26v-39.072l1.307-1.21c1.273-1.181.779-2.575-.94-2.648-.201-.008-.367-8.71-.367-19.337V98.847l1.234-1.465 1.233-1.466-1.233-.97-1.234-.97V56.118l1.593-1.732 1.593-1.732 9.067.773 17.643 1.505c4.717.402 11.113.943 14.213 1.201 23.688 1.975 28.47 2.42 28.909 2.69.932.577.663 131.851-.273 132.787-.981.981-2.559.92-11.973-.47m8.762-.479c-.713-.387-7.362-1.473-14.948-2.44a3175 3175 0 0 1-19.202-2.5c-3.047-.415-5.888-.686-6.313-.602-.64.127 38.708 6.077 41.013 6.2.405.023.157-.274-.55-.658m2.943-22.074c-.048-15.972-.212-21.683-.616-21.445-.304.178-1.268.862-2.144 1.52l-1.593 1.195v39.068l1.838.944c2.687 1.38 2.586 2.24 2.515-21.282m-5.333.512c0-15.159-.133-19.359-.613-19.36-.337-.002-6.788-.766-14.335-1.698-23.431-2.895-50.268-6.142-50.759-6.142-.292 0-.42 7.235-.34 19.22l.128 19.22 8.577 1.076c10.404 1.305 46.633 5.96 50.725 6.518 1.618.22 3.768.429 4.779.463l1.838.062zm-39.82 15.59c-.473-.122-1.245-.122-1.716 0-.472.124-.086.225.857.225.944 0 1.33-.101.858-.224m-3.922-.49c-.471-.123-1.243-.123-1.715 0-.472.124-.086.225.858.225.943 0 1.329-.101.857-.224m-3.666-.473c-.332-.134-.994-.143-1.47-.019-.477.125-.206.235.603.244.809.008 1.199-.091.867-.225zm-3.44-.493c-.337-.136-.888-.136-1.225 0s-.062.247.612.247.95-.111.613-.247m53.313-35.82 2.064-1.348-2.877-.358c-24.982-3.103-65.87-6.485-66.201-5.475-.194.592 1.927.895 30.487 4.363 9.973 1.21 21.221 2.616 24.995 3.124 9.185 1.236 9.17 1.236 11.532-.306m2.915-23.158c-.02-13.369-.199-20.094-.533-20.094-.276 0-1.262.58-2.19 1.288l-1.689 1.288.128 18.417.129 18.416 1.225.341c3.21.892 2.964 2.542 2.93-19.656m-5.38.736c0-16.69-.074-18.38-.802-18.38-.83 0-6.891-.698-42.391-4.886-11.491-1.355-21.363-2.465-21.938-2.465H88.17l.128 18.735.128 18.735 8.332.823c15.887 1.57 38.267 3.898 46.07 4.792 4.312.495 8.668.927 9.679.962l1.838.062zm2.443-20.696 2.042-1.336-21.48-2.092c-48.968-4.77-45.85-4.528-47.208-3.654-.868.558-1.011.825-.49.915.404.07 10.439 1.24 22.3 2.6 11.86 1.362 25.754 2.998 30.875 3.637 11.976 1.493 11.572 1.495 13.961-.07m-1.34-2.909c-.338-.136-.889-.136-1.226 0s-.061.247.613.247.95-.11.612-.247m4.135-21.607c-.033-10.58-.146-19.236-.25-19.236-.106 0-1.05.68-2.1 1.511l-1.908 1.512v36.57l1.838.738c2.54 1.02 2.49 1.45 2.42-21.095m-8.302 21.104c-.471-.123-1.243-.123-1.715 0s-.086.224.858.224c.943 0 1.33-.1.857-.224m-4.646-.474c-.332-.134-.994-.142-1.47-.018-.477.124-.206.234.603.244s1.199-.092.867-.226zm-5.166-.465c-.163-.162-.585-.18-.94-.038-.39.156-.274.272.297.296.517.021.806-.095.643-.258m12.759-17.96-.129-18.256-22.79-2.53c-12.533-1.391-26.207-2.886-30.385-3.322a1367 1367 0 0 1-10.17-1.09l-2.573-.3v37.268l3.799.33c6.757.585 38.779 3.734 49.867 4.903 5.93.625 11.17 1.163 11.646 1.195.812.055.856-1.022.735-18.198m-18.15 17.47c-.163-.162-.585-.18-.94-.038-.39.156-.274.272.297.296.517.021.806-.095.643-.258m-5.136-.518c-.337-.136-.888-.136-1.225 0s-.061.247.613.247.95-.111.612-.247m-4.9-.49c-.338-.136-.889-.136-1.226 0s-.061.247.613.247.95-.111.612-.247m-9.793-.977c-.332-.135-.994-.143-1.47-.019-.477.124-.206.234.603.244s1.199-.091.867-.226zm-4.665-.507c-.472-.123-1.244-.123-1.716 0s-.086.224.858.224c.943 0 1.33-.1.858-.224m-4.901-.49c-.472-.123-1.244-.123-1.716 0s-.086.224.858.224c.943 0 1.33-.1.858-.224m-5.892-.448c-.163-.163-.585-.18-.94-.039-.39.157-.274.273.297.296.517.021.806-.095.643-.257m57.29-36.319c-.1-.101-10.521-1.058-23.157-2.126l-29.1-2.462c-14.598-1.238-14.776-1.245-15.606-.638-1.317.963-1.598.922 31.535 4.562 17.521 1.925 32.077 3.566 32.347 3.647.52.156 4.293-2.67 3.981-2.983" style="fill:#000;stroke-width:1.85235"/></svg>