<svg xmlns="http://www.w3.org/2000/svg" width="960" height="960" viewBox="0 0 254 254"><path d="M108.555 247.428c-10.682-2.726-33.186-8.354-52.955-13.243-4.854-1.2-9.393-2.38-10.086-2.622-4.069-1.422-7.952-5.581-9.662-10.348-.284-.792-.804-1.763-1.156-2.159-1.193-1.343-1.883-3.419-1.863-5.612.015-1.802.289-2.775 2.587-9.21 2.924-8.186 14.304-40.951 18.643-53.675 1.592-4.67 4.24-12.376 5.883-17.124 1.643-4.75 4.54-13.232 6.438-18.852 1.898-5.619 6.437-18.959 10.087-29.643s7.823-22.989 9.276-27.342 2.918-8.54 3.257-9.307c.806-1.82 3.405-4.294 5.151-4.905 2.4-.84 4.45-.61 14.87 1.666 5.366 1.172 10.34 2.254 11.052 2.404l1.296.272 1.449-4.634c.797-2.55 1.637-5.17 1.867-5.825.515-1.465 1.955-3.03 3.444-3.742 1.335-.639 1.326-.912-.13-4.035-4.393-9.416-21.38-11.206-35.822-3.774-5.419 2.789-9.36 5.675-13.847 10.14-10.39 10.34-17.983 24.514-24.55 45.82-2.077 6.744-5.567 20.515-7.114 28.076-.772 3.775-.785 3.957-.29 4.118.79.258 2.409 2.35 2.608 3.371.125.644-.195 2.204-1.106 5.384-2.073 7.233-2.948 10.191-3.213 10.863-.269.681.046 2.034 1.985 8.528 1.306 4.376 1.384 6.034.442 9.377l-.66 2.34.66 1.339c.362.736.66 1.659.66 2.05 0 .693-.866 4.05-1.432 5.549-.35.929-1.892 1.708-3.775 1.908l-1.431.152-1.461 5.072c-2.02 7.012-2.181 7.422-3.26 8.268-1.039.813-2.953 1.007-4.041.408-.785-.431-1.69-1.973-1.69-2.883-.001-.396.621-2.662 1.382-5.037a641 641 0 0 0 2.26-7.195c.482-1.583.936-3.023 1.009-3.2.078-.19-.4-.461-1.153-.656-1.325-.343-1.818-.249-1.819.348 0 .188-1.065 3.904-2.367 8.257-2.158 7.216-2.447 7.984-3.279 8.704-1.614 1.397-3.41 1.287-4.803-.293-1.107-1.256-.961-2.125 1.758-10.453 1.416-4.338 2.595-8.003 2.62-8.144.057-.311-2.61-1.083-3.104-.9-.193.073-.35.319-.35.548 0 .71-4.235 14.377-4.717 15.22-.25.44-1.004 1.072-1.676 1.406-1.06.527-1.364.564-2.297.276-.592-.182-1.4-.727-1.797-1.21-1.143-1.397-.982-2.717 1.115-9.116 1.01-3.081 1.797-5.62 1.75-5.64-2.252-1.036-4.426-2.906-4.426-3.808 0-.301.459-1.963 1.02-3.694 1.066-3.286 1.877-4.481 3.042-4.481.529 0 .731-.357 1.395-2.453.427-1.35 1.135-2.961 1.572-3.581.652-.924 6.652-6.522 10.555-9.849.516-.44.907-1.044.907-1.401 0-.346 1.075-4.036 2.39-8.202 2.63-8.338 2.921-8.858 5.184-9.23 1.063-.174 1.093-.213 1.4-1.798 2.789-14.383 6.354-27.855 10.37-39.179C53.771 56.27 58.917 46.26 66.212 36.59c3.737-4.955 10.939-11.732 16.285-15.326 5.385-3.62 13.54-6.943 20.033-8.163 4.117-.773 11.89-.728 15.698.092 3.317.713 6.58 1.957 9.08 3.46 3.432 2.064 6.973 6.048 8.543 9.611.71 1.611 1.549 5.294 1.578 6.932.014.773.233 1.106 1.191 1.813.65.48 1.455 1.438 1.804 2.148 1.015 2.062.858 3.592-.91 8.88-.848 2.533-1.541 4.738-1.541 4.898s.724.442 1.61.624c.887.183 3.944.834 6.795 1.446 10.832 2.327 21.482 4.539 22.714 4.717 1.866.27 4.433 1.641 5.767 3.082 2.269 2.45 4.928 7.272 5.988 10.856 1.033 3.493.76 5.86-1.48 12.849a2812 2812 0 0 0-5.119 16.26 5287 5287 0 0 1-9.102 28.925c-1.055 3.324-3.007 9.54-4.34 13.815a5592 5592 0 0 1-6.622 21.01l-5.98 18.85c-.978 3.087-2.788 8.786-4.022 12.664a5406 5406 0 0 0-4.952 15.685c-8.543 27.215-9.948 31.423-11.01 32.985-2.121 3.12-5.512 4.872-9.376 4.849-1.55-.01-3.967-.508-10.29-2.123m14.65-1.132c1.699-.854 2.954-2.141 3.853-3.951.317-.637 2.28-6.559 4.361-13.16 6.629-21.009 14.633-46.295 17.055-53.875 1.29-4.036 4.443-14.009 7.008-22.16a9464 9464 0 0 1 6.45-20.435c3.127-9.827 15.315-48.675 16.505-52.61 1.243-4.11.943-7.169-1.109-11.289l-.784-1.576-1.507 4.749c-7.2 22.699-9.25 29.136-10.312 32.377-.674 2.058-2.691 8.404-4.483 14.103s-3.81 12.044-4.485 14.102-3.26 10.152-5.745 17.988c-2.484 7.835-5.823 18.326-7.42 23.312l-5.295 16.549c-1.317 4.115-3.956 12.34-5.866 18.275-1.91 5.936-4.444 13.86-5.632 17.609-2.553 8.055-3.425 9.66-6.317 11.63-1.142.777-3.847 1.556-5.406 1.556-.597 0-3.44-.592-6.316-1.316s-7.877-1.963-11.113-2.752a8838 8838 0 0 0-30.68-7.442l-17.906-4.305c-5.303-1.276-9.68-2.28-9.727-2.232-.183.188 1.961 3.573 2.932 4.63 1.377 1.497 3.927 3.183 5.416 3.579.667.178 5.437 1.363 10.6 2.635a5586 5586 0 0 1 18.632 4.63c5.085 1.274 13.658 3.42 19.052 4.768 5.393 1.347 12.58 3.148 15.97 4.002 5.31 1.336 6.48 1.54 8.436 1.472 1.801-.062 2.595-.241 3.833-.863m-5.457-9.944c1.446-.758 2.895-2.284 3.654-3.848.543-1.117 4.602-13.74 28.156-87.557 18.67-58.512 24.692-77.492 24.99-78.771.38-1.62-1.162-4.317-3.035-5.311-.462-.246-3.879-1.086-7.593-1.868s-10.095-2.122-14.179-2.979a2076 2076 0 0 1-14.009-2.995c-3.621-.791-12.39-2.67-19.487-4.174s-14.094-3.01-15.55-3.345c-3.224-.743-4.887-.598-6.931.601-1.826 1.07-2.604 2.271-3.824 5.894-1.76 5.228-10.027 29.495-16.418 48.194-1.766 5.166-3.928 11.508-9.37 27.486-2.577 7.565-9.309 27.174-13.833 40.292-3.52 10.206-11.803 34.04-14.925 42.947-1.334 3.806.165 7.169 3.677 8.25.847.261 6.457 1.646 12.467 3.078 23.122 5.507 24.688 5.886 48.751 11.804 5.086 1.25 9.94 2.464 10.787 2.696 2.079.568 5.185.385 6.672-.394m-39.733-24.488c-.694-.135-4.35-1.025-8.125-1.978-10.196-2.574-14.017-3.493-14.53-3.496-.773-.004-3.24-1.307-4.32-2.281-.561-.507-1.34-1.617-1.732-2.467-1.221-2.65-1.06-3.83 1.65-12.172 2.388-7.342 3.008-8.665 4.789-10.204 1.982-1.712 5.087-2.715 7.278-2.35.617.103 4.651 1.02 8.966 2.038s9.504 2.226 11.532 2.683c5.466 1.233 7.458 2.502 8.822 5.617 1.097 2.502.921 3.715-1.704 11.8-1.286 3.957-2.566 7.663-2.845 8.235-.72 1.477-3.119 3.588-4.676 4.117-1.755.596-3.563.759-5.105.458m4.919-2.58c2.314-1.032 3.046-2.342 5.64-10.087 2.68-8.002 2.877-9.303 1.775-11.642-.751-1.594-2.401-2.819-4.436-3.292-2.282-.53-15.46-3.666-18.965-4.512-4.446-1.073-6.247-1.081-8.316-.04-1.87.943-3.074 2.247-3.678 3.987-4.453 12.819-4.877 14.624-3.962 16.876.919 2.259 2.713 3.52 5.777 4.06 1.43.251 12.192 2.888 21.666 5.307.911.233 3.277-.113 4.499-.658m-15.333-4.892c-3.8-.936-7.293-1.904-7.76-2.152-1.185-.63-1.956-1.78-3.96-5.906-1.612-3.316-1.732-3.696-1.618-5.11.16-1.979.666-2.52 4.404-4.7 1.626-.95 3.594-2.11 4.373-2.58.939-.567 1.834-.867 2.661-.892 1.166-.036 14.092 2.854 15.713 3.512 1.231.5 2.047 1.661 4.131 5.88 2.077 4.203 2.33 5.256 1.604 6.697-.58 1.153-1.039 1.498-5.632 4.241-3.48 2.08-4.443 2.528-5.603 2.61-1.006.073-3.35-.379-8.313-1.6m9.584-.543c3.316-1.808 7.226-4.248 7.764-4.846 1.085-1.206.843-2.395-1.306-6.421-1.055-1.977-2.217-3.815-2.582-4.084-.66-.487-12.007-3.293-14.58-3.606-1.252-.152-1.515-.057-3.94 1.424-1.429.873-3.381 1.99-4.338 2.484-2.955 1.523-3.01 2.363-.48 7.34 1.012 1.993 2.153 3.877 2.535 4.185.417.337 2.618 1.03 5.513 1.737l7.06 1.725c2.852.699 3.178.704 4.354.062zm-1.628-5.707c-.603-.25-1.21-1.764-1.019-2.544.335-1.372 1.993-2.215 3.324-1.69.552.217 1.274 1.584 1.274 2.41 0 .955-1.228 2.02-2.3 1.994-.507-.013-1.083-.09-1.279-.17m-12.742-3.19c-.429-.492-.587-1.148-.522-2.158.106-1.658 2.869-2.287 3.934-.897.77 1.006.733 1.99-.107 2.853-.846.869-2.631.978-3.305.203m8.265-3.14c-.192-.08-.35-.527-.35-.994 0-.616.173-.916.63-1.093.84-.326 1.612.122 1.612.935 0 1.09-.826 1.594-1.892 1.152m24.015 9.161c-.49-.407-.591-.701-.447-1.29.267-1.095 1.495-1.374 2.186-.497.649.823.643 1.03-.047 1.738-.69.71-.891.715-1.692.049m-4.892-29.603c-.308-.073-3.713-.906-7.565-1.852s-8.707-2.104-10.787-2.573c-2.08-.47-4.395-1.139-5.143-1.488-2.638-1.231-4.653-4.423-4.669-7.396-.002-.564 1.097-4.459 2.443-8.653l2.448-7.627 1.69-1.75c1.964-2.033 3.515-2.711 6.2-2.711 1.85 0 4.374.515 14.122 2.883 3.313.805 7.222 1.722 8.686 2.039 5.144 1.112 7.845 4.07 7.845 8.59 0 1.496-4.339 15.214-5.336 16.871-.767 1.276-2.057 2.366-3.77 3.188-1.106.53-1.844.665-3.503.641-1.155-.016-2.353-.09-2.661-.162m5.656-2.423c2.243-1.105 2.992-2.331 4.591-7.51.797-2.58 1.812-5.81 2.255-7.18 1.268-3.912 1.037-5.795-.976-7.95-.796-.852-1.579-1.357-2.555-1.648-1.51-.45-20.38-4.9-22.687-5.349-2.84-.554-5.734.583-7.264 2.854-.391.58-1.733 4.164-2.981 7.963-1.975 6.01-2.253 7.099-2.137 8.382.143 1.578.916 3.411 1.762 4.176.732.661 2.783 1.688 3.381 1.692.276.002 5.482 1.23 11.569 2.727 11.976 2.946 12.636 3.027 15.042 1.843m-11.12-3.689c-6.662-1.598-10.86-2.71-11.482-3.04-1.069-.568-1.428-1.105-3.636-5.437-1.933-3.792-2.03-4.073-1.911-5.542.141-1.75.795-2.678 2.527-3.59.577-.304 2.522-1.457 4.322-2.563 2.206-1.354 3.563-2.01 4.16-2.01.943 0 14.333 3.233 15.596 3.765 1.121.473 1.411.904 3.747 5.57 3.097 6.187 2.967 6.664-2.778 10.19-2.024 1.243-4.084 2.474-4.577 2.736-1.138.604-3.24.576-5.968-.079m8.826-3.603c2.003-1.228 3.86-2.511 4.126-2.851.855-1.09.61-2.354-1.087-5.625-2.143-4.13-2.475-4.572-3.684-4.91-2.428-.68-13.774-3.466-14.113-3.466-.205 0-1.443.662-2.751 1.47-1.309.81-3.213 1.902-4.232 2.429-2.02 1.045-2.697 2.039-2.407 3.53.193.99 3.695 7.606 4.345 8.207.259.24 3.244 1.106 6.634 1.925 3.39.82 6.227 1.554 6.304 1.633.078.08.834.087 1.682.017 1.312-.108 2.08-.457 5.183-2.36m-5.465-4.112c-1.144-1.493-.086-3.53 1.833-3.53 1.074 0 2.09 1.075 2.09 2.21 0 1.903-2.764 2.833-3.923 1.32m-12.026-2.562c-.76-.992-.74-2.157.05-2.9.927-.872 1.748-1.037 2.683-.54 1.323.702 1.571 2.157.588 3.44-.447.585-.827.758-1.66.758s-1.213-.173-1.661-.758m7.983-3.25c-.632-.717-.347-1.688.564-1.923 1.321-.34 2.024 1.056 1.007 2.001-.663.616-.973.6-1.571-.078m23.433 9.131c-1.002-1.028.204-2.609 1.52-1.993 1.18.553.725 2.339-.596 2.339-.323 0-.74-.156-.924-.346m24.965-23.785c-3.575-.895-6.583-1.717-6.685-1.827s.1-1.31.45-2.668c.507-1.974.752-2.498 1.22-2.616.323-.082 3.262.504 6.532 1.3 3.269.797 6.185 1.45 6.48 1.45 1.133 0 1.286.713.629 2.953-.767 2.615-.938 2.935-1.595 2.991-.293.025-3.457-.687-7.031-1.583m6.425-1.613c.162-.872.324-.808-5.084-2.013-2.402-.535-4.573-1.057-4.824-1.16-.333-.136-.506.021-.644.585-.103.424-.15.808-.104.853.1.1 9.757 2.387 10.207 2.418.175.012.377-.296.449-.683m-40.972-4.772a867 867 0 0 0-10.787-2.578c-2.774-.64-5.679-1.366-6.455-1.616-3.257-1.048-5.397-3.743-5.66-7.127-.121-1.564.014-2.208 1.186-5.65.728-2.138 1.76-5.278 2.294-6.98 1.507-4.8 3.418-7.154 6.597-8.123 2.075-.633 3.731-.548 7.736.4 1.951.462 6.763 1.565 10.692 2.451 8.703 1.962 9.17 2.092 10.227 2.832 2.588 1.815 3.854 3.988 3.896 6.685.022 1.444-.359 2.906-2.323 8.922-2.465 7.551-3.169 9.005-4.98 10.29-3.184 2.26-4.978 2.33-12.423.494m9.281-1.007c1.48-.518 3.175-1.877 3.74-2.998.22-.438 1.365-3.762 2.544-7.386 2.453-7.54 2.643-8.94 1.502-11.062-1.097-2.04-2.425-2.668-8.802-4.162-18.561-4.35-18.936-4.409-21.277-3.345-.674.306-1.715 1.075-2.315 1.71-.985 1.042-1.31 1.839-3.395 8.302-1.268 3.932-2.302 7.538-2.297 8.013.025 2.524 1.647 4.873 3.928 5.687.693.248 3.908 1.05 7.144 1.785s8.09 1.897 10.787 2.584c5.46 1.391 6.617 1.51 8.441.872m-12.924-4.713c-7.928-1.934-8.016-1.962-9.061-2.904-1.17-1.056-4.95-8.236-4.942-9.388.015-1.965 1.577-3.994 3.693-4.794.261-.1 1.763-.98 3.336-1.956 1.574-.976 3.314-1.837 3.867-1.913 1.273-.175 14.657 2.936 15.883 3.692.643.397 1.439 1.635 3.075 4.784 2.453 4.723 2.723 5.955 1.637 7.466-.322.447-2.5 2.017-4.84 3.489-3.424 2.154-4.513 2.7-5.58 2.8-.944.09-2.972-.277-7.068-1.276m8.118-.912c.689-.32 1.634-.877 2.101-1.235s1.731-1.146 2.81-1.751c3.875-2.174 4.022-2.783 1.696-7.02-.84-1.53-1.71-3.125-1.935-3.547-.224-.422-.72-.977-1.101-1.233-.886-.597-13.876-3.689-14.654-3.488-.321.083-1.749.868-3.172 1.745s-3.218 1.923-3.99 2.325c-1.025.534-1.512 1.001-1.813 1.742-.474 1.164-.367 1.65.808 3.677a63 63 0 0 1 1.766 3.355c.504 1.04 1.096 2.042 1.315 2.228.45.384 13.252 3.71 14.495 3.767.232.01.985-.244 1.674-.565m-1.584-5.502c-.834-.414-1.307-1.662-.972-2.566.385-1.04 1.084-1.524 2.206-1.524 2.195 0 2.86 2.97.898 4.011-.914.486-1.285.5-2.132.08m-11.763-2.673c-1.339-.963-1.007-3.074.591-3.76 1.126-.483 2.19-.204 2.66.699 1.122 2.153-1.319 4.451-3.25 3.061m7.201-3.87c-.39-.751-.09-1.43.725-1.64 1.178-.303 2 .996 1.17 1.848-.514.529-1.571.412-1.895-.209m45.165 15.804c-.348-.148-3.177-.851-6.287-1.564s-5.833-1.48-6.052-1.707c-.346-.355-.298-.725.362-2.762.42-1.293.917-2.412 1.106-2.487.189-.074 1.72.2 3.402.61 1.683.409 4.51 1.061 6.282 1.45 1.772.387 3.497.77 3.834.85.94.225.971.952.147 3.455-.663 2.01-.848 2.31-1.46 2.362a3.3 3.3 0 0 1-1.334-.207m.75-2.947c.132-.356.202-.69.156-.742-.045-.052-2.436-.648-5.313-1.325l-5.23-1.23-.266.717c-.146.395-.225.759-.176.81.107.11 9.718 2.358 10.232 2.393.197.014.466-.266.598-.623m-22.487-3.62c-.83-.941-.396-2.064.797-2.064 1.231 0 1.769 1.716.72 2.293-.751.412-.983.377-1.517-.229m21.53-4.932a549 549 0 0 0-6.671-1.58c-1.357-.305-2.251-.658-2.352-.928-.21-.561 1.02-4.61 1.533-5.048.295-.252.706-.243 1.699.037.72.203 3.816.927 6.88 1.61 5.225 1.164 6.233 1.556 5.93 2.302-.064.158-.391 1.194-.727 2.302-.586 1.934-.921 2.464-1.528 2.415-.154-.013-2.298-.512-4.763-1.11m4.212-2.053c.103-.333.08-.703-.05-.823-.25-.227-9.304-2.314-10.042-2.314-.233 0-.423.119-.423.264s-.07.453-.157.683c-.15.404.98.736 8.422 2.475 1.735.405 2.05.365 2.25-.285m3.634-7.908c-.283-.122-5.317-1.33-10.227-2.454-3.595-.824-3.627-.864-2.801-3.569.365-1.196.82-2.309 1.011-2.472.245-.208 2.075.107 6.182 1.066 3.21.75 6.24 1.418 6.735 1.487 1.498.207 1.643.648 1.037 3.147-.622 2.566-1.047 3.179-1.937 2.795m-.272-3.029c.103-.332.08-.706-.05-.83-.276-.263-10.15-2.444-10.298-2.275-.054.062-.178.381-.276.71-.168.562.12.668 4.798 1.776 2.737.648 5.126 1.188 5.308 1.2.183.013.416-.248.518-.58m-3.455-10.102c-.974-1 .425-2.86 1.477-1.964.836.713.357 2.31-.692 2.31-.247 0-.6-.156-.785-.346m-32.417-.77a941 941 0 0 0-10.647-2.48c-9.637-2.193-9.993-2.3-11.392-3.396-1.916-1.501-2.87-3.348-2.99-5.787-.095-1.924.033-2.452 2.208-9.094 2.588-7.904 3.211-9.066 5.684-10.599 1.736-1.076 3.747-1.47 5.93-1.16.77.109 4.931.996 9.246 1.972s9.043 2.025 10.507 2.333c1.464.307 3.166.781 3.782 1.054 1.621.717 3.488 2.583 4.243 4.241 1.118 2.455.955 3.554-1.729 11.714-2.528 7.684-2.64 7.942-4.1 9.443-2.421 2.486-5.62 3.01-10.742 1.759m7.006-1.663c.802-.281 1.83-.961 2.503-1.655 1.056-1.09 1.317-1.72 3.493-8.424 2.13-6.562 2.335-7.388 2.178-8.752-.102-.881-.469-1.963-.885-2.609-1.334-2.07-2.08-2.36-11.353-4.412-16.866-3.732-15.503-3.485-17.004-3.083-1.651.442-3.372 1.63-4.206 2.901-.344.524-1.646 4.118-2.892 7.985-1.97 6.112-2.242 7.2-2.08 8.309.339 2.32 1.98 4.208 4.328 4.982.54.178 3.88.975 7.425 1.772 3.544.796 8.335 1.89 10.647 2.43 4.846 1.133 5.97 1.212 7.846.556m-8.967-3.4c-.77-.204-3.418-.851-5.884-1.439a507 507 0 0 1-5.537-1.342c-1.371-.357-2.42-1.555-3.994-4.567-2.566-4.908-2.762-5.465-2.407-6.85.485-1.897 1.01-2.501 3.197-3.672a67 67 0 0 0 4.169-2.49c1.183-.774 2.588-1.48 3.121-1.57.585-.097 2.177.129 4.013.569 12.08 2.899 11.84 2.829 12.64 3.671 1.25 1.317 4.627 8.215 4.627 9.45 0 1.64-.775 2.844-2.547 3.952-8.176 5.112-8.22 5.129-11.398 4.288m7.48-3.938c4.013-2.415 4.708-3.04 4.708-4.235 0-.691-2.662-6.365-3.694-7.874-.318-.465-.96-.891-1.574-1.047-.57-.145-3.873-.924-7.34-1.732l-6.304-1.468-1.541.81c-4.434 2.33-7.046 3.897-7.424 4.45-.807 1.185-.517 2.416 1.458 6.182 1.033 1.97 2.147 3.764 2.476 3.985.861.58 13.562 3.551 14.53 3.4.447-.07 2.565-1.182 4.706-2.47m-5.251-3.829c-1.364-1.4-.427-3.61 1.53-3.61 2.268 0 2.999 3.043.96 3.997-1.05.492-1.739.385-2.49-.387m-11.27-2.04c-2.082-.9-1.348-4.16.938-4.16 1.308 0 2.191.849 2.191 2.107 0 1.815-1.46 2.773-3.128 2.053m7.1-3.75c-.577-.592-.556-1.077.072-1.66.741-.69 1.412-.587 1.795.276.295.665.258.817-.317 1.295-.792.659-.985.67-1.55.09m40.531 11.657c-3.195-.572-6.693-3.275-7.917-6.116-1.864-4.329-.771-9.602 2.647-12.777 5.632-5.23 15.045-3.567 18.12 3.202 1.876 4.13 1.045 8.752-2.171 12.076-2.781 2.875-6.945 4.284-10.679 3.615m5.875-2.551c1.994-.78 4.06-2.66 5.117-4.656.64-1.206.837-2.002.937-3.775.117-2.075.059-2.386-.76-4.096-.966-2.014-2.212-3.217-4.417-4.263-1.968-.932-6.39-.928-8.24.008-4.23 2.142-6.43 7-5.175 11.431.681 2.408 2.987 4.754 5.5 5.596 2.219.743 4.736.655 7.038-.245m-5.948-3.832c-1.699-.881-2.514-2.203-2.513-4.072.002-2.192 1.602-4.428 2.974-4.155.742.148.752.672.021 1.074-1.7.934-2.14 3.717-.824 5.215 1.304 1.487 4.1 1.533 5.502.092 1.142-1.172 1.466-2.656.864-3.958-.384-.833-.418-1.14-.152-1.408.263-.267.491-.163 1.02.464.536.636.68 1.131.68 2.332 0 3.794-4.13 6.202-7.572 4.416m2.29-4.628c-.23-.284-.135-1.035.37-2.92.778-2.904 1.068-3.36 1.716-2.694.403.413.386.67-.181 2.865-.793 3.065-1.189 3.637-1.906 2.75m-19.793 7.762c-.503-.788-.317-1.527.446-1.776.938-.305 1.655.118 1.655.978 0 1.501-1.33 2.007-2.101.798m-96.806 93.988c.461-.384 1.103-2.169 2.51-6.98 1.039-3.555 1.974-6.927 2.077-7.493.186-1.028.184-1.03-1.07-1.326l-1.257-.295-1.996 6.35c-2.412 7.673-2.754 9.17-2.24 9.804.483.598 1.211.576 1.976-.06m-9.852-.852c.387-.341 1.221-2.642 2.581-7.123 1.105-3.64 2.243-7.292 2.53-8.114.58-1.664.66-1.546-1.31-1.952-.769-.158-.905-.085-1.16.626-.508 1.41-4.833 15.532-4.833 15.778 0 .38.896 1.289 1.273 1.289.19 0 .603-.227.919-.504m-9.131-3.454c.76-.885 5.114-15.3 4.737-15.687-.128-.132-.758-.266-1.4-.299l-1.166-.059-2.378 7.34c-1.308 4.036-2.378 7.522-2.38 7.747-.001.64.864 1.462 1.54 1.462.338 0 .809-.227 1.047-.504m29.158-13.201c.332-1.154.353-1.622.099-2.159-.58-1.226-3.08-2.189-9.57-3.687-3.39-.782-8.749-2.08-11.908-2.884-6.14-1.562-8.304-1.848-9.065-1.2-.257.22-.672 1.126-.922 2.015s-.515 1.78-.588 1.977c-.097.265.341.36 1.65.362 1.158 0 3.835.502 7.664 1.436 3.236.79 7.838 1.897 10.227 2.461 9.201 2.175 10.807 2.686 11.367 3.617.256.426.494-.014 1.046-1.938m-29.032-3.408c-.125-.392-1.869-.563-2.206-.216-.163.167.09.5.666.878.863.567.953.575 1.282.124.194-.268.31-.621.258-.786m28.749-4.561c.417-1.316.758-2.78.758-3.253s-.775-3.509-1.722-6.746c-.948-3.237-1.736-6.458-1.751-7.158-.028-1.209-.092-1.304-1.29-1.925-1.756-.91-4.496-1.582-7.181-1.763l-2.279-.153-.385.83c-.211.457-2.81 2.967-5.776 5.579s-5.578 5.026-5.807 5.366-.746 1.555-1.148 2.7c-.752 2.142-.684 2.566.417 2.578.7.008 23.394 5.6 24.4 6.013.386.157.77.295.853.305.084.01.494-1.058.91-2.373m-12.888-5.453c-4.632-1.192-5.322-1.576-4.45-2.472.37-.38.968-.3 5.227.699 3.005.704 4.865 1.277 4.96 1.526.192.499-.288 1.313-.806 1.371-.215.024-2.434-.482-4.93-1.124m5.574-3.34c-.225-.147-.388-.915-.422-1.989-.044-1.407-.187-1.895-.732-2.49-1.346-1.472-3.954-.672-5.057 1.55-.609 1.225-1.344 1.502-1.96.738-.736-.91 2.21-4.276 4.054-4.631 2.324-.448 3.947.41 4.935 2.609.588 1.308.696 3.6.194 4.115-.395.406-.52.418-1.012.098m6.106-12.83c.194-.711.283-1.48.198-1.707s-.826-.67-1.645-.983c-1.584-.605-2.038-1.37-1.224-2.064.419-.357 1.387-.156 3.258.678.338.15.52-.07.77-.928.181-.618.329-1.27.329-1.446 0-.178-.757-.715-1.681-1.194-.925-.48-1.681-.975-1.681-1.1s.18-.48.4-.788c.382-.533.456-.537 1.611-.095.666.255 1.413.553 1.66.662.643.284 1.308-2.136.863-3.138-.512-1.156-2.676-2.05-6.636-2.74-2.842-.497-3.544-.35-4.115.867-.26.554-.556 1.356-.657 1.783-.18.76-.155.777 1.285.863 1.549.093 2.19.606 1.86 1.488-.14.375-.581.471-2.153.471-2.14 0-2.167.022-2.688 2.156-.162.664-.104.695 1.44.779 1.692.092 2.34.574 2 1.487-.141.378-.59.47-2.275.47h-2.1l-.43 1.492c-.238.82-.43 1.565-.43 1.655.002.09.979.182 2.172.205 2.541.049 6.452 1.012 8.03 1.98.61.373 1.195.625 1.298.56.104-.066.347-.702.541-1.413zm.128-16.638c.058-.198.566-2.562 1.13-5.253 3.732-17.802 8.616-33.973 13.737-45.472C63.918 50.328 69.02 42.415 75.89 35.298c7.826-8.107 16.157-13.1 25.4-15.222 6.615-1.519 12.147-1.532 17.557-.042 4.27 1.176 7.613 3.31 9.838 6.278 1.321 1.764 2.546 4.5 2.557 5.71.007.705.118.773 1.591.962.872.112 1.754.27 1.961.352.522.206.497-1.621-.052-3.786-1.64-6.467-7.493-11.725-15.437-13.87-4.087-1.102-11.122-1.28-16.137-.405-15.122 2.636-29.33 12.953-39.503 28.686-9.003 13.924-16.57 34.553-21.95 59.83-1.801 8.468-1.77 8.132-.79 8.362a52 52 0 0 1 1.646.42c1.193.329 1.266.325 1.384-.076m93.184-66.195c2.707-8.074 2.252-9.485-3.51-10.864-2.43-.583-3.26-.55-4.683.186-1.359.703-2.17 1.91-2.873 4.274a297 297 0 0 1-1.55 4.997c-.476 1.482-.82 2.835-.764 3.006.086.266 10.133 2.692 11.45 2.765.346.019.819-1.05 1.93-4.364" style="fill:#000;stroke-width:.283966" transform="rotate(37.225 155.504 163.761)scale(1.12078)"/></svg>