<svg xmlns="http://www.w3.org/2000/svg" xml:space="preserve" viewBox="0 0 667 666"><path d="M242.695 87.483c78.095-2.325 139.01-6.559 207.42 3.528 122.564 18.07 124.452 92.138 126.285 142.512 3.246 89.155 5.306 122.758-1.41 204.598-8.914 108.607-98.453 121.982-141.102 122.758-84.351 1.536-112.89 1.188-191.193-.705-116.539-2.817-146.47-63.884-148.862-126.992-4.05-106.884-4.178-132.724.705-218.002C101.057 101.342 194.73 88.91 242.695 87.483Z" style="fill:none;stroke:#000;stroke-width:6;stroke-linecap:butt;stroke-linejoin:miter;stroke-opacity:1;stroke-miterlimit:4;stroke-dasharray:none;fill-rule:evenodd"/><path d="M257.724 116.038c71.698-1.66 114.195-1.703 182.66 2.437 105.794 6.398 105.929 73.615 109.679 124.84 5.803 79.262 2.897 94.413-1.257 182.262-4.844 102.447-91.232 107.96-125.699 109.358-75.093 3.044-100.55.063-170.321-.628-110.872-1.099-130.482-56.91-132.612-113.13-3.609-95.215-3.05-114.548.628-194.203 4.871-105.492 83.61-109.701 136.922-110.936z" style="fill:none;stroke:#000;stroke-width:6;stroke-linecap:butt;stroke-linejoin:miter;stroke-opacity:1;stroke-miterlimit:4;stroke-dasharray:none;fill-rule:evenodd"/><path d="M261.34 125.777c68.366-1.583 107.125-2.683 172.41 1.265 100.877 6.1 104.55 33.07 112.342 117.628 3.532 38.327 1.179 83.316-.14 176.264-1.588 111.887-86.284 94.297-123.739 94.047-89.74-.6-240.367-.247-240.367-.247-33.488 1.919-47.871-30.984-51.666-97.995-5.138-90.713-2.908-109.227.599-185.182 4.644-100.59 79.725-104.603 130.56-105.78z" style="fill:none;stroke:#000;stroke-width:3;stroke-linecap:butt;stroke-linejoin:miter;stroke-opacity:1;stroke-miterlimit:4;stroke-dasharray:none;fill-rule:evenodd"/><rect width="31.532" height="17.981" x="374.069" y="144.069" ry="2.299" style="fill:none;fill-opacity:1;stroke:#000;stroke-width:2.02947;stroke-linecap:round;stroke-linejoin:miter;stroke-miterlimit:4;stroke-dasharray:none;stroke-dashoffset:0;stroke-opacity:1;paint-order:markers stroke fill;fill-rule:evenodd"/><rect width="4.225" height="9.24" x="405.222" y="148.3" ry="1.181" style="fill:#000;fill-opacity:1;stroke:#000;stroke-width:.532524;stroke-linecap:round;stroke-linejoin:miter;stroke-miterlimit:4;stroke-dasharray:none;stroke-dashoffset:0;stroke-opacity:1;paint-order:markers stroke fill;fill-rule:evenodd"/><rect width="1.135" height="10.851" x="378.315" y="147.655" ry=".136" style="fill:#000;fill-opacity:1;stroke:#000;stroke-width:1.95751;stroke-linecap:round;stroke-linejoin:miter;stroke-miterlimit:4;stroke-dasharray:none;stroke-dashoffset:0;stroke-opacity:1;paint-order:markers stroke fill;fill-rule:evenodd"/><rect width="1.135" height="10.851" x="384.315" y="147.655" ry=".136" style="fill:#000;fill-opacity:1;stroke:#000;stroke-width:1.95751;stroke-linecap:round;stroke-linejoin:miter;stroke-miterlimit:4;stroke-dasharray:none;stroke-dashoffset:0;stroke-opacity:1;paint-order:markers stroke fill;fill-rule:evenodd"/><rect width="1.135" height="10.851" x="389.816" y="147.655" ry=".136" style="fill:#000;fill-opacity:1;stroke:#000;stroke-width:1.95751;stroke-linecap:round;stroke-linejoin:miter;stroke-miterlimit:4;stroke-dasharray:none;stroke-dashoffset:0;stroke-opacity:1;paint-order:markers stroke fill;fill-rule:evenodd"/><rect width="1.135" height="10.851" x="395.441" y="147.655" ry=".136" style="fill:#000;fill-opacity:1;stroke:#000;stroke-width:1.95751;stroke-linecap:round;stroke-linejoin:miter;stroke-miterlimit:4;stroke-dasharray:none;stroke-dashoffset:0;stroke-opacity:1;paint-order:markers stroke fill;fill-rule:evenodd"/><rect width="1.135" height="10.851" x="400.943" y="147.655" ry=".136" style="fill:#000;fill-opacity:1;stroke:#000;stroke-width:1.95751;stroke-linecap:round;stroke-linejoin:miter;stroke-miterlimit:4;stroke-dasharray:none;stroke-dashoffset:0;stroke-opacity:1;paint-order:markers stroke fill;fill-rule:evenodd"/><path d="m232.095 197.55 4.742 4.404 34.887-.339 4.657-4.149-4.572-4.234-35.141.17z" style="fill:#000;fill-opacity:1;stroke:none;stroke-width:1.3579px;stroke-linecap:butt;stroke-linejoin:miter;stroke-opacity:1;fill-rule:evenodd"/><path d="m232.095 197.55 4.742 4.404 34.887-.339 4.657-4.149-4.572-4.234-35.141.17zM321.716 197.55l4.742 4.404 34.887-.339 4.657-4.149-4.572-4.234-35.141.17zM232.095 253.905l4.742 4.403 34.887-.339 4.657-4.149-4.572-4.234-35.141.17zM321.716 253.905l4.742 4.403 34.887-.339 4.657-4.149-4.572-4.234-35.141.17zM232.095 310.598l4.742 4.403 34.887-.339 4.657-4.149-4.572-4.234-35.141.17zM321.716 310.598l4.742 4.403 34.887-.339 4.657-4.149-4.572-4.234-35.141.17zM231.673 366.088l4.742 4.403 34.886-.338 4.658-4.15-4.573-4.233-35.14.17zM321.294 366.088l4.742 4.403 34.886-.338 4.658-4.15-4.573-4.233-35.14.17zM231.673 422.442l4.742 4.404 34.886-.34 4.658-4.148-4.573-4.234-35.14.17zM231.673 479.305l4.742 4.403 34.886-.339 4.658-4.149-4.573-4.234-35.14.17zM321.294 479.305l4.742 4.403 34.886-.339 4.658-4.149-4.573-4.234-35.14.17z" style="fill:#000;fill-opacity:1;stroke:none;stroke-width:1.3579px;stroke-linecap:butt;stroke-linejoin:miter;stroke-opacity:1;fill-rule:evenodd"/><path d="m230.205 477.271 4.446-5.601-.029-41.56-4.107-5.591-4.274 5.401-.144 41.86zM277.22 477.271l4.446-5.601-.028-41.56-4.108-5.591-4.274 5.401-.144 41.86zM319.827 477.271l4.445-5.601-.028-41.56-4.108-5.591-4.274 5.401-.144 41.86zM366.842 477.271l4.445-5.601-.028-41.56-4.108-5.591-4.274 5.401-.143 41.86zM230.205 420.24l4.446-5.602-.029-41.56-4.107-5.59-4.274 5.4-.144 41.861zM319.827 420.24l4.445-5.602-.028-41.56-4.108-5.59-4.274 5.4-.144 41.861zM366.842 420.24l4.445-5.602-.028-41.56-4.108-5.59-4.274 5.4-.143 41.861zM230.628 309.411l4.445-5.602-.028-41.559-4.107-5.591-4.275 5.401-.143 41.86zM367.264 309.411l4.446-5.602-.029-41.559-4.107-5.591-4.274 5.401-.144 41.86zM277.643 252.38l4.446-5.602-.029-41.56-4.107-5.591-4.275 5.402-.143 41.86z" style="fill:#000;fill-opacity:1;stroke:none;stroke-width:1.48205px;stroke-linecap:butt;stroke-linejoin:miter;stroke-opacity:1;fill-rule:evenodd"/><path d="m431.819 261.495 2.15 2.016 15.825-.155 2.112-1.9-2.074-1.938-15.939.078zM431.819 287.294l2.15 2.016 15.825-.155 2.112-1.9-2.074-1.938-15.939.078zM431.819 313.326l2.15 2.015 15.825-.155 2.112-1.9-2.074-1.937-15.939.077z" style="fill:#000;fill-opacity:1;stroke:none;stroke-width:.618768px;stroke-linecap:butt;stroke-linejoin:miter;stroke-opacity:1;fill-rule:evenodd"/><path d="m452.478 312.395 2.017-2.565-.014-19.026-1.863-2.56-1.939 2.474-.065 19.163zM452.478 286.286l2.017-2.565-.014-19.026-1.863-2.56-1.939 2.474-.065 19.163z" style="fill:#000;fill-opacity:1;stroke:none;stroke-width:.67534px;stroke-linecap:butt;stroke-linejoin:miter;stroke-opacity:1;fill-rule:evenodd"/><path d="M398.782 314.343a3.024 3.024 0 0 1 .216-4.27 3.024 3.024 0 0 1 4.27.213 3.024 3.024 0 0 1-.213 4.272 3.024 3.024 0 0 1-4.271-.213" style="fill:#000;fill-opacity:1;fill-rule:evenodd;stroke-width:1;stroke-miterlimit:4;stroke-dasharray:none"/><path d="M425.365 203.581a4.135 4.135 0 0 1 .295-5.84 4.135 4.135 0 0 1 5.84.294 4.135 4.135 0 0 1-.293 5.84 4.135 4.135 0 0 1-5.84-.292" style="fill:none;fill-rule:evenodd;stroke:#000;stroke-width:2;stroke-miterlimit:4;stroke-dasharray:none;stroke-opacity:1"/><path d="M457.091 206.118c.266-.166 0 0-14.075.167-1.286.015-2.616 1.595-2.604 2.91l.244 26.526c.012 1.281 1.106 2.993 2.36 2.993h13.913" style="fill:none;stroke:#000;stroke-width:3;stroke-linecap:round;stroke-linejoin:miter;stroke-miterlimit:4;stroke-dasharray:none;stroke-opacity:1;fill-rule:evenodd"/><path d="M428.905 377.428a5.31 5.453 0 0 1 .378-7.702 5.31 5.453 0 0 1 7.498.387 5.31 5.453 0 0 1-.375 7.702 5.31 5.453 0 0 1-7.498-.384M445.875 405.064a5.31 5.124 0 0 1 .378-7.237 5.31 5.124 0 0 1 7.498.364 5.31 5.124 0 0 1-.375 7.237 5.31 5.124 0 0 1-7.498-.361" style="fill:none;fill-rule:evenodd;stroke:#000;stroke-width:2;stroke-miterlimit:4;stroke-dasharray:none;stroke-opacity:1"/><path d="m454.886 367.677-26.976 39.558" style="fill:none;stroke:#000;stroke-width:2;stroke-linecap:round;stroke-linejoin:miter;stroke-miterlimit:4;stroke-dasharray:none;stroke-opacity:1;fill-rule:evenodd"/><path d="m319.97 309.411 4.445-5.602-.028-41.559-4.108-5.591-4.274 5.401-.143 41.86zM319.97 252.38l4.445-5.602-.028-41.56-4.108-5.591-4.274 5.402-.143 41.86z" style="fill:#000;fill-opacity:1;stroke:none;stroke-width:1.48205px;stroke-linecap:butt;stroke-linejoin:miter;stroke-opacity:1;fill-rule:evenodd"/><path d="M448.67 448.04a3.024 3.024 0 0 1 .215-4.27 3.024 3.024 0 0 1 4.27.214 3.024 3.024 0 0 1-.213 4.27 3.024 3.024 0 0 1-4.271-.212M428.67 448.04a3.024 3.024 0 0 1 .215-4.27 3.024 3.024 0 0 1 4.27.214 3.024 3.024 0 0 1-.213 4.27 3.024 3.024 0 0 1-4.271-.212" style="fill:#000;fill-opacity:1;fill-rule:evenodd;stroke-width:1;stroke-miterlimit:4;stroke-dasharray:none"/><path d="M464.896 442.573s-.023-11.172-12.424-13.857l-23.175.244c-11.639 2.316-11.636 13.98-11.636 13.98M464.896 469.08s-.023 11.173-12.424 13.858l-23.175-.244c-11.639-2.316-11.636-13.98-11.636-13.98" style="fill:none;stroke:#000;stroke-width:3;stroke-linecap:round;stroke-linejoin:miter;stroke-miterlimit:4;stroke-dasharray:none;stroke-opacity:1;fill-rule:evenodd"/><path d="M449.58 464.75s-1.243 5.162-8.204 5.312c-7.121-.006-8.398-5.44-8.398-5.44" style="fill:none;stroke:#000;stroke-width:2;stroke-linecap:round;stroke-linejoin:miter;stroke-miterlimit:4;stroke-dasharray:none;stroke-opacity:1;fill-rule:evenodd"/><path d="M289.202 154.055a2.32 2.32 0 0 1 .165-3.274 2.32 2.32 0 0 1 3.274.164 2.32 2.32 0 0 1-.164 3.275 2.32 2.32 0 0 1-3.274-.164" style="fill:#000;fill-opacity:1;fill-rule:evenodd;stroke-width:.657291"/><path d="M295.233 147.385s2.998 1.559 2.998 5.314c0 3.834-2.689 4.982-2.689 4.982M298.01 143.182s5.445 2.831 5.445 9.653c0 6.964-4.885 9.049-4.885 9.049M286.602 147.385s-2.999 1.559-2.999 5.314c0 3.834 2.69 4.982 2.69 4.982M283.825 143.182s-5.445 2.831-5.445 9.653c0 6.964 4.885 9.049 4.885 9.049" style="fill:none;stroke:#000;stroke-width:2;stroke-linecap:round;stroke-linejoin:miter;stroke-miterlimit:4;stroke-dasharray:none;stroke-opacity:1;fill-rule:evenodd"/><path d="M176.377 338.644h316.068" style="fill:none;stroke:#000;stroke-width:1px;stroke-linecap:butt;stroke-linejoin:miter;stroke-opacity:1;fill-rule:evenodd"/></svg>