<?xml version="1.0" encoding="UTF-8" standalone="no"?>
<!-- Created with Inkscape (http://www.inkscape.org/) -->

<svg
   width="960"
   height="960"
   viewBox="0 0 253.99999 254"
   version="1.1"
   id="svg1"
   xml:space="preserve"
   inkscape:version="1.4.4 (dcaf3e7, 2026-05-05)"
   sodipodi:docname="water-icon.svg"
   xmlns:inkscape="http://www.inkscape.org/namespaces/inkscape"
   xmlns:sodipodi="http://sodipodi.sourceforge.net/DTD/sodipodi-0.dtd"
   xmlns="http://www.w3.org/2000/svg"
   xmlns:svg="http://www.w3.org/2000/svg"><sodipodi:namedview
     id="namedview1"
     pagecolor="#ffffff"
     bordercolor="#000000"
     borderopacity="0.25"
     inkscape:showpageshadow="2"
     inkscape:pageopacity="0.0"
     inkscape:pagecheckerboard="0"
     inkscape:deskcolor="#d1d1d1"
     inkscape:document-units="mm"
     inkscape:zoom="0.60977048"
     inkscape:cx="337.83203"
     inkscape:cy="469.02894"
     inkscape:window-width="1711"
     inkscape:window-height="1117"
     inkscape:window-x="341"
     inkscape:window-y="36"
     inkscape:window-maximized="0"
     inkscape:current-layer="layer1" /><defs
     id="defs1" /><g
     inkscape:label="Camada 1"
     inkscape:groupmode="layer"
     id="layer1"><path
       style="fill:#000000"
       d="m 90.342687,302.6668 c -0.333131,-0.18409 -2.144181,-0.37766 -4.024555,-0.43017 -4.690028,-0.13096 -6.36986,-0.47937 -9.237107,-1.91584 -1.776694,-0.89011 -2.695392,-1.58218 -3.29199,-2.47991 -0.455148,-0.68489 -1.283494,-1.48405 -1.840768,-1.77593 -3.47028,-1.81757 -4.959322,-2.96835 -5.929554,-4.58254 -1.886108,-3.13795 -2.058194,-4.01641 -2.06351,-10.53373 -0.0047,-5.73356 -0.03968,-6.04918 -0.836487,-7.54283 -1.497758,-2.80762 -1.841669,-4.17832 -1.841669,-7.34015 0,-4.93146 1.251894,-7.47664 5.750318,-11.69074 2.855928,-2.67542 5.860942,-4.85631 8.980006,-6.51725 0.654745,-0.34866 2.775114,-1.47873 4.711931,-2.51127 3.877191,-2.06697 6.090436,-3.11606 13.582874,-6.43838 11.964474,-5.30532 14.916234,-6.60968 17.584934,-7.77069 1.55553,-0.67672 3.27815,-1.58881 3.82805,-2.02685 2.65223,-2.11277 8.96564,-5.02254 19.50333,-8.98884 4.41025,-1.65999 10.3548,-4.6125 11.26941,-5.59725 0.53457,-0.57555 0.97194,-1.15828 0.97194,-1.29495 0,-0.34454 2.22931,-1.32224 3.0149,-1.32224 1.35673,0 4.72903,-2.69744 11.84222,-9.47239 6.26322,-5.96539 12.07844,-11.8064 12.54018,-12.59578 0.78337,-1.33924 0.51705,-3.89253 -0.83836,-8.03756 -0.32487,-0.99352 -2.38161,-5.22968 -3.48021,-7.16803 -3.0133,-5.31662 -5.79377,-11.01545 -6.99459,-14.33606 -1.34649,-3.72342 -1.58466,-4.72339 -2.2574,-9.47774 -0.14256,-1.0075 -0.37244,-2.00271 -0.51084,-2.21157 -0.1707,-0.25761 -1.30091,-0.36336 -3.51382,-0.32878 -3.04731,0.0476 -3.39481,-0.0142 -5.27586,-0.93927 l -2.01368,-0.99024 -1.99769,1.59354 c -4.82227,3.84667 -9.41883,6.26478 -15.71045,8.26478 -7.38816,2.34857 -9.31563,2.61422 -18.84543,2.59728 -7.25137,-0.0129 -9.73514,-0.20768 -13.16365,-1.03236 -0.783946,-0.18857 -1.991312,-0.46734 -2.683033,-0.61949 -1.140432,-0.25084 -3.402484,-0.98637 -7.403004,-2.40718 -4.258445,-1.51241 -10.807817,-5.74018 -13.410142,-8.65656 -2.551817,-2.85978 -4.088789,-4.72543 -4.088789,-4.96318 0,-0.41824 -3.884501,-2.14926 -6.987525,-3.11379 -1.598396,-0.49684 -3.509857,-1.15099 -4.247692,-1.45367 -6.049845,-2.48177 -6.199485,-2.59717 -7.239047,-5.58252 -1.290596,-3.70625 -1.413103,-4.53402 -1.648512,-11.13881 -0.128026,-3.59198 -0.413681,-7.17599 -0.634789,-7.96448 -0.709487,-2.53007 -1.078697,-3.95899 -1.275892,-4.93798 -0.105882,-0.52565 -0.66255,-1.47712 -1.237039,-2.11437 -1.825478,-2.02492 -3.062376,-3.57844 -4.023662,-5.053657 -0.513795,-0.788483 -1.454868,-2.222089 -2.091273,-3.185791 -0.636405,-0.963702 -1.248569,-2.110587 -1.360363,-2.548634 -0.111795,-0.438046 -0.432407,-1.22653 -0.712471,-1.752185 -1.223006,-2.295474 -1.755805,-5.502613 -2.117007,-12.743167 -0.490495,-9.832327 -0.440557,-11.01598 0.645157,-15.2918 0.973408,-3.833531 3.623917,-9.415863 5.747972,-12.106008 0.553388,-0.700874 1.368986,-1.776079 1.812438,-2.389344 1.396887,-1.931799 8.466819,-7.9664 11.774115,-10.049897 6.817455,-4.294791 18.138202,-9.13222 24.998496,-10.682022 2.072088,-0.468103 4.156612,-0.951987 5.533764,-1.284563 2.640469,-0.637661 6.875002,-1.353033 11.402908,-1.926379 3.47649,-0.440212 21.00621,-0.440212 24.48271,0 4.53019,0.573636 8.68759,1.276121 11.48675,1.940943 0.78395,0.186194 1.99132,0.463021 2.68304,0.615171 3.58418,0.788373 11.22692,3.524047 15.67899,5.612205 7.66502,3.595127 9.86282,5.048052 15.6693,10.358696 6.0517,5.534922 8.93948,10.001173 10.60829,16.406827 0.18259,0.700874 0.49486,1.864392 0.69392,2.585595 0.2193,0.794531 0.36193,4.985732 0.36193,10.635441 0,5.649708 -0.14263,9.840909 -0.36193,10.63544 -0.19906,0.721203 -0.51382,1.884721 -0.69945,2.585595 -0.60055,2.267448 -1.68812,4.716462 -3.3954,7.6459 -0.91907,1.576967 -1.89321,3.271399 -2.16478,3.765403 -0.70124,1.275634 -1.13877,7.122451 -0.7021,9.382371 0.19399,1.004 0.47859,2.54225 0.63244,3.41834 0.15385,0.8761 0.43316,2.36214 0.62068,3.30233 0.32758,1.6424 0.27132,2.38418 -0.57239,7.54803 -0.38282,2.34294 -1.32155,3.64723 -3.5154,4.88436 -2.1366,1.20484 -2.35244,1.79102 -1.24458,3.38003 1.59452,2.28704 0.45741,7.83502 -2.3941,11.68086 -0.56749,0.76537 -0.59245,1.06401 -0.25296,3.0265 0.20716,1.19754 0.49142,3.18086 0.63168,4.40739 0.14026,1.22653 0.35856,2.58846 0.4851,3.02651 0.12654,0.43804 0.39142,1.44157 0.58863,2.23005 0.9977,3.98914 3.23263,8.83141 7.79308,16.8847 0.51149,0.90325 2.85026,5.84363 3.73266,7.88483 0.32192,0.74468 0.64777,1.35396 0.72411,1.35396 0.48417,0 1.69502,-0.92311 3.86266,-2.94478 1.36329,-1.27148 3.12455,-2.74186 3.91393,-3.26751 0.78937,-0.52566 2.14853,-1.56031 3.02034,-2.29923 1.89494,-1.60608 5.62639,-4.01823 7.73276,-4.99875 1.35713,-0.63175 3.15153,-1.20593 7.58717,-2.42777 2.2654,-0.62403 6.16404,-0.0362 9.02502,1.36088 1.75731,0.85811 2.85268,1.84904 4.19856,3.79825 0.82261,1.19136 2.50049,2.17727 3.70539,2.17727 1.1448,0 4.08168,1.59474 6.08454,3.30392 1.05315,0.89873 2.53551,2.12594 3.29411,2.72712 2.48332,1.96799 3.17935,4.26566 2.27026,7.49438 -0.39083,1.38805 -0.37166,1.46271 0.67574,2.63285 1.1834,1.32207 3.47283,5.56851 4.08446,7.57588 0.45837,1.50435 0.28637,6.69923 -0.28816,8.70339 -1.00787,3.5158 -4.92293,8.83336 -8.30129,11.27506 -2.71901,1.96516 -6.42732,4.30988 -8.18837,5.17739 -3.85821,1.9006 -13.49691,5.06111 -19.45744,6.38005 -2.11235,0.46742 -4.82163,1.1157 -6.02061,1.44063 -1.19898,0.32492 -3.31187,0.88971 -4.69531,1.25509 -7.04389,1.86034 -17.62123,5.35313 -21.07044,6.95776 -3.46269,1.6109 -3.84428,1.87602 -4.31766,2.99986 -0.58273,1.38342 -1.84278,2.16404 -3.49314,2.16404 -0.94886,0 -1.74651,0.63942 -6.6566,5.3362 -3.06821,2.93491 -7.1558,7.05653 -9.08354,9.15915 -1.92774,2.10262 -4.71249,5.06985 -6.18833,6.59383 -5.83485,6.0252 -7.00586,7.348 -9.58229,10.82441 -7.0421,9.50202 -11.56595,14.68685 -16.10365,18.45659 -2.04797,1.70137 -2.71182,2.17728 -7.01387,5.0281 -3.14309,2.08281 -6.32115,3.44938 -11.25903,4.84141 -1.414499,0.39876 -9.225915,0.34884 -9.972513,-0.0637 z m 10.629763,-2.23125 c 5.47094,-1.54726 11.71015,-5.3119 17.50107,-10.55986 3.01673,-2.73389 7.58162,-7.54256 8.35081,-8.79678 0.1477,-0.24083 -1.75168,1.17314 -4.22083,3.14215 -9.83769,7.845 -19.28793,13.5395 -26.456736,15.94222 -1.198982,0.40185 -2.330888,0.86922 -2.515347,1.03858 -0.568338,0.52183 4.748961,-0.0332 7.341033,-0.76631 z m -7.615453,-1.68565 c 12.771623,-3.95982 29.089843,-15.64891 45.262443,-32.42244 2.64871,-2.74714 4.81585,-5.10875 4.81585,-5.24801 0,-0.13927 -1.01872,0.69126 -2.26381,1.84562 -1.2451,1.15436 -4.22579,3.72373 -6.62375,5.7097 -2.39797,1.98598 -5.79368,4.93642 -7.54604,6.55655 -15.33356,14.17648 -34.072609,22.97001 -47.636487,22.354 -1.653209,-0.0751 -3.005836,-0.0942 -3.005836,-0.0424 0,0.0518 0.641414,0.47947 1.425364,0.95045 2.405313,1.44505 3.746592,1.71102 7.965265,1.5795 3.323347,-0.10361 4.37562,-0.28108 7.607001,-1.28297 z m -5.427033,-4.12916 c 3.755517,-0.77132 8.293304,-2.29081 12.339646,-4.13194 3.48028,-1.58357 8.70666,-4.33399 8.26019,-4.34698 -0.10654,-0.003 -1.54028,0.5491 -3.18611,1.2271 -4.17802,1.72115 -9.946248,3.44517 -13.627577,4.07305 -4.04781,0.69037 -10.674963,0.69202 -14.015227,0.003 -3.64104,-0.75054 -7.54306,-2.686 -10.061179,-4.99049 l -2.099916,-1.92177 0.221663,1.35901 c 0.527829,3.23611 3.26248,6.60198 6.453124,7.94265 3.763176,1.58124 10.260814,1.90618 15.715386,0.78589 z m 4.695314,-5.61681 c 7.636392,-1.60325 15.733072,-5.06926 24.116182,-10.32359 8.7747,-5.49978 15.68781,-10.93192 26.79776,-21.05699 12.99665,-11.84451 17.82765,-16.16454 21.05274,-18.826 2.94807,-2.43284 3.20149,-2.73231 3.0642,-3.62088 -0.0823,-0.53278 -0.24573,-0.96408 -0.36314,-0.95845 -0.56694,0.0272 -8.71839,7.48164 -17.72065,16.20546 -16.55727,16.04513 -25.50603,22.91093 -36.9967,28.38514 -5.62087,2.67782 -8.8618,3.77397 -16.764286,5.67006 -6.010219,1.44206 -6.362065,1.48883 -11.235216,1.49345 -4.382755,0.004 -5.317285,-0.0893 -7.255828,-0.72578 -2.57866,-0.84662 -5.115636,-2.45776 -6.359358,-4.03859 -0.850492,-1.08101 -5.036875,-4.38 -5.273251,-4.15546 -0.301857,0.28673 0.768371,3.98684 1.553786,5.37191 1.027392,1.8118 3.588799,4.09851 5.763254,5.1452 1.673521,0.80555 4.517298,1.65477 6.987044,2.08648 2.37343,0.41489 9.239791,0.0605 12.633463,-0.65196 z m 2.179967,-6.83551 c 12.583375,-1.81533 25.975235,-8.95555 40.854025,-21.78241 2.15553,-1.85826 9.27684,-8.49135 15.82513,-14.7402 6.54828,-6.24884 12.64354,-11.95172 13.54501,-12.67306 l 1.63903,-1.31153 -0.59315,-1.51429 c -0.32623,-0.83285 -0.69963,-1.62712 -0.82978,-1.76503 -0.27771,-0.29425 -4.99807,3.56066 -9.08364,7.41822 -1.57771,1.48967 -6.02809,6.14914 -9.88972,10.35438 -13.37428,14.56433 -19.89627,20.28628 -28.99647,25.43949 -8.9199,5.05112 -19.489357,7.54464 -30.184165,7.12097 -4.940105,-0.19569 -7.947123,-0.9191 -11.861463,-2.85355 -5.284468,-2.61156 -8.264391,-6.19767 -8.258037,-9.93791 0.0078,-4.58845 3.88993,-8.85611 12.501204,-13.74266 4.026923,-2.28512 15.97696,-7.99779 24.271161,-11.60274 l 5.41765,-2.3547 0.20955,-1.2448 c 0.11526,-0.68464 0.44275,-1.67316 0.72776,-2.19671 0.28501,-0.52354 0.46935,-0.99525 0.40963,-1.04823 -0.35997,-0.31939 -25.085809,10.93946 -30.938929,14.08796 -7.912351,4.2562 -13.264148,8.68917 -15.32046,12.69016 -1.046748,2.03668 -1.135326,2.44473 -1.136469,5.23534 -0.0011,2.64435 0.116369,3.26505 0.930159,4.91572 1.22254,2.47976 2.911369,4.39818 5.414992,6.15113 6.869543,4.80982 15.899535,6.71737 25.346982,5.35445 z m 7.238795,-6.98309 c 6.03189,-1.42884 11.50251,-3.7972 17.27805,-7.48008 7.43809,-4.74304 13.60168,-10.38694 25.27469,-23.14365 7.90465,-8.63849 15.14856,-15.55454 18.9206,-18.06422 l 0.77492,-0.51559 -0.90196,-1.462 c -0.49609,-0.80409 -1.0307,-1.53756 -1.18803,-1.62992 -0.48706,-0.28594 -4.58191,4.54436 -8.37935,9.88431 -5.45089,7.66503 -9.71308,11.68037 -15.58606,14.68338 -1.85248,0.94722 -3.28984,2.12766 -6.81458,5.59653 -5.28365,5.19989 -9.33048,8.49283 -14.14664,11.51129 -6.21574,3.89561 -12.17088,6.36523 -17.790791,7.37791 -3.616822,0.65173 -10.63495,0.64638 -14.000567,-0.0107 -4.852633,-0.94736 -9.590161,-3.27759 -10.789226,-5.30686 -0.460695,-0.77967 -0.445388,-0.9226 0.186355,-1.74013 1.839799,-2.38087 7.81537,-5.13358 21.265313,-9.79611 11.322506,-3.92504 19.474526,-6.96655 19.367696,-7.22607 -0.0459,-0.11139 -0.78779,-0.7107 -1.64875,-1.3318 l -1.56538,-1.12926 -4.29568,1.59097 c -2.36262,0.87503 -7.57072,2.72115 -11.573554,4.10249 -16.996026,5.86517 -22.710061,8.58099 -25.047737,11.90493 -1.606856,2.28478 -1.130144,5.17328 1.202135,7.28397 2.421047,2.19103 8.197307,4.61135 13.129068,5.50124 3.974394,0.71714 12.014905,0.42138 16.329478,-0.60066 z m -4.411879,-4.98077 c 0.566472,-0.17669 2.240983,-0.59382 3.721139,-0.92695 6.84063,-1.5396 15.30688,-6.21586 23.11847,-12.76929 1.7753,-1.48935 4.02852,-3.56808 5.00717,-4.61939 l 1.77935,-1.91148 -3.46916,0.10863 c -2.3003,0.072 -4.37528,-0.0658 -6.1585,-0.40901 l -2.68934,-0.51763 -7.12118,2.68977 c -3.91664,1.47938 -10.2905,3.76485 -14.164138,5.07882 -11.836968,4.01521 -17.6737,6.4181 -19.922808,8.20188 l -0.80617,0.63938 0.97386,0.97383 c 1.528364,1.52831 5.259404,3.12604 7.346073,3.14577 0.553376,0.005 1.23252,0.14849 1.509208,0.31834 0.667009,0.40946 9.561708,0.40727 10.876026,-0.003 z m -2.994135,-20.85315 c 9.725234,-3.38998 15.532744,-5.5056 15.898694,-5.79174 0.10204,-0.0798 -0.76115,-2.24684 -1.15721,-2.90516 -0.0707,-0.11745 -10.220733,4.38845 -17.257301,7.66101 -8.855846,4.11866 -17.059686,8.60211 -10.731677,5.86492 1.3837,-0.59852 7.345072,-2.77158 13.247494,-4.82903 z m 36.790934,-1.79013 c 2.64893,-0.51482 7.59136,-2.89743 10.38533,-5.00648 3.185,-2.40421 5.75307,-5.13894 8.73582,-9.30276 3.48485,-4.86473 6.61549,-8.83103 8.56044,-10.84547 l 1.70505,-1.76597 -1.19196,-1.36308 -1.19196,-1.36309 -1.66108,1.53616 c -2.21359,2.04711 -5.38295,5.91852 -8.03857,9.81921 -7.7003,11.31051 -15.32804,15.92834 -24.48817,14.82512 -5.59961,-0.67439 -9.46375,-3.74928 -8.46564,-6.73652 0.37905,-1.13444 3.39818,-3.98232 5.66086,-5.33974 3.05456,-1.83249 5.43201,-2.90218 12.10251,-5.44526 7.62264,-2.90609 13.60319,-5.73174 18.3366,-8.66356 4.09431,-2.53597 4.0981,-2.54815 1.12827,-3.62553 l -1.38682,-0.50309 -2.98712,1.78143 c -3.8125,2.27366 -9.01821,4.67418 -15.594,7.19092 -10.63848,4.07165 -15.54211,6.68354 -18.58648,9.89999 -1.78702,1.88802 -2.60887,3.48576 -2.80987,5.46257 -0.40874,4.01991 3.40485,7.68352 9.65806,9.27822 2.19813,0.56056 7.64173,0.65028 10.12873,0.16693 z m 0.31048,-6.24876 c 5.23912,-1.68723 9.37034,-5.3576 15.17266,-13.48013 2.18893,-3.06423 4.45274,-6.06014 5.03069,-6.65757 l 1.05082,-1.08624 -1.84459,1.01789 c -3.96219,2.18643 -9.39365,4.64178 -15.69656,7.09581 -10.08863,3.92799 -13.2612,5.55265 -16.08968,8.23944 -2.08398,1.97959 -1.87578,2.94439 0.93132,4.31564 3.06242,1.49599 7.80901,1.72622 11.44534,0.55516 z m 52.44447,-10.85587 c 3.1358,-1.22967 8.56895,-3.3382 12.07366,-4.68563 18.69278,-7.18666 27.86965,-13.14973 32.65172,-21.21686 0.57966,-0.97787 1.05393,-1.88041 1.05393,-2.00564 0,-0.12523 -1.24509,0.82317 -2.76688,2.10754 -7.51714,6.34442 -17.21299,11.72665 -31.44183,17.45358 -5.94678,2.3935 -7.19508,3.04397 -13.76395,7.17224 -7.80088,4.90254 -9.67576,6.35392 -5.84848,4.52742 1.28721,-0.6143 4.90603,-2.12299 8.04183,-3.35265 z m -1.30678,-4.39343 c 23.43613,-14.62915 29.74708,-18.8319 37.63704,-25.06418 6.68416,-5.27982 12.59345,-11.41786 14.1882,-14.73742 1.19495,-2.48735 0.53875,-5.87129 -1.32196,-6.81723 -0.59159,-0.30075 -0.65769,-0.18082 -0.82297,1.49292 -0.45852,4.64352 -3.30013,8.8411 -11.5519,17.06429 -8.80676,8.77626 -12.64869,11.50962 -28.60483,20.35103 -13.71531,7.59975 -22.80581,13.41249 -22.80581,14.58271 0,1.61423 0.33532,1.59562 2.83029,-0.15707 1.34067,-0.94181 6.04404,-3.96358 10.45194,-6.71505 z m -11.98876,2.60455 c 3.45042,-2.52205 11.46101,-7.34906 20.67389,-12.45768 16.76172,-9.2945 23.11134,-13.95658 28.15776,-20.67424 3.10402,-4.13199 4.49977,-8.9688 3.70404,-12.83593 l -0.25041,-1.21699 -0.63358,1.74027 c -1.70245,4.67615 -4.57615,8.83533 -9.33306,13.50791 -6.75062,6.63097 -12.59984,10.59403 -28.52003,19.32336 -7.31822,4.01271 -12.6587,7.17248 -15.54055,9.19478 -2.07397,1.45538 -2.0562,1.38972 -1.0163,3.75387 0.2572,0.58472 0.55253,1.06313 0.65629,1.06313 0.10377,0 1.04964,-0.62932 2.10195,-1.39848 z m 33.68947,-2.76694 c 10.02139,-2.40102 19.15139,-5.85255 24.41071,-9.22831 4.6687,-2.99666 8.75827,-7.60784 10.36495,-11.68697 1.82428,-4.63156 0.95809,-9.98668 -2.27717,-14.07841 l -0.86098,-1.08891 -0.46181,2.04465 c -0.60893,2.69605 -0.60325,3.06484 0.0733,4.75256 0.96012,2.39514 0.58095,5.78399 -0.9836,8.79107 -2.21526,4.25773 -7.41778,8.51068 -13.88022,11.34677 -1.57068,0.68931 -3.47071,1.64744 -4.22229,2.1292 -2.77847,1.78097 -6.3037,3.45913 -15.95552,7.59553 -1.36675,0.58573 -0.52903,0.45825 3.79264,-0.57718 z m -28.94611,-7.373 c 1.93682,-1.13082 6.23806,-3.54073 9.55832,-5.35537 13.38219,-7.31383 20.10369,-11.91313 26.15961,-17.90018 4.72469,-4.67095 7.12902,-8.12216 8.78296,-12.60716 1.06806,-2.89628 1.13349,-3.30709 1.02542,-6.43875 -0.13126,-3.80334 -0.6366,-5.07039 -2.82084,-7.07266 -1.99571,-1.82945 -4.13076,-2.58108 -7.31733,-2.57601 -4.50804,0.007 -9.21679,1.95946 -15.49991,6.42637 -2.85969,2.03306 -11.3003,9.56278 -11.81888,10.54342 -0.1408,0.26624 -0.0967,1.45023 0.098,2.63108 l 0.35399,2.147 4.71073,-4.54465 c 7.24938,-6.99378 13.72075,-11.55817 18.29361,-12.90283 2.74712,-0.80779 5.89898,-0.72107 7.47262,0.20562 4.55427,2.68192 3.2583,10.8813 -2.92253,18.49033 -2.07302,2.55203 -7.20942,7.15719 -10.9223,9.79266 -4.38075,3.10953 -8.50455,5.59536 -18.1105,10.91699 -6.44916,3.5728 -14.01617,8.10121 -18.20849,10.89671 -0.15973,0.10652 0.13061,0.90998 0.64519,1.78547 l 0.93561,1.59182 3.03162,-1.98692 c 1.66739,-1.0928 4.61628,-2.91212 6.5531,-4.04294 z m -7.88142,-3.50877 c 5.62467,-4.66835 8.70356,-8.22874 11.09357,-12.82848 2.06661,-3.97732 2.82608,-7.05959 2.81886,-11.44017 -0.0108,-6.53676 -1.21917,-10.13224 -7.18277,-21.37177 -5.12149,-9.65241 -6.24063,-12.646 -7.38481,-19.75363 -0.92618,-5.75344 -1.72754,-8.48009 -3.20858,-10.91728 -1.11774,-1.83933 -1.40585,-1.86722 -2.96201,-0.28667 l -0.7889,0.80126 1.02422,2.52284 c 0.97425,2.39977 1.36808,4.14707 2.55364,11.32972 0.79913,4.84154 2.30937,8.65297 6.64883,16.77991 2.19866,4.11764 4.4167,8.49013 4.92897,9.71666 4.6799,11.20493 2.82474,20.14912 -5.99981,28.92662 -1.91329,1.90309 -7.85692,7.00195 -9.03795,7.75339 -0.0651,0.0414 0.4556,0.72759 1.15714,1.52482 1.24782,1.41801 1.29045,1.43706 1.96297,0.87711 0.3781,-0.31482 2.34758,-1.95026 4.37663,-3.63433 z m 45.17406,-3.45196 c 10.35081,-5.83824 16.55028,-11.12827 19.24131,-16.4187 0.63324,-1.24491 1.15134,-2.32809 1.15134,-2.40706 0,-0.079 -1.92424,1.66411 -4.27609,3.87351 -2.35185,2.2094 -6.23449,5.5107 -8.62809,7.33623 -4.55574,3.47452 -14.18341,10.22136 -17.19704,12.05125 -0.96791,0.58773 -1.75984,1.12644 -1.75984,1.19713 0,0.24687 8.08276,-3.72273 11.46841,-5.63236 z m -50.90811,-1.10248 c 1.95125,-1.67365 5.35273,-4.90948 7.55883,-7.19072 3.13448,-3.24125 4.16353,-4.53472 4.70857,-5.9185 0.69803,-1.77221 1.41018,-5.53484 1.04103,-5.50031 -0.10782,0.0101 -1.02609,0.96329 -2.04062,2.11823 -2.34882,2.67392 -15.40599,15.21566 -17.56069,16.8675 l -1.63017,1.24971 1.63017,0.97529 c 1.1356,0.6794 1.79929,0.89436 2.18765,0.70855 0.30663,-0.14671 2.15398,-1.63609 4.10523,-3.30975 z m 30.98342,-8.67919 c 10.2137,-6.1614 18.32426,-13.51727 20.10225,-18.23174 0.69304,-1.83763 0.43429,-2.02561 -2.51454,-1.82677 -4.58734,0.30932 -10.57011,2.83906 -16.16129,6.83358 -1.39065,0.99353 -4.43402,3.64162 -6.76304,5.88465 -3.98611,3.83894 -4.34863,4.29602 -6.17831,7.78991 -1.79705,3.43158 -4.96729,7.9597 -6.29718,8.99439 -0.30909,0.24047 -0.56198,0.54865 -0.56198,0.68484 0,0.2881 12.83279,-6.78608 18.37409,-10.12886 z m 39.68357,2.68034 c 0.83937,-1.49593 1.11249,-2.42786 1.23261,-4.20589 0.18078,-2.67573 -0.40128,-3.52388 -0.71139,-1.03662 -0.30682,2.46082 -1.41168,5.3043 -3.08331,7.93525 l -1.49908,2.35939 1.49144,-1.5652 c 0.82029,-0.86085 1.97667,-2.42997 2.56973,-3.48693 z m -40.78561,-16.83191 c 7.30146,-5.5213 13.38573,-8.0029 19.52613,-7.96414 l 3.09253,0.0195 0.34324,-1.17392 c 0.59516,-2.03552 0.50097,-2.22797 -1.2097,-2.47165 -3.92412,-0.55898 -9.36212,0.57929 -14.87692,3.11401 -3.37595,1.55166 -3.71407,1.80431 -8.18148,6.11343 -5.62752,5.42811 -6.57522,6.5961 -6.57522,8.10356 v 1.12374 l 2.76688,-2.54464 c 1.52179,-1.39955 3.82333,-3.34351 5.11454,-4.31991 z m 35.40787,-0.0189 c 1.87654,-2.82371 2.58695,-4.49242 2.86327,-6.72567 0.44875,-3.6269 -1.58787,-6.23909 -5.48778,-7.03869 -0.92077,-0.18879 -1.08999,-0.13227 -1.08999,0.36406 0,0.32315 0.30716,1.13192 0.68257,1.79727 1.16895,2.07175 2.07376,10.38582 1.38729,12.74746 -0.18639,0.64124 -0.23787,1.16561 -0.11439,1.16527 0.12347,-3.4e-4 0.91504,-1.03971 1.75903,-2.3097 z m -15.17543,-13.84682 2.45731,0.13563 -0.70675,-0.67053 c -1.06588,-1.01126 -4.56277,-0.90827 -7.14245,0.21037 -1.06064,0.45992 -1.92844,0.89368 -1.92844,0.9639 0,0.0702 1.09418,-0.0754 2.43151,-0.32366 1.36813,-0.25396 3.50616,-0.39203 4.88882,-0.31571 z m -87.71487,-17.59327 c 6.55057,-1.3453 11.35309,-3.11042 16.44401,-6.04383 2.62257,-1.51113 6.65314,-4.5096 6.87201,-5.1123 0.057,-0.15705 -1.35431,0.64046 -3.13631,1.77224 -19.21626,12.2046 -47.133435,11.67894 -64.63034,-1.21694 l -1.760625,-1.29765 1.341519,1.34341 c 5.184135,5.19143 14.859313,9.40761 25.297166,11.02381 4.3547,0.67428 15.28111,0.41261 19.57257,-0.46874 z m -16.86554,-3.36579 c -2.96058,-1.12681 -25.30881,-8.75844 -25.630212,-8.75239 -0.498853,0.009 3.892793,2.70154 6.33093,3.88095 5.20919,2.51985 15.240852,5.25405 19.466972,5.30587 l 1.00614,0.0123 z m 12.45251,0.0532 c 0.82038,-0.23453 5.86248,-2.77103 11.20468,-5.63666 5.34219,-2.86564 10.27779,-5.50512 10.96799,-5.86553 0.6902,-0.3604 1.25615,-0.7548 1.25767,-0.87644 0.002,-0.12165 -0.35468,-0.61591 -0.79156,-1.09837 -0.77162,-0.85213 -0.83632,-0.86543 -2.26381,-0.46549 -1.67956,0.47057 -3.5136,1.37377 -12.87276,6.33941 -4.45616,2.36427 -7.26731,3.65826 -8.37421,3.8547 -1.9801,0.35139 -4.33553,0.0361 -6.8852,-0.9216 -7.25252,-2.72422 -16.750576,-5.72213 -20.122771,-6.35143 -5.392453,-1.00632 -11.048977,-2.84159 -16.755156,-5.43625 -6.419777,-2.91915 -19.25175,-7.37799 -19.414472,-6.74612 -0.208853,0.81101 1.054887,2.95536 2.021523,3.43019 0.519218,0.25505 4.830579,1.8118 9.580803,3.45945 4.750224,1.64764 17.541099,6.08364 28.424167,9.85776 13.426516,4.65616 20.228456,6.86538 21.159456,6.87242 0.75464,0.006 2.04328,-0.18151 2.86365,-0.41604 z m 12.29638,-2.63988 c 1.79042,-0.63515 4.31175,-1.65424 5.60296,-2.26464 2.76963,-1.3093 7.88142,-4.4647 7.88142,-4.86503 0,-0.69278 -0.81229,-0.60706 -2.43555,0.25704 -0.96618,0.51432 -4.3978,2.34066 -7.62583,4.05854 -8.47885,4.51223 -8.68301,4.68008 -3.423,2.81409 z m -8.37866,-5.6094 c 2.45535,-1.26628 4.31705,-2.34893 4.13713,-2.4059 -0.17992,-0.057 -1.54776,0.11637 -3.03964,0.3852 -2.99747,0.54012 -14.14606,1.2652 -16.77107,1.09074 -0.91871,-0.0611 -1.56448,-0.0167 -1.43505,0.0985 0.12943,0.11524 2.12184,0.86223 4.42758,1.65997 6.22552,2.15392 6.99557,2.10361 12.68105,-0.82852 z m 35.22144,1.38846 c 0.31633,-0.19049 0.14986,-0.32506 -0.5717,-0.46214 -1.33851,-0.25429 -2.16571,-1.4988 -2.13836,-3.21715 0.0601,-3.77631 5.05235,-8.46681 9.01149,-8.46681 1.64841,0 3.48137,1.22259 3.48137,2.32209 0,1.46859 0.73286,-0.0763 0.90836,-1.91482 0.46176,-4.83723 -3.25833,-6.37683 -8.95747,-3.70715 -7.39031,3.46189 -11.72663,12.5234 -7.23739,15.1238 1.09249,0.63283 4.6427,0.84065 5.5037,0.32218 z m -9.66922,-3.44888 c 0,-0.64066 -0.0969,-0.76808 -0.37991,-0.49929 -0.20895,0.19849 -0.28915,0.58556 -0.17822,0.86017 0.30702,0.75999 0.55813,0.59763 0.55813,-0.36088 z m 9.71064,0.19572 c -0.2059,-0.36545 -0.45623,-0.58667 -0.55631,-0.49161 -0.27644,0.26259 0.16637,1.15605 0.57295,1.15605 0.24804,0 0.24293,-0.20372 -0.0166,-0.66444 z m -41.40401,-1.57813 c 6.78714,-0.54729 16.48158,-2.43176 20.63921,-4.01197 1.49789,-0.56932 1.56758,-0.72697 0.74124,-1.67686 -0.52199,-0.60002 -0.72778,-0.63706 -1.86023,-0.33479 -2.00043,0.53394 -3.35276,0.29008 -3.62693,-0.65403 -0.1272,-0.43804 -0.24632,-3.21445 -0.26471,-6.16979 l -0.0334,-5.37334 -0.92229,0.18978 c -4.00489,0.82405 -10.76373,1.8052 -14.67286,2.12999 -6.29691,0.52318 -18.026772,0.22144 -23.811954,-0.61256 -14.964808,-2.15733 -27.704479,-6.87394 -37.610862,-13.92467 -1.803826,-1.28385 -3.32507,-2.29116 -3.380541,-2.23847 -0.18942,0.17993 1.557854,5.53502 2.387226,7.31644 3.410289,7.32498 11.476219,14.37575 21.667508,18.94048 11.543197,5.17026 26.676753,7.55449 40.748623,6.41979 z m 30.98798,-2.9403 c 0.90699,-1.68013 1.16795,-2.58455 1.28024,-4.43706 l 0.14104,-2.32679 -3.06357,-3.34508 c -1.68497,-1.8398 -3.1685,-3.38152 -3.29674,-3.42606 -0.12824,-0.0445 -1.12152,1.71551 -2.2073,3.91122 l -1.97414,3.9922 0.66388,0.70818 c 0.36513,0.3895 1.98711,2.18487 3.60439,3.98972 1.61728,1.80484 3.11432,3.22808 3.32676,3.16274 0.21243,-0.0653 0.89888,-1.06842 1.52544,-2.22907 z m 17.88531,-1.74623 c -0.14144,-0.38233 -1.41708,-0.58317 -1.41708,-0.22311 0,0.0963 0.25388,0.63391 0.56418,1.19467 l 0.56418,1.01956 0.21802,-0.79645 c 0.11991,-0.43804 0.15172,-0.97564 0.0707,-1.19467 z m -13.03216,-4.17287 c -0.63559,-0.12923 -1.12202,0.47668 -1.11215,1.3853 0.006,0.55283 0.11619,0.51067 0.83248,-0.31857 0.69978,-0.81013 0.74239,-0.97265 0.27967,-1.06673 z m -16.36046,-0.22361 c 0.4696,-1.06759 0.45453,-1.18277 -0.26864,-2.05313 -0.42139,-0.50716 -0.87934,-0.93003 -1.01769,-0.93973 -0.13834,-0.01 -0.25153,0.91422 -0.25153,2.05314 0,1.65857 0.10354,2.07077 0.52018,2.07077 0.2861,0 0.74406,-0.50897 1.01768,-1.13105 z m 18.79664,-2.73492 c 1.89251,-0.67261 4.81897,-2.8642 4.81897,-3.60888 0,-0.39747 -6.50197,-7.58462 -7.01234,-7.7513 -0.1577,-0.0515 -2.10174,1.0237 -4.32009,2.38934 l -4.03337,2.48298 3.2149,3.58402 c 3.65244,4.0718 3.83842,4.14546 7.33193,2.90384 z m -95.591495,-2.84298 c -1.590177,-1.5873 -3.53157,-3.74946 -4.314207,-4.80482 l -1.422975,-1.91882 -0.09724,2.95142 c -0.08213,2.49275 -0.0039,3.03896 0.503069,3.51476 0.43711,0.4102 6.201625,2.62486 8.100621,3.11216 0.06708,0.0172 -1.179092,-1.2674 -2.769269,-2.8547 z m 82.504875,-4.5495 c 0.52402,-0.49755 1.97512,-1.48157 3.22466,-2.18672 1.24953,-0.70515 2.27188,-1.33534 2.27188,-1.40042 0,-0.0651 -0.79233,0.18315 -1.76074,0.55163 -0.96841,0.36848 -2.61291,0.94798 -3.65445,1.28777 -1.04153,0.3398 -2.11525,0.86054 -2.38603,1.15722 -0.77443,0.84849 -3.26631,4.91832 -3.26631,5.33466 0,0.20646 0.32828,0.7718 0.7295,1.25633 l 0.7295,0.88095 1.57961,-2.9884 c 0.86878,-1.64362 2.00835,-3.39548 2.53238,-3.89302 z m 20.924,5.01207 c 0,-0.0689 -0.22638,-0.12521 -0.50307,-0.12521 -0.27668,0 -0.50307,0.13886 -0.50307,0.30858 0,0.16972 0.22639,0.22606 0.50307,0.12521 0.27669,-0.10086 0.50307,-0.23972 0.50307,-0.30858 z m 7.54604,-1.66305 c 1.45663,-0.95498 2.00002,-1.79312 2.35771,-3.63662 l 0.23132,-1.19223 -2.96512,1.55638 c -3.59708,1.88809 -3.91174,2.26272 -2.82417,3.36239 1.00978,1.02102 1.52797,1.00646 3.20026,-0.0899 z m -7.90427,-1.5683 c -4.85172,-5.27658 -6.01398,-6.35233 -6.01398,-5.56641 0,0.38522 6.3841,6.76108 6.76982,6.76108 0.18845,0 -0.15168,-0.5376 -0.75584,-1.19467 z m -26.33579,-1.63226 c -0.35726,-0.39578 -1.14222,0.39169 -1.14072,1.14439 l 0.002,0.88609 0.62319,-0.95574 c 0.34275,-0.52565 0.57484,-1.00929 0.51576,-1.07474 z m -17.2407,0.74085 c 20.87076,-2.26985 38.55142,-9.6949 49.84544,-20.93275 6.45822,-6.42611 10.21988,-13.691203 10.73241,-20.728121 l 0.16663,-2.287741 -1.61344,2.878208 c -5.2478,9.361503 -13.62124,16.476912 -26.43153,22.460424 -10.26008,4.79235 -21.4919,7.72856 -34.15805,8.92956 -5.89467,0.55894 -20.289179,0.22134 -25.92731,-0.60808 C 80.534702,110.78964 69.499528,107.16507 60.599258,102.05864 52.550146,97.440553 46.032598,91.312925 42.472748,85.016572 41.699855,83.649545 41.023447,82.57434 40.96962,82.627228 c -0.227115,0.223152 0.848335,5.516489 1.496945,7.367926 5.308651,15.153376 23.748126,27.520606 47.307986,31.729146 3.292038,0.58806 7.338884,1.15394 10.061388,1.4069 3.620741,0.33641 16.035781,0.16234 20.122781,-0.28215 z m 46.13321,-3.21275 c 3.35308,-3.88701 5.7023,-8.91652 6.52764,-13.97521 0.20011,-1.22653 0.44285,-2.58475 0.53943,-3.01826 0.13489,-0.60555 -0.59103,-0.0816 -3.1326,2.26111 -3.48419,3.21155 -7.36228,6.09664 -10.8916,8.10276 -1.16415,0.66173 -2.17575,1.2473 -2.24799,1.30126 -0.20692,0.15456 1.429,1.36597 1.86057,1.37777 0.21324,0.006 1.55234,1.22917 2.97579,2.71852 1.42345,1.48936 2.70228,2.70793 2.84185,2.70793 0.13957,0 0.82668,-0.66415 1.52691,-1.47588 z m 4.8983,-0.15592 c 1.35384,-0.72227 2.72564,-1.53297 3.04845,-1.80156 0.70267,-0.58466 0.76325,-2.40428 0.15429,-4.63458 l -0.41967,-1.53707 -1.16691,2.31802 c -0.6418,1.27492 -1.88073,3.36437 -2.75319,4.64322 -0.87245,1.27885 -1.52738,2.32519 -1.45539,2.32519 0.072,0 1.23858,-0.59095 2.59242,-1.31322 z m -49.47199,-8.90283 c 16.14101,-1.91982 30.20917,-6.93193 41.36906,-14.738698 10.12097,-7.080001 16.33027,-16.102636 17.4345,-25.333788 2.31297,-19.335914 -19.21109,-37.522756 -50.18653,-42.405315 -9.19089,-1.448732 -21.81053,-1.653052 -30.63471,-0.495996 -29.480394,3.865566 -51.905629,17.67004 -57.567438,35.437228 -0.772331,2.423633 -0.8955,3.394066 -0.921176,7.257819 -0.03563,5.360996 0.450003,7.449691 2.819613,12.127162 5.055504,9.979271 15.896991,18.273408 30.775081,23.544068 13.764991,4.87634 30.68197,6.53788 46.9116,4.60752 z M 102.04483,97.239767 c -1.25634,-0.786723 -2.779197,-2.944982 -3.252997,-4.610285 -0.504064,-1.771678 0.05158,-2.660807 2.356177,-3.770309 1.3728,-0.660904 1.92248,-0.786856 2.26287,-0.518505 0.79602,0.627543 0.48548,1.147673 -1.14344,1.915176 -1.5692,0.739363 -2.08394,1.56085 -1.50508,2.402009 0.19328,0.28087 0.78967,0.200661 2.33727,-0.31434 1.58592,-0.527754 2.17062,-0.603235 2.46999,-0.31886 0.66598,0.632616 0.0964,1.263198 -1.69299,1.874431 -1.90153,0.649529 -2.11316,1.291266 -0.64609,1.95919 0.71668,0.32629 1.14793,0.306953 2.43341,-0.109112 2.72502,-0.881993 3.68756,0.375875 1.13112,1.478157 -1.8192,0.7844 -3.51041,0.788832 -4.75024,0.01245 z m 5.23372,-5.258956 c -1.32655,-2.179987 -2.41192,-4.10011 -2.41192,-4.266941 0,-0.392569 4.12595,-1.96398 5.15669,-1.96398 1.56233,0 3.56318,2.199553 3.56318,3.917043 0,0.910808 -0.75429,1.616827 -2.44377,2.287376 -0.68497,0.271862 -1.2454,0.571488 -1.2454,0.665837 0,0.09435 0.33957,0.74002 0.7546,1.434826 0.65427,1.095317 0.68772,1.304263 0.25154,1.571489 -0.27669,0.169513 -0.66281,0.310401 -0.85804,0.313084 -0.19523,0.0027 -1.44033,-1.778747 -2.76688,-3.958734 z m 3.54107,-1.970619 c 0.89487,-0.536068 0.91941,-0.709229 0.23252,-1.640783 -0.58221,-0.789581 -1.22632,-0.873336 -2.77428,-0.360746 l -1.0488,0.347299 0.74722,1.239959 c 0.7937,1.317095 1.23009,1.380677 2.84334,0.414271 z m 8.02636,1.235189 c -0.43217,-0.65707 -1.42543,-2.22314 -2.20725,-3.480157 -1.3993,-2.249815 -1.43689,-2.280382 -2.40874,-1.958565 -1.20469,0.398921 -1.98501,0.157854 -1.98501,-0.613239 0,-0.430823 0.72198,-0.835792 2.85765,-1.602894 3.37127,-1.210917 3.3862,-1.212387 3.85528,-0.379812 0.32153,0.570689 0.22216,0.703031 -0.84618,1.127054 l -1.21049,0.480437 0.65501,1.023356 c 0.36025,0.562846 1.34438,2.098561 2.18696,3.4127 1.38493,2.160027 1.47873,2.427563 0.97732,2.787567 -0.82428,0.591825 -1.01464,0.510945 -1.87455,-0.796447 z m 7.26114,0.336132 c -1.21796,-0.225553 -2.45923,-1.553333 -2.45923,-2.63062 0,-1.159744 0.20249,-1.200471 1.26355,-0.254146 1.11242,0.992127 3.46078,0.943416 5.46338,-0.113324 1.53829,-0.811737 1.81007,-1.506038 1.15485,-2.950239 -0.24496,-0.539914 -0.19571,-0.55822 0.5357,-0.199124 2.62551,1.289033 2.95491,2.703156 1.034,4.438942 -1.79993,1.626456 -4.22959,2.220129 -6.99225,1.708511 z m 4.50609,-1.22743 c 0.68328,-0.271191 1.58396,-0.797943 2.00151,-1.17056 0.81208,-0.724693 1.02618,-2.283541 0.36681,-2.670645 -0.26998,-0.158494 -0.31991,-0.05097 -0.16009,0.344667 0.34286,0.848713 -0.63522,2.042626 -2.24057,2.734993 -1.7168,0.740437 -4.49465,0.801628 -5.51684,0.121527 -0.40996,-0.272764 -0.74538,-0.349022 -0.74538,-0.169464 0,1.154623 4.09736,1.681544 6.29456,0.809482 z m -4.28228,-1.648266 c -1.04785,-0.374015 -2.37532,-1.445492 -2.83345,-2.287038 -0.68465,-1.257637 -1.58753,-5.773005 -1.46408,-7.321946 l 0.10528,-1.320999 2.17997,1.394386 c 5.10438,3.264943 7.29698,6.051815 6.39277,8.125422 -0.59302,1.359951 -2.65841,2.024846 -4.38049,1.410175 z m 1.61465,-1.062548 c -0.065,-0.185172 -0.74756,-0.604358 -1.51685,-0.931526 -1.11761,-0.475305 -1.3611,-0.501747 -1.21156,-0.131575 0.34327,0.84974 3.01945,1.89249 2.72841,1.063101 z m 8.66794,-2.610182 c -0.45049,-0.56946 -1.53083,-2.087813 -2.40075,-3.374117 -1.55914,-2.305419 -1.59824,-2.335782 -2.7449,-2.131443 -1.1937,0.212721 -2.11853,-0.194747 -2.11853,-0.933396 0,-0.579599 6.09092,-2.436996 6.62106,-2.01906 0.71013,0.55983 0.48822,1.444037 -0.41653,1.659742 -0.46115,0.109942 -0.83845,0.351261 -0.83845,0.536265 0,0.185003 0.67195,1.323072 1.49323,2.529041 1.97598,2.901542 2.60136,4.084392 2.35755,4.459127 -0.38168,0.586634 -1.13609,0.306086 -1.95268,-0.726159 z m 5.29827,-1.788161 c -2.01647,-1.168078 -4.17796,-4.290119 -4.17796,-6.034606 0,-1.17775 0.78026,-1.833394 2.78929,-2.34381 1.3742,-0.349131 1.65199,-0.340349 1.91897,0.06067 0.55175,0.828754 0.35065,1.158163 -1.01908,1.669254 -1.04904,0.391434 -1.34152,0.668217 -1.34152,1.269546 0,1.12522 0.19832,1.183173 2.19889,0.64257 1.46582,-0.396101 1.91337,-0.413433 2.32365,-0.08999 0.90296,0.711853 0.54492,1.210495 -1.16874,1.627693 -1.72249,0.419345 -1.84331,0.514305 -1.42023,1.116192 0.57285,0.814939 1.58884,1.030932 3.20097,0.680503 1.34397,-0.292137 1.68237,-0.267282 2.12831,0.15632 0.70069,0.665593 0.36277,1.10677 -1.15429,1.506996 -1.83191,0.483289 -3.12966,0.404017 -4.27826,-0.261337 z m 7.05726,-1.905501 c -2.26933,-1.31976 -4.52762,-4.418536 -4.52762,-6.212696 0,-0.963929 0.57671,-1.422442 2.46989,-1.963663 1.21785,-0.348157 1.6038,-0.351743 2.08235,-0.01935 0.81444,0.565701 0.40459,1.326569 -0.84216,1.563428 -0.57358,0.108971 -1.13404,0.423786 -1.24546,0.699589 -0.27917,0.691063 0.77138,2.789426 1.91977,3.834536 0.88071,0.801506 1.09107,0.849703 2.85111,0.653207 1.92555,-0.214973 2.82588,0.0777 2.82588,0.91862 0,0.41162 -2.37229,1.114774 -3.75384,1.112648 -0.42558,-6.55e-4 -1.22654,-0.264501 -1.77992,-0.586324 z m 6.10444,-1.722184 c -2.29494,-2.951786 -4.93061,-6.770088 -4.93061,-7.142979 0,-0.969783 1.37818,-0.360079 2.54664,1.126631 1.2151,1.546037 1.22142,1.549115 2.53201,1.233117 1.45931,-0.351857 1.48628,-0.06399 -0.24455,-2.609725 -0.58895,-0.866219 -0.39994,-1.449503 0.46792,-1.444057 0.62013,0.0039 6.56336,8.052583 6.20057,8.397199 -0.59215,0.562485 -1.54966,0.05896 -2.64705,-1.392016 -1.28541,-1.699565 -1.4733,-1.776077 -2.89853,-1.180303 l -0.91826,0.383855 1.0316,1.498352 c 0.56737,0.824094 0.93396,1.648418 0.81462,1.831831 -0.3977,0.61126 -1.14095,0.344325 -1.95436,-0.701905 z"
       id="path1" /></g></svg>
