<?xml version="1.0" encoding="UTF-8" standalone="no"?>
<!-- Created with Inkscape (http://www.inkscape.org/) -->

<svg
   width="960"
   height="960"
   viewBox="0 0 253.99999 254"
   version="1.1"
   id="svg1"
   xml:space="preserve"
   inkscape:version="1.4.4 (dcaf3e7, 2026-05-05)"
   sodipodi:docname="inomeado.svg"
   xmlns:inkscape="http://www.inkscape.org/namespaces/inkscape"
   xmlns:sodipodi="http://sodipodi.sourceforge.net/DTD/sodipodi-0.dtd"
   xmlns="http://www.w3.org/2000/svg"
   xmlns:svg="http://www.w3.org/2000/svg"><sodipodi:namedview
     id="namedview1"
     pagecolor="#ffffff"
     bordercolor="#000000"
     borderopacity="0.25"
     inkscape:showpageshadow="2"
     inkscape:pageopacity="0.0"
     inkscape:pagecheckerboard="0"
     inkscape:deskcolor="#d1d1d1"
     inkscape:document-units="mm"
     inkscape:zoom="0.85789141"
     inkscape:cx="396.32055"
     inkscape:cy="561.25984"
     inkscape:window-width="2240"
     inkscape:window-height="1230"
     inkscape:window-x="0"
     inkscape:window-y="30"
     inkscape:window-maximized="0"
     inkscape:current-layer="layer1" /><defs
     id="defs1" /><g
     inkscape:label="Camada 1"
     inkscape:groupmode="layer"
     id="layer1"><path
       style="fill:#000000"
       d="m 166.80628,222.39595 -6.89017,-0.16405 -2.17316,-1.02966 c -2.92106,-1.38402 -4.65943,-3.03354 -5.94422,-5.64041 -0.9797,-1.98783 -1.07867,-2.47679 -1.1786,-5.82262 l -0.10908,-3.65255 2.09478,-4.0672 c 1.15213,-2.23696 4.06606,-7.46307 6.4754,-11.61358 18.85734,-32.48507 26.87401,-46.19377 27.93599,-47.7712 2.9073,-4.31838 6.22102,-6.20178 10.91162,-6.20178 4.74563,0 7.9808,1.50395 10.58681,4.92155 1.34204,1.75999 8.03857,13.13248 22.0247,37.40377 3.79552,6.58667 8.17868,14.11664 9.74036,16.73327 1.56168,2.61662 3.38638,5.86484 4.05488,7.21827 1.19793,2.42526 1.21547,2.51767 1.21547,6.40332 0,3.78246 -0.0432,4.03034 -1.06347,6.10437 -1.26417,2.56976 -3.47833,4.7603 -6.20071,6.13456 l -1.93349,0.97602 -31.32847,0.11599 c -17.23066,0.0638 -34.42905,0.0422 -38.21864,-0.0481 z m 68.16962,-7.37177 c 1.5464,-0.64613 3.05493,-2.20767 3.53346,-3.65763 0.72069,-2.18371 0.26341,-4.04379 -1.98314,-8.0669 -2.12447,-3.80449 -15.47404,-26.50923 -18.86647,-32.08781 -1.04252,-1.71434 -4.76645,-8.06313 -8.2754,-14.10844 -3.50895,-6.0453 -6.62541,-11.27069 -6.92547,-11.61197 -0.77936,-0.88645 -2.97869,-1.82462 -4.29718,-1.83305 -0.61974,-0.004 -1.7619,0.30024 -2.53813,0.67601 -1.66942,0.80815 -0.7218,-0.7026 -15.52126,24.74478 -2.93856,5.05279 -9.15197,15.68334 -13.80758,23.62344 -4.75107,8.1029 -8.55865,14.95342 -8.67879,15.61469 -0.46726,2.57196 1.10208,5.43757 3.59901,6.57176 1.26006,0.57237 3.098,0.60267 36.96714,0.60952 30.60323,0.006 35.80409,-0.0609 36.79381,-0.4744 z m -39.42949,-8.89352 c -2.80068,-2.35662 -1.71731,-6.88897 1.8046,-7.54968 1.5938,-0.299 2.7053,0.0735 3.95826,1.32643 0.93161,0.93161 1.09621,1.32755 1.09621,2.63689 0,2.7638 -1.64519,4.4308 -4.37282,4.4308 -1.11417,0 -1.73212,-0.20988 -2.48625,-0.84444 z m 1.05436,-14.23467 c -0.3955,-0.16855 -0.98609,-0.71373 -1.31241,-1.21152 -0.54849,-0.8367 -0.59331,-1.943 -0.59331,-14.64463 v -13.73956 l 1.07152,-0.95792 c 1.1452,-1.0238 3.0894,-1.30029 4.36036,-0.62009 1.568,0.83916 1.62234,1.36566 1.62234,15.71776 v 13.46335 l -0.90228,1.00974 c -0.98251,1.09952 -2.92007,1.54801 -4.24622,0.98287 z m -117.398068,16.06547 -22.967228,-0.18324 -2.303015,-0.84841 c -4.825046,-1.7775 -8.104937,-3.93172 -11.392395,-7.48248 -2.474542,-2.67273 -4.959682,-7.27699 -5.588476,-10.35386 -0.31017,-1.51775 -0.402311,-17.78667 -0.402311,-71.03435 V 48.99338 l 0.921238,-2.624826 c 0.50668,-1.443654 1.529038,-3.658351 2.271907,-4.921548 3.061482,-5.205847 9.723929,-10.144777 16.037818,-11.888977 1.971788,-0.544703 6.17123,-0.578947 70.99744,-0.578947 65.67029,0 69.0017,0.02805 71.03435,0.598068 7.07444,1.983894 12.69071,6.63239 15.92671,13.182269 2.74827,5.562702 2.57626,3.292343 2.70958,35.763255 0.0652,15.880197 0.0153,36.143556 -0.1109,45.029696 l -0.22944,16.1566 -1.57035,-2.07438 c -0.86369,-1.14091 -2.47834,-2.89607 -3.5881,-3.90034 l -2.01775,-1.82596 -0.16785,-37.84832 c -0.0923,-20.816575 -0.29556,-39.382165 -0.45163,-41.256867 -0.38422,-4.615084 -1.43236,-6.77258 -5.05739,-10.410108 -3.03433,-3.044792 -5.55433,-4.494813 -8.7626,-5.042046 -1.47534,-0.251647 -21.91698,-0.329414 -69.1911,-0.263227 -75.231934,0.105331 -68.306864,-0.13671 -72.435446,2.531721 -3.80968,2.462315 -6.349661,5.720873 -7.779548,9.980432 l -0.826512,2.462135 0,66.60958 0,66.60959 0.864017,2.3983 c 1.788331,4.96397 4.928824,8.56007 9.385949,10.74762 1.806109,0.88644 3.476224,1.43733 5.006836,1.65153 1.399139,0.1958 18.61352,0.32395 44.047864,0.3279 22.96313,0.004 41.75114,0.0877 41.75114,0.18685 0,0.0992 -0.23209,0.62916 -0.51576,1.17772 -0.28367,0.54856 -0.77495,2.20225 -1.09173,3.67487 l -0.57597,2.67749 -20.48106,0.0106 c -11.26458,0.006 -30.816312,-0.0718 -43.448288,-0.17262 z M 118.73915,181.50364 C 105.6134,179.91086 93.300892,174.05285 83.665816,164.81655 73.724802,155.28698 68.466665,146.59037 65.231243,134.32699 61.456293,120.01862 63.151898,103.18176 69.674819,90.203586 77.36924,74.894568 90.558738,63.48808 106.87223,58.034674 c 7.51963,-2.513724 9.54966,-2.802155 19.74139,-2.804901 10.16029,-0.0027 12.15655,0.280464 19.69994,2.794747 16.53131,5.51004 29.15995,16.676465 36.91181,32.637974 4.77744,9.837006 6.68094,19.011646 6.26272,30.185496 -0.24647,6.58526 -0.8855,10.67368 -1.74363,11.15551 -1.28459,0.72129 -5.33902,4.89689 -6.69184,6.89183 -1.52909,2.25487 -1.90456,2.56 -2.61206,2.12275 -0.67809,-0.41909 -0.48898,-2.11713 0.64073,-5.75342 4.42627,-14.24724 3.22421,-28.94045 -3.43602,-41.999638 -3.74525,-7.343572 -9.70243,-14.647424 -15.48874,-18.990121 -7.45679,-5.596411 -16.85862,-9.513744 -26.11321,-10.880231 -4.8306,-0.713263 -13.37432,-0.467465 -18.01473,0.518274 -22.191638,4.714048 -39.143855,21.584975 -43.939917,43.729216 -0.993684,4.588 -1.083572,16.49411 -0.159061,21.06841 2.211908,10.94407 7.438761,20.79812 15.147569,28.55731 7.981308,8.03347 17.965819,13.46216 28.798359,15.65799 3.17397,0.64339 4.66027,0.74483 10.73808,0.73289 6.03317,-0.0119 7.54096,-0.1196 10.41697,-0.74438 11.22568,-2.43867 19.70476,-7.1072 29.56583,-16.27875 2.72284,-2.53245 3.49,-3.0863 3.85521,-2.7832 0.25076,0.20812 0.45594,0.75921 0.45594,1.22466 0,0.86037 -6.84259,13.00441 -8.53655,15.15044 -1.76097,2.23092 -9.97363,6.44503 -16.99641,8.72127 -6.33385,2.05293 -9.50064,2.51344 -17.94073,2.60887 -4.1505,0.0469 -8.06313,0.0226 -8.69473,-0.054 z m -4.24745,-26.45088 c 0.01,-0.58649 0.13927,-3.16848 0.28762,-5.73776 0.23539,-4.0768 0.38139,-4.89967 1.14699,-6.46449 3.20636,-6.55356 12.3712,-8.20766 17.54641,-3.16684 2.59477,2.52738 3.0508,3.73852 3.34699,8.88905 0.1401,2.43617 0.26339,5.13071 0.27397,5.98788 l 0.0192,1.55849 H 125.79337 114.4738 Z m -12.32177,-34.33487 c -0.36091,-0.15966 -1.00625,-0.66715 -1.43409,-1.12775 l -0.777877,-0.83747 0.132947,-11.54039 0.13294,-11.540391 0.90931,-0.782155 c 1.28221,-1.102907 4.06153,-1.112226 5.33378,-0.01788 0.81141,0.69794 0.91128,1.046777 1.15073,4.019265 0.32842,4.076994 0.35455,9.426664 0.0758,15.520164 -0.25835,5.64759 -0.53233,6.19479 -3.22683,6.44473 -0.90228,0.0837 -1.93581,0.0215 -2.29672,-0.13812 z m 43.96584,0.002 c -0.36091,-0.15753 -0.9515,-0.61489 -1.31241,-1.01635 -0.63078,-0.70164 -0.6556,-1.18021 -0.64047,-12.34922 0.0155,-11.46369 0.0252,-11.628805 0.72549,-12.329047 0.52148,-0.521482 1.22592,-0.747083 2.65569,-0.850504 1.84075,-0.133148 2.0103,-0.08112 3.13638,0.962452 l 1.19043,1.103209 -0.22469,11.44605 c -0.21719,11.06415 -0.24816,11.47334 -0.92824,12.26398 -0.53404,0.62087 -1.09416,0.8466 -2.32476,0.93689 -0.89167,0.0654 -1.91651,-0.01 -2.27742,-0.16746 z"
       id="path1" /></g></svg>
