<?xml version="1.0" encoding="UTF-8" standalone="no"?>
<!-- Created with Inkscape (http://www.inkscape.org/) -->

<svg
   width="960"
   height="960"
   viewBox="0 0 253.99999 254"
   version="1.1"
   id="svg1"
   xml:space="preserve"
   inkscape:version="1.4.4 (dcaf3e7, 2026-05-05)"
   sodipodi:docname="water-leveldwon.svg"
   xmlns:inkscape="http://www.inkscape.org/namespaces/inkscape"
   xmlns:sodipodi="http://sodipodi.sourceforge.net/DTD/sodipodi-0.dtd"
   xmlns="http://www.w3.org/2000/svg"
   xmlns:svg="http://www.w3.org/2000/svg"><sodipodi:namedview
     id="namedview1"
     pagecolor="#ffffff"
     bordercolor="#000000"
     borderopacity="0.25"
     inkscape:showpageshadow="2"
     inkscape:pageopacity="0.0"
     inkscape:pagecheckerboard="0"
     inkscape:deskcolor="#d1d1d1"
     inkscape:document-units="mm"
     inkscape:zoom="0.61166026"
     inkscape:cx="396.46192"
     inkscape:cy="561.58626"
     inkscape:window-width="1442"
     inkscape:window-height="1120"
     inkscape:window-x="360"
     inkscape:window-y="30"
     inkscape:window-maximized="0"
     inkscape:current-layer="layer1" /><defs
     id="defs1" /><g
     inkscape:label="Camada 1"
     inkscape:groupmode="layer"
     id="layer1"><path
       style="fill:#000000"
       d="m 90.683512,234.89754 c -2.773111,-0.0928 -5.576197,-0.29339 -6.229079,-0.4457 -0.652882,-0.15231 -2.045168,-0.70937 -3.093967,-1.2379 -5.002795,-2.52114 -7.537783,-5.08916 -9.943273,-10.07287 -2.007539,-4.15923 -1.821706,5.01342 -1.793264,-88.51502 0.01815,-59.674449 0.09802,-83.781516 0.284519,-85.875804 0.366222,-4.112403 1.604226,-7.120126 4.345412,-10.557151 2.208136,-2.768663 6.781098,-5.801539 10.127127,-6.716505 2.332165,-0.637727 9.571283,-0.767234 42.627993,-0.762613 34.11436,0.0048 42.74757,0.148929 44.88479,0.749499 1.66565,0.468058 4.29163,1.739209 6.02598,2.916981 3.83305,2.602974 7.20805,7.438206 8.13092,11.648835 0.67653,3.086694 0.79202,18.368329 0.72498,95.930608 l -0.0662,76.54705 -0.5078,1.60428 c -1.29278,4.08423 -4.20605,8.4532 -7.07694,10.61311 -2.35677,1.77313 -5.80849,3.43886 -7.99809,3.85973 -1.59328,0.30625 -6.65219,0.36092 -38.6173,0.41733 -20.2311,0.0357 -39.052736,-0.011 -41.825848,-0.10386 z m 81.066938,-5.1928 c 2.73403,-1.11056 3.80031,-1.82332 5.91709,-3.9553 1.69057,-1.70272 2.12042,-2.30769 3.15511,-4.44051 l 1.19788,-2.46923 -0.0611,-85.65155 -0.0611,-85.651549 -0.60555,-1.656586 c -1.52215,-4.164068 -4.16694,-7.040933 -8.56176,-9.31303 l -1.83347,-0.947888 H 128.61326 86.32904 l -1.489688,0.517734 c -2.219409,0.771345 -3.73475,1.72967 -5.690582,3.598814 -1.974847,1.887314 -3.651239,4.476134 -4.30948,6.655042 -0.39724,1.314946 -0.418474,5.0142 -0.485429,84.568443 -0.04395,52.22537 0.01257,84.23619 0.151858,85.99489 0.214128,2.70374 0.259835,2.87505 1.309191,4.90679 2.30163,4.45638 6.878618,7.90785 11.201678,8.44708 0.756303,0.0943 19.732632,0.15897 42.169622,0.14362 l 40.79453,-0.0279 z m -79.233476,-3.28064 -5.729568,-0.12935 -1.489688,-0.76786 c -2.941032,-1.51597 -4.69222,-3.27327 -6.196192,-6.2178 -0.484887,-0.94934 -0.542938,-1.46861 -0.730196,-6.53171 -0.274917,-7.43322 -0.13035,-25.70961 0.209518,-26.48754 0.199144,-0.45583 0.796358,-0.81323 2.627856,-1.57267 3.863985,-1.6022 6.701176,-1.91817 11.494861,-1.28014 3.030347,0.40333 4.536701,1.02178 9.928775,4.07642 2.39068,1.35433 4.7547,2.50396 6.0679,2.95083 1.94931,0.66333 2.47421,0.74167 5.5891,0.83419 5.58612,0.16592 7.40095,-0.31796 13.178,-3.51356 6.90625,-3.82022 8.42245,-4.37364 12.60505,-4.60093 2.90329,-0.15776 6.42164,0.32054 8.46477,1.15073 0.76598,0.31125 3.23005,1.60395 5.47572,2.87267 2.24566,1.26872 4.69519,2.55551 5.44341,2.85954 2.16906,0.88137 4.59801,1.28187 7.77426,1.28187 3.31192,0 5.66188,-0.40846 8.01706,-1.39349 0.87996,-0.36804 1.73336,-0.66916 1.89643,-0.66916 0.78171,0 0.84935,1.07028 0.84005,13.2926 -0.01,12.97036 -0.15671,15.22429 -1.13155,17.36775 -0.63917,1.40542 -2.60971,3.55945 -4.35733,4.76308 -1.97341,1.35914 -2.88577,1.48376 -12.48392,1.70517 -9.28313,0.21414 -58.12339,0.22092 -67.494316,0.009 z m 30.199096,-62.91416 c -4.22725,-8.45694 -5.15383,-10.47624 -4.91641,-10.71429 0.20427,-0.20481 1.44792,-0.32792 4.12069,-0.40793 l 3.82812,-0.11459 0.11459,-9.47243 c 0.13133,-10.85565 -0.0346,-10.1227 2.29183,-10.1227 2.32645,0 2.1605,-0.73295 2.29183,10.1227 l 0.11459,9.47243 3.94269,0.11459 c 2.76623,0.0804 4.02999,0.20212 4.23528,0.40793 0.23746,0.23806 -0.68898,2.25704 -4.91638,10.71429 -3.40329,6.80854 -5.32838,10.42096 -5.55342,10.42096 -0.22503,0 -2.15012,-3.61242 -5.55341,-10.42096 z m 26.63178,-94.986784 c -2.00008,-0.154235 -2.6753,-0.485809 -3.95321,-1.941261 -1.28778,-1.466701 -1.31155,-1.685195 -1.31155,-12.055219 0,-10.829824 0.0101,-10.899893 1.81615,-12.564627 1.56162,-1.439449 2.31529,-1.533761 12.04941,-1.507826 9.13546,0.02434 9.78283,0.09898 11.13187,1.283458 1.87319,1.644676 2.14847,3.199933 2.14198,12.101446 -0.006,8.487852 -0.20105,10.897198 -0.99031,12.243963 -0.88338,1.507372 -2.14793,2.169163 -4.64731,2.43212 -2.19886,0.231339 -13.26986,0.236757 -16.23703,0.0079 z m 13.52823,-7.693954 v -1.145914 l -3.23586,-0.0634 c -2.90141,-0.05685 -3.27885,-0.110903 -3.65174,-0.522941 -0.37204,-0.411103 -0.42667,-1.063729 -0.51835,-6.192367 l -0.10247,-5.732833 -1.28781,0.06784 -1.28781,0.06784 -0.0607,7.10243 c -0.0334,3.906336 -0.0101,7.234369 0.0518,7.395629 0.0876,0.228386 1.21563,0.279543 5.10271,0.231419 l 4.9902,-0.06178 z"
       id="path1" /></g></svg>
