<?xml version="1.0" encoding="UTF-8" standalone="no"?>
<!-- Created with Inkscape (http://www.inkscape.org/) -->

<svg
   width="960"
   height="960"
   viewBox="0 0 253.99999 254"
   version="1.1"
   id="svg1"
   xml:space="preserve"
   inkscape:version="1.4.4 (dcaf3e7, 2026-05-05)"
   sodipodi:docname="water-level-up.svg"
   xmlns:inkscape="http://www.inkscape.org/namespaces/inkscape"
   xmlns:sodipodi="http://sodipodi.sourceforge.net/DTD/sodipodi-0.dtd"
   xmlns="http://www.w3.org/2000/svg"
   xmlns:svg="http://www.w3.org/2000/svg"><sodipodi:namedview
     id="namedview1"
     pagecolor="#ffffff"
     bordercolor="#000000"
     borderopacity="0.25"
     inkscape:showpageshadow="2"
     inkscape:pageopacity="0.0"
     inkscape:pagecheckerboard="0"
     inkscape:deskcolor="#d1d1d1"
     inkscape:document-units="mm"
     inkscape:zoom="0.61166026"
     inkscape:cx="396.46192"
     inkscape:cy="561.58626"
     inkscape:window-width="1442"
     inkscape:window-height="1120"
     inkscape:window-x="360"
     inkscape:window-y="30"
     inkscape:window-maximized="0"
     inkscape:current-layer="layer1" /><defs
     id="defs1" /><g
     inkscape:label="Camada 1"
     inkscape:groupmode="layer"
     id="layer1"><path
       style="fill:#000000"
       d="m 91.564682,232.04829 c -4.383536,-0.19086 -5.742768,-0.47809 -8.2625,-1.74605 -4.653455,-2.34168 -7.728203,-5.45056 -9.773223,-9.8817 -1.003153,-2.17363 -1.42467,-3.8841 -1.715636,-6.96185 -0.300198,-3.1754 -0.320569,-160.060028 -0.02158,-166.177091 0.228657,-4.678102 0.586317,-6.552832 1.717038,-9.00013 2.046488,-4.429355 5.301038,-7.774252 9.743633,-10.014118 2.068848,-1.043071 4.307719,-1.637228 7.156652,-1.899251 3.434052,-0.315837 76.944401,-0.313803 80.514891,0.0022 3.30704,0.292712 4.31106,0.53643 6.64575,1.613204 4.78265,2.205785 8.2442,5.625619 10.38122,10.256116 1.09987,2.383206 1.4989,4.190898 1.73618,7.865409 0.27608,4.275336 0.2704,161.547662 -0.006,166.429142 -0.15108,2.66819 -0.34922,4.14848 -0.71149,5.31582 -1.3405,4.31931 -4.24487,8.30242 -7.82836,10.73592 -1.88111,1.27743 -4.93343,2.72341 -6.37247,3.01883 -0.63559,0.13048 -4.69179,0.3344 -9.01378,0.45316 -9.12908,0.25085 -68.384201,0.24315 -74.190318,-0.01 z m 81.758388,-4.90239 c 4.78702,-1.14549 9.06378,-5.04934 11.00891,-10.04898 l 0.60619,-1.55813 v -85.51533 c 0,-66.460418 -0.063,-85.85008 -0.28283,-87.017628 -0.35853,-1.904372 -1.7975,-4.81277 -3.23031,-6.528976 -1.46817,-1.758553 -3.17686,-3.018301 -5.84732,-4.310985 l -2.19567,-1.062849 H 130.97107 88.560089 l -1.593818,0.63793 c -4.807564,1.924239 -8.103876,5.26154 -9.811163,9.93316 l -0.613388,1.678404 v 86.093134 86.09314 l 0.645911,1.61502 c 2.276769,5.69279 7.069293,9.59169 12.643632,10.28609 0.826263,0.10292 19.599187,0.16281 41.717607,0.13308 36.09035,-0.0485 40.37521,-0.0923 41.7742,-0.42708 z m -81.989511,-3.551 c -4.745291,-0.58292 -7.683522,-2.49964 -9.693448,-6.32339 l -0.910794,-1.73272 -0.208582,-4.50689 c -0.226972,-4.90425 -0.0373,-140.766564 0.197683,-141.59642 0.188062,-0.664168 3.569702,-2.230341 6.263489,-2.900873 1.567721,-0.390234 2.70973,-0.506349 4.929459,-0.501207 4.845833,0.01123 6.963501,0.718549 13.405104,4.477445 5.46704,3.190203 7.8491,3.927649 12.68688,3.927649 4.52151,0 7.6165,-0.900883 11.92767,-3.47188 3.74223,-2.231709 7.21757,-3.925054 9.10217,-4.435002 1.36902,-0.370437 2.48022,-0.479022 4.9963,-0.488228 5.05212,-0.01848 6.72608,0.508307 13.01984,4.097342 2.32636,1.326617 4.87936,2.672088 5.67333,2.989934 2.21339,0.88608 4.68068,1.308751 7.58727,1.299771 3.32048,-0.01026 5.60309,-0.420559 8.1765,-1.469726 1.83791,-0.749307 2.07979,-0.797549 2.39889,-0.478439 0.3167,0.316703 0.35834,5.695255 0.38696,49.980194 0.0176,27.29391 -0.0462,59.08976 -0.1418,70.65745 -0.18947,22.91769 -0.15781,22.40512 -1.52812,24.74338 -0.79993,1.36497 -2.7678,3.28568 -4.32363,4.22001 -2.74574,1.64892 0.62945,1.52756 -43.49873,1.56397 -21.86419,0.018 -40.065089,-0.006 -40.446441,-0.0524 z m 41.805451,-88.89121 c 0.0734,-1.43007 0.19759,-7.27615 0.27598,-12.99129 0.12746,-9.29165 0.18301,-10.42195 0.52495,-10.68207 0.27099,-0.20614 1.50636,-0.29304 4.24006,-0.29825 2.12172,-0.004 3.90394,-0.0853 3.96049,-0.18069 0.1622,-0.27344 -10.06384,-21.342899 -10.31768,-21.258284 -0.12506,0.04169 -0.6137,0.756684 -1.08587,1.588885 -1.5341,2.703844 -9.93526,19.055489 -9.93526,19.337549 0,0.20148 1.13448,0.27407 4.28367,0.27407 h 4.28367 l -0.15137,13.1509 c -0.0832,7.233 -0.0807,13.2653 0.006,13.40511 0.0926,0.14989 0.90089,0.2542 1.96964,0.2542 h 1.81254 z m 22.09992,-67.641324 c -2.12701,-0.667016 -4.16094,-2.392507 -5.2439,-4.448677 l -0.64972,-1.233617 V 51.09512 40.810168 l 0.61401,-1.155612 c 0.77202,-1.45298 2.42406,-3.182101 3.6262,-3.795387 1.64115,-0.837249 3.70187,-0.981159 12.91663,-0.902025 l 8.72887,0.07496 1.15562,0.664964 c 1.57187,0.904491 3.00018,2.316983 3.88493,3.841925 l 0.73752,1.271174 V 51.09512 61.380072 l -0.61413,1.155613 c -0.78533,1.477749 -2.53057,3.222997 -4.00832,4.008321 l -1.15562,0.614129 -9.70714,0.04271 c -5.33893,0.02349 -9.96716,-0.03882 -10.28495,-0.138482 z m 7.11598,-12.145433 c 0.0514,-1.77429 0.15754,-2.40668 0.46225,-2.75488 0.37387,-0.427238 0.37338,-0.443882 -0.009,-0.304448 -0.23116,0.0843 -0.40446,0.03737 -0.40446,-0.109532 0,-0.340189 4.02478,-0.04807 4.64114,0.336848 0.31693,0.197929 0.44402,0.541534 0.44519,1.203678 9.1e-4,0.509671 0.0679,1.62871 0.14899,2.486752 l 0.14734,1.560077 h 1.00663 1.00663 v -6.124747 -6.124746 h -1.00864 -1.00864 l -0.14697,1.072309 c -0.0808,0.58977 -0.14698,1.508242 -0.14698,2.041048 0,0.7757 -0.10362,1.019067 -0.52002,1.221308 -0.54681,0.265579 -4.24758,0.587021 -4.00875,0.348192 0.0761,-0.07615 -0.013,-0.3058 -0.19809,-0.510331 -0.2203,-0.243433 -0.36018,-1.008267 -0.40497,-2.21442 l -0.0684,-1.842545 h -1.04005 -1.04005 l -0.0619,5.773894 c -0.0341,3.175642 -0.009,5.911803 0.0557,6.080359 0.0787,0.204951 0.44367,0.282889 1.10199,0.235291 l 0.98438,-0.07117 z"
       id="path1" /></g></svg>
