<?xml version="1.0" encoding="utf-8"?>
<svg width="960" height="960" viewBox="0 0 253.99999 254" version="1.1" id="svg1" xmlns="http://www.w3.org/2000/svg" xmlns:bx="https://boxy-svg.com">
  <g style="" transform="matrix(1.220044, 0, 0, 1.184396, -15.35264, -29.90658)">
    <path style="fill:#000000" d="M 90.684 234.898 C 87.91 234.805 85.107 234.604 84.454 234.452 C 83.802 234.3 82.409 233.742 81.36 233.214 C 76.358 230.693 73.823 228.125 71.417 223.141 C 69.41 218.982 69.722 50.845 69.908 48.75 C 70.275 44.638 71.513 41.63 74.254 38.193 C 76.462 35.424 81.035 32.392 84.381 31.477 C 86.713 30.839 93.952 30.709 127.009 30.714 C 161.123 30.719 169.757 30.863 171.894 31.463 C 173.559 31.932 185.128 41.819 186.051 46.029 C 186.727 49.116 186.843 64.398 186.776 141.96 L 186.709 218.507 L 186.202 220.111 C 184.909 224.195 181.996 228.564 179.125 230.724 C 176.768 232.497 173.316 234.163 171.127 234.584 C 169.533 234.89 164.474 234.945 132.509 235.001 C 112.278 235.037 93.457 234.99 90.683 234.898 L 90.684 234.898 Z M 171.75 229.705 C 174.484 228.594 175.551 227.881 177.668 225.749 C 179.358 224.047 179.788 223.442 180.823 221.309 L 182.021 218.84 L 181.959 133.188 L 181.898 47.537 L 181.293 45.88 C 179.771 41.716 177.126 38.839 172.731 36.567 L 170.898 35.619 L 128.613 35.619 L 86.329 35.619 L 84.839 36.137 C 82.62 36.908 81.105 37.867 79.149 39.736 C 77.174 41.623 75.498 44.212 74.839 46.391 C 74.442 47.706 74.421 51.405 74.354 130.959 C 74.31 183.185 74.366 215.195 74.506 216.954 C 74.72 219.658 74.766 219.829 75.815 221.861 C 78.117 226.317 82.694 229.769 87.017 230.308 C 87.773 230.402 106.749 230.467 129.186 230.452 L 169.981 230.424 L 171.75 229.705 Z M 92.517 226.424 L 86.787 226.295 L 85.298 225.527 C 82.357 224.011 80.605 222.254 79.102 219.309 C 78.617 218.36 78.559 217.84 78.371 212.777 C 78.096 205.344 78.241 187.068 78.581 186.29 C 78.78 185.834 79.377 185.477 81.209 184.717 C 85.073 183.115 87.91 182.799 92.704 183.437 C 95.734 183.84 97.24 184.459 102.632 187.513 C 105.023 188.868 107.387 190.017 108.7 190.464 C 110.65 191.128 111.174 191.206 114.289 191.298 C 119.875 191.464 121.69 190.981 127.467 187.785 C 134.374 183.965 135.89 183.411 140.072 183.184 C 142.976 183.026 146.494 183.505 148.537 184.335 C 149.303 184.646 151.767 185.939 154.013 187.207 C 156.259 188.476 158.708 189.763 159.456 190.067 C 161.625 190.948 164.054 191.349 167.231 191.349 C 170.542 191.349 172.892 190.94 175.248 189.955 C 176.128 189.587 176.981 189.286 177.144 189.286 C 177.926 189.286 177.993 190.356 177.984 202.579 C 177.974 215.549 177.827 217.803 176.853 219.946 C 176.213 221.352 174.243 223.506 172.495 224.71 C 170.522 226.069 169.609 226.193 160.011 226.415 C 150.728 226.629 101.888 226.636 92.517 226.424 Z" id="path1"/>
    <path d="M 154.328 45.896 L 177.344 91.546 L 131.312 91.546 L 154.328 45.896 Z" bx:shape="triangle 131.312 45.896 46.032 45.65 0.5 0 1@5dd64d62" style="stroke: rgb(0, 0, 0); fill: rgb(3, 3, 3);"/>
    <text style="fill: rgb(255, 255, 255); font-family: Arial, sans-serif; font-size: 37px; font-weight: 700; white-space: pre;" x="148.319" y="85.761">!</text>
    <path d="M 207.094 97.195 H 227.429 L 227.429 82.195 L 267.429 102.195 L 227.429 122.195 L 227.429 107.195 H 207.094 V 97.195 Z" bx:shape="arrow 207.094 82.195 60.335 40 10 40 0 1@f24b1cee" style="stroke: rgb(0, 0, 0); fill: rgb(4, 4, 4);" transform="matrix(-0.004654, 0.999989, -0.999989, -0.004654, 232.707153, -89.009323)"/>
  </g>
</svg>