<?xml version="1.0" encoding="UTF-8" standalone="no"?>
<!-- Created with Inkscape (http://www.inkscape.org/) -->

<svg
   width="960"
   height="960"
   viewBox="0 0 253.99999 254"
   version="1.1"
   id="svg1"
   xml:space="preserve"
   inkscape:version="1.4.4 (dcaf3e7, 2026-05-05)"
   sodipodi:docname="clock2.svg"
   xmlns:inkscape="http://www.inkscape.org/namespaces/inkscape"
   xmlns:sodipodi="http://sodipodi.sourceforge.net/DTD/sodipodi-0.dtd"
   xmlns="http://www.w3.org/2000/svg"
   xmlns:svg="http://www.w3.org/2000/svg"><sodipodi:namedview
     id="namedview1"
     pagecolor="#ffffff"
     bordercolor="#000000"
     borderopacity="0.25"
     inkscape:showpageshadow="2"
     inkscape:pageopacity="0.0"
     inkscape:pagecheckerboard="0"
     inkscape:deskcolor="#d1d1d1"
     inkscape:document-units="mm"
     inkscape:zoom="0.60977048"
     inkscape:cx="396.05066"
     inkscape:cy="560.86677"
     inkscape:window-width="1533"
     inkscape:window-height="1117"
     inkscape:window-x="342"
     inkscape:window-y="30"
     inkscape:window-maximized="0"
     inkscape:current-layer="svg1" /><defs
     id="defs1" /><path
     style="fill:#000000"
     d="M 110.2609,227.21939 C 99.063524,226.84807 94.034055,226.02168 85.099227,223.08506 78.964972,221.06891 71.079743,217.34474 65.762068,213.95219 41.677074,198.58653 24.470659,171.61088 19.823693,141.93152 15.005887,111.16103 23.2277,79.913138 42.457909,55.907728 57.818841,36.732406 78.514918,24.89449 101.21585,22.298866 c 4.96308,-0.567478 44.01011,-0.59287 48.67879,-0.03166 14.84081,1.783991 28.39561,6.815859 40.17522,14.914004 9.75238,6.704482 19.56158,16.721965 26.51265,27.075602 12.75174,18.993744 19.35499,43.677603 17.86155,66.768873 -0.9689,14.98086 -4.145,27.47567 -10.21022,40.16716 -9.27242,19.40258 -23.0871,34.68184 -40.26419,44.53289 -10.74832,6.16414 -23.33655,10.29247 -34.03742,11.16261 -5.12734,0.41693 -30.65706,0.62997 -39.67133,0.33104 z m 41.11384,-3.93461 c 20.61392,-2.8294 40.2568,-13.70491 54.35624,-30.09496 22.46211,-26.11135 30.57215,-60.87513 22.08445,-94.665245 -8.49954,-33.837279 -33.21946,-60.912704 -63.67771,-69.745441 -8.43411,-2.445847 -16.3966,-3.480119 -26.87971,-3.491488 l -6.22286,-0.0067 4.90722,2.430701 c 8.92065,4.418673 15.93384,9.629681 23.23907,17.267312 8.54017,8.928762 15.05771,18.483916 21.00158,30.789781 6.72713,13.927464 10.48304,27.640618 11.84104,43.232678 0.48597,5.57974 0.2064,18.55856 -0.51052,23.70065 -3.1539,22.62114 -11.48987,41.52857 -25.14337,57.02949 -8.48418,9.63216 -19.85003,17.60058 -32.19647,22.57243 -1.68184,0.67727 -3.16194,1.34125 -3.28911,1.47552 -0.33865,0.35755 17.40152,-0.0707 20.49015,-0.49468 z m -35.02899,-0.14383 c 32.95318,-4.39172 59.82669,-30.87705 69.19201,-68.19255 2.31787,-9.23542 3.16835,-16.36329 3.16835,-26.55399 0,-12.11777 -1.4791,-22.1826 -4.95442,-33.713352 C 176.30633,69.97812 160.33837,47.263503 141.83633,35.055933 135.50632,30.879421 127.26877,27.529012 120.0948,26.213133 114.87161,25.255073 104.88104,25.183087 99.242389,26.062881 76.610783,29.594073 56.784131,42.021708 42.489808,61.636229 27.700946,81.92935 20.162356,108.69438 22.29721,133.32807 c 2.390436,27.58279 15.496943,53.47346 35.666882,70.45655 12.703302,10.69618 28.901686,17.89885 43.783438,19.46845 4.14793,0.43749 10.86113,0.38593 14.59822,-0.11212 z m 3.45356,-79.35272 c -4.00362,-0.53101 -7.75884,-2.44719 -10.8461,-5.53445 -4.00714,-4.00714 -5.56787,-7.89009 -5.54937,-13.8063 0.0122,-3.90866 0.74761,-6.77044 2.51261,-9.77794 2.16781,-3.69385 6.47086,-7.08704 10.77474,-8.49647 l 2.4503,-0.80241 h 19.73464 c 14.96187,0 20.17215,0.10263 21.54366,0.42437 5.1397,1.2057 10.25044,5.24147 12.58297,9.93631 3.96027,7.97113 2.65306,16.33857 -3.52452,22.56038 -2.76401,2.78381 -6.63364,4.85986 -10.04519,5.38923 -2.01119,0.31208 -37.36804,0.40778 -39.63374,0.10728 z m 42.7103,-4.61119 c 3.16191,-1.64468 6.03464,-4.53141 7.6333,-7.67053 1.12367,-2.20644 1.26467,-2.76647 1.39624,-5.5457 0.0866,-1.82942 -0.021,-3.84347 -0.26355,-4.93366 -1.02177,-4.59225 -4.22843,-8.53603 -8.76279,-10.77713 l -2.55206,-1.26135 h -20.73854 -20.73854 l -2.21891,1.08517 c -2.57447,1.25906 -5.6582,3.98269 -7.16127,6.32501 -2.97559,4.63707 -3.07065,11.33627 -0.22954,16.17739 1.84318,3.14071 6.47326,6.70805 9.6906,7.46632 0.67912,0.16005 10.31572,0.30588 21.41467,0.32405 l 20.17991,0.033 z m -42.94306,-5.47199 c -7.61047,-2.12661 -9.25167,-12.53388 -2.6661,-16.90645 1.66641,-1.10644 2.11009,-1.24329 4.36228,-1.34557 3.35001,-0.15213 4.88132,0.31341 6.84848,2.08207 5.11494,4.59877 3.86789,12.896 -2.35125,15.64391 -1.8858,0.83324 -4.34618,1.04221 -6.19341,0.52604 z m 5.21751,-3.71238 c 1.46549,-0.69542 2.5982,-2.19912 3.06968,-4.07507 0.31503,-1.25347 0.27979,-1.77144 -0.22195,-3.26202 -0.84217,-2.50195 -2.4037,-3.7099 -5.04255,-3.90078 -2.40858,-0.17422 -3.56884,0.26722 -5.07017,1.92901 -2.51029,2.7786 -1.7559,7.18438 1.57829,9.21747 1.29729,0.79105 4.11679,0.83636 5.6867,0.0914 z m -79.921579,1.30711 c -0.120601,-0.1206 -0.219274,-2.10909 -0.219274,-4.41888 0,-5.58268 -0.522828,-6.83992 -2.854096,-6.86326 -1.718277,-0.0172 -2.40798,1.19224 -2.410814,4.22751 -0.0013,1.37759 -0.09669,3.50377 -0.212017,4.72485 -0.190528,2.01736 -0.276938,2.22015 -0.946033,2.22015 -0.975684,0 -1.132009,-0.69192 -1.137496,-5.0347 -0.0061,-4.84245 0.394031,-6.29625 2.031207,-7.37968 1.669215,-1.10463 3.656886,-1.13978 5.348092,-0.0945 l 1.225073,0.75713 1.298374,-0.72972 c 1.664583,-0.93555 4.00256,-0.97715 5.189733,-0.0923 1.8854,1.4052 2.254385,3.15621 2.077844,9.86035 -0.06879,2.61227 -0.100427,2.71352 -0.847918,2.71352 -0.691073,0 -0.799272,-0.1899 -0.983873,-1.72678 -0.114076,-0.94973 -0.208698,-2.95522 -0.21027,-4.45663 -0.003,-2.84107 -0.492895,-4.40967 -1.497693,-4.79524 -0.973366,-0.37352 -2.025144,-0.21165 -2.85225,0.43895 -0.787596,0.61952 -0.824446,0.82139 -0.99844,5.46966 -0.132292,3.53418 -0.299482,4.9017 -0.624449,5.10764 -0.536657,0.34009 -1.079235,0.3685 -1.3757,0.072 z m 15.897352,-0.16718 c -4.755488,-1.35133 -6.322027,-7.71523 -2.766397,-11.23818 1.44478,-1.43151 2.744948,-1.96677 4.781879,-1.96864 5.655541,-0.005 8.796527,6.68418 5.191901,11.05722 -1.77918,2.15845 -4.412444,2.94382 -7.207383,2.1496 z m 3.307805,-1.91567 c 0.643436,-0.17875 1.596045,-0.76981 2.116907,-1.31347 1.257107,-1.31214 1.53515,-4.22247 0.552649,-5.78468 -1.786503,-2.84061 -6.260183,-2.747 -7.896955,0.16525 -1.442054,2.56579 -0.567509,5.44622 2.008617,6.61564 1.624157,0.73728 1.685174,0.7433 3.218782,0.31726 z m 10.996991,1.68871 c -6.657355,-3.02437 -4.541677,-12.98656 2.756545,-12.97986 1.050433,9.6e-4 2.288492,0.22885 2.862476,0.52689 1.369314,0.71101 3.366714,2.9754 3.612424,4.09528 0.110151,0.50204 0.257272,1.09781 0.326936,1.32393 0.365319,1.18582 -0.133808,1.32048 -5.794167,1.56323 -6.194806,0.26568 -6.286841,0.31142 -4.567229,2.26995 1.869788,2.12957 4.381634,2.32615 6.756876,0.52881 1.449175,-1.09658 1.862628,-1.18838 2.405642,-0.53409 0.296249,0.35696 0.195725,0.67428 -0.460769,1.45448 -1.844783,2.1924 -5.260715,2.94981 -7.898734,1.75138 z m 7.403312,-7.6397 c 0,-0.53392 -1.24044,-2.01176 -2.244283,-2.67381 -1.069858,-0.70558 -3.368833,-0.76074 -4.62535,-0.11097 -1.021382,0.52818 -2.754499,2.61977 -2.43528,2.93899 0.3803,0.3803 9.304913,0.23239 9.304913,-0.15421 z m 3.145123,7.73323 c -0.653005,-0.653 -0.402385,-1.06737 0.999956,-1.65331 1.545032,-0.64555 2.021663,-1.54302 2.6094,-4.91336 0.281674,-1.61524 0.772521,-3.38264 1.090769,-3.92756 0.720721,-1.23404 2.827554,-2.45865 4.242222,-2.46581 0.913313,-0.005 1.06896,0.1106 1.06896,0.79136 0,0.61144 -0.255139,0.88097 -1.096935,1.15879 -1.899255,0.62681 -2.78932,1.88294 -3.164863,4.46649 -0.633269,4.35659 -1.467978,5.85665 -3.735699,6.71345 -1.21773,0.46009 -1.398977,0.44479 -2.01381,-0.17005 z"
     id="path15" /></svg>
