<?xml version="1.0" encoding="UTF-8" standalone="no"?>
<!-- Created with Inkscape (http://www.inkscape.org/) -->

<svg
   width="960"
   height="960"
   viewBox="0 0 253.99999 254"
   version="1.1"
   id="svg1"
   xml:space="preserve"
   inkscape:version="1.4.4 (dcaf3e7, 2026-05-05)"
   sodipodi:docname="clock.svg"
   xmlns:inkscape="http://www.inkscape.org/namespaces/inkscape"
   xmlns:sodipodi="http://sodipodi.sourceforge.net/DTD/sodipodi-0.dtd"
   xmlns="http://www.w3.org/2000/svg"
   xmlns:svg="http://www.w3.org/2000/svg"><sodipodi:namedview
     id="namedview1"
     pagecolor="#ffffff"
     bordercolor="#000000"
     borderopacity="0.25"
     inkscape:showpageshadow="2"
     inkscape:pageopacity="0.0"
     inkscape:pagecheckerboard="0"
     inkscape:deskcolor="#d1d1d1"
     inkscape:document-units="mm"
     inkscape:zoom="0.60977048"
     inkscape:cx="396.05066"
     inkscape:cy="560.86677"
     inkscape:window-width="1533"
     inkscape:window-height="1117"
     inkscape:window-x="342"
     inkscape:window-y="30"
     inkscape:window-maximized="0"
     inkscape:current-layer="layer1" /><defs
     id="defs1" /><g
     inkscape:label="Camada 1"
     inkscape:groupmode="layer"
     id="layer1"><path
       style="fill:#000000"
       d="m 131.45994,223.28029 c -0.67126,-0.0896 -2.77655,-0.25106 -4.67844,-0.3589 -5.43574,-0.30822 -7.70895,-0.50035 -7.9846,-0.67485 -0.14026,-0.0888 -0.87253,-0.24442 -1.62728,-0.34584 -0.75474,-0.10142 -1.92147,-0.27569 -2.59272,-0.38725 -1.16367,-0.19342 -1.65712,-0.30125 -5.18696,-1.13348 -0.83906,-0.19782 -2.14888,-0.576 -2.91071,-0.84038 -0.76183,-0.26438 -1.53987,-0.48247 -1.72899,-0.48464 -0.18911,-0.002 -1.62532,-0.47121 -3.19158,-1.04232 -1.56626,-0.5711 -3.34134,-1.20968 -3.944624,-1.41907 -0.603285,-0.20938 -1.19826,-0.46068 -1.322166,-0.55845 -0.123906,-0.0978 -0.591422,-0.29161 -1.038924,-0.43078 -1.037495,-0.32263 -11.386961,-5.60502 -12.223803,-6.23905 -0.346187,-0.26229 -0.704133,-0.47689 -0.795437,-0.47689 -0.0913,0 -0.860706,-0.4738 -1.709785,-1.0529 -4.81441,-3.28359 -5.703651,-3.90696 -6.629031,-4.64699 -0.559377,-0.44734 -1.379538,-1.06414 -1.822579,-1.37067 -0.443041,-0.30652 -1.122671,-0.90649 -1.510289,-1.33327 -0.387618,-0.42677 -0.986242,-0.92051 -1.330276,-1.09719 -0.344035,-0.17667 -1.167494,-0.78861 -1.829911,-1.35985 -1.891632,-1.63126 -7.643943,-7.40252 -7.643943,-7.66912 0,-0.13213 -0.686509,-0.95879 -1.525576,-1.83703 -0.839066,-0.87824 -1.525575,-1.73511 -1.525575,-1.90415 0,-0.16904 -0.08263,-0.30734 -0.183631,-0.30734 -0.100997,0 -0.535786,-0.50679 -0.966198,-1.12619 -0.430412,-0.6194 -1.075269,-1.54927 -1.433017,-2.06637 -0.357747,-0.51711 -0.723885,-0.99432 -0.81364,-1.06048 -0.20029,-0.14763 -2.670361,-3.91886 -3.209655,-4.90042 -0.215137,-0.39156 -0.467971,-0.80347 -0.561854,-0.91534 -0.322956,-0.38485 -2.188868,-3.7682 -2.188868,-3.96895 0,-0.11053 -0.09153,-0.20096 -0.20341,-0.20096 -0.111875,0 -0.20341,-0.0883 -0.20341,-0.19624 0,-0.10793 -0.52874,-1.275 -1.174978,-2.59348 -1.11096,-2.26662 -1.424907,-2.96079 -2.326111,-5.14327 -0.207884,-0.50344 -0.466295,-1.07429 -0.574246,-1.26855 -0.107952,-0.19427 -0.196276,-0.45885 -0.196276,-0.58796 0,-0.1291 -0.171526,-0.6109 -0.38117,-1.07066 -0.209643,-0.45975 -0.537786,-1.33936 -0.729205,-1.95467 -0.19142,-0.61532 -0.424028,-1.30183 -0.516905,-1.52558 -0.09288,-0.22375 -0.311296,-0.86449 -0.485373,-1.42387 -0.174078,-0.55938 -0.50222,-1.58951 -0.729206,-2.28917 -0.226986,-0.69967 -0.412702,-1.46085 -0.412702,-1.69151 0,-0.23066 -0.09405,-0.59512 -0.20901,-0.80992 -0.114956,-0.2148 -0.2934,-0.78087 -0.396543,-1.25794 -0.103143,-0.47707 -0.33487,-1.50814 -0.51495,-2.29127 -0.18008,-0.78313 -0.402722,-1.97308 -0.49476,-2.64433 -0.09204,-0.67126 -0.315463,-1.844 -0.4965,-2.6061 -0.181037,-0.76211 -0.329157,-1.92321 -0.329157,-2.58024 0,-0.65703 -0.105326,-1.45228 -0.234056,-1.76722 -0.364402,-0.89151 -0.626637,-5.75588 -0.623019,-11.55676 0.0037,-5.88141 0.23895,-8.65507 1.268217,-14.95064 0.118889,-0.72719 0.290909,-1.82561 0.382267,-2.44092 0.09136,-0.61532 0.259867,-1.39336 0.374466,-1.72899 0.114599,-0.33562 0.411545,-1.52557 0.659881,-2.64433 0.248335,-1.11875 0.659627,-2.67484 0.913981,-3.45797 2.15273,-6.628018 2.854043,-8.659702 3.278081,-9.496501 0.269509,-0.53185 0.62989,-1.378988 0.800846,-1.882528 0.623273,-1.835808 4.688614,-9.563626 6.502694,-12.36099 0.559378,-0.862576 1.425914,-2.21797 1.925637,-3.011986 0.499722,-0.794017 1.032736,-1.546701 1.184474,-1.672633 0.151739,-0.125932 0.453433,-0.555462 0.670432,-0.95451 0.216999,-0.399049 0.849885,-1.27475 1.406413,-1.946003 0.556529,-0.671254 1.188552,-1.540832 1.404495,-1.932396 0.215943,-0.391565 0.822906,-1.123841 1.348805,-1.627281 0.5259,-0.50344 1.225624,-1.281483 1.554943,-1.728985 0.988225,-1.342871 6.707482,-7.236455 7.577189,-7.808148 0.444847,-0.292416 1.270735,-1.020139 1.835305,-1.617161 0.564571,-0.597023 1.301096,-1.226925 1.636723,-1.399784 0.335626,-0.172858 1.032618,-0.691265 1.548869,-1.152015 1.913245,-1.707553 6.780104,-5.158047 9.214974,-6.533209 0.594263,-0.335627 1.207308,-0.710719 1.362324,-0.833539 0.155015,-0.122819 0.693751,-0.442339 1.197191,-0.710044 0.50344,-0.267704 1.189949,-0.686189 1.525576,-0.929966 0.832229,-0.604476 6.707262,-3.390762 10.373912,-4.91992 3.5805,-1.493229 11.085034,-3.90403 14.035294,-4.508778 0.67125,-0.137594 1.54083,-0.341792 1.9324,-0.453772 0.39156,-0.11198 1.26114,-0.278555 1.93239,-0.370166 2.17509,-0.296851 3.53089,-0.555337 3.80245,-0.724946 0.25781,-0.161017 1.59744,-0.29922 6.46976,-0.667455 1.28657,-0.09723 2.65898,-0.278458 3.04981,-0.402718 0.99516,-0.316405 10.56333,-0.305943 11.32821,0.01239 0.31494,0.131073 1.7168,0.312073 3.11524,0.402224 3.55214,0.228987 5.76305,0.471959 6.08065,0.668242 0.14878,0.09195 0.87815,0.246513 1.62081,0.343466 2.26382,0.295537 3.56011,0.535141 4.16042,0.769006 0.31494,0.122694 0.83696,0.223079 1.16004,0.223079 0.32308,0 0.79767,0.08123 1.05466,0.180504 0.25698,0.09928 0.97068,0.293918 1.586,0.432537 3.07356,0.692412 11.4774,3.625663 14.54382,5.076329 0.67125,0.317558 1.44929,0.641996 1.72898,0.720974 0.27969,0.07898 1.88154,0.856143 3.55968,1.727033 2.73325,1.418461 4.08694,2.172936 5.92927,3.304671 0.31892,0.19591 0.90022,0.552153 1.29178,0.791653 1.72369,1.054286 6.02824,3.961419 6.30572,4.258646 0.16781,0.179756 0.49769,0.428796 0.73307,0.553424 1.10956,0.587488 7.44614,6.11827 10.82078,9.444741 1.68278,1.658769 5.32918,5.659022 5.32918,5.846342 0,0.124403 0.39248,0.657054 0.87218,1.18367 0.4797,0.526616 1.14001,1.323622 1.46735,1.771124 0.32735,0.447502 0.71291,0.934597 0.85681,1.082432 0.1439,0.147836 0.26163,0.353525 0.26163,0.457087 0,0.103562 0.30716,0.531813 0.68258,0.951669 0.37542,0.419855 0.79971,0.986444 0.94286,1.259087 0.14316,0.272642 0.34121,0.593013 0.44011,0.711935 0.39521,0.475196 2.46655,3.694757 2.94093,4.571201 0.27795,0.513526 0.81732,1.437123 1.19859,2.052438 0.85267,1.376072 3.85411,7.235249 4.06377,7.932993 0.084,0.279689 0.38376,1.011965 0.66603,1.627281 1.32722,2.893145 4.00879,10.816969 4.81865,14.238709 0.30451,1.28656 0.63062,2.65958 0.7247,3.05115 0.0941,0.39156 0.26249,1.21537 0.37423,1.83069 0.11175,0.61531 0.30906,1.62219 0.43849,2.23751 0.32374,1.53919 0.5891,3.88622 0.79341,7.01765 0.0949,1.45438 0.27533,2.96409 0.40096,3.35492 0.32892,1.02325 0.31037,10.0531 -0.0219,10.64289 -0.13973,0.24804 -0.31658,1.70221 -0.40038,3.29204 -0.18473,3.50471 -0.44094,6.03435 -0.64455,6.36379 -0.0845,0.13671 -0.23732,0.86607 -0.33964,1.62081 -0.35562,2.62315 -0.77073,4.71133 -1.2837,6.45752 -0.16432,0.55938 -0.52814,1.88663 -0.80849,2.94944 -0.51206,1.94129 -1.08236,3.65513 -2.47059,7.42447 -0.41203,1.11876 -0.91767,2.49178 -1.12365,3.05115 -0.4173,1.13326 -4.66399,9.62992 -5.85079,11.70611 -0.66809,1.16875 -2.18852,3.53454 -4.17679,6.49909 -0.33765,0.50344 -0.90935,1.23572 -1.27045,1.62729 -0.3611,0.39156 -0.77213,0.94077 -0.91339,1.22046 -0.31089,0.61554 -1.0807,1.5625 -2.86965,3.53002 -0.74217,0.81626 -1.49011,1.75183 -1.66207,2.07904 -0.52115,0.99163 -9.26594,9.33583 -11.92181,11.37568 -0.58264,0.4475 -1.39699,1.09924 -1.80966,1.4483 -0.41268,0.34907 -1.16222,0.92241 -1.66566,1.27409 -0.50344,0.35168 -1.5363,1.07296 -2.29524,1.60285 -1.86836,1.30446 -2.8217,1.90589 -4.62071,2.91506 -0.83906,0.47069 -1.66287,0.96678 -1.83069,1.10244 -0.50335,0.40689 -8.63225,4.50486 -9.48336,4.78079 -0.43386,0.14065 -1.29228,0.50705 -1.9076,0.81422 -0.61531,0.30717 -2.35447,0.97716 -3.86479,1.48886 -1.51032,0.5117 -3.20371,1.11035 -3.76309,1.33033 -1.35017,0.53097 -4.57708,1.45407 -5.0717,1.45083 -0.21631,-0.001 -0.90282,0.17585 -1.52558,0.39393 -0.62276,0.21807 -1.72727,0.48727 -2.45446,0.59822 -0.72719,0.11096 -1.73407,0.3022 -2.23751,0.425 -0.50344,0.1228 -1.66593,0.30304 -2.58332,0.40054 -0.91738,0.0975 -1.78695,0.25369 -1.93239,0.3471 -0.37929,0.24361 -2.74509,0.4652 -7.18037,0.67252 -2.12564,0.0994 -4.1394,0.22954 -4.47502,0.28928 -1.18086,0.21021 -2.45336,0.23634 -3.66138,0.0752 z m 40.40439,-62.92532 c 1.06645,-0.31784 2.32189,-0.86642 3.11368,-1.36056 0.54583,-0.34064 2.23672,-2.01027 2.41274,-2.3824 0.0794,-0.16782 0.36857,-0.67126 0.64265,-1.11876 0.27407,-0.4475 0.50367,-0.99671 0.5102,-1.22046 0.007,-0.22375 0.14379,-0.77296 0.30501,-1.22046 0.16122,-0.4475 0.29499,-1.17978 0.29727,-1.62728 0.005,-0.91523 -0.62762,-3.46929 -1.03864,-4.19556 -0.43642,-0.77116 -2.01005,-2.82209 -2.16532,-2.82209 -0.0785,0 -0.37396,-0.20595 -0.65655,-0.45767 -0.77343,-0.68894 -1.77808,-1.37302 -2.01643,-1.37302 -0.11641,0 -0.21165,-0.0938 -0.21165,-0.20844 0,-0.11465 -0.20595,-0.2975 -0.45767,-0.40634 -0.59359,-0.25666 -1.23819,-0.66211 -1.39639,-0.87834 -0.15072,-0.20599 -0.95896,-0.68857 -1.45135,-0.86657 -0.19578,-0.0708 -0.35597,-0.2118 -0.35597,-0.3134 0,-0.1016 -0.20595,-0.27377 -0.45767,-0.38261 -0.59359,-0.25666 -1.23819,-0.66211 -1.39639,-0.87834 -0.15072,-0.20599 -0.95896,-0.68857 -1.45135,-0.86657 -0.19578,-0.0708 -0.35597,-0.20454 -0.35597,-0.29727 0,-0.0927 -0.22144,-0.288 -0.49208,-0.43395 -0.27065,-0.14594 -2.1075,-1.36377 -4.08189,-2.70628 -1.9744,-1.3425 -3.74348,-2.53245 -3.93129,-2.64433 -0.18781,-0.11187 -0.67538,-0.45513 -1.08348,-0.76279 -0.40811,-0.30765 -0.8072,-0.55937 -0.88688,-0.55937 -0.0797,0 -0.49158,-0.27461 -0.91534,-0.61023 -0.42377,-0.33563 -0.83567,-0.61023 -0.91535,-0.61023 -0.0797,0 -0.49158,-0.27461 -0.91534,-0.61023 -0.42377,-0.33563 -0.83567,-0.61024 -0.91535,-0.61024 -0.0797,0 -0.49158,-0.2746 -0.91534,-0.61023 -0.42377,-0.33562 -0.83567,-0.61023 -0.91535,-0.61023 -0.0797,0 -0.49158,-0.2746 -0.91534,-0.61023 -0.42377,-0.33562 -0.83567,-0.61023 -0.91535,-0.61023 -0.0797,0 -0.49158,-0.2746 -0.91535,-0.61023 -0.42376,-0.33562 -0.83566,-0.61023 -0.91534,-0.61023 -0.0797,0 -0.49158,-0.2746 -0.91535,-0.61023 -0.42376,-0.33562 -0.83566,-0.61023 -0.91534,-0.61023 -0.0797,0 -0.50129,-0.28229 -0.93693,-0.62732 l -0.79206,-0.62732 0.001,-24.036151 c 9.1e-4,-21.756818 -0.0307,-24.132595 -0.33346,-25.0532 -0.51639,-1.570202 -0.55299,-1.639732 -1.69741,-3.223997 -0.74749,-1.034784 -2.71342,-2.623986 -3.76732,-3.045388 -2.47748,-0.990622 -4.64187,-0.990622 -7.11935,0 -1.0539,0.421402 -3.01984,2.010604 -3.76733,3.045388 -1.14381,1.583432 -1.18014,1.652404 -1.69818,3.223997 -0.30581,0.927751 -0.33062,3.437067 -0.28261,28.579111 0.0556,29.09767 0.0107,27.67528 0.93723,29.69788 0.63829,1.39334 2.45543,3.45797 3.04346,3.45797 0.11437,0 0.23846,0.0686 0.27575,0.15255 0.099,0.22281 1.34004,1.06791 1.56819,1.06791 0.10709,0 0.22521,0.0686 0.2625,0.15256 0.099,0.2228 1.34004,1.0679 1.56819,1.0679 0.10709,0 0.22521,0.0687 0.2625,0.15256 0.099,0.2228 1.34004,1.0679 1.56819,1.0679 0.10709,0 0.22521,0.0687 0.2625,0.15256 0.099,0.2228 1.34004,1.0679 1.56819,1.0679 0.10709,0 0.22521,0.0687 0.2625,0.15256 0.099,0.2228 1.34004,1.0679 1.56819,1.0679 0.10709,0 0.22521,0.0686 0.2625,0.15256 0.099,0.2228 1.34004,1.0679 1.5682,1.0679 0.10708,0 0.2252,0.0686 0.26249,0.15256 0.099,0.2228 1.34004,1.0679 1.5682,1.0679 0.10708,0 0.2252,0.0686 0.26249,0.15256 0.099,0.2228 1.34004,1.0679 1.5682,1.0679 0.10708,0 0.2252,0.0686 0.2625,0.15256 0.099,0.2228 1.34003,1.0679 1.56819,1.0679 0.10708,0 0.2252,0.0686 0.2625,0.15256 0.099,0.2228 1.34003,1.0679 1.56819,1.0679 0.10708,0 0.2252,0.0686 0.2625,0.15256 0.099,0.2228 1.34003,1.0679 1.56819,1.0679 0.10708,0 0.2252,0.0686 0.2625,0.15256 0.099,0.2228 1.34003,1.0679 1.56819,1.0679 0.10708,0 0.22521,0.0687 0.2625,0.15256 0.099,0.2228 1.34003,1.0679 1.56819,1.0679 0.10708,0 0.22521,0.0687 0.2625,0.15256 0.099,0.2228 1.34003,1.0679 1.56819,1.0679 0.10708,0 0.22521,0.0687 0.2625,0.15256 0.099,0.2228 1.34003,1.0679 1.56819,1.0679 0.10708,0 0.22521,0.0686 0.2625,0.15256 0.099,0.2228 1.34003,1.0679 1.56819,1.0679 0.10708,0 0.22521,0.0687 0.2625,0.15256 0.099,0.2228 1.34003,1.0679 1.56819,1.0679 0.10708,0 0.22521,0.0687 0.2625,0.15256 0.099,0.2228 1.34003,1.06791 1.56819,1.06791 0.10708,0 0.22521,0.0686 0.2625,0.15255 0.099,0.2228 1.34003,1.06791 1.56819,1.06791 0.10708,0 0.22521,0.0686 0.2625,0.15255 0.10293,0.23159 1.34431,1.06791 1.58514,1.06791 0.11641,0 0.21165,0.0699 0.21165,0.15539 0,0.16902 1.39274,0.81733 2.84774,1.32559 1.20002,0.41919 2.94144,0.42911 4.29911,0.0245 z"
       id="path1" /></g></svg>
