<svg xmlns="http://www.w3.org/2000/svg" xml:space="preserve" width="960" height="960" viewBox="0 0 254 254"><path d="M192.482 227.877c-.043-.043-1.094-.2-2.336-.35s-2.806-.352-3.476-.448-1.884-.249-2.698-.34c-2.317-.256-6.06-.7-7.399-.877a546 546 0 0 0-6.353-.787 301 301 0 0 1-3.569-.447 153 153 0 0 0-5.658-.666 134 134 0 0 1-5.744-.703c-.623-.088-1.915-.248-2.872-.354-1.882-.21-4.89-.601-6.703-.872-.622-.093-2.58-.334-4.351-.535-1.772-.202-3.808-.44-4.527-.528-.718-.09-1.932-.235-2.698-.323a593 593 0 0 1-3.655-.442c-1.245-.155-2.85-.352-3.569-.438s-1.893-.236-2.611-.332-2.442-.3-3.83-.454a305 305 0 0 1-3.786-.44l-5.962-.764c-3.035-.39-4.735-.6-6.354-.784-2.118-.24-6.11-.705-7.573-.882-.718-.087-1.971-.234-2.785-.326s-2.459-.295-3.656-.45c-1.196-.154-2.763-.349-3.481-.432s-2.99-.353-5.048-.6a565 565 0 0 0-4.614-.542 77 77 0 0 1-2.088-.261 405 405 0 0 0-11.229-1.37c-1.85-.2-5.46-.632-7.572-.907-.766-.1-1.912-.236-2.546-.303-1.373-.145-2.396-.761-2.881-1.737-.306-.614-.32-3.875-.363-88.635-.032-62.503.009-88.26.142-88.909.406-1.97 1.899-3.299 3.983-3.55a349 349 0 0 1 6.974-.784c1.484-.152 3.325-.335 4.091-.405 1.786-.164 7.925-.823 9.792-1.05 3.357-.408 4.459-.529 7.181-.785 3.899-.366 6.121-.596 7.572-.78.67-.086 2.511-.281 4.091-.433s3.308-.353 3.84-.445c.533-.093 1.256-.169 1.607-.169.352 0 1.17-.078 1.818-.174s2.47-.294 4.05-.44c2.685-.247 3.9-.376 7.399-.786.766-.09 2.724-.284 4.352-.433 1.627-.148 3.337-.345 3.8-.437a10 10 0 0 1 1.633-.167c.436 0 1.272-.075 1.858-.168.585-.092 2.396-.29 4.024-.442 1.627-.152 3.507-.348 4.178-.436s1.688-.207 2.263-.265c.574-.057 2.102-.22 3.394-.36s3.095-.332 4.004-.425c.91-.093 2.32-.241 3.133-.329.814-.087 2.734-.287 4.265-.443 6.717-.687 9.001-.93 10.532-1.123.718-.09 2.207-.247 3.308-.35 2.078-.193 2.576-.244 5.048-.52 2.949-.327 8.03-.862 11.75-1.235.862-.087 2.664-.279 4.004-.427 6.344-.701 6.412-.702 10.619-.08 1.245.185 2.576.378 2.96.43.382.051 1.087.166 1.566.255.479.09 1.81.296 2.96.46 1.148.162 2.44.455 2.872.649 1.185.534 2.803 2.255 3.212 3.416.333.943.338 2.51.347 102.533l.009 101.575-.376.696c-.77 1.424-2.024 2.256-3.802 2.522-.479.072-1.928.299-3.22.504-4.219.672-4.654.717-6.925.717-1.234 0-2.279-.035-2.322-.078zm5.882-1.132c.462-.09 1.819-.295 3.016-.455 1.88-.252 3.068-.471 4.842-.895.693-.166 1.519-1.121 1.85-2.14.297-.917.305-5.276.197-101.457-.07-61.067-.178-100.836-.277-101.357-.426-2.248-2.011-3.67-4.473-4.013a184 184 0 0 1-5.447-.837 163 163 0 0 0-3.394-.53l-2.64-.366c-.783-.11-1.51-.145-1.618-.078-.107.066-.995.187-1.973.269-2.84.236-12.175 1.2-14.137 1.46a183 183 0 0 1-3.568.368c-1.58.152-3.297.35-3.815.44-.519.091-1.333.165-1.808.165s-1.344.077-1.93.17-2.317.292-3.85.441c-1.531.15-3.059.312-3.394.361-.335.05-1.314.16-2.176.247s-2.663.28-4.004.429c-2.255.25-3.694.4-7.572.784-2.707.27-6.855.697-8.53.88-.91.1-2.359.253-3.22.341s-2.625.285-3.917.437c-2.221.262-3.754.424-7.399.787-1.414.14-3.897.4-8.355.877-.862.092-2.233.245-3.047.339s-2.302.249-3.307.344-2.102.22-2.437.279-1.393.176-2.35.26c-2.108.187-4.172.393-7.747.776-1.484.159-3.364.354-4.178.434s-2.184.225-3.046.322l-4.091.46c-1.388.157-3.23.355-4.09.44-.863.085-2.273.237-3.134.337-.862.1-2.781.301-4.265.446-3.175.31-5.274.533-7.311.776-.814.097-2.538.293-3.83.436-3.941.434-4.433.523-5.057.911-.681.425-.926.77-1.295 1.828-.227.653-.258 11.357-.26 88.614-.003 74.053.034 87.96.235 88.432.392.92.948 1.291 2.112 1.413 2.795.293 4.173.453 6.093.71 2.238.299 3.992.514 6.353.78.814.092 2.538.293 3.83.446s3.016.355 3.83.447c3.07.346 7.54.89 9.922 1.205 5.875.78 8.934 1.15 12.882 1.563.91.095 2.594.295 3.743.445s2.676.34 3.394.424c.719.083 1.58.193 1.915.244s1.706.215 3.047.364c2.673.297 4.699.536 6.702.79.718.092 2.324.287 3.568.434s2.773.34 3.395.431c2.72.396 6.185.832 9.661 1.215.958.106 2.29.264 2.96.351.67.088 2.354.285 3.742.438 1.389.154 2.903.354 3.365.445a9.5 9.5 0 0 0 1.494.166c.36 0 1.078.074 1.597.165 1.185.208 3.605.516 5.643.72 1.6.16 2.63.28 6.615.769 2.925.358 4.413.554 5.918.776 1.548.228 5.106.677 7.138.9 4.029.443 8.364.956 10.183 1.207.718.098 1.933.25 2.699.337s1.94.23 2.61.32 2.042.254 3.047.366 2.18.267 2.611.344c1.126.202 5.742.218 6.733.023zm-4.119-1.537c.001-.07.12-.461.262-.871.23-.658.26-12.825.258-103.278 0-69.014-.06-102.801-.179-103.354-.098-.451-.31-1.072-.47-1.38-.162-.307-.239-.613-.172-.68.195-.195.764.421 1.201 1.3l.403.81V223.69l-.392.549c-.215.302-.391.627-.391.721 0 .095-.118.217-.261.273-.144.055-.26.043-.259-.025zm-10.621-9.9c-.985-.148-1.741-.438-1.741-.667 0-.416.25-.438 1.83-.162 1.704.297 2.412.161 2.584-.495.13-.495-.817-1.374-1.82-1.69-1.04-.329-1.768-.7-2.023-1.034-.36-.472-.27-1.48.169-1.88.763-.695 1.067-.764 2.427-.553 1.678.26 1.707.27 1.707.605 0 .257-.173.276-1.555.168-1.755-.138-2.275.018-2.275.68 0 .403.773 1.137 1.197 1.137.385 0 2.086.91 2.474 1.322.614.653.55 1.551-.157 2.182-.477.426-.695.497-1.471.476a15 15 0 0 1-1.346-.089zm-5.31-.745c-1.144-.118-1.551-.294-2.11-.91-.46-.507-.834-1.628-.674-2.025.065-.164.143-.611.173-.994.125-1.59 1.1-2.53 2.611-2.513 1.526.016 2.263.212 2.263.601 0 .374-.036.377-1.844.158-.772-.093-1.068-.055-1.433.183-.431.283-.901 1.375-.719 1.67.045.073.943.189 1.996.257 1.762.114 1.913.152 1.913.475 0 .34-.07.347-2.002.232l-2.002-.12v.536c0 .685.411 1.31 1.01 1.536.259.097 1.048.224 1.754.282 1.473.12 1.688.203 1.401.548-.21.255-.57.268-2.337.085zm-7.78-.82c-.611-.321-1.707-1.605-1.707-1.999 0-.168-.078-.355-.174-.414-.25-.154-.21-1.274.073-2.089.294-.843 1.288-1.743 2.159-1.954.789-.19 2.03.045 2.688.51.714.504 1.511 2.191 1.518 3.213.005.74-.892 2.148-1.653 2.594-.83.486-2.129.55-2.905.14zm2.227-.592c1.297-.493 1.84-2.182 1.164-3.622-.364-.776-.523-.947-1.225-1.31-1.616-.836-3.38.226-3.422 2.059-.046 2.048 1.752 3.532 3.483 2.873zm-5.888-2.274-.048-2.456-.957 1.406c-1.013 1.487-1.322 1.742-1.67 1.38-.21-.22-.343-.449-1.39-2.388l-.509-.945-.087 2.425c-.082 2.279-.108 2.424-.435 2.424-.335 0-.35-.125-.375-3.151-.014-1.733.043-3.26.126-3.395.267-.428.682.032 1.588 1.763 1.123 2.142 1.338 2.466 1.55 2.335.097-.06.589-.747 1.094-1.528 1.025-1.586 1.374-1.942 1.76-1.794.22.085.263.57.263 2.965 0 1.575-.048 2.987-.106 3.139s-.252.275-.43.275c-.3 0-.33-.192-.374-2.455zm-8.687-29.83c-.045-.044-1.566-.21-3.38-.366-1.815-.157-4.005-.35-4.867-.428l-3.568-.322a261 261 0 0 1-4.526-.459c-1.389-.154-3.19-.35-4.004-.438-.814-.087-2.185-.24-3.046-.34-1.868-.216-8.174-.85-12.012-1.209-1.053-.098-3.05-.304-4.439-.457-1.388-.153-3.229-.348-4.09-.434-.862-.085-2.233-.232-3.047-.327a311 311 0 0 0-8.704-.882 273 273 0 0 1-8.443-.802c-1.34-.15-3.142-.34-4.004-.423s-1.84-.19-2.176-.24c-.335-.05-1.823-.214-3.307-.365-1.484-.15-3.177-.349-3.763-.441s-1.315-.168-1.621-.168c-1.485 0-3.511-1.11-4.555-2.497-1.273-1.692-1.169 1.429-1.373-41.023-.252-52.575-.24-63.581.072-64.609.344-1.132.714-1.798 1.457-2.62 1.575-1.744 2.87-2.148 7.694-2.405l6.702-.36c1.628-.09 4.565-.237 6.528-.328 4.36-.201 15.585-.839 21.325-1.211 1.34-.087 4.082-.242 6.092-.343 4.98-.252 9.458-.511 12.273-.712 1.292-.092 3.33-.21 4.526-.262 2.381-.103 9.958-.553 13.404-.795 1.197-.084 3.55-.205 5.23-.268l3.052-.115 1.034.489c1.384.655 2.54 1.838 3.062 3.135l.417 1.034.053 57.707c.04 43.396.003 57.945-.15 58.665-.687 3.247-2.57 4.7-6.098 4.7-.917 0-1.704-.037-1.748-.081zm3.633-.896c1.17-.34 2.21-1.243 2.93-2.542l.51-.92V59.882l-.508-.87c-.587-1.009-1.496-1.9-2.365-2.318-.914-.44-4.25-.368-14.448.316-1.389.093-4.561.291-7.05.441-2.49.15-5.31.327-6.268.394l-1.74.122.043 42.736c.024 23.505.083 44.538.13 46.74.049 2.202.088 9.884.088 17.07v13.068l2.045.21c4.007.413 9.208.928 10.837 1.074.91.082 2.006.192 2.437.245.43.052 2.115.217 3.742.366 1.628.149 3.439.346 4.024.439.586.092 1.448.177 1.915.189.468.011 1.086.08 1.373.153.835.213 1.277.192 2.305-.106zm-15.602-7.227c-2.455-1.44-2.458-4.653-.005-5.904 1.236-.63 2.549-.294 3.508.9 1.374 1.71.832 4.013-1.214 5.156-.564.316-1.61.246-2.289-.152zm2.484-.864c1.314-1.034 1.266-3.207-.093-4.211-.56-.415-1.738-.438-2.336-.047-1.417.93-1.373 3.429.077 4.329.655.407 1.788.373 2.352-.07zm-3.236-101.71c-2.69-1.194-2.407-4.88.435-5.652 1.22-.331 2.7.502 3.276 1.845.32.749.324.835.056 1.64-.631 1.902-2.257 2.837-3.767 2.168zm2.373-1.22c.686-.646.806-1.22.527-2.503-.104-.475-1.296-1.262-1.912-1.262-1.137 0-2.17 1.107-2.17 2.327-.001.55.122.797.675 1.35.587.586.78.675 1.467.675.66 0 .895-.098 1.413-.586zm-15.824 48.676c-.07-32.816-.157-59.696-.192-59.733s-1.535.023-3.333.135c-1.798.111-4.953.284-7.011.384-7.774.378-14.895.773-17.93.995l-1.654.12.004 14.797c.002 8.139.098 26.782.213 41.431s.263 33.77.33 42.493l.119 15.86 1.32.198c1.238.187 2.737.36 6.282.726l3.22.332c.958.1 2.995.306 4.527.46s3.412.347 4.178.43 2.215.227 3.22.32c1.006.094 2.494.254 3.308.356a50 50 0 0 0 2.35.243c.478.031.94.07 1.024.088.088.018.1-25.173.025-59.635zm-15.8 52.646c-1.06-.618-1.602-1.574-1.608-2.832-.005-1.171.256-1.835.993-2.523.75-.702 1.68-.947 2.49-.657.807.289 1.905 1.279 2.158 1.946.287.756.22 1.98-.145 2.694-.84 1.635-2.46 2.207-3.889 1.372zm2.708-.963c1.16-1.159.875-3.456-.51-4.113-.756-.359-1.436-.33-2.124.089-1.034.63-1.358 2.07-.74 3.283.734 1.437 2.327 1.786 3.374.74zm-2.723-97.777c-2.923-1.073-2.444-5.605.629-5.951 2.134-.241 3.606 2.275 2.577 4.404-.403.833-.783 1.195-1.627 1.547-.751.314-.721.314-1.58 0zm1.581-.775c2.048-1.249 1.497-4.436-.767-4.44-.874 0-1.368.392-1.826 1.454-.278.643-.297.86-.126 1.43.205.684.69 1.254 1.405 1.649.556.307.671.299 1.314-.093zm-16.147 92.478c0-6.008-.08-16.407-.179-23.109-.157-10.654-.452-43.74-.638-71.53l-.06-9.034-2.042.125c-3.86.235-7.618.453-10.747.62-10.66.573-10.193.515-11.546 1.44-.708.483-1.605 1.688-2.084 2.798-.165.382-.21 11.434-.201 49.873.006 27.16.074 50.205.152 51.21s.29 2.25.47 2.764c.59 1.682 2.208 3.086 3.914 3.396.345.062 1.872.236 3.394.386s3.395.339 4.16.422c.767.082 2.216.232 3.221.331l4.526.454c1.484.15 3.51.343 4.503.43s1.848.2 1.9.252c.053.053.357.096.676.096h.58zM88.1 167.77c-.45-.151-.97-.52-1.332-.942-1.061-1.24-1.04-2.775.057-4.01.62-.699.708-.74 1.603-.74a2.866 2.866 0 0 1 2.62 4.09c-.666 1.46-1.701 2.022-2.948 1.602zm1.814-1.01c1.18-1.18.723-3.47-.782-3.921-1.327-.398-2.296.478-2.296 2.074 0 .85.594 1.834 1.28 2.121.472.198 1.48.044 1.798-.274zm-2.165-94.057c-.626-.18-1.532-.991-1.844-1.65-.736-1.549.145-3.462 1.829-3.973.756-.23 1.309-.118 1.963.397.556.437 1.143 1.688 1.143 2.436 0 1.026-.962 2.37-1.97 2.752-.535.202-.548.203-1.121.038zm1.403-1.075c.49-.385.991-1.267.991-1.742 0-.524-.503-1.528-.906-1.81-.633-.444-1.569-.352-2.075.205-.706.778-.894 1.378-.659 2.11.46 1.433 1.677 2.001 2.649 1.237z" style="fill:#000;stroke:#000;stroke-opacity:1"/></svg>