<?xml version="1.0" encoding="UTF-8" standalone="no"?>
<!-- Created with Inkscape (http://www.inkscape.org/) -->

<svg
   width="960"
   height="960"
   viewBox="0 0 253.99999 254"
   version="1.1"
   id="svg1"
   xml:space="preserve"
   xmlns="http://www.w3.org/2000/svg"
   xmlns:svg="http://www.w3.org/2000/svg"><defs
     id="defs1" /><g
     id="layer1"><path
       style="fill:#000000"
       d="m 78.008049,214.39436 c -0.873125,-0.4819 -2.361406,-1.32763 -3.307292,-1.87939 -5.441908,-3.17442 -10.197657,-5.69906 -10.735485,-5.69906 -0.238105,0 -0.807293,0.31606 -1.264862,0.70237 -3.319405,2.8024 -8.045806,1.9425 -9.983254,-1.81631 -1.171107,-2.27205 -0.230535,-5.91767 1.875268,-7.26847 0.509323,-0.32671 1.211565,-0.79584 1.560538,-1.0425 l 0.634496,-0.44849 -0.149561,-5.58049 c -0.08226,-3.06927 -0.271472,-5.89721 -0.420474,-6.28432 -0.195859,-0.50885 -1.173159,-1.23297 -3.527644,-2.61379 -1.791201,-1.05047 -3.561646,-2.11965 -3.934321,-2.37596 -0.372676,-0.25631 -1.384707,-0.8415 -2.248959,-1.30043 -0.864251,-0.45893 -2.22621,-1.22879 -3.026575,-1.71079 -2.6056,-1.56918 -4.862248,-2.87616 -6.554408,-3.79612 l -1.659617,-0.90227 -0.853925,0.53919 c -2.172057,1.37151 -2.448465,1.46909 -4.161217,1.46909 -1.858345,0 -3.004133,-0.44156 -4.3231,-1.66602 -1.21136,-1.12457 -1.58328,-2.09693 -1.58236,-4.13698 0.001,-2.23943 0.734916,-3.91191 2.01232,-4.58583 0.460019,-0.24269 1.235045,-0.82484 1.722281,-1.29366 l 0.885883,-0.85241 -0.159451,-2.45489 c -0.0877,-1.35018 -0.245063,-6.28495 -0.349699,-10.96616 -0.104637,-4.6812 -0.284089,-8.60488 -0.398784,-8.7193 -0.114694,-0.11441 -0.590944,-0.0525 -1.058333,0.13757 -1.383745,0.56273 -2.019708,0.63854 -2.438819,0.29071 -0.576542,-0.47849 -0.483589,-1.41639 0.199958,-2.0176 0.623968,-0.5488 2.746061,-1.94989 2.95331,-1.94989 0.156701,0 2.477328,-1.3933 4.653461,-2.79392 2.105849,-1.35539 3.769812,-2.38016 5.559328,-3.42379 0.748579,-0.43656 2.214982,-1.33818 3.258675,-2.00359 5.753593,-3.66825 6.053553,-3.84791 9.235132,-5.53123 1.0606,-0.56115 1.567018,-1.00303 1.684088,-1.46947 0.09208,-0.36686 0.08426,-2.30097 -0.01737,-4.29803 -0.101631,-1.99706 -0.264158,-5.53455 -0.361171,-7.86109 l -0.176387,-4.23007 -1.190625,-0.61865 c -2.639528,-1.37149 -3.498758,-2.7341 -3.525782,-5.591361 -0.0238,-2.516633 0.603566,-3.847655 2.399597,-5.090974 l 1.258476,-0.871192 2.007799,-0.09481 c 1.630748,-0.077 2.243086,0.01238 3.260712,0.475959 0.871651,0.397083 1.436256,0.505659 1.855415,0.356805 0.719598,-0.255549 4.938166,-2.912776 8.844107,-5.570801 1.549561,-1.054489 3.293634,-2.170655 3.875717,-2.480368 0.582084,-0.309713 2.368021,-1.421944 3.96875,-2.471624 1.60073,-1.04968 4.160573,-2.718232 5.688542,-3.707892 1.527969,-0.989661 3.046016,-2.041748 3.373438,-2.337973 l 0.595312,-0.538589 v -1.816503 c 0,-3.062889 1.446374,-4.972531 4.45652,-5.88393 l 1.516188,-0.459065 1.687552,0.553994 c 0.928154,0.304697 1.99531,0.552195 2.371458,0.549996 0.627288,-0.0037 5.176316,-2.749974 6.421138,-3.876521 0.501,-0.453402 3.80075,-2.715533 11.59298,-7.947525 2.11005,-1.416768 3.95552,-2.714386 4.10104,-2.883597 0.14552,-0.16921 1.6338,-1.215455 3.30729,-2.32499 1.67349,-1.109534 4.47146,-3.024433 6.21771,-4.255332 10.91687,-7.695096 14.23871,-9.909194 14.8822,-9.919419 0.32708,-0.0052 1.16052,0.396036 1.85208,0.891631 0.69156,0.495595 2.38848,1.683094 3.77093,2.638886 5.53402,3.826091 7.64398,5.299889 9.92187,6.930359 1.30969,0.937451 3.51235,2.470903 4.89479,3.407673 1.38245,0.936769 3.30665,2.275334 4.27601,2.974588 2.24718,1.621026 7.00657,4.955414 10.40837,7.292018 1.45521,0.999543 3.59103,2.467253 4.74626,3.261577 1.15524,0.794324 2.2268,1.402313 2.38125,1.351088 0.17932,-0.05947 0.32864,-1.982734 0.41311,-5.321058 l 0.1323,-5.227919 0.63929,-0.517064 0.63928,-0.517063 9.90153,0.07802 9.90153,0.07802 0.50554,0.624624 0.50553,0.624624 0,13.153735 0,13.153734 0.59532,0.553339 c 0.64316,0.597819 1.25869,1.027264 8.6651,6.045591 2.69214,1.824097 7.03792,4.78883 9.65729,6.588297 8.3986,5.769699 15.40038,10.540729 17.92021,12.210889 3.53039,2.33995 4.1725,2.9235 4.1725,3.79195 0,0.40442 -0.16611,0.87316 -0.36914,1.04166 -0.26917,0.22339 -3.90817,0.30264 -13.43722,0.29262 l -13.06808,-0.0137 -0.51955,0.37986 -0.51955,0.37987 -0.0732,41.6141 -0.0732,41.6141 -0.38678,0.42738 -0.38677,0.42738 -53.64728,0.0595 -53.64728,0.0594 -2.64584,1.48374 c -1.45521,0.81606 -3.06255,1.74781 -3.57187,2.07056 -0.50933,0.32275 -2.65245,1.57144 -4.762503,2.77487 -2.110052,1.20343 -4.312708,2.47866 -4.894791,2.83384 -0.897225,0.54748 -2.871074,1.70716 -6.879167,4.04165 -5.06346,2.94919 -6.963233,3.96539 -7.408333,3.96275 -0.291042,-0.002 -1.243542,-0.39743 -2.116667,-0.87934 z m 6.614583,-5.08158 c 2.182813,-1.27426 5.754688,-3.34657 7.9375,-4.60514 2.182813,-1.25858 6.82625,-3.93797 10.318748,-5.95421 3.4925,-2.01625 6.79649,-3.88729 7.34219,-4.15789 0.60793,-0.30144 0.99219,-0.68022 0.99219,-0.97804 0,-0.26734 0.066,-1.0087 0.14671,-1.64748 l 0.14672,-1.1614 -1.21021,-0.79375 c -0.66562,-0.43657 -1.53349,-1.27 -1.92859,-1.85209 l -0.71836,-1.05833 -0.0949,-2.27088 -0.0949,-2.27089 -2.15814,-1.33785 c -4.04821,-2.50953 -14.591116,-9.10569 -15.519593,-9.70981 -2.595357,-1.68871 -5.338259,-3.32828 -5.568003,-3.32828 -0.142351,0 -2.39975,1.39899 -5.016442,3.10886 -2.616692,1.70987 -8.142579,5.31132 -12.279748,8.00323 l -7.522125,4.89438 -0.103391,0.70445 c -0.05687,0.38744 -0.01529,2.53075 0.09239,4.76291 0.107682,2.23215 0.204567,4.67218 0.215301,5.42227 l 0.01951,1.36381 1.404815,0.79282 c 2.366201,1.3354 3.616362,3.20615 3.620793,5.41817 0.0017,0.8552 -0.660152,0.421 8.5974,5.64011 4.428126,2.49643 6.748927,3.6648 7.014492,3.53132 0.218282,-0.1097 2.182813,-1.24204 4.365625,-2.51629 z m -24.381822,-3.7176 c 1.705091,-1.24387 1.872779,-3.51439 0.361498,-4.89473 -1.466287,-1.33925 -3.359905,-1.33773 -4.701412,0.004 -2.129841,2.12984 -0.418643,5.80284 2.562728,5.50076 0.601191,-0.0609 1.400925,-0.33533 1.777186,-0.60981 z m 154.68911,-53.06297 c 0.0728,-23.23484 0.22045,-42.33331 0.3282,-42.44104 0.41913,-0.41909 2.8108,-0.53601 12.5041,-0.61126 5.52979,-0.0429 10.08503,-0.10818 10.12275,-0.145 0.0377,-0.0368 -1.1529,-0.8987 -2.64584,-1.9153 -1.49293,-1.01661 -4.26223,-2.90248 -6.154,-4.19084 -1.89177,-1.28836 -5.04692,-3.444336 -7.01146,-4.791067 -1.96453,-1.34673 -5.23875,-3.582718 -7.27604,-4.968862 -2.03729,-1.386144 -4.59713,-3.140683 -5.68854,-3.898975 -1.09141,-0.758292 -3.11547,-2.146116 -4.49792,-3.084053 -1.38244,-0.937937 -2.60101,-1.840102 -2.70792,-2.00481 -0.10692,-0.164708 -0.19621,-5.977677 -0.19844,-12.917709 -0.003,-9.799853 -0.0779,-12.663854 -0.3345,-12.822465 -0.50848,-0.31426 -6.38217,-0.441696 -10.61211,-0.230242 l -3.79769,0.189847 -0.14012,6.37674 -0.14012,6.376739 -0.60896,0.493111 c -0.86552,0.700855 -1.44067,0.475118 -4.68758,-1.839815 -1.55871,-1.111305 -4.55038,-3.204478 -6.64816,-4.651496 -2.09778,-1.447017 -4.4195,-3.054972 -5.15937,-3.573233 -0.73988,-0.518261 -3.72648,-2.607134 -6.6369,-4.641941 -2.91042,-2.034808 -7.13714,-5.000557 -9.39271,-6.590554 -8.33831,-5.877834 -12.84169,-8.927462 -13.18799,-8.930725 -0.19563,-0.0018 -1.32672,0.692263 -2.51354,1.542458 -1.91826,1.374178 -12.6686,8.816885 -30.6134,21.194353 -3.28129,2.263275 -7.11667,4.888952 -8.523075,5.834838 l -2.557097,1.719791 -0.0097,1.356666 c -0.01119,1.557895 -0.09391,1.466217 2.900676,3.214591 1.236926,0.722174 3.618176,2.122772 5.291666,3.112439 1.67349,0.989668 4.86684,2.841539 7.09633,4.11527 l 4.05362,2.315874 4.14846,-2.408436 c 7.88946,-4.580309 9.71369,-5.646979 11.85327,-6.930862 l 2.14854,-1.289271 0.15558,-1.666006 c 0.28904,-3.095243 2.14302,-5.368112 4.83456,-5.926874 4.93845,-1.025218 8.90398,3.198748 7.47639,7.96363 -1.12806,3.76513 -6.20721,5.425039 -9.52843,3.113969 -0.98854,-0.687878 -1.46194,-0.618957 -3.26644,0.475542 -3.64544,2.211095 -14.09775,8.277805 -15.01511,8.715038 l -0.99219,0.472897 6.1e-4,6.23485 c 3.4e-4,3.429168 0.0791,9.009473 0.17495,12.400683 l 0.17435,6.16584 0.81723,0.35496 c 1.97887,0.85951 3.27256,2.7414 3.72748,5.42222 l 0.28927,1.70469 1.17837,0.77567 c 4.93162,3.24625 18.74003,11.82225 19.03529,11.82225 0.13116,0 1.58435,-0.79176 3.22932,-1.75946 1.64496,-0.9677 4.36006,-2.55322 6.03355,-3.52339 3.92305,-2.27431 4.19799,-2.43673 7.87976,-4.65486 l 3.10045,-1.8679 0.0523,-1.52582 c 0.0714,-2.08204 0.46353,-3.12348 1.62783,-4.32321 1.45927,-1.50368 2.75529,-2.04772 4.81183,-2.0199 6.7449,0.0912 8.63537,8.56565 2.58357,11.58139 -1.94795,0.9707 -3.90117,0.9428 -5.85242,-0.0836 l -1.4608,-0.76843 -2.73325,1.59712 c -7.70189,4.50043 -9.41377,5.49754 -13.31658,7.75651 l -4.23333,2.45027 -0.17312,3.13471 c -0.0952,1.72409 -0.22887,7.45881 -0.29702,12.74382 l -0.1239,9.6091 0.95847,0.60851 c 2.26256,1.43642 3.21445,2.91709 3.40551,5.29729 0.15027,1.87207 -0.23745,3.00703 -1.53022,4.47941 -1.31032,1.49238 -3.06726,2.27887 -5.09076,2.27887 h -1.67801 l -1.53857,-0.92648 -1.53857,-0.92648 -1.88545,1.06168 c -1.037,0.58393 -4.86201,2.77591 -8.50003,4.87107 l -6.61458,3.80939 0.0884,1.43455 c 0.1393,2.26022 -0.33328,3.52336 -1.90696,5.09703 -0.75957,0.75957 -1.81176,1.5368 -2.33821,1.72716 l -0.95718,0.34612 -0.25531,1.741 c -0.14042,0.95755 -0.20296,1.83061 -0.13897,1.94012 0.064,0.10952 22.70122,0.16905 50.30498,0.1323 l 50.18865,-0.0668 z m -99.55067,34.8186 c 0.98762,-0.64711 1.6971,-1.98274 1.52897,-2.87836 -0.5953,-3.17116 -4.66832,-3.95723 -6.10536,-1.17831 -1.50969,2.91942 1.81465,5.86623 4.57639,4.05667 z M 64.543613,176.97759 c 3.767419,-2.44107 9.379931,-6.09018 12.472249,-8.10912 l 5.622395,-3.6708 v -9.74346 -9.74346 l -0.859895,-0.44289 c -2.625391,-1.35219 -3.992584,-3.48353 -3.874185,-6.03953 l 0.06884,-1.48605 -0.908524,-0.6164 c -0.499688,-0.33902 -3.825555,-2.2776 -7.390816,-4.30797 -3.56526,-2.03037 -8.607411,-4.91799 -11.204779,-6.41693 l -4.722486,-2.72536 -0.676025,0.30801 c -0.371814,0.16941 -1.282788,0.70722 -2.024388,1.19514 -0.7416,0.48791 -3.789145,2.36784 -6.772322,4.17761 -2.983177,1.80977 -7.090833,4.31006 -9.128125,5.55619 l -3.704167,2.26569 -0.08517,4.19331 c -0.04685,2.30631 -0.0031,7.92592 0.09724,12.48802 l 0.182417,8.29472 0.885095,0.36982 c 2.231367,0.93232 3.779118,3.12368 4.01079,5.6786 l 0.136877,1.5095 2.281168,1.26842 c 1.254642,0.69763 3.82898,2.1796 5.720751,3.29326 9.866891,5.80852 12.207796,7.13505 12.597022,7.13836 0.234404,0.002 3.508623,-1.9936 7.276042,-4.43468 z m 46.123087,2.25807 c 1.68537,-0.82699 4.19002,-0.81717 5.90343,0.0231 l 1.25583,0.6159 1.12542,-0.64536 c 0.61898,-0.35494 3.03042,-1.7511 5.35875,-3.10257 2.32834,-1.35147 5.72162,-3.31465 7.54063,-4.36263 l 3.30729,-1.90541 0.15022,-1.82818 c 0.0826,-1.0055 0.34653,-2.2015 0.58645,-2.65778 0.58899,-1.12017 2.69129,-2.93321 3.64373,-3.1424 0.4251,-0.0934 0.82879,-0.26019 0.8971,-0.37071 0.0683,-0.11052 0.25436,-5.82854 0.41346,-12.70671 l 0.28926,-12.50577 -0.47657,-0.35269 c -0.41369,-0.30617 -6.63764,-4.24722 -10.4304,-6.60462 -7.62563,-4.73973 -9.19799,-5.68854 -9.42699,-5.68854 -0.14621,0 -0.42925,0.19754 -0.62897,0.43898 -0.69281,0.83753 -2.93098,1.67238 -4.49083,1.6751 -1.73227,0.003 -2.95186,-0.36652 -4.1213,-1.24876 l -0.84066,-0.63422 -0.76759,0.39694 c -0.42218,0.21832 -3.07997,1.79004 -5.90621,3.49273 -2.82624,1.70269 -6.091118,3.65376 -7.255284,4.33571 -1.164167,0.68195 -3.069167,1.8337 -4.233334,2.55944 -2.266864,1.41316 -2.205364,1.2932 -1.844849,3.59852 0.280345,1.79267 -0.250074,3.41325 -1.613509,4.92972 -0.623039,0.69297 -1.609479,1.4749 -2.19209,1.73762 l -1.059291,0.47767 -0.08471,9.03017 c -0.04659,4.96659 -0.02273,9.3755 0.05304,9.79758 l 0.137752,0.76742 6.079956,3.80703 c 3.343976,2.09388 7.925425,4.94973 10.180994,6.34634 2.25558,1.39661 4.51776,2.80664 5.02709,3.1334 1.04379,0.66964 1.92799,1.16565 2.09927,1.17764 0.0632,0.004 0.65851,-0.25869 1.32292,-0.5847 z m -78.81082,-8.20885 c 1.00623,-0.6781 1.71525,-2.22484 1.469215,-3.20512 -0.415029,-1.65361 -2.351572,-2.92531 -3.980473,-2.61393 -0.974156,0.18622 -2.215194,1.49779 -2.41252,2.54963 -0.350304,1.86728 1.309888,3.86565 3.213382,3.86795 0.451423,5.4e-4 1.221101,-0.2688 1.710396,-0.59853 z m 111.20884,0.23258 c 0.93432,-0.39039 1.83233,-1.47099 2.09338,-2.51902 0.17252,-0.69262 -0.37263,-2.23698 -1.05633,-2.99246 -0.65998,-0.72927 -2.32133,-1.08803 -3.39603,-0.73334 -2.88216,0.9512 -3.06399,5.02286 -0.27846,6.23567 1.05121,0.4577 1.55967,0.45946 2.63744,0.009 z M 85.358735,142.42397 c 2.915008,-1.24207 3.028016,-4.83973 0.192192,-6.1185 l -1.065108,-0.4803 -1.000914,0.29988 c -2.28363,0.68419 -3.325594,3.07141 -2.162216,4.95379 0.584225,0.9453 1.752809,1.67645 2.713129,1.69755 0.259335,0.006 0.854648,-0.1529 1.322917,-0.35242 z m -4.204546,-8.63641 c 1.891493,-0.95919 4.150479,-1.06985 5.87272,-0.28766 l 1.08136,0.49111 4.078015,-2.52144 c 2.242908,-1.38679 4.913915,-3.00939 5.935571,-3.60578 1.021656,-0.59638 3.908925,-2.32722 6.416145,-3.84629 l 4.55859,-2.76194 0.003,-1.3391 c 0.005,-2.53714 2.02929,-5.46368 4.29719,-6.21215 l 0.92937,-0.30672 -0.13221,-12.09449 c -0.0727,-6.651964 -0.20747,-12.175267 -0.29947,-12.274004 -0.092,-0.09874 -2.01273,-1.242263 -4.2683,-2.541169 -2.25558,-1.298907 -5.58933,-3.230663 -7.40834,-4.292792 -1.81901,-1.062129 -4.213284,-2.451894 -5.320612,-3.088366 l -2.013325,-1.157221 -1.372276,0.923473 c -0.754751,0.50791 -1.79021,1.001878 -2.301019,1.097706 -1.420588,0.266504 -3.366975,-0.0087 -4.59733,-0.649975 l -1.109522,-0.578315 -0.969518,0.588903 c -0.533236,0.323896 -1.98155,1.238742 -3.218477,2.03299 -1.236927,0.794248 -2.844271,1.822924 -3.571875,2.285945 -0.727604,0.463022 -4.180417,2.683624 -7.672917,4.934672 -3.4925,2.251048 -7.383286,4.741007 -8.646191,5.533242 l -2.296192,1.440428 0.0076,1.984375 c 0.0042,1.091406 -0.111565,2.282031 -0.257175,2.645838 -0.553758,1.38354 -1.939722,2.93413 -3.139392,3.51227 l -1.221695,0.58877 0.167216,4.63021 c 0.09197,2.54661 0.246533,6.27104 0.343475,8.27651 l 0.176257,3.64631 3.861188,2.20126 c 2.123654,1.21069 7.194938,4.10543 11.269521,6.43276 7.915369,4.5211 8.921359,5.08248 9.128125,5.09379 0.07276,0.004 0.83368,-0.34843 1.690932,-0.78315 z m 36.283521,-11.11332 c 0.9661,-0.59708 1.71355,-1.94111 1.71206,-3.07853 -0.002,-1.68665 -1.69779,-3.27142 -3.4916,-3.2634 -1.19744,0.005 -2.06503,0.49601 -2.8069,1.58745 -0.51123,0.7521 -0.60437,1.16316 -0.50503,2.2287 l 0.12181,1.3065 0.95622,0.87631 c 1.15511,1.05857 2.64901,1.18624 4.01344,0.34297 z m 53.28093,0.0174 c 1.25159,-0.63852 2.00092,-2.0529 1.76208,-3.326 -0.23638,-1.26005 -1.7312,-2.50832 -3.00219,-2.50705 -1.75403,0.002 -3.49652,1.58354 -3.49652,3.17402 0,1.42128 1.72032,3.17172 3.11939,3.17401 0.33322,5.4e-4 1.06098,-0.2312 1.61724,-0.51498 z M 54.311526,101.02828 c 0.977309,-0.52414 1.868398,-1.912951 1.868398,-2.912007 0,-0.885508 -0.73604,-2.326692 -1.415738,-2.772047 -2.769479,-1.814632 -6.181791,0.820871 -5.108598,3.945631 0.671207,1.954313 2.783084,2.742843 4.655938,1.738423 z M 90.941798,76.803135 c 2.675946,-1.118081 2.721091,-4.543777 0.07549,-5.728248 -2.973822,-1.33142 -5.789156,2.299218 -3.704254,4.776984 1.112156,1.321723 2.113739,1.584283 3.628766,0.951264 z m 50.265742,0.0021 c 1.31136,-0.547922 2.0203,-1.60523 2.0203,-3.013065 V 72.60235 l -0.92154,-0.869127 c -1.25178,-1.180581 -2.19702,-1.352258 -3.57495,-0.649291 -1.1294,0.576177 -1.85454,1.738256 -1.85252,2.968791 0.002,0.932803 0.97551,2.313421 1.92245,2.725085 1.08384,0.471173 1.33737,0.474066 2.40626,0.02746 z"
       id="path1" /></g></svg>
