<?xml version="1.0" encoding="UTF-8" standalone="no"?>
<!-- Created with Inkscape (http://www.inkscape.org/) -->

<svg
   width="1000"
   height="1000"
   viewBox="0 0 264.58333 264.58334"
   version="1.1"
   id="svg1"
   inkscape:version="1.4.4 (dcaf3e7, 2026-05-05)"
   sodipodi:docname="inomeado.svg"
   xmlns:inkscape="http://www.inkscape.org/namespaces/inkscape"
   xmlns:sodipodi="http://sodipodi.sourceforge.net/DTD/sodipodi-0.dtd"
   xmlns="http://www.w3.org/2000/svg"
   xmlns:svg="http://www.w3.org/2000/svg">
  <sodipodi:namedview
     id="namedview1"
     pagecolor="#ffffff"
     bordercolor="#000000"
     borderopacity="0.25"
     inkscape:showpageshadow="2"
     inkscape:pageopacity="0.0"
     inkscape:pagecheckerboard="0"
     inkscape:deskcolor="#d1d1d1"
     inkscape:document-units="mm"
     inkscape:zoom="0.85789141"
     inkscape:cx="462.76253"
     inkscape:cy="508.80565"
     inkscape:window-width="1834"
     inkscape:window-height="1112"
     inkscape:window-x="0"
     inkscape:window-y="30"
     inkscape:window-maximized="0"
     inkscape:current-layer="layer1" />
  <defs
     id="defs1" />
  <g
     inkscape:label="Camada 1"
     inkscape:groupmode="layer"
     id="layer1">
    <path
       style="fill:#000000;stroke-width:0.32839"
       d="m 38.428306,258.57361 c -9.264124,-3.49858 -11.230696,-4.35102 -11.5495,-5.00627 -0.503331,-1.03447 -0.730117,-10.971 -0.26111,-11.44057 0.304444,-0.30481 7.356408,-3.13277 13.945146,-5.59225 l 2.462928,-0.91937 -0.0063,-2.74822 c -0.0035,-1.51152 -0.07149,-5.24126 -0.151123,-8.28834 -0.140356,-5.37101 -0.123087,-5.5577 0.565798,-6.11553 0.58944,-0.4773 0.727167,-0.98122 0.807902,-2.95594 l 0.09733,-2.38056 2.134537,-0.77042 c 1.173995,-0.42374 15.803784,-5.63611 32.51064,-11.5831 16.706857,-5.94695 39.564366,-14.08688 50.794466,-18.08873 11.2301,-4.00186 20.94509,-7.36156 21.58888,-7.46604 1.3217,-0.21449 2.16125,0.27924 2.16125,1.27098 0,0.52035 0.13691,0.59059 0.73888,0.3791 0.40639,-0.14279 1.32999,-0.26358 2.05245,-0.26844 1.2003,-0.008 1.32272,0.0712 1.41996,0.92008 0.0698,0.60914 0.25582,0.87153 0.5405,0.76231 0.23876,-0.0917 1.0359,-0.34689 1.77141,-0.56726 1.58003,-0.47339 2.34334,-0.0661 2.34334,1.25013 0,0.51537 0.15121,0.75958 0.41049,0.66299 3.15694,-1.17606 3.85858,-1.13304 3.85858,0.23656 0,1.07263 0.34447,1.05451 3.60254,-0.18963 l 2.67347,-1.02091 2.69093,0.68304 c 1.48,0.37567 4.63463,1.2531 7.0103,1.94983 4.06029,1.19078 4.37543,1.23669 5.25424,0.76522 0.51419,-0.27584 4.4815,-1.86675 8.81625,-3.53536 l 7.88135,-3.03384 0.20092,-2.23729 c 0.11046,-1.23053 0.30228,-7.1139 0.42619,-13.07418 0.12387,-5.9603 0.44002,-13.27518 0.70246,-16.25533 1.0102,-11.47092 3.09888,-39.45627 3.27202,-43.84011 0.0999,-2.528601 0.39956,-13.094562 0.66598,-23.479904 0.64032,-24.960603 1.74304,-62.709549 1.90418,-65.185594 0.17563,-2.6987613 1.30126,-5.1606307 3.07233,-6.719591 5.00879,-4.40890026 12.85139,-2.2398689 14.72605,4.0727761 0.49019,1.6506689 0.2843,10.9963359 -1.15804,52.5622599 -1.30045,37.47707 -1.36976,41.886263 -0.99882,63.543533 0.19951,11.64963 0.42414,21.46595 0.49917,21.81401 0.0751,0.34807 -0.16666,10.84014 -0.53711,23.31571 -0.74173,24.98111 -0.62638,23.9553 -2.83907,25.24759 -1.3238,0.77314 -4.40744,1.07083 -6.16524,0.5952 -0.73423,-0.19867 -1.68127,-0.72985 -2.10453,-1.1804 l -0.76958,-0.81918 -1.01519,1.03626 c -0.72323,0.73824 -3.23444,1.99344 -8.73235,4.36472 l -7.71718,3.32848 -0.20555,6.33379 c -0.22878,7.04948 -0.37782,7.54258 -2.60695,8.62521 -5.07017,2.46241 -101.489049,45.03219 -102.258973,45.14821 -0.721742,0.10872 -4.082298,-0.9837 -12.121442,-3.94052 l -11.122852,-4.09102 -9.073152,3.94213 c -4.990234,2.16817 -9.51648,4.00022 -10.058325,4.07122 -0.687678,0.0902 -4.356764,-1.14416 -12.150441,-4.08744 z m 54.320829,-2.42996 c -0.04154,-7.984 -0.497251,-20.36544 -0.772959,-21.00087 -0.28403,-0.65463 -0.930713,-0.9013 -9.297277,-3.5463 l -6.321514,-1.9985 v -2.42946 c 0,-1.33621 0.121051,-2.50429 0.268996,-2.59573 0.147946,-0.0915 1.440983,0.19538 2.873415,0.63736 3.129563,0.96563 3.097006,0.9638 3.097006,0.17421 0,-0.52828 -1.14801,-1.0111 -7.14249,-3.00384 -3.928369,-1.30592 -7.340213,-2.44733 -7.581876,-2.53647 -0.303415,-0.11194 -0.405036,0.0718 -0.328389,0.59342 0.08668,0.59 0.506645,0.8873 1.917144,1.35725 0.993379,0.33097 2.434192,0.83679 3.201804,1.12404 l 1.395658,0.52228 v 2.44607 c 0,1.65497 -0.132758,2.49639 -0.410488,2.60163 -0.225767,0.0854 -6.733612,-1.91406 -14.461878,-4.44357 -7.728265,-2.52953 -14.287425,-4.59912 -14.575913,-4.59912 -0.472274,0 -0.500611,0.76047 -0.284477,7.63506 0.132019,4.1993 0.289709,7.68647 0.350418,7.74931 0.0607,0.0628 2.784695,-0.93467 6.053295,-2.21665 3.268603,-1.28197 6.123462,-2.33384 6.344123,-2.33749 0.581287,-0.009 22.65274,7.60642 23.149629,7.9881 0.316518,0.24312 0.396169,1.72358 0.328389,6.10356 l -0.08949,5.78259 -4.362255,1.80438 c -4.240018,1.75385 -4.336636,1.81583 -3.448098,2.21244 0.502785,0.22442 4.969413,1.89142 9.925838,3.70446 4.956424,1.81303 9.081827,3.36658 9.167563,3.4523 0.08575,0.0857 0.352915,0.15588 0.593736,0.15588 0.348055,0 0.432159,-1.09442 0.410088,-5.33634 z m -42.991363,3.37357 c 0,-1.34126 -0.132509,-1.71591 -0.738879,-2.08903 -0.406383,-0.25004 -5.21643,-2.12306 -10.688996,-4.16226 -8.90601,-3.31855 -9.939792,-3.77876 -9.85171,-4.3857 0.104001,-0.71662 0.643064,-1.0646 3.527383,-2.27705 l 1.787024,-0.75119 -2.788723,-1.05253 c -1.533801,-0.57891 -2.892117,-1.05254 -3.018488,-1.05254 -0.272991,0 -0.303555,7.73723 -0.03452,8.73955 0.152971,0.56992 2.074814,1.40433 10.750297,4.66742 5.810216,2.1854 10.674859,3.9789 10.810319,3.98558 0.135462,0.006 0.246293,-0.72334 0.246293,-1.62225 z m 15.795697,-4.55949 13.595234,-5.83292 0.09239,-4.23143 c 0.112114,-5.13471 0.07568,-5.27584 -1.192497,-4.62004 -0.52124,0.26955 -6.838669,2.94437 -14.038735,5.94403 -7.200065,2.99968 -13.141681,5.5046 -13.203588,5.5665 -0.06191,0.0619 -0.0075,2.18264 0.120937,4.71269 0.172491,3.39809 0.337706,4.56014 0.632264,4.44711 0.219314,-0.0842 6.51661,-2.77783 13.993988,-5.98594 z m 79.765881,-16.79431 c 27.36313,-12.14125 50.00256,-22.31701 50.3099,-22.61282 0.48934,-0.47103 0.60074,-1.88129 0.89682,-11.35358 0.18593,-5.94867 0.27402,-10.87981 0.19576,-10.95806 -0.0783,-0.0783 -3.28956,1.14934 -7.13623,2.728 -3.84667,1.57865 -9.8017,4.02131 -13.23336,5.42812 -3.43169,1.40682 -13.70209,5.61876 -22.82313,9.35988 -34.33027,14.081 -44.71366,18.33323 -52.21406,21.3828 l -7.717173,3.1377 0.25094,9.73627 c 0.138015,5.35494 0.336366,11.1011 0.440784,12.76921 0.168346,2.68948 0.251499,3.00037 0.734233,2.74521 0.299406,-0.15826 22.932396,-10.22149 50.295516,-22.36273 z m -95.889969,15.63989 v -2.09403 l -5.172147,-1.96892 c -2.844681,-1.08292 -5.924976,-2.23596 -6.845099,-2.56236 l -1.672951,-0.59343 -2.378068,0.962 c -1.307936,0.52911 -2.333303,1.10978 -2.278589,1.29039 0.08112,0.26781 17.271817,6.94906 18.100562,7.03489 0.135461,0.014 0.246292,-0.9168 0.246292,-2.06854 z m 14.670141,-9.14615 c 11.977594,-4.99314 14.494964,-6.16449 13.248203,-6.16449 -0.17777,0 -4.811647,-1.55195 -10.297501,-3.44878 l -9.974285,-3.44875 -2.263427,0.92741 c -1.244881,0.51007 -7.43557,2.90305 -13.757085,5.31777 -6.321513,2.41468 -11.555232,4.43596 -11.63049,4.4917 -0.07525,0.0557 -0.05698,0.18119 0.0406,0.27876 0.280367,0.28037 20.074788,7.66872 20.595296,7.68727 0.256992,0.008 6.574401,-2.52923 14.038687,-5.64089 z m -9.648238,0.30242 c -2.236472,-0.79 -3.035669,-1.36806 -2.542556,-1.839 0.171584,-0.16384 1.242208,-0.68574 2.379168,-1.15973 l 2.067197,-0.86182 2.612363,0.86652 c 1.662533,0.55144 2.612367,1.03939 2.612367,1.342 0,0.46178 -2.826324,1.90595 -4.340111,2.21768 -0.412465,0.0849 -1.667259,-0.16962 -2.788428,-0.56565 z m 3.976948,-1.59265 c -0.308431,-0.49905 -2.362509,-0.66497 -3.132256,-0.25301 l -0.770369,0.41228 1.136875,0.38279 c 1.154099,0.38858 3.104649,0.006 2.76575,-0.54206 z m -15.5007,-2.46855 c -1.376476,-0.56308 -2.035712,-1.00764 -1.970342,-1.32876 0.10777,-0.52941 3.578167,-2.06207 4.669388,-2.06219 1.306446,-1.3e-4 4.787974,1.44783 4.787974,1.9913 0,0.53858 -3.761097,2.29252 -4.850258,2.26185 -0.312501,-0.008 -1.499044,-0.39679 -2.636762,-0.8622 z m 3.869194,-0.81104 1.077645,-0.37566 -0.782351,-0.43367 c -0.972896,-0.53929 -1.322887,-0.55173 -2.485018,-0.0882 l -0.924451,0.36868 0.985171,0.4375 c 0.541844,0.24062 1.000063,0.44415 1.018266,0.45231 0.0182,0.008 0.518031,-0.15425 1.110738,-0.36086 z m 48.819208,-7.13921 c 1.238054,-0.52088 6.684286,-2.75397 12.102726,-4.96245 5.41844,-2.20845 22.63431,-9.262 38.25747,-15.67455 33.38162,-13.7015 37.94576,-15.56921 44.49688,-18.20885 5.79677,-2.33569 5.57232,-2.21851 5.11867,-2.67215 -0.19636,-0.19635 -0.357,-1.08235 -0.357,-1.96888 0,-1.51032 -0.0465,-1.59962 -0.73888,-1.41728 -0.40639,0.10698 -23.57022,9.34764 -51.47519,20.53468 l -50.736294,20.34011 -0.0985,2.02432 c -0.09142,1.87872 0.245017,2.95213 0.925311,2.95213 0.139586,0 1.266753,-0.42618 2.504808,-0.94708 z m -4.741664,-2.69405 0.09649,-2.32756 36.28713,-14.53034 c 19.95791,-7.99168 42.52919,-17.02996 50.15835,-20.08506 12.50872,-5.00912 13.87158,-5.62733 13.87449,-6.29361 0.001,-0.40641 -0.13216,-0.73889 -0.29766,-0.73889 -0.29828,0 -3.67505,1.32168 -38.61334,15.11342 -9.93379,3.92134 -28.66434,11.31219 -41.62346,16.42415 l -23.561999,9.29445 v 2.21555 2.21556 l 1.395658,0.49403 c 2.186361,0.77389 2.178145,0.78032 2.284345,-1.7817 z m -5.15776,-1.66242 v -2.34914 l 21.50956,-8.50065 c 11.83027,-4.67536 29.93279,-11.82835 40.2278,-15.89551 10.29504,-4.06717 23.41013,-9.24879 29.14466,-11.5147 9.63936,-3.80888 10.42639,-4.17931 10.42639,-4.90742 0,-0.43317 -0.10392,-0.78756 -0.2308,-0.78756 -0.12692,0 -2.67605,0.94845 -5.66472,2.10763 -2.98868,1.15922 -11.78831,4.57001 -19.55473,7.57954 -7.76643,3.00955 -15.00744,5.81911 -16.09114,6.2435 -1.08367,0.42439 -6.40359,2.49702 -11.82205,4.60588 -9.0133,3.50793 -33.56871,13.10103 -44.596207,17.42244 -2.492932,0.97692 -4.672623,1.77621 -4.843757,1.77621 -0.171134,0 -0.311154,0.63544 -0.311154,1.41208 0,1.77199 -0.437874,2.26926 -1.60155,1.81887 -0.473756,-0.18338 -1.711086,-0.60043 -2.749621,-0.92677 l -1.888244,-0.59335 v 1.26276 1.26275 l 3.530196,1.13262 c 1.941607,0.62293 3.751859,1.14776 4.02278,1.1663 0.395088,0.0271 0.492587,-0.43128 0.492587,-2.31548 z m -13.029595,-3.24717 c -0.102119,-1.0415 -0.206935,-1.1151 -2.850901,-2.00149 -1.509684,-0.50611 -2.950498,-1.09086 -3.201806,-1.29944 -0.262291,-0.21767 -0.456922,-0.98833 -0.456922,-1.80918 0,-1.12254 0.158859,-1.53266 0.738879,-1.90748 0.682822,-0.44125 18.048934,-6.96548 54.430685,-20.4489 8.03736,-2.97871 19.71162,-7.30782 25.94284,-9.62026 6.23121,-2.31242 12.84417,-4.76086 14.69547,-5.44094 2.60724,-0.9578 3.366,-1.37323 3.366,-1.84288 0,-0.33346 -0.12467,-0.60633 -0.27703,-0.60633 -0.24609,0 -31.65362,11.35015 -44.05566,15.92096 -2.61892,0.96521 -12.88932,4.71796 -22.823136,8.33946 -9.9338,3.62148 -22.642504,8.2593 -28.241559,10.30629 l -10.180099,3.72179 v 1.9504 c 0,2.10239 0.242713,2.38426 2.545025,2.95569 l 0.903072,0.22415 v -1.95123 c 0,-2.09751 0.135758,-2.44237 0.853084,-2.16711 0.332665,0.12766 0.460478,0.7974 0.460478,2.41294 v 2.23623 l 3.858587,1.29987 c 2.122221,0.71495 3.980182,1.18938 4.128798,1.0543 0.148619,-0.13507 0.222507,-0.73215 0.164195,-1.32684 z m 18.012179,-4.88056 c 4.122937,-1.60754 17.027766,-6.64383 28.677416,-11.19173 41.87519,-16.34766 64.9773,-25.29232 65.32458,-25.29232 0.90496,0 0.20726,-0.67018 -1.04218,-1.00107 -0.76761,-0.20328 -3.42645,-0.92731 -5.90853,-1.60894 l -4.51288,-1.23933 -14.53376,5.39477 c -7.99357,2.96713 -18.74537,6.94872 -23.89287,8.848 -5.14753,1.89926 -13.71852,5.07888 -19.04664,7.06581 -11.60723,4.3285 -18.964034,7.06204 -34.553633,12.83901 -6.451776,2.39081 -11.734755,4.42405 -11.739953,4.5183 -0.0076,0.13753 12.70924,4.42414 13.511278,4.5544 0.12151,0.0197 3.594238,-1.27938 7.717172,-2.8869 z m 33.496286,-16.46891 c -0.87116,-0.47244 -1.55079,-0.61669 -2.21665,-0.47045 -1.32824,0.29174 -1.23212,-0.222 0.4047,-2.1632 1.00984,-1.19758 1.58655,-1.61334 2.21663,-1.59793 0.76677,0.0188 0.7862,0.0483 0.19489,0.2964 -0.36122,0.15157 -1.24092,0.88109 -1.9549,1.62112 l -1.2981,1.34557 h 1.04389 c 0.57413,0 1.52772,0.29499 2.11908,0.65555 1.21503,0.7408 2.09341,0.81821 3.43465,0.30267 l 0.92447,-0.35533 -1.09211,-0.56902 c -0.86441,-0.45039 -1.00134,-0.64405 -0.65679,-0.92884 0.84695,-0.70006 2.84565,-0.85699 3.70914,-0.29122 0.94567,0.61963 1.74885,0.66553 3.02633,0.17295 l 0.92445,-0.35644 -1.47777,-0.7781 c -0.81275,-0.42793 -1.32997,-0.81395 -1.14936,-0.85782 0.18061,-0.0439 -1.29714,-0.1691 -3.28389,-0.27831 l -3.61231,-0.19857 4.26908,-0.039 c 2.34799,-0.0215 4.08436,0.0356 3.85859,0.12666 -0.67628,0.27287 -0.46948,0.66357 0.58173,1.099 1.3948,0.57774 1.47046,0.8806 0.36302,1.45327 -1.35916,0.70285 -2.69151,0.7324 -3.68231,0.0816 -0.58191,-0.3822 -1.1764,-0.49239 -1.88824,-0.35002 -1.3163,0.26326 -1.30986,0.53191 0.0283,1.18097 l 1.06728,0.51767 -0.98518,0.40003 c -1.78176,0.72351 -3.5116,0.71666 -4.86866,-0.0193 z m 6.01802,-5.56596 c -1.12232,-0.23624 -1.12618,-0.24241 -0.1642,-0.26208 0.54185,-0.0112 1.28072,0.10686 1.64195,0.26208 0.78968,0.33933 0.13434,0.33933 -1.47775,0 z m 2.49214,-0.24445 c -0.13446,-0.13445 -1.08268,-0.34456 -2.10718,-0.46689 l -1.86272,-0.22247 2.05733,0.0777 c 1.13152,0.0427 2.23246,0.25285 2.44652,0.46689 0.23566,0.23568 0.25531,0.38919 0.0497,0.38919 -0.18664,0 -0.44933,-0.10997 -0.58378,-0.24444 z m -69.155375,17.62004 c 2.799526,-1.01299 10.262197,-3.73417 16.583709,-6.04703 26.578236,-9.72421 36.637076,-13.39714 58.207186,-21.25406 18.45306,-6.72155 22.74102,-8.39337 22.74102,-8.86649 0,-0.32066 -0.13659,-0.58303 -0.30355,-0.58303 -0.34186,0 -7.22647,2.40311 -16.77275,5.8546 -3.52198,1.2734 -16.30457,5.88414 -28.40575,10.24613 -12.10118,4.36195 -28.725944,10.36348 -36.943912,13.33673 -8.217968,2.97325 -16.862842,6.10019 -19.210833,6.94876 l -4.269073,1.54285 v 2.09194 2.09194 l 1.477756,0.57951 1.477757,0.57955 0.164194,-2.33979 0.164195,-2.33978 z m -9.784,2.59756 0.09649,-2.35738 23.808298,-8.62781 c 27.594297,-9.99979 37.081707,-13.43506 44.825267,-16.23063 3.07046,-1.1085 8.75981,-3.16246 12.64302,-4.56437 3.88323,-1.40192 10.27451,-3.70451 14.20289,-5.11688 5.75156,-2.06786 7.1425,-2.68446 7.1425,-3.16631 0,-0.3291 -0.11084,-0.59833 -0.2463,-0.59829 -0.13546,5e-5 -2.31516,0.72521 -4.84376,1.6115 -6.23954,2.18699 -52.957318,18.90268 -79.470449,28.43465 -6.863357,2.46751 -14.399915,5.16061 -16.747905,5.98466 -2.347991,0.82406 -4.453794,1.64331 -4.679562,1.82055 -0.446625,0.35063 -0.5262,1.55152 -0.208175,3.14164 0.163774,0.81888 0.460911,1.10326 1.559853,1.49289 0.746647,0.26472 1.461902,0.49299 1.589449,0.50723 0.12755,0.0143 0.275325,-1.03488 0.32839,-2.33145 z m -4.993564,-1.37888 c 0,-1.29208 0.157242,-2.21247 0.410488,-2.40273 0.225767,-0.16961 5.508747,-2.12921 11.739952,-4.35466 6.231207,-2.22546 17.462156,-6.2543 24.957664,-8.95296 11.262575,-4.05496 61.588985,-22.04523 65.267565,-23.33131 0.67036,-0.23436 1.06727,-0.59287 1.06727,-0.96395 0,-0.32495 -0.14102,-0.5908 -0.31338,-0.5908 -0.17235,0 -4.64256,1.53804 -9.93381,3.41788 -5.29122,1.87985 -11.98483,4.25727 -14.87466,5.28318 -2.88983,1.02589 -15.74632,5.60814 -28.569964,10.18273 -12.823636,4.5746 -27.748975,9.89319 -33.167415,11.81909 -5.41844,1.92589 -11.625017,4.13631 -13.792393,4.912 -2.167375,0.77571 -4.384011,1.55135 -4.925854,1.72361 -0.849737,0.27016 -0.998629,0.49293 -1.083074,1.62042 -0.17691,2.36204 0.677272,3.42634 2.971318,3.7022 0.13546,0.0162 0.246293,-0.91283 0.246293,-2.0647 z M 207.05672,197.13022 c 2.98014,-1.29491 5.76532,-2.67766 6.18929,-3.07279 1.59042,-1.48228 2.1766,-3.13303 2.1792,-6.13685 0.002,-2.38854 -0.13483,-3.08901 -0.94869,-4.85428 -1.65701,-3.59402 -5.23384,-6.31099 -8.30824,-6.31099 -0.53705,0 -3.66301,1.03441 -6.94661,2.29873 -3.28358,1.26431 -6.11504,2.29873 -6.29213,2.29873 -0.80724,0 -0.19626,0.59049 0.97365,0.941 1.93656,0.58021 4.755,3.33121 5.92546,5.78368 1.41411,2.96302 1.87837,6.33808 1.22061,8.87386 -0.28109,1.08367 -0.6129,2.2317 -0.73738,2.55114 -0.27439,0.70417 -0.59428,0.81667 6.74484,-2.37223 z m -7.84465,1.12814 c 0.45996,-1.03984 0.65601,-2.19518 0.65475,-3.85858 -0.005,-6.22009 -4.30323,-11.39223 -9.47591,-11.40185 l -1.72404,-0.003 v 1.29783 1.29785 l 1.43042,-0.53017 c 1.80453,-0.66879 2.51026,-0.42148 2.51026,0.87969 0,1.13526 0.35485,1.22533 2.045,0.51914 1.49833,-0.62604 1.89568,-0.21604 1.89568,1.95597 0,1.27278 0.19777,1.94473 0.82098,2.78945 0.76168,1.0324 0.82097,1.38092 0.82097,4.82545 0,2.04198 0.0821,3.71268 0.18267,3.71268 0.10037,0 0.47811,-0.66791 0.83922,-1.48425 z m 23.67455,-3.78312 c 2.03744,-0.56587 2.55997,-1.57459 2.55997,-4.94208 v -2.89629 l -0.80606,0.80604 c -0.93927,0.93928 -1.40349,0.99619 -2.40479,0.29486 -1.11358,-0.78 -1.03484,-3.1419 0.13543,-4.06243 1.0733,-0.84427 1.58695,-0.85552 2.39013,-0.0524 0.61876,0.61877 0.63115,0.58276 0.81915,-2.38084 0.33592,-5.29528 0.92732,-28.82116 0.72949,-29.019 -0.10488,-0.10489 -0.37899,-0.0359 -0.60913,0.15343 -0.23013,0.18929 -1.30507,0.60259 -2.38876,0.91846 -4.03571,1.17632 -12.82727,0.40521 -15.52375,-1.36159 -0.43371,-0.28418 -0.83522,-0.46793 -0.89228,-0.40834 -0.0813,0.0849 -0.65916,20.29781 -0.66006,23.08657 -1.6e-4,0.50639 0.30623,0.70001 1.40447,0.8875 0.77257,0.13188 2.14743,0.64403 3.0552,1.13811 4.98997,2.71588 7.63375,9.94435 5.59333,15.29301 -0.3017,0.79088 -0.23507,0.96441 0.59813,1.55772 1.88446,1.34183 3.66673,1.63511 5.99953,0.98722 z m 1.18889,-8.96712 c 0.0862,-0.75031 -0.008,-0.90721 -0.49257,-0.81536 -0.37779,0.0718 -0.63873,0.45713 -0.70598,1.0428 -0.0862,0.75031 0.008,0.90721 0.49258,0.81536 0.37779,-0.0717 0.63871,-0.45711 0.70597,-1.0428 z m 0.33418,-34.03133 c 0.96493,-0.42424 1.85158,-1.0327 1.97033,-1.35214 0.11878,-0.31944 0.10348,-4.69169 -0.0339,-9.7161 -0.48541,-17.75423 -0.40591,-48.458392 0.16568,-63.976489 0.99166,-26.923519 1.69199,-50.387226 1.50937,-50.569849 -0.099,-0.09905 -0.96656,-0.01142 -1.92779,0.194746 -2.16325,0.463931 -10.5428,0.214455 -12.07518,-0.359502 -0.59623,-0.223312 -1.14358,-0.346478 -1.21636,-0.273697 -0.15199,0.151977 -0.92046,24.935572 -1.62746,52.486058 -0.26652,10.385344 -0.57036,20.803538 -0.67521,23.151523 -0.18332,4.10523 -2.35781,33.16506 -3.24362,43.34752 -0.29601,3.40257 -0.32364,5.0602 -0.0894,5.36035 0.56447,0.72315 2.81932,1.73318 4.94402,2.2146 1.30859,0.2965 3.49227,0.4216 6.27594,0.35953 3.63204,-0.0809 4.53088,-0.21029 6.02349,-0.86655 z m 2.35045,-126.874729 c 1.34315,-0.349076 1.48734,-0.483955 1.58285,-1.480758 0.0894,-0.933055 0.0159,-1.068635 -0.49257,-0.908619 -3.70799,1.166823 -9.76883,1.098741 -14.55428,-0.163486 -0.34819,-0.09184 -0.52216,0.175024 -0.59349,0.910465 -0.0994,1.025431 -0.0711,1.04745 1.97034,1.53087 2.51162,0.594754 9.96328,0.663509 12.08715,0.111531 z m 0.19784,-3.512292 1.34719,-0.375153 0.18729,-5.131355 c 0.20115,-5.511447 0.0177,-6.627901 -1.43817,-8.7526118 -2.82841,-4.1277956 -9.14911,-4.1008374 -12.31697,0.052527 -1.38795,1.8197049 -1.76957,3.7928578 -1.76957,9.1493578 v 4.425234 l 0.86681,0.329559 c 2.54412,0.967273 10.10981,1.141632 13.12342,0.302442 z"
       id="path1" />
  </g>
</svg>
