<svg xmlns="http://www.w3.org/2000/svg" xml:space="preserve" width="960" height="960" viewBox="0 0 960 960"><path d="M788.923 891.718c-4.675-.958-17.05-3.593-27.5-5.856s-32.95-7.03-50-10.593-39.775-8.323-50.5-10.58c-48.964-10.301-59.408-12.48-88.579-18.475-17.093-3.512-36.218-7.532-42.5-8.931-6.281-1.4-27.846-5.918-47.92-10.042-53.491-10.987-78.241-16.148-99-20.644-10.176-2.204-30.426-6.424-45-9.379-14.576-2.954-31.676-6.516-38-7.915-19.965-4.415-140.364-29.53-180.5-37.65-15.065-3.049-25.954-5.748-27.4-6.792-1.319-.953-3.231-3.287-4.25-5.185-1.79-3.34-1.85-14.236-1.85-335.25 0-361.496-.41-336.454 5.548-340.358 2.376-1.557 15.91-5.433 38.775-11.105 6.62-1.642 7.726-1.61 37 1.058 16.597 1.513 56.051 4.969 87.676 7.68 81.116 6.954 113.245 9.78 130.5 11.477 8.25.811 36.6 3.28 63 5.488 26.4 2.207 52.725 4.449 58.5 4.982 5.775.532 15.9 1.437 22.5 2.01 6.6.574 21.9 1.932 34 3.019 12.1 1.086 35.5 3.123 52 4.525s52.95 4.573 81 7.045 71.475 6.277 96.5 8.456 47.174 4.23 49.22 4.558c2.53.406 4.686 1.7 6.75 4.049l3.03 3.452v741.635l-2.25 3.28c-1.88 2.741-27.828 20.13-39.75 26.638-3.248 1.773-10.418 1.57-21-.597m19.171-3.68c1.766-1.598 1.83-14.608 1.83-375.89 0-356.68-.084-374.337-1.773-376.422-2.166-2.675.17-2.392-74.728-9.056-74.49-6.627-227.137-20.394-254.5-22.953-27.904-2.609-139.421-12.793-148.5-13.561-3.85-.326-16-1.46-27-2.518-11-1.06-52.625-4.865-92.5-8.458-76.79-6.918-111.155-10.249-114.606-11.108-2.408-.6-5.128 1.671-5.917 4.94-.29 1.2-.402 151.233-.251 333.408l.274 331.227 2.515 2.515c2.192 2.192 5.983 3.218 29.5 7.985 14.842 3.01 35.535 7.268 45.985 9.464s28.9 6.046 41 8.554 26.05 5.437 31 6.508 16.65 3.534 26 5.474 32.075 6.698 50.5 10.574 45.425 9.527 60 12.558a33326 33326 0 0 1 57 11.923 15999 15999 0 0 0 47.5 9.915c9.35 1.927 25.775 5.35 36.5 7.608 38.18 8.037 52.808 11.086 76.5 15.947 13.2 2.708 31.425 6.49 40.5 8.402 9.075 1.913 47.775 10.04 86 18.061 38.225 8.02 71.075 14.98 73 15.467 5.921 1.495 12.17 1.246 14.171-.565m-38.67-15.967c-11.55-2.45-34.95-7.34-52-10.866-101.388-20.968-175.347-36.304-217-44.995-14.85-3.098-60.526-12.595-101.5-21.104-40.976-8.508-89.35-18.561-107.5-22.34s-43.35-8.984-56-11.569-26.826-5.544-31.5-6.575c-4.676-1.032-28.526-5.976-53-10.987-24.476-5.011-45.626-9.642-47-10.29l-2.5-1.18-.252-325.08c-.242-312.299-.181-325.144 1.553-326.714 1.557-1.408 2.97-1.504 10.252-.696 4.645.515 18.796 1.875 31.446 3.021s32.45 2.977 44 4.068c11.55 1.092 38.325 3.555 59.5 5.474 31.966 2.897 132.284 12.147 233 21.485 11.825 1.096 28.925 2.676 38 3.511s21 1.96 26.5 2.498 34.75 3.222 65 5.964 74.575 6.796 98.5 9.01 51.375 4.702 61 5.53c21.703 1.867 23.565 2.165 25.468 4.067 1.37 1.37 1.532 39.901 1.532 365.39 0 329.445-.149 364.005-1.571 365.428-2.058 2.057-1.605 2.11-25.929-3.05m25-362.379v-364.5l-3.5-.702c-1.926-.386-24.65-2.538-50.5-4.782s-58.926-5.196-73.5-6.561a31806 31806 0 0 0-54-5.001c-43.97-4.027-167.102-15.398-183.5-16.946-39.233-3.704-192.798-17.837-228-20.983-49.903-4.46-83.826-7.66-89.937-8.48-3.815-.513-7.303-.706-7.75-.43-.448.277-.814 146.486-.814 324.91 0 307.938.089 324.452 1.75 325.33.963.508 6.475 1.857 12.25 2.998 5.775 1.14 27.825 5.668 49 10.06 21.175 4.394 54.025 11.19 73 15.103s44.175 9.138 56 11.61c39.644 8.289 112.315 23.422 131.5 27.383 10.45 2.158 38.575 8.011 62.5 13.007 23.925 4.995 58.8 12.234 77.5 16.086s76.75 15.94 129 26.86c52.25 10.922 95.9 19.786 97 19.698 1.996-.16 2-.88 2-364.66m-123.5 209.955c-28.56-5.433-39.589-7.504-82-15.402-16.226-3.022-58.526-10.933-94-17.58-35.476-6.649-75.3-14.059-88.5-16.467a14273 14273 0 0 1-53.5-9.905c-48.5-9.084-118.797-22.164-146-27.165-14.168-2.604-27.167-5.53-29.25-6.582-4.208-2.125-8.03-7.374-9.726-13.354-.833-2.938-1.053-57.483-.83-205.5.28-184.9.44-201.747 1.953-204.502 3.319-6.049 5.283-7.005 14.21-6.92 4.478.041 24.567 1.94 44.642 4.217 31.355 3.557 173.043 19.169 215.5 23.744 7.7.83 23.675 2.614 35.5 3.964s66.725 7.412 122 13.47 102.075 11.537 104 12.176c5.227 1.734 8.773 4.75 11.003 9.357 1.978 4.086 1.997 6.276 1.997 227.342 0 245.68.47 228.066-6.19 232.127-4.93 3.005-11.807 2.496-40.81-3.02m40.239 1.884c4.89-2.524 4.741 1.163 4.772-118.523l.029-111.816-7.52-1.063-7.52-1.064V595.55c0 97.682-.138 106.636-1.656 108.314-.91 1.005-2.154 1.828-2.765 1.828-.61 0-2.903.963-5.095 2.14-7.795 4.183-7.18 4.231-52.829-4.128-102.271-18.727-116.48-21.344-141.156-25.998-14.3-2.696-35-6.549-46-8.561-21.2-3.879-22.856-4.382-24.49-7.435-.698-1.302-1.023-35.774-.994-105.227l.043-103.29-2.28-.651c-1.253-.358-3.29-.695-4.524-.75l-2.245-.1-.255 101.244-.255 101.244-5.456 2.756c-3.001 1.516-6.556 2.756-7.9 2.756-3.459 0-43.892-7.07-85.144-14.887-14.575-2.762-35.275-6.58-46-8.484-42.57-7.558-96.442-17.955-99.45-19.193-1.931-.796-1.931-.774 0 2.533 1.073 1.835 3.525 4.129 5.45 5.098 2 1.006 28.352 6.345 61.5 12.46 31.9 5.883 63.625 11.762 70.5 13.062s16.55 3.07 21.5 3.933c4.95.862 23.175 4.236 40.5 7.496 73.158 13.767 151.013 28.322 174 32.53 16.115 2.95 84.322 15.656 99 18.442 22.522 4.275 52.106 9.82 55 10.31 3.052.515 8.88-.242 11.24-1.461m-27.87-16.089c.883-3.295.765-209.548-.12-210.094-.412-.254-7.725-1.424-16.25-2.6s-30.575-4.394-49-7.15-44.525-6.579-58-8.495c-13.475-1.917-37.55-5.47-53.5-7.896-15.95-2.425-38.45-5.787-50-7.47s-22.462-3.301-24.25-3.597l-3.25-.538v202.044l2.25 1.397c1.238.768 12.6 3.292 25.25 5.607 32.284 5.91 57.814 10.645 73 13.539 7.15 1.362 30.325 5.666 51.5 9.563s51.325 9.474 67 12.393c33.708 6.276 34.55 6.354 35.37 3.297m8.13-1.581 4-2.765.255-105.702c.14-58.136.012-105.702-.284-105.702-.295 0-2.66 1.076-5.254 2.39l-4.717 2.39.26 106.11c.142 58.36.592 106.095 1 106.077.407-.018 2.54-1.277 4.74-2.798m-287.5-148.669c0-68.149-.334-101.5-1.017-101.5-1.805 0-77.68-10.953-103.983-15.01-14.025-2.164-39.45-5.99-56.5-8.504s-39.733-5.901-50.406-7.528-19.787-2.958-20.25-2.958-.844 43.37-.844 96.378c0 80.017.23 96.569 1.36 97.506 1.19.988 33.822 7.213 137.14 26.163 14.85 2.724 41.175 7.605 58.5 10.846 17.325 3.242 32.513 5.942 33.75 6l2.25.107zm9-3.685c0-55.448-.247-100.815-.55-100.815-.302 0-1.877.687-3.5 1.526l-2.95 1.526V655.66l3.5-1.67 3.5-1.668zm270.755-166.496c.24-100.483.16-106.21-1.5-106.726-1.606-.5-14.348-2.029-76.255-9.153-11.825-1.361-30.725-3.579-42-4.928-28.34-3.39-66.547-7.88-98-11.516-14.575-1.684-28.626-3.434-31.224-3.888-2.599-.454-4.961-.589-5.25-.3-.29.29-.526 46.527-.526 102.752 0 92.156.155 102.286 1.577 102.831 1.749.671 24.917 4.227 91.423 14.032 64.938 9.574 110.53 16.324 135.5 20.06 12.1 1.812 22.9 3.231 24 3.155 1.985-.137 2.002-.941 2.255-106.319m7.704 102.939 4.541-2.743v-213.68l-5.009 2.892-5.01 2.892-.24 106.69c-.133 58.68.078 106.691.468 106.691s2.753-1.234 5.25-2.742m24.774-107.508c.147-60.087-.04-110.79-.417-112.672-.976-4.89-3.758-8.257-8.868-10.732-4.768-2.31 6.319-1.003-210.948-24.87-47.575-5.226-113.05-12.452-145.5-16.057-32.45-3.606-77.225-8.53-99.5-10.943a41205 41205 0 0 1-56.112-6.11c-17.443-1.924-20.192-1.507-23.16 3.518-1.623 2.747-3.48 11.116-2.468 11.116.284 0 3.493-1.393 7.132-3.096l6.616-3.096 18.746 2.12a13096 13096 0 0 1 39.746 4.573c11.55 1.35 53.4 6.077 93 10.506 39.6 4.428 75.825 8.695 80.5 9.48 4.675.787 13 1.67 18.5 1.962s20.125 1.633 32.5 2.978c42.313 4.6 69.501 7.65 90 10.094 11.275 1.345 31.075 3.585 44 4.979s30.925 3.42 40 4.504 24.6 2.9 34.5 4.035 19.8 2.571 22 3.19 4.393 1.027 4.873.907.596.503.258 1.383-.63 50.51-.65 110.29l-.038 108.691 6.278 1.142c3.454.629 6.834 1.191 7.512 1.25.968.085 1.29-23.302 1.5-109.142m-312.233-32.281c0-81.12-.261-102.625-1.25-102.978-1.273-.454-9.936-1.473-72.75-8.562-19.525-2.204-46.3-5.323-59.5-6.933s-39.975-4.748-59.5-6.974-36.515-4.277-37.755-4.555l-2.255-.507.255 99.261.255 99.262 15 2.239c8.25 1.231 31.65 4.75 52 7.818 60.855 9.176 67.435 10.16 106.5 15.94 20.625 3.052 41.55 6.166 46.5 6.92 4.95.756 9.788 1.424 10.75 1.487 1.656.107 1.75-5.393 1.75-102.418m22.245-.176.255-102.708 4.189-3.042c2.304-1.674 4.216-3.322 4.25-3.664.034-.341-3.596-.94-8.065-1.33-4.47-.39-8.632-.902-9.25-1.14-.829-.318-1.056 27.663-.865 106.509.244 100.671.361 106.966 2 107.395.958.25 2.976.507 4.486.571l2.746.116zm-16.195 100.182 2.95-1.526.014-100.724c.008-55.399.285-101.737.616-102.975.766-2.855-.882-2.919-4.726-.182l-2.904 2.068V347.26c0 56.338.247 102.432.55 102.432.302 0 1.877-.686 3.5-1.525m279.41-175.217c2.497-1.509 4.54-3.084 4.54-3.5 0-.417-2.362-.766-5.25-.776-5.795-.02-25.14-2.066-69.75-7.38-16.225-1.932-37.825-4.431-48-5.554-22.44-2.476-52.555-5.922-88-10.072-45.418-5.316-42.737-5.15-47.133-2.908-2.127 1.085-3.867 2.346-3.867 2.801 0 1.009 8.548 2.22 43 6.095 14.575 1.639 45.625 5.254 69 8.034s54.2 6.414 68.5 8.074 34.775 4.078 45.5 5.373c25.657 3.096 26.026 3.094 31.46-.187m-280.974-32.382c1.98-1.168 3.416-2.307 3.193-2.53-.224-.224-9.806-1.498-21.293-2.831-45.604-5.293-82.978-9.554-104.886-11.958-12.65-1.388-40.81-4.601-62.58-7.141l-39.58-4.618-5.2 2.238c-2.86 1.23-5.075 2.357-4.92 2.504.154.147 7.48 1.007 16.28 1.912s31.075 3.43 49.5 5.61 48.8 5.755 67.5 7.943l63 7.372c35.399 4.143 34.56 4.11 38.986 1.5M834.41 872.251c6.044-3.655 11.54-7.639 12.215-8.852 1.816-3.268 1.863-739.565.047-742.002-1.148-1.54-1.904-1.388-9.25 1.864-4.4 1.948-10.925 4.695-14.5 6.105s-7.512 3.66-8.75 5l-2.25 2.438V886.54l5.75-3.821c3.163-2.102 10.695-6.813 16.738-10.468m-22.488-737.559c0-.55-.45-1-1-1s-1 .45-1 1 .45 1 1 1 1-.45 1-1m15-10.199c15.286-6.46 17.745-7.8 14.302-7.8-2.115 0-83.422-6.945-134.302-11.472-76.227-6.78-106.636-9.444-229-20.052-72.875-6.319-137-11.927-142.5-12.465-10.552-1.03-45.167-4.074-74.5-6.55-9.625-.813-25.15-2.135-34.5-2.94-9.35-.804-22.625-1.917-29.5-2.473-21.178-1.714-56.295-5.113-56.94-5.512-.626-.387-41.973 10.043-42.702 10.772-.221.221 3.095.658 7.37.97 8.121.593 148.362 13.274 184.772 16.707 46.455 4.381 387.508 35.324 486 44.094 13.2 1.175 25.8 2.497 28 2.938 5.571 1.116 7.112.708 23.5-6.217" style="fill:#000"/></svg>