<?xml version="1.0" encoding="UTF-8" standalone="no"?>
<!-- Created with Inkscape (http://www.inkscape.org/) -->

<svg
   width="960"
   height="960"
   viewBox="0 0 253.99999 254"
   version="1.1"
   id="svg1"
   xml:space="preserve"
   inkscape:version="1.4.4 (dcaf3e7, 2026-05-05)"
   sodipodi:docname="4gang.svg"
   xmlns:inkscape="http://www.inkscape.org/namespaces/inkscape"
   xmlns:sodipodi="http://sodipodi.sourceforge.net/DTD/sodipodi-0.dtd"
   xmlns="http://www.w3.org/2000/svg"
   xmlns:svg="http://www.w3.org/2000/svg"><sodipodi:namedview
     id="namedview1"
     pagecolor="#ffffff"
     bordercolor="#000000"
     borderopacity="0.25"
     inkscape:showpageshadow="2"
     inkscape:pageopacity="0.0"
     inkscape:pagecheckerboard="0"
     inkscape:deskcolor="#d1d1d1"
     inkscape:document-units="mm"
     inkscape:zoom="0.85789141"
     inkscape:cx="396.32055"
     inkscape:cy="374.75605"
     inkscape:window-width="1931"
     inkscape:window-height="1112"
     inkscape:window-x="0"
     inkscape:window-y="30"
     inkscape:window-maximized="0"
     inkscape:current-layer="layer1" /><defs
     id="defs1" /><g
     inkscape:label="Camada 1"
     inkscape:groupmode="layer"
     id="layer1"><path
       style="fill:#000000"
       d="m 205.71587,234.82404 c -49.87154,-2.75193 -129.546426,-5.68327 -182.233248,-6.70459 -6.674545,-0.12939 -8.039224,-0.21072 -8.273576,-0.4931 -0.206766,-0.24914 -0.322629,-2.76174 -0.44014,-9.54486 C 13.779151,160.94964 13.69839,89.113551 14.55067,23.961897 14.689885,13.3197 14.720648,12.699564 15.129628,12.290746 15.543661,11.876877 19.56,11.740119 112.05576,8.990368 165.12758,7.4126279 210.14833,6.0682645 212.10187,6.002894 c 3.54554,-0.1186424 3.55214,-0.1179347 3.6807,0.3942825 0.11082,0.4415453 0.327,0.5348149 1.54947,0.6685044 0.78137,0.085451 1.93082,0.289508 2.55432,0.4534592 l 1.13364,0.2980931 0.0506,6.5501028 c 0.0422,5.455873 0.2598,49.498242 1.01493,205.390384 l 0.0681,14.05712 -1.36037,0.14 c -0.7482,0.077 -2.17659,0.37141 -3.17419,0.65424 -2.42847,0.68849 -3.10137,0.70064 -11.90321,0.21496 z m 13.8304,-2.07443 c 0,-0.11979 -0.28058,-0.16408 -0.6235,-0.0984 -0.34293,0.0657 -1.15915,0.18537 -1.81383,0.26602 -0.92047,0.11339 -1.19032,0.23551 -1.19032,0.53867 0,0.36755 0.11331,0.36454 1.81383,-0.0482 0.9976,-0.24214 1.81382,-0.53826 1.81382,-0.65805 z M 215.23844,120.55093 V 8.5607735 l -0.63571,0 c -0.42131,0 -0.87986,0.2519093 -1.35968,0.7469495 l -0.72397,0.746949 -0.002,110.595568 c -0.002,110.21798 -5.2e-4,110.59753 0.45094,111.17148 0.41652,0.52952 1.69822,1.02365 2.10043,0.80978 0.0935,-0.0497 0.17005,-50.48599 0.17005,-112.08057 z m 4.27235,109.5229 c 0.11632,-3.21686 -0.87005,-214.565782 -1.01768,-218.056988 -0.14157,-3.347896 0.0511,-3.018014 -1.95099,-3.3399154 L 215.6919,8.540226 V 120.62571 232.7112 l 1.8705,-0.24173 1.8705,-0.24172 z m -7.00966,1.92091 -0.5731,-0.57309 -13.13878,-0.55453 c -7.22634,-0.305 -24.76992,-1.01637 -38.98576,-1.58083 -14.21583,-0.56447 -33.397,-1.33453 -42.62483,-1.71126 -27.204204,-1.11061 -89.448289,-3.61482 -93.808624,-3.77411 -3.099025,-0.11322 -4.024418,-0.0833 -4.024418,0.12999 0,0.17424 -0.262593,0.2506 -0.707815,0.20582 -0.766103,-0.0771 -1.275832,0.40624 -1.049781,0.99532 0.108627,0.28307 1.466756,0.35862 8.821786,0.4907 45.427192,0.81578 121.262022,3.58768 174.091322,6.36335 5.42447,0.28501 10.47251,0.53249 11.21788,0.54996 l 1.35521,0.0318 z m -5.82166,-2.31165 c -0.40528,-0.0503 -1.06846,-0.0503 -1.47374,0 -0.40527,0.0503 -0.0737,0.0915 0.73687,0.0915 0.81055,0 1.14214,-0.0411 0.73687,-0.0915 z m 4.58514,-108.97502 c 0.1191,-79.278543 0.0957,-109.002984 -0.0857,-108.942513 -0.18086,0.06029 -0.26491,26.80684 -0.30558,97.235823 -0.0534,92.40024 -0.0174,121.00758 0.15202,120.81719 0.0415,-0.0467 0.14916,-49.14638 0.23925,-109.1105 z m -9.91831,108.74684 c -0.4704,-0.0491 -1.1846,-0.0483 -1.58709,0.002 -0.40249,0.0501 -0.0176,0.0902 0.85529,0.0892 0.8729,-0.001 1.20221,-0.042 0.7318,-0.0911 z m -5.44146,-0.22673 c -0.47041,-0.0491 -1.1846,-0.0482 -1.5871,0.002 -0.40249,0.0501 -0.0176,0.0902 0.85529,0.0892 0.8729,-0.001 1.20222,-0.042 0.73181,-0.0911 z M 210.47716,120.59157 V 11.789484 l -2.43733,0.0939 c -1.34053,0.05164 -10.80358,0.345824 -21.029,0.653734 -10.22543,0.30791 -44.81275,1.375197 -76.86073,2.371749 -84.196708,2.618149 -89.554694,2.786307 -89.58406,2.811542 -0.110659,0.0951 -0.596657,102.436363 -0.702375,147.906053 L 19.7328,221.91163 h 0.490155 c 0.600519,0 81.394905,3.22365 96.502255,3.85039 5.98561,0.24831 16.23938,0.65845 22.78614,0.91141 23.73094,0.91695 63.16768,2.49356 64.16397,2.56516 0.56115,0.0403 2.32113,0.0917 3.91106,0.11419 l 2.89078,0.0409 z m -4.64792,105.62789 c 0.0771,-0.1247 0.4462,-0.22673 0.8203,-0.22673 0.39573,0 0.62159,0.0948 0.54006,0.22673 -0.0771,0.1247 -0.44621,0.22673 -0.82031,0.22673 -0.39572,0 -0.62158,-0.0948 -0.54005,-0.22673 z m -31.85526,-0.5802 c 0,-0.33527 0.0973,-0.52008 0.23043,-0.43779 0.12673,0.0783 0.17172,0.23739 0.1,0.35347 -0.0717,0.11609 -0.0224,0.21106 0.10966,0.21106 0.13206,0 0.24011,-0.10202 0.24011,-0.22672 0,-0.1247 0.10562,-0.22673 0.23471,-0.22673 0.15913,0 0.15656,0.14601 -0.008,0.45345 -0.34969,0.6534 -0.90691,0.57553 -0.90691,-0.12674 z m 33.55571,0.38262 c 0,-0.12338 -0.22956,-0.26855 -0.51013,-0.32259 -0.44681,-0.0861 -0.43439,-0.10209 0.1,-0.12914 0.64248,-0.0325 1.03183,0.29185 0.64058,0.53366 -0.12673,0.0783 -0.23043,0.0415 -0.23043,-0.0819 z M 114.00448,189.0227 c -37.908893,-0.97383 -69.869011,-1.77731 -71.022489,-1.78551 -1.904531,-0.0135 -2.097232,-0.0545 -2.097232,-0.44597 0,-0.47786 -1.343845,-1.38276 -2.05351,-1.38276 -0.435146,0 -0.440496,-0.78486 -0.440496,-64.61743 0,-57.286553 0.03858,-64.617419 0.340092,-64.617419 0.206441,0 0.340092,-0.210734 0.340092,-0.536243 0,-0.748577 0.776741,-1.655898 1.647321,-1.924256 0.408707,-0.125985 6.654791,-0.336383 14.110261,-0.475302 41.826898,-0.779369 64.641031,-1.214428 96.315491,-1.836713 34.16016,-0.671119 35.35318,-0.680513 36.15843,-0.284712 0.61481,0.302195 0.88943,0.61697 1.04939,1.202854 0.31161,1.141304 0.45004,135.129881 0.13993,135.439991 -0.12866,0.12866 -0.23393,0.50379 -0.23393,0.83362 0,0.69699 -0.53267,1.24973 -1.41705,1.47044 -0.34292,0.0856 -0.6235,0.29759 -0.6235,0.47112 0,0.3889 9.58475,0.58955 -72.2128,-1.51171 z m 71.96718,0.60176 c -0.052,-0.0505 -4.32861,-0.20655 -9.50367,-0.34676 -5.17507,-0.14021 -12.82713,-0.35014 -17.00459,-0.46651 -8.42949,-0.23483 -22.22551,-0.45379 -20.63223,-0.32747 0.56115,0.0445 7.44801,0.24744 15.30413,0.451 7.85612,0.20356 17.03859,0.44636 20.4055,0.53956 7.84115,0.21706 11.54979,0.26578 11.43086,0.15018 z m 1.60599,-0.36163 c 0.44283,-0.44284 0.62218,-1.14988 0.28341,-1.11727 -0.0935,0.009 -0.46067,0.3661 -0.81588,0.79355 -0.49354,0.59391 -0.56037,0.77717 -0.28341,0.77717 0.19933,0 0.56648,-0.20405 0.81588,-0.45345 z m -0.57968,-0.73063 c 0.31753,-0.45334 0.35295,-7.28611 0.35295,-68.08837 0,-57.087526 -0.0486,-67.65089 -0.31271,-68.01213 -0.27162,-0.371457 -0.57705,-0.4205 -2.32396,-0.373164 -19.94471,0.540438 -143.281987,2.898375 -143.338247,2.740311 -0.126303,-0.354845 -0.691874,-0.238429 -1.171427,0.241125 -0.451326,0.451326 -0.453456,0.75576 -0.453456,64.819028 0,62.13724 0.01443,64.3834 0.416735,64.88023 0.506151,0.62507 -4.250363,0.45387 56.265216,2.02517 34.989369,0.9085 50.689879,1.3269 67.791609,1.80655 7.91847,0.22209 16.20242,0.4176 18.40878,0.43447 3.90535,0.0299 4.02091,0.0173 4.36451,-0.47322 z m -21.18619,-1.78064 c -8.16787,-0.22493 -22.90647,-0.62245 -32.75243,-0.88338 -14.94193,-0.39598 -17.96256,-0.52943 -18.26944,-0.80716 -0.20223,-0.18301 -0.56684,-0.33275 -0.81026,-0.33275 -0.98427,0 -0.98827,-0.15238 -0.63997,-24.33546 0.18169,-12.6155 0.40836,-26.86534 0.50371,-31.6663 0.13824,-6.96089 0.1147,-8.78971 -0.11619,-9.02863 -0.23207,-0.24013 -0.28954,-6.53194 -0.28954,-31.696767 l 0,-31.397165 0.81573,-0.747312 0.81574,-0.747313 5.0225,-0.141268 c 2.76238,-0.0777 18.32478,-0.368818 34.5831,-0.646935 l 29.5606,-0.505668 0.53752,0.624903 0.53752,0.624904 v 65.137761 c 0,44.89945 -0.0739,65.34991 -0.23801,65.82054 -0.31591,0.90622 -1.05562,1.20512 -2.89017,1.16784 -0.83586,-0.017 -8.20254,-0.21491 -16.37041,-0.43984 z m 18.25159,-0.20946 c 0.29206,-0.12551 -0.4342,-0.20132 -2.04055,-0.21301 -1.37171,-0.01 -5.75889,-0.11735 -9.7493,-0.2386 -3.99041,-0.12124 -13.37694,-0.37681 -20.85896,-0.56793 -7.48201,-0.19112 -17.17463,-0.44699 -21.53914,-0.5686 -4.36451,-0.1216 -9.46588,-0.20645 -11.33639,-0.18855 -3.32429,0.0318 -3.28853,0.0365 1.5871,0.20915 2.7434,0.0971 11.21169,0.33681 18.8184,0.53262 30.8854,0.79502 42.29159,1.10542 44.09856,1.20008 0.31175,0.0163 0.77088,-0.058 1.02028,-0.16516 z m 0.51091,-33.04558 0.0575,-32.25203 h -1.24778 c -0.95799,0 -1.24778,0.079 -1.24778,0.34009 0,0.25002 0.26039,0.34009 0.98316,0.34009 h 0.98316 l 0.15048,12.62073 c 0.0828,6.94139 0.15048,21.17423 0.15048,31.62852 v 19.00781 h -1.02028 c -0.56115,0 -1.02027,0.0956 -1.02027,0.21236 0,0.1168 -0.33159,0.25589 -0.73687,0.3091 -0.40527,0.0532 0.0794,0.0852 1.07696,0.071 l 1.81382,-0.0257 z m -8.10629,31.89955 c -6.94488,-0.31462 -21.36593,-0.65445 -31.40181,-0.73998 -11.128,-0.0949 -10.68402,-0.073 10.31612,0.50644 8.16787,0.22539 17.09528,0.40827 19.83868,0.40641 l 4.98801,-0.003 z m 4.17027,-1.51803 c 0.071,-0.46762 0.233,-7.89012 0.36007,-16.49444 0.12708,-8.60432 0.34192,-22.46269 0.47743,-30.79638 0.13551,-8.33369 0.19551,-15.20304 0.13333,-15.26521 -0.0622,-0.0622 -15.16642,-0.16704 -33.56498,-0.23302 l -33.45194,-0.11998 -0.11682,0.53451 c -0.15619,0.71461 -0.86232,54.732 -0.77004,58.9065 l 0.0724,3.27713 20.06541,0.0389 c 19.56066,0.038 38.63135,0.43765 46.17586,0.96773 0.40119,0.0282 0.51364,-0.11996 0.61924,-0.81579 z M 169.9657,161.10579 c -0.97874,-0.47318 -1.05312,-1.1363 -0.87581,-7.80798 0.0913,-3.43563 0.25447,-6.55507 0.3626,-6.93211 0.59412,-2.07155 2.72497,-1.5462 3.02915,0.74681 0.19808,1.49322 0.2031,11.27243 0.006,12.32134 -0.1735,0.92483 -1.03457,1.94818 -1.62067,1.92611 -0.22418,-0.008 -0.6299,-0.12281 -0.9016,-0.25417 z m 0.0924,-0.58071 c -0.19717,-0.21822 -0.39989,-0.80488 -0.45049,-1.30368 l -0.092,-0.90692 -0.0381,0.9474 c -0.0242,0.60175 0.0919,1.07739 0.31817,1.30369 0.4868,0.4868 0.70799,0.45267 0.26242,-0.0405 z m 0.65618,-14.79399 c 0.21443,0 0.57645,0.16886 0.80449,0.37523 0.45352,0.41043 0.58307,0.11063 0.14256,-0.32988 -0.67097,-0.67096 -2.00391,-0.0439 -1.98633,0.93444 0.007,0.39932 0.0702,0.35278 0.32914,-0.24292 0.1832,-0.42148 0.48714,-0.73687 0.71014,-0.73687 z m 11.16378,31.79858 c -0.0172,-3.95924 -0.1007,-8.88207 -0.18544,-10.93962 -0.14613,-3.54816 -0.1562,-3.40686 -0.19536,2.74096 -0.0227,3.56508 -0.10847,8.4879 -0.19058,10.93961 -0.13599,4.06051 -0.1158,4.45765 0.22672,4.45765 0.34297,0 0.37327,-0.6327 0.34466,-7.1986 z m 1.39173,-56.97516 c -2.18855,-0.24856 -65.21971,-0.54441 -64.99538,-0.30507 0.10661,0.11374 11.21597,0.25532 25.50688,0.32508 35.70115,0.17425 41.17449,0.17148 39.4885,-0.02 z m -65.75106,-0.29442 c 0.31175,-0.0337 -0.22413,-0.10658 -1.19085,-0.16194 -1.08787,-0.0623 -1.75752,-0.0143 -1.75728,0.12606 3.4e-4,0.20287 1.26174,0.21822 2.94813,0.0359 z m 63.71051,-0.6027 c 0,-0.14868 -3.84368,-0.21145 -11.16634,-0.18234 -6.14149,0.0244 -10.09506,0.10646 -8.78571,0.18234 4.24262,0.24588 19.95205,0.24588 19.95205,0 z m -21.2482,-1.04725 21.26326,-0.14168 -0.0642,-31.495826 c -0.0565,-27.695998 -0.10525,-31.523274 -0.40431,-31.723312 -0.21272,-0.142285 -1.69872,-0.179724 -3.96773,-0.09996 -1.99521,0.07014 -12.91215,0.279696 -24.25988,0.46569 -28.28737,0.463641 -38.0043,0.722005 -38.30075,1.018378 -0.2538,0.253737 -0.49768,61.421683 -0.24749,62.073673 0.10663,0.27789 1.87848,0.30419 12.42111,0.18442 6.7632,-0.0768 21.8652,-0.20346 33.56,-0.28138 z m 9.85513,-23.465441 -0.6235,-0.465183 v -7.216224 -7.216225 l 0.71184,-0.598978 c 0.86372,-0.726774 1.68476,-0.688634 2.26493,0.105213 0.58166,0.795877 0.80828,6.588168 0.44353,11.33639 -0.2531,3.294805 -0.3054,3.546141 -0.8375,4.024419 -0.69695,0.62646 -1.15113,0.633551 -1.9593,0.03059 z m 0.57967,-0.375721 c -0.32301,-0.254454 -0.52815,-0.709552 -0.58538,-1.298644 l -0.0881,-0.906911 -0.0381,0.947398 c -0.038,0.944361 0.37244,1.66567 0.94167,1.65493 0.14697,-0.0028 0.0434,-0.181321 -0.23007,-0.396773 z m 1.23532,0.118405 c 0.37319,-0.466465 0.56426,-1.303685 0.29752,-1.303685 -0.13311,0 -0.24201,0.207257 -0.24201,0.460571 0,0.253315 -0.15304,0.519299 -0.34009,0.591077 -0.36544,0.140232 -0.4696,0.535447 -0.14113,0.535447 0.10944,0 0.301,-0.127535 0.42571,-0.28341 z m -0.45953,-0.77885 c 0.0441,-0.132204 -0.1281,-0.294824 -0.3826,-0.361377 -0.28205,-0.07376 -0.46273,-0.01126 -0.46273,0.160072 0,0.586257 0.66429,0.744448 0.84533,0.201305 z m 10.66109,-20.289185 c -0.033,-8.271102 -0.06,-1.570736 -0.06,14.889702 0,16.46044 0.027,23.2277 0.06,15.03837 0.033,-8.189338 0.033,-21.656969 10e-6,-29.928072 z m 2.77744,-4.382161 V 56.173611 h -1.47373 -1.47374 l 0.003,0.736866 c 0.002,0.479792 0.0692,0.633162 0.19198,0.439613 0.12478,-0.196755 0.56436,-0.273408 1.30021,-0.226727 l 1.1117,0.07052 0.0586,12.753439 c 0.0322,7.014391 0.10874,12.753439 0.17005,12.753439 0.0613,0 0.11148,-5.96861 0.11148,-13.263577 z M 133.70067,55.493913 c 6.74984,-0.124433 20.83842,-0.383683 31.30796,-0.576112 10.46954,-0.192428 19.08237,-0.396701 19.13961,-0.453941 0.15275,-0.152759 -1.5348,-0.134281 -20.7171,0.226842 -9.60193,0.180765 -24.3449,0.442933 -32.76217,0.582595 -8.41727,0.139663 -15.40616,0.289286 -15.53086,0.332496 -0.44159,0.153018 6.44472,0.111513 18.56256,-0.11188 z m 50.92952,-0.113849 c 0,-0.269914 -0.3275,-0.340092 -1.5871,-0.340092 -1.46144,0 -1.82941,0.135566 -1.43594,0.529032 0.0831,0.08313 0.79733,0.151152 1.58709,0.151152 1.12525,0 1.43595,-0.07359 1.43595,-0.340092 z M 99.947352,185.27231 c -6.026463,-0.36117 -45.991461,-1.45052 -53.224352,-1.45077 -5.047118,-1.7e-4 -5.158058,-0.0102 -5.158058,-0.46451 0,-0.25538 -0.264063,-0.69147 -0.586808,-0.96908 l -0.586808,-0.50475 0.242457,-13.82491 c 0.133351,-7.6037 0.358152,-21.37494 0.499557,-30.60276 0.156792,-10.23192 0.343938,-16.8857 0.479673,-17.05428 0.153348,-0.19044 0.07471,-0.46439 -0.252841,-0.8808 l -0.475413,-0.60439 0,-30.090389 c 0,-20.763019 0.07501,-30.294147 0.241981,-30.747722 0.13309,-0.361534 0.523652,-0.880124 0.867915,-1.152422 0.578602,-0.457649 0.958922,-0.505584 5.029441,-0.633915 4.086976,-0.128848 29.48964,-0.59283 51.801434,-0.946157 l 9.53439,-0.150986 0.49989,0.635508 0.49989,0.635508 -0.0583,63.880875 c -0.057,62.45739 -0.0679,63.8915 -0.49016,64.35812 -0.29643,0.32755 -0.70537,0.47725 -1.30369,0.47725 -0.47947,0 -0.87177,0.10203 -0.87177,0.22673 0,0.26188 -0.0712,0.26044 -6.688468,-0.13615 z m 5.781558,-0.77076 c 0,-0.14164 -1.08487,-0.20991 -2.89078,-0.18191 l -2.890778,0.0448 2.494008,0.1371 c 1.3717,0.0754 2.67255,0.15726 2.89078,0.18191 0.21822,0.0247 0.39677,-0.0572 0.39677,-0.18191 z m -1.38173,-0.88891 c 0.23715,-0.15014 0.33751,-0.88919 0.3921,-2.88731 0.0879,-3.21747 0.48076,-31.03608 0.65108,-46.1039 0.067,-5.92326 0.16954,-11.44011 0.22798,-12.25965 l 0.10624,-1.49008 -28.848948,-0.0936 c -15.866921,-0.0515 -30.175305,-0.0951 -31.796409,-0.097 l -2.947461,-0.003 -0.143863,3.06083 c -0.07912,1.68345 -0.324911,15.44111 -0.546192,30.57259 -0.318494,21.77911 -0.344087,27.54775 -0.122825,27.6845 0.349781,0.21618 3.992459,0.33447 31.874589,1.03513 12.345329,0.31023 23.262273,0.5945 24.259875,0.63172 4.201914,0.15676 6.594864,0.13947 6.893834,-0.0498 z m -10.338912,-23.96134 -0.59037,-0.59037 0.13626,-6.38151 c 0.07599,-3.55907 0.247456,-6.76247 0.387673,-7.24285 0.339407,-1.16281 1.082663,-1.50767 2.1512,-0.99812 0.499517,0.23821 0.845107,0.60008 0.957589,1.00273 0.0968,0.3465 0.175998,3.33373 0.175998,6.63829 0,5.98231 -0.0024,6.01221 -0.556695,6.9152 -0.306183,0.4988 -0.663279,0.98187 -0.793547,1.07348 -0.48123,0.33844 -1.29423,0.15703 -1.868108,-0.41685 z m 0.532756,-0.27771 c -0.309806,-0.34233 -0.384005,-1.02426 -0.425551,-3.91106 l -0.05032,-3.49642 -0.06897,3.46143 c -0.06741,3.38322 0.08191,4.36068 0.666183,4.36068 0.143134,0 0.0902,-0.18088 -0.121342,-0.41463 z m 1.205297,0.19675 c 0.183439,-0.11601 0.285306,-0.25914 0.226372,-0.31808 -0.05894,-0.0589 -0.305043,0.0375 -0.546906,0.2144 -0.48371,0.3537 -0.213171,0.44121 0.320534,0.10368 z m -1.288024,-14.06629 c 0.06526,-0.24957 0.02615,-0.39659 -0.08692,-0.32671 -0.113071,0.0699 -0.205583,0.27408 -0.205583,0.45377 0,0.46927 0.154061,0.40235 0.292504,-0.12706 z m 11.234193,26.92424 -0.0364,-11.39307 -0.17492,9.63593 c -0.0962,5.29976 -0.20812,10.42664 -0.24868,11.39307 -0.0545,1.29919 5.5e-4,1.75714 0.21134,1.75714 0.22567,0 0.2775,-2.37463 0.24867,-11.39307 z m 2.98388,-20.12209 v -31.51517 h -1.247 c -1.17899,0 -1.247,0.0309 -1.247,0.56682 0,0.5062 0.0931,0.56682 0.87056,0.56682 h 0.87056 l 0.14971,5.81834 c 0.0823,3.20009 0.14972,17.12684 0.14972,30.94834 0,16.60219 0.0769,25.13001 0.22672,25.13001 0.15007,0 0.22673,-10.6562 0.22673,-31.51516 z M 103.575,120.10689 c -2.09618,-0.16836 -56.820167,-0.35909 -58.042321,-0.20229 -1.011993,0.12983 22.72815,0.32238 42.624827,0.34571 9.601922,0.0113 16.539794,-0.0533 15.417494,-0.14342 z m 5.10137,0.004 c 0,-0.1247 -0.045,-0.22673 -0.1,-0.22673 -0.055,0 -0.16304,0.10203 -0.24011,0.22673 -0.0771,0.1247 -0.0321,0.22673 0.1,0.22673 0.13206,0 0.24011,-0.10203 0.24011,-0.22673 z m -64.674104,-0.16239 c -0.342926,-0.0519 -0.904077,-0.0519 -1.247003,0 -0.342925,0.0519 -0.06235,0.0945 0.623502,0.0945 0.685851,0 0.966427,-0.0425 0.623501,-0.0945 z M 108.67637,88.482323 c 0,-27.358488 -0.0395,-30.948345 -0.34009,-30.948345 -0.30025,0 -0.34004,2.928361 -0.33963,24.99674 4.8e-4,25.543572 0.15109,36.899952 0.48938,36.899952 0.10469,0 0.19034,-13.92676 0.19034,-30.948347 z m -3.40731,-0.452121 -0.0184,-31.173737 -0.46836,-0.250662 c -0.3247,-0.173773 -1.90311,-0.206296 -5.14565,-0.106027 -2.572504,0.07955 -15.798279,0.346501 -29.39061,0.593225 -25.191803,0.457275 -28.056336,0.535089 -28.4406,0.772577 -0.138111,0.08536 -0.224388,11.347993 -0.234765,30.646381 l -0.0164,30.511431 5.616864,-0.18443 c 7.107007,-0.23335 43.283578,-0.16526 50.50897,0.0951 2.992806,0.10783 5.928806,0.21267 6.524436,0.23298 l 1.08298,0.0369 z m -10.500415,7.808611 c -0.998107,-0.785112 -1.101487,-1.635063 -1.019097,-8.378652 0.08144,-6.666009 0.156725,-7.122723 1.217988,-7.389084 0.926826,-0.232618 1.613507,0.402212 1.915882,1.771216 0.371398,1.681508 0.545677,8.936691 0.276349,11.504332 -0.186817,1.781026 -0.309879,2.212424 -0.727616,2.550687 -0.645738,0.522887 -0.937433,0.512629 -1.663506,-0.0585 z m 0.190897,-15.09342 c 0.234607,-0.171549 0.338571,-0.311907 0.231031,-0.311907 -0.580882,0 -1.023411,0.797534 -0.994486,1.79228 l 0.03029,1.041817 0.153302,-1.105141 c 0.09516,-0.686037 0.315066,-1.223427 0.57986,-1.417049 z m 0.597613,0.416396 c -0.16357,-0.05452 -0.405198,0.0087 -0.53695,0.140416 -0.168247,0.168247 -0.07973,0.197754 0.297401,0.09913 0.306582,-0.08017 0.409356,-0.182947 0.239549,-0.239549 z m 0.827484,-0.09238 c -0.181757,-0.273741 -0.464201,-0.542289 -0.627652,-0.596773 -0.185145,-0.06171 -0.135091,0.123239 0.132767,0.490587 0.520787,0.714221 0.961375,0.808757 0.494885,0.106186 z M 56.528977,56.857123 c 6.172665,-0.12153 20.302734,-0.383812 31.400153,-0.582848 11.09742,-0.199036 20.22038,-0.405137 20.27324,-0.458002 0.14296,-0.142956 -2.70558,-0.119646 -15.966201,0.130657 -6.607775,0.124725 -20.477312,0.383189 -30.821195,0.574364 -10.343882,0.191175 -18.854677,0.395209 -18.912877,0.453409 -0.146169,0.146169 1.206757,0.134828 14.02688,-0.11758 z m 52.147393,-0.116692 c 0,-0.270471 -0.33058,-0.340092 -1.61485,-0.340092 -1.40972,0 -1.57901,0.0432 -1.33261,0.340092 0.19231,0.231714 0.70692,0.340091 1.61486,0.340091 1.03338,0 1.3326,-0.07636 1.3326,-0.340091 z m 2.09723,79.914479 c -0.60098,-0.24156 -0.6422,-0.50866 -0.15385,-0.99701 0.35769,-0.35768 1.5627,-0.47571 2.23254,-0.21867 0.5581,0.21417 0.45012,1.14535 -0.1515,1.30657 -0.68926,0.18472 -1.31493,0.15521 -1.92719,-0.0909 z m 1.5871,-0.6064 c -0.28058,-0.054 -0.7397,-0.054 -1.02028,0 -0.28057,0.0541 -0.051,0.0983 0.51014,0.0983 0.56115,0 0.79071,-0.0442 0.51014,-0.0983 z m 20.23546,52.07535 c -2.86811,-0.0854 -8.68368,-0.2058 -12.92349,-0.26766 -4.23981,-0.0619 -6.73948,-0.0732 -5.55483,-0.0253 5.43537,0.22001 15.47417,0.45355 19.38523,0.45098 l 4.30782,-0.003 z m 55.49241,-0.40781 c -0.22305,-0.14164 -0.2949,-6.93921 -0.34088,-32.24856 l -0.0583,-32.06909 -0.0559,32.25203 c -0.053,30.5875 -0.0354,32.25185 0.34088,32.24856 0.28222,-0.002 0.31518,-0.0553 0.11415,-0.18294 z m -78.89093,-0.20882 c -1.02265,-0.0419 -2.75712,-0.0421 -3.85437,-4.7e-4 -1.09725,0.0416 -0.26053,0.0759 1.85937,0.0762 2.11991,2.6e-4 3.01766,-0.0338 1.995,-0.0757 z m -8.2867,-0.22704 c -1.091123,-0.0416 -2.876604,-0.0416 -3.967732,0 -1.091127,0.0416 -0.198386,0.0756 1.983869,0.0756 2.182253,0 3.074993,-0.034 1.983863,-0.0756 z m -11.393067,-0.29511 c -2.618706,-0.084 -6.393724,-0.14501 -8.388929,-0.13557 l -3.627645,0.0171 4.194465,0.12889 c 2.306955,0.0709 6.081973,0.13189 8.388928,0.13557 l 4.194465,0.007 z m -14.57873,-0.38534 c -1.159785,-0.0412 -2.99628,-0.041 -4.0811,4.4e-4 -1.08482,0.0415 -0.135905,0.0752 2.1087,0.075 2.244605,-2.3e-4 3.132185,-0.0342 1.9724,-0.0754 z m -8.138956,-0.22642 c -1.147001,-0.0411 -3.085523,-0.0412 -4.307828,-3.9e-4 -1.222305,0.0408 -0.28385,0.0744 2.085455,0.0747 2.369306,2.2e-4 3.369374,-0.0332 2.222373,-0.0743 z m -8.503304,-0.22629 c -0.960506,-0.0424 -2.592946,-0.0426 -3.627645,-5.2e-4 -1.034698,0.0421 -0.248829,0.0768 1.746375,0.0771 1.995205,2.9e-4 2.841777,-0.0342 1.88127,-0.0766 z m -7.821742,-0.22689 c -1.022655,-0.0419 -2.757122,-0.0421 -3.854373,-4.8e-4 -1.09725,0.0417 -0.260533,0.076 1.859372,0.0762 2.119905,2.6e-4 3.017656,-0.0338 1.995001,-0.0757 z m -6.92633,-0.22339 c -0.467626,-0.0489 -1.232833,-0.0489 -1.700459,0 -0.467626,0.0489 -0.08502,0.0889 0.850229,0.0889 0.935253,0 1.317856,-0.04 0.85023,-0.0889 z M 45.986135,54.055297 c 0.498801,-0.03836 -0.39394,-0.08757 -1.983869,-0.109353 -1.589928,-0.02179 -2.891017,0.03691 -2.891308,0.130435 -4.88e-4,0.156528 2.718478,0.14477 4.875177,-0.02108 z m 10.362877,-0.317511 c -0.909533,-0.04315 -2.337918,-0.04286 -3.174189,6.43e-4 -0.836271,0.0435 -0.09211,0.0788 1.653696,0.07845 1.745804,-3.54e-4 2.430026,-0.03594 1.520493,-0.07909 z m 11.692395,-0.222987 c -0.46433,-0.04872 -1.28055,-0.04939 -1.813823,-0.0015 -0.533272,0.0479 -0.153366,0.08776 0.844236,0.08858 0.997603,8.23e-4 1.433916,-0.03836 0.969587,-0.08708 z m 10.997146,-0.227598 c -0.526214,-0.04755 -1.444461,-0.04812 -2.04055,-0.0013 -0.596089,0.04686 -0.165551,0.08576 0.956752,0.08646 1.122302,6.91e-4 1.610012,-0.03765 1.083798,-0.0852 z m 11.446973,-0.223054 c -0.340692,-0.05173 -0.952857,-0.05277 -1.360366,-0.0023 -0.40751,0.05046 -0.128761,0.09279 0.619441,0.09406 0.748201,0.0013 1.081618,-0.04001 0.740925,-0.09175 z m 97.505524,-0.664198 c -0.0832,-0.4233 -1.24527,-1.364971 -1.44182,-1.168417 -0.14079,0.140786 1.02589,1.470646 1.32845,1.514256 0.10267,0.0148 0.15368,-0.140829 0.11337,-0.345839 z m 2.25471,176.604971 c -0.34069,-0.0517 -0.95286,-0.0528 -1.36037,-0.002 -0.40751,0.0505 -0.12876,0.0928 0.61944,0.0941 0.74821,0.001 1.08162,-0.04 0.74093,-0.0917 z m -5.45058,-0.23019 c -0.47041,-0.0491 -1.1846,-0.0483 -1.5871,0.002 -0.40249,0.0501 -0.0176,0.0902 0.85529,0.0892 0.8729,-0.001 1.20221,-0.042 0.73181,-0.0911 z m -5.54978,-0.22528 c -0.40527,-0.0503 -1.06845,-0.0503 -1.47373,0 -0.40528,0.0503 -0.0737,0.0914 0.73687,0.0914 0.81055,0 1.14214,-0.0411 0.73686,-0.0914 z m -6.23237,-0.21849 c -0.21677,-0.0567 -0.62488,-0.0588 -0.90691,-0.005 -0.28203,0.0542 -0.10467,0.10066 0.39413,0.10318 0.4988,0.003 0.72955,-0.0419 0.51278,-0.0986 z M 167.68228,228.1 c -0.28057,-0.054 -0.7397,-0.054 -1.02027,0 -0.28058,0.054 -0.051,0.0983 0.51014,0.0983 0.56115,0 0.79071,-0.0442 0.51013,-0.0983 z m -5.66819,-0.22673 c -0.28058,-0.054 -0.7397,-0.054 -1.02028,0 -0.28057,0.054 -0.051,0.0983 0.51014,0.0983 0.56115,0 0.79071,-0.0442 0.51014,-0.0983 z m -5.44147,-0.22672 c -0.28057,-0.054 -0.7397,-0.054 -1.02027,0 -0.28058,0.054 -0.051,0.0983 0.51013,0.0983 0.56115,0 0.79072,-0.0442 0.51014,-0.0983 z M 18.211979,119.77814 c 0,-100.563138 -0.01255,-103.676424 -0.41931,-104.044539 -0.406743,-0.368097 -0.423744,-0.177205 -0.567304,6.369921 -0.838798,38.253876 -0.699774,166.201918 0.214095,197.037438 0.120907,4.0796 0.1916,4.78436 0.457754,4.56347 0.267694,-0.22216 0.314765,-15.76341 0.314765,-103.92629 z m 1.302566,95.95516 c -0.04115,-1.15348 -0.07482,-0.20972 -0.07482,2.09723 0,2.30696 0.03367,3.25071 0.07482,2.09723 0.04115,-1.15347 0.04115,-3.04098 0,-4.19446 z M 19.284537,19.575485 c -0.03624,-1.558827 -0.139244,-2.277704 -0.335693,-2.342854 -0.226235,-0.07503 -0.276556,10.21281 -0.249435,50.995342 l 0.03397,51.089327 0.301719,-48.746474 c 0.165945,-26.810562 0.27819,-49.758465 0.249435,-50.995341 z m 2.611768,-2.332337 c -0.280575,-0.05404 -0.739699,-0.05404 -1.020275,0 -0.280575,0.05404 -0.05101,0.09826 0.510138,0.09826 0.561151,0 0.790713,-0.04422 0.510137,-0.09826 z M 28.358048,17.0083 c -0.841727,-0.04362 -2.219099,-0.04362 -3.060826,0 -0.841727,0.04362 -0.153041,0.07932 1.530413,0.07932 1.683454,0 2.37214,-0.03569 1.530413,-0.07932 z m 7.490902,-0.225882 c -0.71214,-0.04485 -1.93647,-0.04521 -2.720733,-8.15e-4 -0.784264,0.0444 -0.201604,0.08109 1.2948,0.08154 1.496403,4.49e-4 2.138073,-0.03588 1.425933,-0.08073 z m 7.480733,-0.225787 c -0.588146,-0.04653 -1.608421,-0.04702 -2.267278,-0.0011 -0.658857,0.04594 -0.177646,0.08402 1.069357,0.08461 1.247003,5.91e-4 1.786067,-0.037 1.197921,-0.08354 z m 7.253683,-0.225191 c -0.46433,-0.04872 -1.28055,-0.04939 -1.813823,-0.0015 -0.533272,0.0479 -0.153366,0.08776 0.844236,0.08858 0.997603,8.23e-4 1.433917,-0.03836 0.969587,-0.08708 z m 6.909205,-0.221931 c -0.280576,-0.05404 -0.7397,-0.05404 -1.020276,0 -0.280575,0.05404 -0.05101,0.09826 0.510138,0.09826 0.561151,0 0.790713,-0.04422 0.510138,-0.09826 z m -31.005028,-0.40676 c 4.391132,-0.109445 24.405615,-0.721939 59.289321,-1.814404 5.923264,-0.185501 15.768916,-0.491887 21.879236,-0.680858 13.53417,-0.418565 50.14868,-1.576439 89.89757,-2.842863 l 14.62394,-0.4659284 0.67583,-0.6689611 0.67582,-0.668961 -1.6961,0.012664 c -5.81582,0.043423 -194.298839,5.8041577 -194.437404,5.9427217 -0.09405,0.09405 0.124993,0.47994 0.486756,0.857539 0.63063,0.658235 0.71876,0.681736 2.137385,0.569958 0.813799,-0.06412 3.72424,-0.17253 6.467646,-0.240907 z M 205.3191,10.664038 c -0.40528,-0.0503 -1.06846,-0.0503 -1.47373,0 -0.40528,0.05029 -0.0737,0.09144 0.73686,0.09144 0.81056,0 1.14214,-0.04115 0.73687,-0.09144 z m 5.7842,-0.218495 c -0.21677,-0.05675 -0.62488,-0.05881 -0.90691,-0.0046 -0.28203,0.05423 -0.10467,0.100662 0.39413,0.103179 0.4988,0.0025 0.72955,-0.04185 0.51278,-0.0986 z"
       id="path1" /></g></svg>
