<?xml version="1.0" encoding="UTF-8" standalone="no"?>
<!-- Created with Inkscape (http://www.inkscape.org/) -->

<svg
   width="960"
   height="960"
   viewBox="0 0 253.99999 254"
   version="1.1"
   id="svg1"
   xml:space="preserve"
   inkscape:version="1.4.4 (dcaf3e7, 2026-05-05)"
   sodipodi:docname="2gng.svg"
   xmlns:inkscape="http://www.inkscape.org/namespaces/inkscape"
   xmlns:sodipodi="http://sodipodi.sourceforge.net/DTD/sodipodi-0.dtd"
   xmlns="http://www.w3.org/2000/svg"
   xmlns:svg="http://www.w3.org/2000/svg"><sodipodi:namedview
     id="namedview1"
     pagecolor="#ffffff"
     bordercolor="#000000"
     borderopacity="0.25"
     inkscape:showpageshadow="2"
     inkscape:pageopacity="0.0"
     inkscape:pagecheckerboard="0"
     inkscape:deskcolor="#d1d1d1"
     inkscape:document-units="mm"
     inkscape:zoom="0.86056397"
     inkscape:cx="396.25177"
     inkscape:cy="468.29755"
     inkscape:window-width="2121"
     inkscape:window-height="1115"
     inkscape:window-x="0"
     inkscape:window-y="30"
     inkscape:window-maximized="0"
     inkscape:current-layer="layer1" /><defs
     id="defs1" /><g
     inkscape:label="Camada 1"
     inkscape:groupmode="layer"
     id="layer1"><path
       style="fill:#000000"
       d="M 167.88124,246.96816 C 135.51346,246.74082 99.855231,246.01697 68.669069,244.9542 57.428728,244.57115 57.572064,244.59031 56.117523,243.27622 54.626235,241.92893 54.589576,241.8005 54.401774,237.2655 54.309523,235.03781 54.151095,186.89286 54.049713,130.27671 53.935699,66.606839 53.792309,25.457629 53.673831,22.408385 c -0.240499,-6.189674 -0.193798,-6.48626 1.239229,-7.870015 0.832064,-0.803455 2.044388,-1.377841 3.229272,-1.529995 2.352084,-0.302038 67.550538,-1.698229 109.273128,-2.340027 6.76319,-0.104035 14.97964,-0.283414 18.25876,-0.398619 6.41431,-0.225353 7.93991,-0.130441 9.58251,0.596159 1.03477,0.457728 1.57982,0.942452 2.27468,2.022939 l 0.53269,0.828311 0.001,26.18721 c 0.001,25.010506 0.13923,60.859792 0.55009,142.819742 0.33398,66.62434 0.34842,59.30145 -0.11892,60.31303 -0.96044,2.07896 -2.99867,3.49292 -5.57104,3.86472 -1.17624,0.17001 -7.78799,0.18752 -25.0442,0.0663 z m 25.69709,-2.95982 c 0.57576,-0.17098 0.90827,-0.36275 0.83488,-0.4815 -0.0832,-0.13468 -0.1655,-0.12691 -0.25906,0.0245 -0.0998,0.16141 -0.16661,0.14493 -0.24544,-0.0605 -0.0779,-0.20295 -0.008,-0.26294 0.24963,-0.21339 0.39907,0.0769 0.66354,-0.18993 0.36883,-0.37206 -0.10414,-0.0644 -0.18806,-0.21688 -0.1865,-0.33892 0.002,-0.13538 0.0705,-0.11497 0.1763,0.0523 0.14667,0.23193 0.19405,0.22053 0.307,-0.0738 0.0735,-0.19144 0.077,-41.35516 0.008,-91.47493 -0.0691,-50.11977 -0.12779,-101.567588 -0.1303,-114.328489 l -0.005,-23.201638 -0.78509,-0.342665 c -0.94123,-0.410819 -2.55506,-0.597803 -2.55506,-0.296038 0,0.113308 0.0838,0.154197 0.18631,0.09086 0.10248,-0.06333 0.18632,0.02051 0.18632,0.186314 0,0.18844 0.0873,0.251215 0.23289,0.167439 0.12809,-0.07371 0.16983,-0.0645 0.0927,0.02046 -0.0771,0.08497 -0.0244,0.287053 0.11714,0.449078 0.21521,0.246418 0.27623,4.80366 0.37315,27.869054 0.11023,26.231596 0.17129,199.954927 0.0704,200.395597 -0.0943,0.41205 -1.08069,1.26125 -1.58445,1.36408 -0.76604,0.15637 -0.0434,0.16411 -31.44108,-0.33663 -16.08821,-0.25657 -37.71926,-0.5964 -48.06899,-0.75516 -10.34974,-0.15877 -23.428982,-0.37062 -29.064979,-0.47078 -5.635997,-0.10016 -13.211248,-0.22789 -16.833891,-0.28383 -7.120136,-0.10995 -7.322699,-0.13908 -7.983868,-1.14816 -0.176542,-0.26943 -0.354243,-0.62401 -0.394891,-0.78795 -0.04065,-0.16394 -0.09418,-50.01595 -0.118963,-110.78224 -0.04273,-104.765693 -0.02823,-110.520008 0.280042,-111.17658 0.25503,-0.543168 0.275506,-0.73357 0.095,-0.883375 -0.126555,-0.10503 -0.271292,-0.149772 -0.32164,-0.09942 -0.05035,0.05035 -0.09154,-0.03289 -0.09154,-0.184973 0,-0.190718 0.06794,-0.220124 0.218982,-0.09477 0.120441,0.09996 0.281137,0.119586 0.357102,0.04362 0.07597,-0.07597 0.110172,-0.05428 0.07602,0.0482 -0.09235,0.277061 0.257302,0.261894 0.703581,-0.03052 0.488254,-0.319916 0.758358,-0.3301 23.920911,-0.90189 10.093558,-0.249169 19.693386,-0.499887 21.332946,-0.557151 1.63956,-0.05726 4.53209,-0.139716 6.42783,-0.183228 21.85614,-0.501644 42.87986,-1.064518 44.90166,-1.202165 2.02612,-0.13794 1.26526,-0.15933 -3.91259,-0.109994 -3.53531,0.03369 -8.77539,0.108279 -11.64462,0.165765 -2.86924,0.05748 -8.71395,0.162604 -12.98825,0.233596 -4.2743,0.07099 -7.74076,0.178744 -7.70324,0.239448 0.0375,0.0607 -2.08269,0.110371 -4.71158,0.110371 -2.62889,0 -7.84,0.06182 -11.58025,0.137386 -3.740253,0.07556 -13.130475,0.262633 -20.867162,0.415715 -7.736686,0.153082 -15.366242,0.365329 -16.954568,0.471662 -1.588327,0.106332 -3.360979,0.143309 -3.939229,0.08217 -0.615137,-0.06504 -1.098366,-0.03511 -1.164648,0.07214 -0.06231,0.100815 -0.268549,0.142697 -0.458317,0.09307 -1.010323,-0.264205 -3.098164,1.05282 -2.572244,1.62259 0.165357,0.179144 0.161413,0.20324 -0.0168,0.102627 -0.128091,-0.07232 -0.239307,-0.06366 -0.247148,0.01924 -0.0078,0.0829 -0.0424,0.297853 -0.0768,0.477668 -0.0344,0.179815 0.0079,0.283399 0.094,0.230187 0.0861,-0.05321 0.198509,0.05119 0.2498,0.232005 0.05129,0.180815 0.1429,39.524551 0.203577,87.430521 0.144227,113.87036 0.229796,134.23649 0.566736,134.88806 0.524544,1.01436 0.977568,1.17939 3.395997,1.23714 0.944624,0.0225 1.783037,0.0789 1.863139,0.12526 0.169513,0.0981 3.330471,0.21855 15.51654,0.59145 4.867452,0.14895 10.317135,0.31703 12.110406,0.37351 13.247711,0.41726 42.955961,0.99331 59.154681,1.14703 6.96814,0.0661 12.70518,0.15148 12.74898,0.18968 0.0438,0.0382 6.93086,0.0667 15.30456,0.0633 13.08977,-0.005 15.35911,-0.046 16.18178,-0.29034 z m -0.84458,-1.33286 c 0.0677,-0.0677 0.30455,-0.15085 0.52625,-0.18468 0.52536,-0.0802 0.32499,0.12019 -0.22638,0.22638 -0.23267,0.0448 -0.36762,0.026 -0.29987,-0.0417 z M 58.39075,15.981304 c 0,-0.149201 0.07124,-0.227249 0.158301,-0.17344 0.08707,0.05381 0.110065,0.175884 0.05111,0.271275 -0.150658,0.24377 -0.20941,0.216322 -0.20941,-0.09784 z m 134.5617,-1.350936 c -0.10111,-0.265535 -0.0797,-0.286935 0.10429,-0.104298 0.12733,0.126383 0.18458,0.276721 0.12722,0.334085 -0.0574,0.05736 -0.16155,-0.04604 -0.23151,-0.229787 z m 3.16241,195.510022 c -0.6093,-148.625944 -0.81748,-191.126387 -0.93675,-191.240436 -0.076,-0.07268 -0.0875,6.072118 -0.0255,13.655095 0.062,7.582978 0.13213,58.069393 0.15593,112.192031 l 0.0433,98.4048 0.44614,-0.74814 0.44614,-0.74814 z m -4.80234,32.62627 c 0.18175,-0.14844 0.18517,-0.25235 0.015,-0.45734 -0.12108,-0.1459 -0.14308,-0.25061 -0.0489,-0.23269 0.62513,0.1189 0.77422,-0.0304 0.74348,-0.74467 -0.0174,-0.40322 0.026,-0.69757 0.0963,-0.65411 0.1545,0.0955 0.12544,-96.60398 -0.0515,-171.512111 -0.0706,-29.870783 -0.13345,-54.336422 -0.13974,-54.368088 -0.006,-0.03167 -0.11622,0.0016 -0.24431,0.07391 -0.18428,0.104037 -0.1852,0.08003 -0.004,-0.114991 0.16727,-0.180468 0.17364,-0.312529 0.0238,-0.493118 -0.11258,-0.135652 -0.13385,-0.246641 -0.0473,-0.246641 0.0866,0 -0.0499,-0.146722 -0.30323,-0.326049 -0.48563,-0.343718 -0.41891,-0.342234 -7.26112,-0.16143 -1.28091,0.03385 -5.43106,0.119912 -9.22254,0.191253 -3.79149,0.07134 -7.01938,0.162643 -7.17309,0.202891 -0.15371,0.04025 -3.13008,0.122071 -6.61415,0.181828 -3.48407,0.05976 -7.17308,0.144838 -8.19781,0.189068 -1.02473,0.04423 -4.00109,0.126779 -6.61414,0.183442 -2.61306,0.05666 -5.96671,0.14341 -7.45256,0.19277 -4.83946,0.160765 -9.13258,0.273704 -14.0667,0.370051 -2.66429,0.05203 -6.22755,0.135326 -7.91835,0.185113 -1.6908,0.04979 -4.91869,0.134705 -7.17308,0.188707 -2.2544,0.054 -7.03336,0.178568 -10.619898,0.276814 -3.586544,0.09825 -8.407417,0.221873 -10.713052,0.274727 -4.807752,0.110213 -12.895725,0.324965 -13.927526,0.369804 -0.383965,0.01669 -2.242195,0.04671 -4.1294,0.06672 -1.887205,0.02001 -3.389303,0.07836 -3.337995,0.129663 0.05131,0.05131 0.446017,0.107108 0.877133,0.124 0.431116,0.01689 0.69227,0.08731 0.580344,0.156486 -0.111927,0.06918 -0.681306,0.04936 -1.265287,-0.04404 -0.583982,-0.0934 -2.678861,-0.142914 -4.655287,-0.110037 -2.945613,0.049 -3.625325,0.110164 -3.770005,0.339247 -0.09708,0.153709 -0.178099,0.19563 -0.180051,0.09316 -0.002,-0.102472 -0.16605,0.08019 -0.364663,0.405921 -0.33031,0.541717 -0.366009,1.034392 -0.41851,5.775732 -0.07469,6.745437 -0.07491,190.582555 -2.39e-4,204.812545 0.0359,6.84094 0.125895,10.97584 0.24194,11.11567 0.122957,0.14815 0.119249,0.26315 -0.01108,0.3437 -0.136915,0.0846 -0.136824,0.23137 3.01e-4,0.48759 0.107891,0.2016 0.277878,0.31604 0.377748,0.25432 0.09987,-0.0617 0.158544,-0.001 0.130387,0.13451 -0.02816,0.13571 0.05361,0.22578 0.181698,0.20017 0.128091,-0.0256 0.232893,0.0416 0.232893,0.14931 0,0.11362 0.410755,0.19083 0.978148,0.18385 0.537981,-0.007 4.751005,0.0665 9.362275,0.16248 4.61127,0.096 11.486255,0.22427 15.277743,0.2851 3.791489,0.0608 11.672569,0.18843 17.513506,0.28356 5.84095,0.0951 10.8295,0.16217 11.08568,0.14897 0.25619,-0.0132 3.48407,0.0357 7.17309,0.10864 3.68902,0.073 14.96567,0.26341 25.05923,0.42323 42.50417,0.67301 45.60832,0.70004 45.97526,0.40037 z m -0.60782,-0.32895 c -0.3207,-0.35437 -0.57544,-0.37275 -5.19909,-0.37499 -2.67402,-0.001 -10.0181,-0.0813 -16.32017,-0.17784 -6.30207,-0.0965 -15.60845,-0.22136 -20.68085,-0.27742 -5.07239,-0.0561 -10.89936,-0.14264 -12.94882,-0.19238 -2.04945,-0.0497 -7.54105,-0.1361 -12.20356,-0.1919 -4.66251,-0.0558 -10.86676,-0.14313 -13.78723,-0.19406 -2.92047,-0.0509 -13.819837,-0.21319 -24.220813,-0.36057 -10.400976,-0.14737 -20.420802,-0.29935 -22.266281,-0.33772 -3.601076,-0.0749 -4.021274,-0.17653 -4.362002,-1.0553 -0.100431,-0.25902 -0.231087,-2.69274 -0.290347,-5.40826 -0.178563,-8.18251 -0.227439,-215.378923 -0.05081,-215.378923 0.08922,0 0.115833,-0.07506 0.05914,-0.166791 -0.05669,-0.09173 0.0309,-0.218204 0.19465,-0.281042 0.16845,-0.06464 0.251798,-0.23395 0.191948,-0.389915 -0.05818,-0.151616 -0.04592,-0.266743 0.02725,-0.255837 0.398752,0.05943 0.606448,-0.04973 0.489321,-0.257191 -0.105189,-0.186314 -0.0813,-0.186314 0.119424,0 0.320968,0.297919 0.992935,0.312666 0.810692,0.01779 -0.0903,-0.146106 -0.05009,-0.163898 0.125349,-0.05547 0.311372,0.192438 1.538273,0.171367 20.945917,-0.359715 1.639563,-0.04487 4.951293,-0.126958 7.359401,-0.182426 2.408108,-0.05547 6.013282,-0.149926 8.011499,-0.209904 7.217973,-0.216655 8.505523,-0.252621 10.247263,-0.286242 3.41967,-0.06601 24.66042,-0.583312 38.1012,-0.927922 3.89397,-0.09984 9.00828,-0.225553 11.36516,-0.279366 2.35687,-0.05381 5.16555,-0.139221 6.24151,-0.189794 1.07597,-0.05057 3.88465,-0.129213 6.24152,-0.174756 2.35687,-0.04554 8.10769,-0.183491 12.77959,-0.306551 6.96875,-0.183561 8.59334,-0.179937 9.04543,0.02018 0.61452,0.272013 1.08995,1.039067 0.76753,1.238331 -0.13612,0.08413 -0.15883,7.303633 -0.0746,23.708575 0.0666,12.973185 0.12275,63.789501 0.12471,112.925141 l 0.004,89.33754 -0.47015,0.37947 c -0.44392,0.35831 -0.45235,0.39729 -0.15095,0.69868 0.17556,0.17556 0.27231,0.3192 0.215,0.3192 -0.0573,0 -0.25596,-0.16768 -0.44143,-0.37262 z m 0.10123,-1.05144 c 0.32137,-0.32136 0.40154,-48.14045 0.23645,-141.03091 -0.12752,-71.746092 -0.19165,-85.211968 -0.40707,-85.471518 -0.31336,-0.377557 -3.50586,-0.406746 -13.06574,-0.119461 -6.39585,0.192203 -56.76111,1.483842 -90.548578,2.322158 -24.23309,0.601259 -27.352054,0.726936 -27.743074,1.117897 -0.263248,0.263209 -0.314269,1.758667 -0.446927,13.099604 -0.175612,15.013152 0.0106,202.3744 0.204326,205.58496 0.09893,1.63958 0.207371,2.25876 0.435418,2.48621 0.381805,0.38082 5.179303,0.53584 25.407647,0.82102 7.787923,0.1098 22.502068,0.3218 32.698098,0.47112 10.19603,0.14931 28.2219,0.40159 40.0575,0.56061 11.83559,0.15902 22.8188,0.31478 24.40712,0.34614 4.97025,0.0981 8.55571,0.0213 8.76483,-0.18783 z m -58.69696,-36.96751 c -36.771862,-0.41748 -47.805453,-0.58533 -48.767329,-0.74188 -0.837841,-0.13636 -1.196521,-0.30986 -1.717432,-0.83076 l -0.65842,-0.6584 -0.0658,-24.32378 c -0.03619,-13.37808 -0.0096,-24.6988 0.05917,-25.15716 0.183787,-1.22558 0.968141,-2.04198 2.100649,-2.18649 1.415803,-0.18065 47.136077,-1.10934 75.598887,-1.5356 l 7.45256,-0.11161 0.6521,0.80567 0.6521,0.80568 v 26.18078 c 0,28.07128 0.0323,27.09109 -0.91055,27.63184 -0.48883,0.28036 -15.6857,0.33414 -34.39594,0.12171 z m 33.74121,-0.88018 0.54617,-0.6116 -0.0494,-26.17785 c -0.0435,-23.03037 -0.083,-26.19908 -0.32886,-26.35448 -0.15371,-0.0971 -0.20376,-0.17792 -0.11122,-0.17949 0.0925,-0.002 -0.0163,-0.16287 -0.24175,-0.35844 -0.53985,-0.46821 -2.07302,-0.47732 -20.0484,-0.11921 -7.68545,0.15312 -19.00403,0.3687 -25.15239,0.47907 -27.42374,0.4923 -37.288458,0.71579 -37.635411,0.85263 -0.40283,0.15888 -0.838413,0.53526 -0.838413,0.72445 0,0.0646 0.0968,0.0576 0.215101,-0.0155 0.130252,-0.0805 0.164645,-0.0513 0.08719,0.074 -0.07035,0.11383 -0.247477,0.16108 -0.393613,0.105 -0.321956,-0.12355 -0.509535,0.51059 -0.519923,1.75767 -0.004,0.48169 0.0068,11.4011 0.02393,24.26536 0.02869,21.48972 0.05642,23.42553 0.341479,23.8325 0.228243,0.32587 0.24018,0.4017 0.04516,0.28687 -0.145806,-0.0858 -0.107174,0.024 0.08585,0.24418 0.193022,0.22014 0.425663,0.35408 0.516979,0.29765 0.09132,-0.0564 0.142993,-0.002 0.114836,0.12084 -0.02816,0.1229 0.06528,0.26577 0.207631,0.31749 0.173197,0.0629 0.214856,0.009 0.125919,-0.16303 -0.0731,-0.14138 -0.02087,-0.12159 0.116056,0.044 0.222655,0.26923 1.528486,0.3137 12.357116,0.42077 6.659482,0.0658 13.952662,0.16042 16.207062,0.21016 2.25439,0.0497 9.59051,0.14475 16.30247,0.21113 6.71196,0.0664 17.06635,0.18139 23.00977,0.25558 5.94341,0.0742 11.63067,0.12519 12.63835,0.11335 1.82479,-0.0214 1.83434,-0.024 2.37831,-0.63313 z m -0.28588,-1.29007 c -0.10111,-0.26554 -0.0797,-0.28694 0.10429,-0.1043 0.12733,0.12638 0.18458,0.27672 0.12722,0.33409 -0.0574,0.0574 -0.16155,-0.046 -0.23151,-0.22979 z m -3.95139,-0.57017 c 0.0876,-0.14167 -1.91326,-0.20459 -6.81825,-0.21441 -3.81819,-0.008 -9.12204,-0.0578 -11.78633,-0.11152 -2.66429,-0.0537 -14.10862,-0.17871 -25.43185,-0.2778 -11.32323,-0.0991 -23.344136,-0.23236 -26.713123,-0.29617 -4.91318,-0.093 -6.096617,-0.0694 -5.979837,0.11957 0.09544,0.15443 0.07046,0.18914 -0.07255,0.10076 -0.119977,-0.0742 -0.177711,-0.20024 -0.128299,-0.28019 0.117069,-0.18942 -0.760326,-0.95335 -0.916072,-0.79761 -0.06543,0.0654 -0.06363,-0.0252 0.004,-0.20141 0.07063,-0.18405 0.03518,-0.32037 -0.08331,-0.32037 -0.113436,0 -0.185287,-0.10481 -0.159669,-0.2329 0.02562,-0.12809 -0.04636,-0.21588 -0.159947,-0.1951 -0.139321,0.0255 -0.189904,-0.3989 -0.155447,-1.3042 0.02809,-0.73809 0.10298,-6.62398 0.166417,-13.07976 0.06344,-6.45578 0.16232,-14.04342 0.219742,-16.86141 0.161326,-7.91709 0.174569,-12.83867 0.03549,-13.18888 -0.09813,-0.24709 -0.130231,-0.25596 -0.142588,-0.0394 -0.01382,0.24215 -0.0388,0.24334 -0.187116,0.009 -0.281581,-0.44511 -0.0012,-0.61736 0.413277,-0.25392 0.355285,0.3115 0.376408,0.31263 0.267679,0.0144 -0.06492,-0.1781 -0.05818,-0.30701 0.01499,-0.28647 0.07317,0.0205 0.320334,-0.0665 0.54926,-0.19351 0.476984,-0.26456 2.50747,-0.35716 10.855764,-0.4951 3.227889,-0.0533 9.09678,-0.15034 13.04198,-0.21556 4.82865,-0.0798 7.26089,-0.18664 7.44174,-0.32679 0.20698,-0.16042 0.23547,-0.15302 0.12409,0.0322 -0.11623,0.1933 0.32403,0.22138 2.24658,0.14327 1.31513,-0.0534 5.45136,-0.14212 9.19161,-0.19711 10.09176,-0.14837 27.52851,-0.44924 31.66234,-0.54634 3.14113,-0.0738 3.6916,-0.044 4.14549,0.22409 0.28786,0.17005 0.52339,0.41686 0.52339,0.54848 0,0.13161 0.0785,0.2393 0.17449,0.2393 0.10731,0 0.18182,8.12415 0.19354,21.10005 0.0105,11.60503 0.0528,21.85463 0.0941,22.77688 0.0665,1.48529 0.0807,2.48474 0.0457,3.20881 -0.0215,0.44525 -0.99488,1.17297 -1.63967,1.2259 -0.35301,0.029 -0.75877,0.12495 -0.90168,0.21328 -0.17021,0.10519 -0.2171,0.0914 -0.13593,-0.0399 z m 1.73431,-1.02794 c 0.26264,-0.1642 0.34684,-11.6848 0.0854,-11.6848 -0.0914,0 -0.15334,2.54922 -0.14,5.75795 0.0132,3.16686 -0.0294,5.72495 -0.0947,5.68462 -0.0653,-0.0403 -0.21665,0.0448 -0.33645,0.18915 -0.16875,0.20333 -0.16301,0.25415 0.0255,0.2256 0.13381,-0.0203 0.34093,-0.0979 0.46027,-0.17252 z m -35.94656,-0.0596 c -0.0619,-0.0619 -0.22261,-0.0685 -0.3571,-0.0147 -0.14863,0.0595 -0.10448,0.10362 0.11256,0.11256 0.19641,0.008 0.30645,-0.0359 0.24454,-0.0978 z m 2.23549,-0.0234 c -0.38656,-0.0403 -0.97345,-0.0396 -1.3042,0.001 -0.33075,0.0412 -0.0145,0.0742 0.70284,0.0733 0.7173,-8.3e-4 0.98792,-0.0345 0.60136,-0.0748 z m 1.86341,0.0234 c -0.0619,-0.0619 -0.2226,-0.0685 -0.3571,-0.0147 -0.14863,0.0595 -0.10448,0.10362 0.11257,0.11256 0.1964,0.008 0.30644,-0.0359 0.24453,-0.0978 z m 1.96274,-0.0186 c -0.22915,-0.0442 -0.64836,-0.0454 -0.93157,-0.003 -0.2832,0.0428 -0.0957,0.079 0.41665,0.0804 0.51236,0.001 0.74408,-0.0336 0.51492,-0.0779 z m -17.98185,-0.18861 c -0.2818,-0.0427 -0.74293,-0.0427 -1.02473,0 -0.2818,0.0427 -0.0512,0.0776 0.51236,0.0776 0.5636,0 0.79417,-0.0349 0.51237,-0.0776 z m 2.79963,-0.002 c -0.38156,-0.04 -1.05229,-0.0406 -1.49051,-0.001 -0.43822,0.0394 -0.12603,0.0721 0.69375,0.0728 0.81978,6.8e-4 1.17832,-0.0315 0.79676,-0.0716 z m -17.69406,-0.18993 c -1.198181,-0.0324 -3.210371,-0.0325 -4.471538,-2.2e-4 -1.261167,0.0323 -0.28084,0.0588 2.178504,0.0589 2.459344,1.2e-4 3.491204,-0.0263 2.293034,-0.0587 z m 2.96645,0.0265 c -0.0619,-0.0619 -0.2226,-0.0685 -0.3571,-0.0147 -0.14863,0.0595 -0.10448,0.10363 0.11257,0.11257 0.1964,0.008 0.30644,-0.0359 0.24453,-0.0979 z m 50.58812,-0.0189 c -0.23056,-0.0444 -0.60785,-0.0444 -0.83841,0 -0.23057,0.0444 -0.0419,0.0807 0.4192,0.0807 0.46113,0 0.64977,-0.0363 0.41921,-0.0807 z m 3.63312,-0.006 c -0.58922,-0.037 -1.55339,-0.037 -2.14261,0 -0.58922,0.037 -0.10713,0.0672 1.07131,0.0672 1.17843,0 1.66052,-0.0302 1.0713,-0.0672 z m 4.03928,-0.0275 c 0.0562,-0.0909 -0.0153,-0.26261 -0.15873,-0.38167 -0.18318,-0.15203 -0.29762,-0.15694 -0.38442,-0.0165 -0.068,0.10999 -0.0126,0.17694 0.12314,0.14879 0.13571,-0.0282 0.22579,0.0536 0.20017,0.18169 -0.054,0.26977 0.0711,0.30829 0.21984,0.0677 z M 88.191076,200.0083 c -0.432417,-0.0391 -1.186988,-0.0395 -1.676825,-0.001 -0.489837,0.0385 -0.136042,0.0705 0.786212,0.071 0.922254,5.7e-4 1.32303,-0.0309 0.890613,-0.07 z m 50.861634,0.0139 c -0.12614,-0.051 -0.37767,-0.0541 -0.55895,-0.007 -0.18127,0.0472 -0.0781,0.089 0.22935,0.0928 0.30742,0.004 0.45574,-0.0349 0.3296,-0.0859 z m 2.32537,-0.0135 c -0.38427,-0.0402 -1.01308,-0.0402 -1.39735,0 -0.38427,0.0402 -0.0699,0.0731 0.69868,0.0731 0.76854,0 1.08295,-0.0329 0.69867,-0.0731 z m 3.63875,-4.2e-4 c -0.43242,-0.0391 -1.18699,-0.0395 -1.67683,-0.001 -0.48983,0.0385 -0.13604,0.0705 0.78622,0.071 0.92225,5.7e-4 1.32302,-0.0309 0.89061,-0.07 z m 15.60962,-0.32257 c 0.0962,0.0594 0.17486,0.0193 0.17486,-0.0892 0,-0.10853 -0.0671,-0.19731 -0.14905,-0.19731 -0.21637,0 -0.59715,0.41446 -0.59054,0.64278 0.003,0.10759 0.0921,0.0471 0.19777,-0.13434 0.10565,-0.18148 0.27079,-0.28134 0.36696,-0.2219 z m -35.46156,0.15983 c -0.0619,-0.0619 -0.22261,-0.0685 -0.3571,-0.0147 -0.14863,0.0595 -0.10448,0.10363 0.11256,0.11257 0.19641,0.008 0.30645,-0.036 0.24454,-0.0979 z m 2.33281,-0.0189 c -0.23057,-0.0444 -0.60785,-0.0444 -0.83842,0 -0.23056,0.0444 -0.0419,0.0807 0.41921,0.0807 0.46113,0 0.64977,-0.0363 0.41921,-0.0807 z m 2.053,0.009 c -0.12615,-0.051 -0.37767,-0.0541 -0.55895,-0.007 -0.18127,0.0472 -0.0781,0.089 0.22935,0.0928 0.30742,0.004 0.45574,-0.0349 0.3296,-0.0859 z m 30.13273,-0.44773 c 0,-0.10852 0.0981,-0.13669 0.21797,-0.0626 0.14672,0.0907 0.17895,0.033 0.0986,-0.17641 -0.24443,-0.63698 0.40839,-40.67013 0.72054,-44.18588 0.0546,-0.61484 0.0322,-1.20849 -0.0497,-1.31922 -0.10525,-0.14225 -1.73454,-0.15713 -5.55207,-0.0507 -21.84098,0.60894 -67.661415,1.16866 -67.328303,0.82245 0.06454,-0.0671 10.335096,-0.32826 22.823453,-0.58042 29.75153,-0.60072 36.62174,-0.76339 33.74413,-0.799 -2.13361,-0.0264 -26.45012,0.40612 -50.349176,0.89556 -7.638444,0.15643 -8.972157,0.22439 -9.148926,0.46613 -0.113814,0.15565 -0.261951,1.47835 -0.329192,2.93934 -0.18849,4.09544 -0.474069,20.98387 -0.531888,31.45455 -0.04516,8.17819 -0.01514,9.45677 0.227445,9.68833 0.190254,0.1816 0.725558,0.26867 1.676826,0.27275 0.768545,0.003 8.859228,0.11585 17.979291,0.25011 42.0918,0.61964 55.80103,0.71422 55.80103,0.385 z M 147.0193,184.90058 c -0.46648,-0.46648 -0.5403,-0.70792 -0.66158,-2.16388 -0.14152,-1.69897 0.0286,-11.30445 0.2262,-12.77029 0.12508,-0.92793 0.80965,-1.76907 1.60154,-1.96782 0.78514,-0.19706 1.76959,0.39156 1.99159,1.19081 0.2382,0.85758 0.24664,13.62654 0.01,14.65257 -0.35982,1.55802 -2.08983,2.13621 -3.16743,1.05861 z m 2.07635,-1.35793 c 0.13137,-0.0812 -0.19493,-0.14242 -0.73655,-0.13823 -0.53481,0.004 -0.97239,0.0827 -0.97239,0.17462 0,0.20016 1.37353,0.17091 1.70894,-0.0364 z m 0.1542,-0.72245 c 0,-0.10647 -0.42788,-0.18115 -0.97815,-0.1707 -0.71506,0.0136 -0.85287,0.0537 -0.51236,0.14921 0.76153,0.21359 1.49051,0.2241 1.49051,0.0215 z m -0.55894,-0.77616 c 0,-0.0666 -0.29345,-0.1211 -0.6521,-0.1211 -0.35866,0 -0.6521,0.0545 -0.6521,0.1211 0,0.0666 0.29344,0.12111 0.6521,0.12111 0.35865,0 0.6521,-0.0545 0.6521,-0.12111 z m 0.55894,0.028 c 0,-0.10247 -0.0838,-0.18632 -0.18632,-0.18632 -0.10247,0 -0.18631,0.0838 -0.18631,0.18632 0,0.10247 0.0838,0.18631 0.18631,0.18631 0.10248,0 0.18632,-0.0838 0.18632,-0.18631 z m -0.22689,-0.77428 c -0.30127,-0.19116 -1.39924,-0.20389 -1.51402,-0.0176 -0.0473,0.0769 0.3277,0.14636 0.83342,0.15444 0.53883,0.009 0.82059,-0.048 0.6806,-0.13688 z m -1.84608,-1.87805 c -0.25376,-0.47415 -0.31454,-0.41028 -0.29415,0.30907 0.0155,0.54731 0.0501,0.59393 0.24407,0.3287 0.15125,-0.20684 0.16781,-0.41779 0.0501,-0.63777 z m 1.40486,0.49513 c 0.21534,-0.0857 0.3127,-0.0709 0.24578,0.0374 -0.061,0.0986 0.11812,0.19677 0.39796,0.21809 0.42887,0.0327 0.50878,-0.0344 0.50878,-0.42714 0,-0.25807 -0.10804,-0.4659 -0.2422,-0.4659 -0.13322,0 -0.24221,0.0888 -0.24221,0.19731 0,0.11123 -0.1016,0.13384 -0.23289,0.0518 -0.44303,-0.27677 -0.73246,-0.23337 -0.60891,0.0913 0.0951,0.24984 0.0721,0.26547 -0.116,0.0788 -0.34761,-0.34507 -0.82232,-0.28232 -0.85207,0.11262 -0.0272,0.3614 0.39972,0.40092 1.14176,0.10568 z m 0.27172,-0.2183 c -0.23653,-0.3016 -0.22776,-0.30555 0.11692,-0.0527 0.20494,0.15033 0.40756,0.29705 0.45026,0.32604 0.0427,0.029 -0.01,0.0527 -0.11693,0.0527 -0.107,0 -0.30962,-0.14673 -0.45025,-0.32605 z m -0.39327,-1.10616 c -0.17814,-0.0466 -0.5135,-0.0483 -0.74526,-0.004 -0.23176,0.0446 -0.086,0.0827 0.32388,0.0848 0.40989,0.002 0.59951,-0.0344 0.42138,-0.081 z m 0.50059,-0.63278 c -0.11567,-0.18716 -1.57407,-0.17475 -1.57407,0.0134 0,0.0884 0.3718,0.15014 0.82621,0.1371 0.45442,-0.013 0.79096,-0.0808 0.74786,-0.15049 z m 0.10275,-0.7265 c -0.1537,-0.0976 -0.52844,-0.13375 -0.83275,-0.0804 -0.87924,0.15405 -0.79668,0.26376 0.19618,0.26067 0.65222,-0.002 0.83556,-0.0539 0.63657,-0.18024 z m -0.56275,-0.75084 c -0.19547,-0.12081 -1.11407,-0.0288 -1.11407,0.11156 0,0.0362 0.29715,0.0546 0.66033,0.0409 0.36318,-0.0137 0.56736,-0.0823 0.45374,-0.1525 z m 0.70328,-0.66447 c -0.1736,-0.17361 -1.62505,-0.21947 -1.51908,-0.048 0.053,0.0857 0.44074,0.15589 0.86166,0.15589 0.42092,0 0.71676,-0.0486 0.65742,-0.10789 z m -0.0531,-0.7984 c -0.11692,-0.11692 -1.42869,-0.0503 -1.55813,0.0792 -0.0481,0.0481 0.30544,0.0726 0.78562,0.0544 0.48019,-0.0182 0.82782,-0.0783 0.77251,-0.13358 z m -0.35211,-1.26507 c -0.0579,-0.15077 -0.0223,-0.21979 0.0805,-0.15625 0.1013,0.0626 0.18418,0.0334 0.18418,-0.0649 0,-0.25255 -1.34249,-0.22471 -1.66601,0.0345 -0.2077,0.16645 -0.23691,0.16246 -0.12874,-0.0176 0.077,-0.12809 0.0563,-0.2329 -0.0458,-0.2329 -0.10215,0 -0.17411,0.15431 -0.1599,0.3429 0.0212,0.28087 0.18987,0.34483 0.9326,0.35356 0.71814,0.008 0.88522,-0.0455 0.80314,-0.25942 z m 0.63735,0.12191 c 0,-0.10248 -0.0838,-0.18632 -0.18631,-0.18632 -0.10247,0 -0.18632,0.0838 -0.18632,0.18632 0,0.10247 0.0839,0.18631 0.18632,0.18631 0.10247,0 0.18631,-0.0838 0.18631,-0.18631 z m 0.37263,-0.37263 c 0,-0.10248 -0.14672,-0.18503 -0.32605,-0.18346 -0.27864,0.002 -0.28541,0.0291 -0.0466,0.18346 0.35162,0.22723 0.37263,0.22723 0.37263,0 z m -0.64313,-0.94608 c 0.074,-0.11978 -0.1895,-0.16874 -0.72005,-0.13378 -0.46025,0.0303 -0.80647,0.10429 -0.76939,0.16438 0.11822,0.19156 1.36801,0.16588 1.48944,-0.0306 z m 0.27035,-0.68417 c -2.3e-4,-0.21942 -1.63271,-0.26845 -1.76584,-0.053 -0.0761,0.12312 0.22145,0.19278 0.82343,0.19278 0.51841,0 0.94249,-0.0629 0.94241,-0.13974 z m -0.12181,-0.74526 c 0.0475,-0.0768 -0.31898,-0.14319 -0.81437,-0.14741 -0.4954,-0.004 -0.85972,0.0587 -0.80961,0.13974 0.11588,0.1875 1.5088,0.19408 1.62398,0.008 z m -1.36855,-0.68768 c 0,-0.0452 -0.0838,-0.13397 -0.18631,-0.19731 -0.10248,-0.0633 -0.18632,-0.0264 -0.18632,0.0822 0,0.10853 0.0838,0.19731 0.18632,0.19731 0.10247,0 0.18631,-0.037 0.18631,-0.0822 z m 12.85566,28.12241 c 0,-0.15371 -0.0329,-0.27947 -0.0732,-0.27947 -0.0403,0 -0.12148,0.12576 -0.18047,0.27947 -0.059,0.15371 -0.026,0.27947 0.0732,0.27947 0.0993,0 0.18046,-0.12576 0.18046,-0.27947 z m 1.47499,-0.13973 c 0.009,-0.0769 -0.0135,-0.11878 -0.049,-0.0932 -0.0355,0.0256 -0.18502,-0.0534 -0.3323,-0.17566 -0.17349,-0.14398 -0.36398,-0.16139 -0.54099,-0.0494 -0.19294,0.12203 -0.20479,0.18049 -0.0403,0.19895 0.51049,0.0573 0.57961,0.0779 0.7142,0.21245 0.1518,0.15181 0.22422,0.12465 0.24842,-0.0932 z m -1.51612,-0.89618 c -0.009,-0.31707 -0.076,-0.47331 -0.15102,-0.352 -0.12145,0.19652 -0.0363,0.92213 0.10826,0.92213 0.0324,0 0.0517,-0.25656 0.0428,-0.57013 z m 1.71796,-0.15622 c 0,-0.20878 -0.79547,-0.53617 -1.07131,-0.44091 -0.12809,0.0442 -0.23289,0.16625 -0.23289,0.27115 0,0.10489 0.11963,0.14481 0.26585,0.0887 0.14622,-0.0561 0.36532,0.0178 0.48689,0.16433 0.21527,0.25939 0.55146,0.20862 0.55146,-0.0833 z m -1.74091,-6.16727 c -0.001,-3.07418 -0.0715,-5.58942 -0.15563,-5.58942 -0.0841,0 -0.15292,2.51524 -0.15292,5.58942 0,3.07418 0.07,5.58942 0.15563,5.58942 0.0856,0 0.1544,-2.51524 0.15292,-5.58942 z m 1.72714,5.10705 c -0.11999,-0.14459 -0.31271,-0.2616 -0.42825,-0.26003 -0.11554,0.002 -0.0843,0.0841 0.0694,0.18346 0.24842,0.16054 0.24842,0.18124 0,0.18631 -0.24204,0.005 -0.24323,0.0286 -0.009,0.17688 0.37395,0.23656 0.63385,0.034 0.36776,-0.28662 z m -0.73149,-0.25704 c 0,-0.0992 -0.12576,-0.13221 -0.27947,-0.0732 -0.15371,0.059 -0.27947,0.14019 -0.27947,0.18047 0,0.0403 0.12576,0.0732 0.27947,0.0732 0.15371,0 0.27947,-0.0812 0.27947,-0.18047 z m 0.70985,-0.53896 c 0.17686,-0.11216 0.0763,-0.23602 -0.36509,-0.4498 -0.60214,-0.29162 -0.9037,-0.27277 -0.9037,0.0565 0,0.0932 0.12506,0.12149 0.2779,0.0628 0.15867,-0.0609 0.3271,0.0216 0.39256,0.19216 0.12881,0.33567 0.24485,0.36249 0.59833,0.13832 z m 0.15962,-1.05055 c 0,-0.15371 -0.0412,-0.23828 -0.0915,-0.18793 -0.0503,0.0503 -0.1831,0.0205 -0.295,-0.0662 -0.31818,-0.24676 -1.04187,-0.38163 -1.04187,-0.19417 0,0.0929 0.0898,0.16888 0.19962,0.16888 0.10979,0 0.32539,0.12576 0.4791,0.27947 0.1537,0.15371 0.38527,0.27947 0.51458,0.27947 0.12931,0 0.23511,-0.12576 0.23511,-0.27947 z m 0.0621,-0.84116 c 0,-0.24522 -1.13781,-0.9385 -1.33761,-0.81502 -0.27419,0.16946 -0.1607,0.488 0.13362,0.37505 0.16674,-0.064 0.33336,0.0121 0.39856,0.18201 0.0886,0.23074 0.14356,0.24094 0.2624,0.0486 0.11664,-0.18873 0.17797,-0.17134 0.27347,0.0775 0.13693,0.35683 0.26956,0.42166 0.26956,0.13177 z m 0,-0.92883 c 0,-0.10247 -0.0888,-0.18631 -0.19731,-0.18631 -0.10852,0 -0.14549,0.0838 -0.0822,0.18631 0.0633,0.10248 0.15212,0.18632 0.19731,0.18632 0.0452,0 0.0822,-0.0838 0.0822,-0.18632 z m -0.18631,-0.37262 c 0.2377,-0.15362 0.22976,-0.18104 -0.0531,-0.18347 -0.18293,-0.002 -0.53261,-0.1339 -0.77707,-0.29408 -0.40658,-0.2664 -0.44064,-0.26513 -0.39954,0.0149 0.0813,0.5539 0.71793,0.79341 1.22975,0.46265 z m 0.18631,-0.80391 c 0,-0.13473 -0.29629,-0.38625 -0.65842,-0.55894 -0.79933,-0.38117 -0.83209,-0.38303 -0.83209,-0.0471 0,0.28072 0.66184,0.58577 1.09,0.5024 0.13838,-0.0269 0.19631,0.0405 0.12874,0.14979 -0.0676,0.10933 -0.0341,0.19877 0.0745,0.19877 0.10852,0 0.19731,-0.11023 0.19731,-0.24496 z m 0,-1.04042 c 0,-0.0921 -0.31829,-0.33341 -0.70732,-0.53618 -0.68604,-0.35759 -0.70811,-0.35815 -0.73368,-0.0188 -0.0154,0.20506 0.1038,0.36161 0.28812,0.37824 0.17296,0.0156 0.41335,0.0376 0.53421,0.049 0.12086,0.0113 0.28156,0.0824 0.3571,0.15793 0.18241,0.1824 0.26157,0.17328 0.26157,-0.0301 z m -0.0737,-1.27255 c -0.18939,-0.18939 -0.34566,0.0957 -0.19026,0.34717 0.11738,0.18993 0.16126,0.19008 0.22437,7.5e-4 0.0431,-0.12944 0.0278,-0.28601 -0.0341,-0.34792 z m -0.55401,-0.14739 c -0.0632,-0.16463 -0.1993,-0.24713 -0.30249,-0.18336 -0.1032,0.0638 -0.18763,0.0272 -0.18763,-0.0813 0,-0.10852 -0.0838,-0.19731 -0.18632,-0.19731 -0.35142,0 -0.18636,0.47056 0.2329,0.66391 0.50526,0.23301 0.59479,0.19226 0.44354,-0.2019 z m 0.56566,-0.54697 c 0,-0.14921 -0.0699,-0.2281 -0.15526,-0.17532 -0.0854,0.0528 -0.15527,0.0252 -0.15527,-0.0612 0,-0.0864 -0.2341,-0.29543 -0.52022,-0.46445 -0.49304,-0.29125 -0.52159,-0.28911 -0.54645,0.0409 -0.0183,0.243 0.13825,0.38435 0.51808,0.46778 0.29938,0.0658 0.59215,0.19694 0.65061,0.29153 0.14976,0.24232 0.20851,0.21434 0.20851,-0.0993 z m 0.96904,-5.70429 c -0.006,-3.28655 -0.0654,-5.92057 -0.13264,-5.85337 -0.18546,0.18545 -0.20338,11.82893 -0.0182,11.82893 0.0887,0 0.15659,-2.689 0.15085,-5.97556 z m -1.67343,4.0899 c -0.54389,-0.4182 -0.66191,-0.4308 -0.66191,-0.0706 0,0.27794 0.17477,0.35505 0.65526,0.28909 0.15416,-0.0212 0.19713,0.0536 0.11095,0.19303 -0.0952,0.15399 -0.0629,0.17952 0.0998,0.0789 0.18068,-0.11166 0.12994,-0.23357 -0.20411,-0.49043 z m 0.70619,-0.64122 c 0.0309,-0.0961 -0.26939,-0.31137 -0.66727,-0.47845 -0.63064,-0.26481 -0.71816,-0.26787 -0.68235,-0.0238 0.0441,0.30066 0.83079,0.81267 1.11881,0.72819 0.0961,-0.0282 0.19993,-0.12982 0.23081,-0.22589 z m -0.12601,-0.82677 c -0.2357,-0.15232 -0.23742,-0.18105 -0.011,-0.18346 0.19183,-0.002 0.16581,-0.0779 -0.0911,-0.2658 -0.19779,-0.14463 -0.41762,-0.2271 -0.48852,-0.18328 -0.0709,0.0438 -0.18158,-0.006 -0.24595,-0.10968 -0.0644,-0.10414 -0.21688,-0.18807 -0.33892,-0.1865 -0.13333,0.002 -0.11035,0.0749 0.0576,0.18346 0.24842,0.16054 0.24842,0.1818 0,0.19127 -0.1537,0.006 0.014,0.17132 0.37263,0.36768 0.66866,0.36607 1.24724,0.51071 0.74526,0.18631 z m -1.73587,-0.40756 c -0.0595,-0.14863 -0.10362,-0.10448 -0.11256,0.11256 -0.008,0.19641 0.0359,0.30645 0.0979,0.24454 0.0619,-0.0619 0.0685,-0.22261 0.0147,-0.3571 z m 1.68863,-0.99599 c -0.12773,-0.11248 -0.45456,-0.29827 -0.7263,-0.41287 -0.41166,-0.17362 -0.48716,-0.16133 -0.45267,0.0737 0.055,0.37457 0.47687,0.62023 0.99266,0.57798 0.32184,-0.0264 0.36489,-0.0815 0.18631,-0.23878 z m -1.69251,-0.69248 c -0.0517,-0.12809 -0.094,-0.0233 -0.094,0.23289 0,0.25618 0.0423,0.36098 0.094,0.23289 0.0517,-0.12809 0.0517,-0.33769 0,-0.46578 z m 1.68748,-0.12591 c 0.0185,-0.24524 -0.15469,-0.42215 -0.5471,-0.55894 -0.31576,-0.11008 -0.58956,-0.20014 -0.60842,-0.20014 -0.0189,0 -0.0343,0.11777 -0.0343,0.2617 0,0.15879 0.11601,0.22039 0.29499,0.15663 0.16225,-0.0578 0.23262,-0.0363 0.15637,0.0477 -0.0762,0.084 0.0495,0.25686 0.27947,0.38405 0.22996,0.12719 0.42122,0.23948 0.42503,0.24952 0.004,0.0101 0.0191,-0.14319 0.034,-0.34053 z m -1.67718,-2.01414 c -0.0428,-0.28321 -0.079,-0.0957 -0.0804,0.41664 -0.001,0.51237 0.0336,0.74408 0.0779,0.51493 0.0442,-0.22916 0.0454,-0.64836 0.003,-0.93157 z m 1.91576,0.86044 c 0,-0.10248 -0.0743,-0.14037 -0.1652,-0.0842 -0.0909,0.0562 -0.27211,-0.0267 -0.40276,-0.18413 -0.18993,-0.22885 -0.2683,-0.23778 -0.39089,-0.0445 -0.11406,0.17981 -0.15406,0.1582 -0.15618,-0.0843 -0.002,-0.17932 -0.0793,-0.32605 -0.17268,-0.32605 -0.0934,0 -0.14917,0.14077 -0.12392,0.31282 0.0464,0.31582 0.64101,0.64069 0.89927,0.49129 0.0769,-0.0445 0.13973,0.0129 0.13973,0.12746 0,0.11457 0.0839,0.15649 0.18632,0.0932 0.10247,-0.0633 0.18631,-0.19899 0.18631,-0.30146 z m -0.003,-0.67669 c -0.0108,-0.52915 -1.48766,-1.2299 -1.48766,-0.70587 0,0.22288 0.82218,0.5784 1.16446,0.50354 0.0769,-0.0168 0.13974,0.0533 0.13974,0.15575 0,0.10248 0.0419,0.18632 0.0932,0.18632 0.0512,0 0.0919,-0.0629 0.0903,-0.13974 z m -1.91933,-1.19939 c -0.0595,-0.14863 -0.10362,-0.10448 -0.11256,0.11256 -0.008,0.19641 0.0359,0.30645 0.0979,0.24454 0.0619,-0.0619 0.0685,-0.22261 0.0147,-0.3571 z m 1.73587,-0.24454 c -0.28143,-0.33911 -0.44463,-0.368 -0.26307,-0.0466 0.0724,0.12809 -0.0517,0.0443 -0.27573,-0.18631 -0.48336,-0.49751 -0.74998,-0.53882 -0.68652,-0.10639 0.0481,0.32753 0.5164,0.58343 1.1084,0.60565 0.28931,0.0109 0.30927,-0.0346 0.11692,-0.26637 z m 0.10549,-0.79184 c -0.0263,-0.17932 -0.12371,-0.31309 -0.21641,-0.29726 -0.0927,0.0158 -0.21977,-0.0541 -0.28236,-0.15536 -0.0634,-0.10257 -0.16561,-0.0491 -0.23076,0.12063 -0.0643,0.16762 -0.0436,0.25942 0.0461,0.20399 0.0897,-0.0554 0.26668,0.0241 0.39331,0.17663 0.29723,0.35815 0.34854,0.34955 0.2901,-0.0486 z m -0.95695,-0.39809 c 0.0562,-0.0909 -0.016,-0.26322 -0.16036,-0.38303 -0.21094,-0.17506 -0.24991,-0.15177 -0.19852,0.11863 0.0352,0.18504 0.0704,0.35741 0.0782,0.38302 0.0312,0.10209 0.18423,0.0374 0.28068,-0.11862 z m 0.96393,-0.90231 c -0.062,-0.062 -0.2733,-0.12449 -0.46965,-0.13896 -0.19634,-0.0145 -0.50347,-0.14717 -0.68251,-0.2949 -0.30037,-0.24786 -0.30826,-0.23623 -0.10214,0.1506 0.12285,0.23056 0.30426,0.42968 0.40313,0.44249 0.0989,0.0128 0.25661,0.0338 0.35054,0.0466 0.0939,0.0128 0.23891,0.0914 0.32217,0.17467 0.0833,0.0833 0.18282,0.0571 0.22125,-0.0582 0.0384,-0.11529 0.0192,-0.2603 -0.0428,-0.32226 z m -1.84384,-0.84003 c -0.0446,-0.23176 -0.0827,-0.086 -0.0848,0.32387 -0.002,0.40989 0.0344,0.59951 0.081,0.42138 0.0466,-0.17813 0.0483,-0.5135 0.004,-0.74525 z m 1.78697,0.0506 c -0.10604,-0.40547 -0.67788,-0.6631 -1.01264,-0.45621 -0.13539,0.0837 0.0193,0.25784 0.41754,0.47 0.34796,0.18538 0.64577,0.34057 0.66179,0.34486 0.016,0.004 -0.014,-0.1571 -0.0667,-0.35865 z m 0.13071,-0.91492 c 0,-0.0899 -0.14185,-0.27857 -0.31523,-0.41921 -0.27169,-0.22038 -0.29364,-0.2171 -0.15892,0.0238 0.086,0.15371 -0.0269,0.0908 -0.25096,-0.13973 -0.48492,-0.49911 -0.56043,-0.51672 -0.50176,-0.11701 0.0641,0.43702 1.22687,1.05511 1.22687,0.65219 z m 0.87369,-1.65306 c -0.0469,-0.17933 -0.0852,-0.0326 -0.0852,0.32605 0,0.35865 0.0383,0.50537 0.0852,0.32604 0.0469,-0.17932 0.0469,-0.47277 0,-0.65209 z m -0.87369,0.29952 c 0,-0.10496 -0.10405,-0.15616 -0.23123,-0.11376 -0.12717,0.0424 -0.34354,-0.0352 -0.4808,-0.17251 -0.26224,-0.26223 -0.59217,-0.17453 -0.59217,0.15741 0,0.10739 0.13012,0.14532 0.28915,0.0843 0.15903,-0.061 0.24185,-0.0344 0.18404,0.0591 -0.0578,0.0935 0.0426,0.20359 0.22321,0.24456 0.39505,0.0896 0.6078,-0.001 0.6078,-0.25912 z m -1.92218,-0.19472 c -0.0595,-0.14863 -0.10362,-0.10448 -0.11256,0.11256 -0.008,0.19641 0.0359,0.30645 0.0979,0.24454 0.0619,-0.0619 0.0685,-0.22261 0.0147,-0.3571 z m 0.22678,-2.01013 c 0.0225,-0.56119 -0.0263,-0.95323 -0.10828,-0.87121 -0.082,0.082 -0.16143,0.70886 -0.17645,1.39297 -0.0321,1.46069 0.22416,0.99113 0.28473,-0.52176 z m 1.88172,1.39296 c 0,-0.15371 -0.0839,-0.28995 -0.18632,-0.30276 -0.35653,-0.0446 -0.46828,-0.0845 -0.88499,-0.31592 -0.35547,-0.19744 -0.41921,-0.18844 -0.41921,0.0592 0,0.2937 0.71759,0.68004 0.97815,0.52662 0.0769,-0.0453 0.13974,0.007 0.13974,0.11503 0,0.10852 0.0838,0.19731 0.18631,0.19731 0.10247,0 0.18632,-0.12576 0.18632,-0.27947 z m 0.68737,-0.79183 c -0.0469,-0.17933 -0.0852,-0.0326 -0.0852,0.32605 0,0.35865 0.0383,0.50537 0.0852,0.32605 0.0469,-0.17933 0.0469,-0.47277 0,-0.6521 z m -0.87369,-0.0466 c -0.15371,-0.0993 -0.20632,-0.18189 -0.11692,-0.18346 0.0894,-0.002 0.0589,-0.12769 -0.0677,-0.28027 -0.12663,-0.15258 -0.30458,-0.23148 -0.39544,-0.17532 -0.0909,0.0562 -0.1652,0.0159 -0.1652,-0.0894 0,-0.10531 -0.12577,-0.14321 -0.27947,-0.0842 -0.41462,0.1591 -0.33813,0.31191 0.33028,0.6598 0.6491,0.33784 1.15197,0.44851 0.69444,0.15283 z m 0.86865,-1.35078 c -0.0517,-0.12809 -0.094,-0.0233 -0.094,0.2329 0,0.25618 0.0423,0.36098 0.094,0.23289 0.0517,-0.12809 0.0517,-0.3377 0,-0.46579 z m -0.68233,0.25571 c 0,-0.0899 -0.12577,-0.26787 -0.27947,-0.39544 -0.15371,-0.12757 -0.27948,-0.16299 -0.27948,-0.0787 0,0.0843 -0.10061,0.0526 -0.22357,-0.0703 -0.12297,-0.12297 -0.31161,-0.2223 -0.41921,-0.22073 -0.1076,0.002 -0.0699,0.0841 0.0838,0.18346 0.24842,0.16054 0.24842,0.18125 0,0.18632 -0.24842,0.005 -0.24842,0.0256 0,0.18491 0.15371,0.0986 0.43669,0.13022 0.62885,0.0703 0.22772,-0.071 0.30499,-0.037 0.2219,0.0974 -0.0701,0.11345 -0.0387,0.20627 0.0698,0.20627 0.10852,0 0.19731,-0.0736 0.19731,-0.1635 z m -0.0813,-1.09412 c -0.0266,-0.17933 -0.20093,-0.3264 -0.38746,-0.32684 -0.18652,-4.3e-4 -0.37395,-0.10524 -0.4165,-0.23289 -0.10478,-0.31434 -0.60526,-0.29608 -0.60526,0.0221 0,0.1398 0.31441,0.38318 0.69868,0.54083 0.38427,0.15766 0.71222,0.2948 0.72877,0.30475 0.0165,0.01 0.008,-0.12861 -0.0182,-0.30794 z m -1.84088,-0.26783 c -0.0595,-0.14862 -0.10363,-0.10448 -0.11257,0.11257 -0.008,0.19641 0.0359,0.30645 0.0979,0.24454 0.0619,-0.0619 0.0685,-0.22261 0.0147,-0.35711 z m 1.68536,-0.72743 c -0.18148,-0.10566 -0.28891,-0.25853 -0.23873,-0.33972 0.0502,-0.0812 -0.11574,-0.24192 -0.36871,-0.35718 -0.37146,-0.16925 -0.45994,-0.15869 -0.45994,0.0549 0,0.14547 0.0968,0.32431 0.2151,0.39742 0.14417,0.0891 0.16586,0.0467 0.0658,-0.12874 -0.0821,-0.14392 0.0339,-0.073 0.25794,0.15753 0.22401,0.23056 0.50882,0.41666 0.63292,0.41354 0.1241,-0.003 0.0772,-0.0921 -0.10434,-0.19776 z m 0.10037,-1.11652 c -0.0664,-0.25394 -0.14814,-0.31302 -0.2361,-0.17069 -0.0952,0.15399 -0.16732,0.13226 -0.24657,-0.0743 -0.0698,-0.18182 -0.22928,-0.24696 -0.42282,-0.17269 -0.24788,0.0951 -0.18331,0.18719 0.31899,0.45483 0.34639,0.18457 0.6429,0.33909 0.65892,0.34339 0.016,0.004 -0.0166,-0.16696 -0.0724,-0.38057 z m -1.78962,-1.33503 c -0.0517,-0.12809 -0.094,-0.0233 -0.094,0.2329 0,0.25618 0.0423,0.36098 0.094,0.23289 0.0517,-0.12809 0.0517,-0.3377 0,-0.46579 z m 1.92607,0.31506 c 0,-0.15976 -0.0839,-0.23865 -0.18632,-0.17532 -0.10247,0.0633 -0.18631,0.0361 -0.18631,-0.0604 0,-0.25882 -0.7246,-0.40321 -0.86702,-0.17276 -0.0675,0.10915 -0.0346,0.1435 0.0735,0.0767 0.10757,-0.0665 0.24569,0.01 0.30694,0.16934 0.0613,0.15961 0.19001,0.2416 0.28612,0.1822 0.0961,-0.0594 0.22742,-0.0228 0.29179,0.0813 0.16894,0.27335 0.28135,0.23295 0.28135,-0.10111 z m -1.71592,-2.62534 c -0.0221,-1.81479 -0.25328,-1.67881 -0.26341,0.15495 -0.006,0.9953 0.0503,1.54705 0.13363,1.32175 0.0787,-0.21272 0.13709,-0.87723 0.12978,-1.4767 z m 1.71592,1.50507 c 0,-0.0367 -0.1778,-0.16182 -0.39512,-0.27813 -0.27769,-0.14861 -0.35747,-0.15056 -0.26847,-0.007 0.0696,0.1127 0.0378,0.2049 -0.0707,0.2049 -0.10852,0 -0.19731,-0.12576 -0.19731,-0.27947 0,-0.15371 -0.0838,-0.27947 -0.18632,-0.27947 -0.30189,0 -0.12359,0.44796 0.27009,0.67856 0.31407,0.18397 0.8478,0.15889 0.8478,-0.0398 z m 0,-0.91819 c 0,-0.24574 -0.23344,-0.36757 -0.44623,-0.23289 -0.0405,0.0256 -0.25008,-0.11314 -0.46578,-0.30835 -0.50302,-0.45522 -0.51362,-0.23228 -0.0128,0.26856 0.20869,0.20869 0.47316,0.32149 0.58773,0.25069 0.12664,-0.0783 0.15618,-0.0444 0.0754,0.0864 -0.0731,0.1183 -0.0442,0.2151 0.0644,0.2151 0.10852,0 0.19731,-0.12576 0.19731,-0.27947 z m -0.0621,-0.92338 c 0,-0.1492 -0.0647,-0.23127 -0.14381,-0.18239 -0.0791,0.0489 -0.23025,-0.0596 -0.33591,-0.24109 -0.10565,-0.18148 -0.19593,-0.24613 -0.20062,-0.14365 -0.005,0.10247 -0.0794,0.0745 -0.16605,-0.0622 -0.12608,-0.1989 -0.18088,-0.18767 -0.27448,0.0562 -0.0684,0.17813 -0.0404,0.25747 0.0672,0.19094 0.1013,-0.0626 0.18418,-0.0201 0.18418,0.0945 0,0.11457 0.0743,0.16236 0.1652,0.1062 0.0909,-0.0562 0.26881,0.0227 0.39544,0.17532 0.28503,0.34344 0.30882,0.34391 0.30882,0.006 z m 0.0497,-1.2627 c -0.94931,-0.5842 -1.29178,-0.70423 -1.29178,-0.45278 0,0.25798 0.49724,0.58819 0.79183,0.52583 0.0769,-0.0163 0.13974,0.071 0.13974,0.194 0,0.17214 0.0507,0.17285 0.22047,0.003 0.12126,-0.12126 0.18414,-0.24283 0.13974,-0.27015 z m -1.6775,-0.84152 c -0.0116,-0.45402 -0.0313,-0.46993 -0.17322,-0.13974 -0.21868,0.5089 -0.21868,0.6521 0,0.6521 0.10247,0 0.18042,-0.23056 0.17322,-0.51236 z m 1.68992,-0.21198 c 0,-0.0691 -0.24254,-0.21708 -0.53898,-0.32898 -0.44342,-0.16737 -0.53193,-0.15545 -0.49925,0.0672 0.0219,0.14886 0.15198,0.34003 0.28919,0.42483 0.26019,0.16081 0.74904,0.0544 0.74904,-0.16306 z m -0.18632,-1.09998 c -0.15371,-0.0555 -0.32139,-0.095 -0.37263,-0.0877 -0.0512,0.007 -0.14437,-0.0696 -0.20696,-0.17089 -0.0634,-0.10257 -0.16561,-0.0491 -0.23076,0.12063 -0.0643,0.16762 -0.0436,0.25942 0.0461,0.20399 0.0897,-0.0554 0.26962,0.0276 0.39986,0.18453 0.17933,0.21607 0.28618,0.23253 0.44032,0.0678 0.14878,-0.159 0.12835,-0.24465 -0.076,-0.31842 z m 0.10925,-0.71186 c -0.0571,-0.38871 -0.66271,-0.751 -0.68128,-0.40752 -0.007,0.13318 -0.0903,0.0745 -0.18474,-0.13048 l -0.17163,-0.37263 0.0496,0.37263 c 0.0363,0.27288 0.17304,0.36143 0.51078,0.3308 0.25365,-0.023 0.3469,0.008 0.20721,0.0691 -0.21442,0.0937 -0.21442,0.13602 0,0.27187 0.33056,0.20942 0.32113,0.21409 0.27007,-0.1338 z m -1.46836,-1.74904 c -0.006,-0.61484 -0.0656,-1.11788 -0.13185,-1.11788 -0.0662,0 -0.13072,0.50304 -0.14338,1.11788 -0.0127,0.61484 0.0467,1.11788 0.13185,1.11788 0.0852,0 0.1497,-0.50304 0.14338,-1.11788 z m 1.27579,0.76117 c -0.0579,-0.0937 -0.002,-0.20476 0.12374,-0.24675 0.12598,-0.042 -0.0272,-0.16569 -0.34042,-0.27487 -0.43766,-0.15257 -0.56946,-0.1445 -0.56946,0.0349 0,0.13459 0.16432,0.20391 0.38815,0.16374 0.21349,-0.0383 0.27387,-0.0167 0.13418,0.0481 -0.21442,0.0994 -0.21442,0.14284 0,0.27869 0.32793,0.20776 0.39397,0.20681 0.26381,-0.004 z m 0.0833,-0.94748 c -0.2357,-0.15233 -0.23742,-0.18106 -0.011,-0.18346 0.1956,-0.002 0.17376,-0.0721 -0.0805,-0.25803 -0.25468,-0.18622 -0.40814,-0.19988 -0.56802,-0.0505 -0.16545,0.15455 -0.12295,0.25813 0.17362,0.42322 0.47656,0.26527 0.87777,0.32208 0.48583,0.0688 z m 0.18632,-1.33072 c 0,-0.10497 -0.10481,-0.15288 -0.2329,-0.10648 -0.12809,0.0464 -0.37326,-0.0377 -0.54481,-0.18688 -0.2775,-0.24131 -0.30639,-0.23348 -0.26171,0.0709 0.0276,0.18818 0.14003,0.34215 0.24982,0.34215 0.10978,0 0.2602,0.0606 0.33427,0.13467 0.16608,0.16608 0.45533,0.005 0.45533,-0.25435 z m -1.56449,-1.09219 c 0.007,-0.71777 -0.0301,-1.26143 -0.0834,-1.20814 -0.14472,0.14472 -0.19402,2.51316 -0.0523,2.51316 0.0672,0 0.12824,-0.58726 0.13568,-1.30502 z m 1.51791,0.3335 c -0.0538,-0.26121 -0.89304,-0.75936 -1.03692,-0.61548 -0.0531,0.0531 0.001,0.0965 0.12087,0.0965 0.11956,0 0.19641,0.1048 0.17079,0.23289 -0.0256,0.12809 0.0582,0.21194 0.18632,0.18632 0.12809,-0.0256 0.23289,0.0373 0.23289,0.13973 0,0.10248 0.0838,0.18632 0.18631,0.18632 0.10247,0 0.16536,-0.10182 0.13974,-0.22627 z m -0.0447,-1.26128 c -0.16261,-0.26311 -0.77814,-0.33297 -0.77814,-0.0883 0,0.13317 0.12165,0.18946 0.27898,0.12909 0.18009,-0.0691 0.2317,-0.0305 0.14559,0.10878 -0.0871,0.14085 -0.0333,0.17744 0.15468,0.1053 0.15844,-0.0608 0.24794,-0.17548 0.19889,-0.25485 z m 0.16458,-0.98327 c 0.22608,-0.35841 0.1293,-0.49259 -0.43345,-0.60097 -0.43986,-0.0847 -0.45825,0.28373 -0.0214,0.42934 0.16208,0.054 0.19627,2e-5 0.0993,-0.15688 -0.0998,-0.16143 -0.0739,-0.19358 0.0794,-0.0988 0.16986,0.10498 0.14185,0.23674 -0.11095,0.52179 -0.23827,0.26869 -0.25955,0.35627 -0.072,0.29647 0.14639,-0.0467 0.35302,-0.2226 0.45919,-0.39092 z m 0.29272,-1.33517 c -0.1728,-0.1685 -0.85339,-0.30237 -1.85649,-0.36517 l -1.58366,-0.0991 1.52816,0.23202 c 0.84049,0.12762 1.58807,0.29194 1.6613,0.36517 0.0732,0.0732 0.22097,0.13313 0.32832,0.13313 0.10735,0 0.0724,-0.11971 -0.0776,-0.26602 z m -9.07615,-0.24578 c -1.25529,-0.0322 -3.3094,-0.0322 -4.56469,0 -1.25529,0.0322 -0.22824,0.0586 2.28234,0.0586 2.51058,0 3.53764,-0.0264 2.28235,-0.0586 z m 10.57332,48.39449 c 0,-0.10248 0.0888,-0.18632 0.19731,-0.18632 0.10852,0 0.14549,0.0838 0.0822,0.18632 -0.0633,0.10247 -0.15212,0.18631 -0.19731,0.18631 -0.0452,0 -0.0822,-0.0838 -0.0822,-0.18631 z m -51.65554,-48.56502 c 0.12809,-0.0517 0.33769,-0.0517 0.46578,0 0.12809,0.0517 0.0233,0.094 -0.23289,0.094 -0.25618,0 -0.36099,-0.0423 -0.23289,-0.094 z m 34.56123,-2.80477 c 0.2818,-0.0427 0.74293,-0.0427 1.02473,0 0.2818,0.0427 0.0512,0.0776 -0.51237,0.0776 -0.56359,0 -0.79416,-0.0349 -0.51236,-0.0776 z m 19.26715,17.04144 c -0.0517,-0.12809 -0.094,-0.0233 -0.094,0.23289 0,0.25619 0.0423,0.36099 0.094,0.2329 0.0517,-0.12809 0.0517,-0.3377 0,-0.46579 z m 0.004,-0.73361 c -0.0595,-0.14863 -0.10362,-0.10448 -0.11256,0.11256 -0.008,0.19641 0.0359,0.30645 0.0978,0.24454 0.0619,-0.0619 0.0685,-0.2226 0.0147,-0.3571 z m 0.001,-1.59531 c -0.0469,-0.17933 -0.0852,-0.0326 -0.0852,0.32605 0,0.35865 0.0384,0.50537 0.0852,0.32605 0.0469,-0.17933 0.0469,-0.47278 0,-0.6521 z m 0.008,-3.90844 c -0.0403,-0.38656 -0.074,-0.11594 -0.0748,0.60136 -8.3e-4,0.71731 0.0322,1.03359 0.0733,0.70284 0.0412,-0.33075 0.0418,-0.91764 0.001,-1.3042 z m 0.002,-4.6552 c -0.0371,-0.59296 -0.0678,-0.15586 -0.0682,0.97134 -4.2e-4,1.1272 0.0299,1.61235 0.0674,1.07811 0.0375,-0.53424 0.0379,-1.45649 7.7e-4,-2.04945 z m -0.006,-3.07881 c -0.0446,-0.23176 -0.0827,-0.086 -0.0848,0.32387 -0.002,0.4099 0.0344,0.59952 0.081,0.42138 0.0466,-0.17813 0.0483,-0.51349 0.004,-0.74525 z m -0.003,-1.5823 c -0.0472,-0.18127 -0.089,-0.0781 -0.0928,0.22935 -0.004,0.30742 0.0349,0.45574 0.0859,0.32959 0.051,-0.12614 0.0541,-0.37766 0.007,-0.55894 z M 110.12392,108.5367 c -9.40688,-0.0683 -23.681874,-0.4354 -24.593439,-0.63245 -0.461127,-0.0997 -1.309808,-0.24624 -1.885957,-0.32569 -1.23874,-0.17084 -1.897826,-0.55938 -2.348808,-1.38468 -0.311105,-0.56932 -0.329927,-2.04584 -0.329927,-25.882128 0,-25.247651 4.68e-4,-25.279003 0.384652,-25.804481 0.784241,-1.072667 1.43846,-1.227825 5.844691,-1.386159 6.609903,-0.237521 49.762668,-1.112111 69.135878,-1.401199 9.29601,-0.138715 9.37731,-0.131482 10.4017,0.92542 l 0.59459,0.613457 -0.0491,26.757553 -0.0491,26.757557 -0.3921,0.52599 c -0.21566,0.2893 -0.67678,0.69368 -1.02473,0.89862 -0.6239,0.36749 -0.97147,0.37268 -25.22606,0.37672 -13.52639,0.002 -27.23444,-0.0151 -30.46233,-0.0385 z m 55.86968,-1.72728 c 0.27697,-0.41687 0.30747,-2.76706 0.34336,-26.456575 0.0216,-14.299485 -0.0112,-26.24058 -0.073,-26.535767 -0.0618,-0.295186 -0.26234,-0.575932 -0.44569,-0.623879 -0.19312,-0.0505 -0.29121,-0.197028 -0.23317,-0.348288 0.0551,-0.143612 0.007,-0.261113 -0.10605,-0.261113 -0.11343,0 -0.20624,0.08121 -0.20624,0.180467 0,0.09926 -0.11079,0.137952 -0.24621,0.08599 -0.13541,-0.05196 -9.25315,0.07549 -20.26164,0.283223 -11.00849,0.207735 -29.18847,0.550586 -40.39996,0.761891 -15.044653,0.28355 -20.418423,0.329356 -20.513906,0.174863 -0.201995,-0.326835 -1.400015,-0.02043 -1.868054,0.477779 -0.226391,0.240982 -0.48103,0.798912 -0.565865,1.239844 -0.188424,0.97934 -0.197685,46.459706 -0.0098,48.370256 0.08583,0.87305 0.231411,1.42292 0.405141,1.53029 0.149141,0.0922 0.241365,0.23353 0.20494,0.31413 -0.03642,0.0806 0.146249,0.30516 0.405941,0.49905 0.432158,0.32265 0.911375,0.35718 5.655643,0.40743 2.850913,0.0302 10.339717,0.15216 16.641789,0.27103 6.30207,0.11886 22.31085,0.23523 35.57508,0.25859 18.3482,0.0323 24.13432,0.0951 24.19014,0.26258 0.10106,0.30321 1.11022,-0.29375 1.50756,-0.89179 z m -0.82982,0.1523 c -0.0804,-0.13002 -0.0544,-0.16841 0.0644,-0.095 0.10955,0.0677 0.24165,0.0178 0.29355,-0.11095 0.0675,-0.16752 0.0985,-0.17098 0.10907,-0.0122 0.0212,0.32063 -0.30847,0.47464 -0.46699,0.21814 z m -29.23538,-1.85018 c -5.84094,-0.0659 -16.44686,-0.1806 -23.56871,-0.25498 -7.12185,-0.0744 -13.871075,-0.16483 -14.998274,-0.201 -1.127199,-0.0362 -4.417969,-0.0761 -7.312822,-0.0887 -3.320784,-0.0145 -5.263369,-0.0907 -5.263369,-0.2067 0,-0.10107 -0.104801,-0.15971 -0.232892,-0.13029 -0.128091,0.0294 -0.259827,-0.0298 -0.292748,-0.13157 -0.03292,-0.10178 -0.182182,-0.32022 -0.331692,-0.48543 -0.235142,-0.25983 -0.270711,-3.30005 -0.263488,-22.521633 0.0066,-17.645492 -0.04016,-22.281182 -0.227249,-22.512267 -0.12958,-0.160055 -0.147512,-0.238376 -0.03985,-0.174047 0.113977,0.0681 0.295708,-0.221577 0.435033,-0.693443 0.173964,-0.589181 0.374828,-0.863038 0.735821,-1.003215 0.745244,-0.289387 2.91068,-0.383875 11.209589,-0.489124 4.150143,-0.05263 9.432142,-0.139179 11.737782,-0.192323 2.30563,-0.05315 9.26446,-0.179713 15.46405,-0.281263 6.1996,-0.101551 15.71558,-0.264823 21.14664,-0.362829 15.83628,-0.285772 19.18423,-0.302714 19.25019,-0.09741 0.0329,0.102472 0.18343,0.322864 0.33447,0.48976 0.239,0.264096 0.27343,3.364157 0.26552,23.906172 -0.005,13.877426 0.0597,23.560187 0.15798,23.499477 0.0981,-0.0607 0.10025,0.18446 0.005,0.59411 -0.0891,0.38355 -0.16395,0.74217 -0.1664,0.79693 -0.002,0.0548 -0.25242,0.24605 -0.55551,0.42509 -0.61009,0.36039 -4.32139,0.37586 -27.48918,0.11465 z m 26.17711,-1.21831 c 0,-0.1542 -0.36177,-0.24139 -0.44471,-0.10719 -0.0538,0.0871 0.0242,0.1583 0.17344,0.1583 0.1492,0 0.27127,-0.023 0.27127,-0.0511 z m -74.106369,-0.20952 c -0.435509,-0.0392 -1.14816,-0.0392 -1.583669,0 -0.435509,0.0392 -0.07918,0.0713 0.791834,0.0713 0.871018,0 1.227343,-0.0321 0.791835,-0.0713 z m 55.904309,-0.002 c -1.04478,-0.0332 -2.80544,-0.0333 -3.91259,-2.8e-4 -1.10715,0.033 -0.25234,0.0601 1.89959,0.0603 2.15192,1.5e-4 3.05777,-0.0268 2.013,-0.06 z m -16.87542,-0.16003 c -0.0619,-0.0619 -0.22261,-0.0685 -0.3571,-0.0147 -0.14863,0.0595 -0.10448,0.10362 0.11256,0.11256 0.19641,0.008 0.30645,-0.0359 0.24454,-0.0979 z m 33.73071,-0.55105 c -0.0624,-0.0625 -0.21398,0.0823 -0.33672,0.32161 -0.21336,0.41601 -0.20836,0.42101 0.11355,0.11355 0.18519,-0.17688 0.28562,-0.37271 0.22317,-0.43516 z m 2.59308,-0.22137 c -0.0469,-0.17933 -0.0852,-0.0326 -0.0852,0.32605 0,0.35865 0.0383,0.50537 0.0852,0.32605 0.0469,-0.17933 0.0469,-0.47278 0,-0.6521 z m -4.54776,0.56253 c -0.43242,-0.0391 -1.18699,-0.0395 -1.67683,-0.001 -0.48983,0.0385 -0.13604,0.0705 0.78622,0.071 0.92225,5.7e-4 1.32303,-0.0309 0.89061,-0.07 z m 3.01402,-0.0373 c 0.059,-0.0954 0.036,-0.21746 -0.0511,-0.27127 -0.0871,-0.0538 -0.1583,0.0242 -0.1583,0.17344 0,0.31416 0.0588,0.3416 0.20941,0.0978 z m -10.43752,-0.38628 c 4.80966,-0.10603 8.77754,-0.22547 8.8175,-0.26543 0.0708,-0.0708 0.48268,-39.382826 0.45851,-43.766806 -0.007,-1.213047 -0.0562,-2.249616 -0.11012,-2.303488 -0.12673,-0.126734 -1.93201,-0.103182 -17.16549,0.223937 -17.42103,0.374095 -40.32569,0.829711 -49.881177,0.99223 -5.34076,0.09084 -8.027597,0.202449 -8.1643,0.339152 -0.373333,0.373333 -0.60985,8.915861 -1.030471,37.21866 l -0.118813,7.994685 29.224751,-0.12008 c 16.07362,-0.0661 33.15994,-0.20684 37.96961,-0.31286 z m -4.16046,-14.513299 -0.57865,-0.540535 0.0101,-6.213345 c 0.006,-3.41734 0.0799,-6.88027 0.1653,-7.695401 0.1395,-1.331677 0.21439,-1.534903 0.73815,-2.002875 0.76667,-0.685026 1.82228,-0.714085 2.5695,-0.07073 l 0.52275,0.450084 -0.002,6.955895 c -8.3e-4,3.825742 -0.0704,7.36432 -0.15454,7.863506 -0.20382,1.208888 -0.82375,1.793941 -1.90089,1.793941 -0.61629,0 -0.9196,-0.119662 -1.37015,-0.540536 z m 1.74778,-1.558747 c -0.1686,-0.09435 -0.50358,-0.08936 -0.79636,0.01187 -0.45982,0.158984 -0.43361,0.173653 0.29101,0.162856 0.55658,-0.0083 0.70873,-0.0609 0.50535,-0.174722 z m 0.46828,-0.996617 c 0,-0.03929 -0.25647,-0.07144 -0.56994,-0.07144 -0.31346,0 -0.52507,0.0726 -0.47023,0.161328 0.0928,0.150088 1.04017,0.06821 1.04017,-0.08989 z m -0.0839,-0.670654 c 0.0733,-0.07339 -0.25506,-0.125635 -0.7298,-0.116106 -0.47474,0.0095 -0.86316,0.07424 -0.86316,0.143795 0,0.1679 1.42217,0.143179 1.59296,-0.02769 z m -0.33923,-0.631231 c -0.0619,-0.06191 -0.2226,-0.06853 -0.3571,-0.01471 -0.14863,0.05948 -0.10448,0.103625 0.11257,0.112565 0.1964,0.0081 0.30645,-0.03595 0.24453,-0.09786 z m -0.83013,-1.266382 c -0.0674,-0.112597 0.0194,-0.08965 0.19273,0.05098 0.26719,0.216731 0.36328,0.216731 0.63047,0 0.2142,-0.173748 0.27039,-0.18106 0.17532,-0.02281 -0.0889,0.148006 -0.03,0.232892 0.16155,0.232892 0.19158,0 0.25046,-0.08489 0.16154,-0.232892 -0.10387,-0.1729 -0.0626,-0.170221 0.16036,0.0104 0.25581,0.207262 0.29308,0.194286 0.25171,-0.08763 -0.0389,-0.264957 -0.26145,-0.342157 -1.11657,-0.387302 -0.82226,-0.04341 -1.03713,-0.0018 -0.93386,0.180786 0.1075,0.190079 0.0843,0.190928 -0.11678,0.0043 -0.35818,-0.332456 -0.54901,-0.288216 -0.54901,0.127274 0,0.278578 0.12516,0.356608 0.55252,0.344457 0.34866,-0.0099 0.50733,-0.09125 0.43002,-0.220431 z m 0.45751,-1.342013 c -0.0619,-0.06191 -0.22261,-0.06853 -0.35711,-0.01471 -0.14862,0.05948 -0.10448,0.103624 0.11257,0.112564 0.19641,0.0081 0.30645,-0.03594 0.24454,-0.09785 z m 0.69678,-0.60741 c -0.11692,-0.11692 -1.42869,-0.05028 -1.55813,0.07916 -0.0481,0.04809 0.30544,0.07258 0.78563,0.05442 0.48018,-0.01816 0.82781,-0.07827 0.7725,-0.133578 z m -0.38989,-0.919582 c 0.0507,-0.08197 -0.21687,-0.16204 -0.59452,-0.177924 -0.54082,-0.02275 -0.6075,0.0061 -0.31401,0.13595 0.4829,0.213608 0.79359,0.227962 0.90853,0.04197 z m 0.67514,-0.782525 c 0,-0.102473 -0.0888,-0.186314 -0.19731,-0.186314 -0.10852,0 -0.1455,0.08384 -0.0822,0.186314 0.0633,0.102473 0.15212,0.186314 0.19731,0.186314 0.0452,0 0.0822,-0.08384 0.0822,-0.186314 z m -1.35466,-0.112565 c -0.0619,-0.06191 -0.22261,-0.06853 -0.3571,-0.01471 -0.14863,0.05948 -0.10448,0.103625 0.11256,0.112565 0.19641,0.0081 0.30645,-0.03594 0.24454,-0.09786 z m 0.8784,-0.653276 c 0.0514,-0.05141 -0.26056,-0.103736 -0.69328,-0.116276 -0.62438,-0.01809 -0.69063,0.0066 -0.32098,0.11956 0.49475,0.15121 0.86096,0.150024 1.01426,-0.0033 z m 0.0297,-1.438874 c -0.0528,-0.08539 0.0224,-0.155261 0.16713,-0.155261 0.14469,0 0.22303,0.06479 0.17409,0.143985 -0.0489,0.07919 0.0805,0.131218 0.28766,0.115613 0.26291,-0.0198 0.37666,-0.16038 0.37666,-0.465504 0,-0.25501 -0.0807,-0.38727 -0.19365,-0.317454 -0.1065,0.06582 -0.58796,0.119679 -1.0699,0.119679 -0.48194,0 -0.93849,0.09781 -1.01454,0.217367 -0.10241,0.160966 -0.13903,0.156937 -0.14114,-0.01553 -0.005,-0.372313 -0.32262,-0.268824 -0.42947,0.139736 -0.0887,0.339061 -0.006,0.372628 0.92084,0.372628 0.56005,0 0.9751,-0.06987 0.92232,-0.155262 z m -0.92969,-0.251458 c 0.0538,-0.08706 0.17588,-0.110064 0.27128,-0.05111 0.24377,0.150658 0.21632,0.20941 -0.0978,0.20941 -0.1492,0 -0.22725,-0.07123 -0.17344,-0.158301 z m 1.30582,-1.216367 c -0.18681,-0.18681 -1.79369,-0.206117 -1.67877,-0.02017 0.0519,0.08401 0.48071,0.152746 0.95287,0.152746 0.47216,0 0.79881,-0.05966 0.7259,-0.132575 z m -0.55136,-1.57992 c -0.37516,-0.136652 -0.58885,-0.132381 -0.73594,0.01471 -0.15215,0.152157 -0.0116,0.203363 0.52867,0.192566 0.72777,-0.01455 0.73007,-0.01685 0.20727,-0.207275 z m 0.16477,-0.669808 c -0.16517,-0.165168 -1.03346,-0.195274 -1.03346,-0.03583 0,0.08659 0.25271,0.150261 0.56157,0.14148 0.30886,-0.0088 0.52121,-0.05632 0.47189,-0.105647 z m -0.0164,-0.994637 c 0.064,-0.06405 -0.0982,-0.116446 -0.36056,-0.116446 -0.26232,0 -0.51169,0.05622 -0.55416,0.124927 -0.0972,0.157261 0.75699,0.149341 0.91472,-0.0085 z m 11.96285,29.367735 c 0,-0.15371 -0.0699,-0.27947 -0.15527,-0.27947 -0.0854,0 -0.15526,0.12576 -0.15526,0.27947 0,0.15371 0.0699,0.27947 0.15526,0.27947 0.0854,0 0.15527,-0.12576 0.15527,-0.27947 z m 1.52169,-0.22357 c -0.11622,-0.14004 -0.30354,-0.22351 -0.41625,-0.18549 -0.11271,0.038 -0.30706,-0.064 -0.43189,-0.22669 -0.20716,-0.27 -0.22749,-0.26985 -0.2329,0.002 -0.006,0.29185 0.58619,0.66504 1.05498,0.66504 0.17958,0 0.18593,-0.062 0.0261,-0.25462 z m 0.10724,-0.77391 c 0.0541,-0.0875 -0.10567,-0.25201 -0.35498,-0.3656 -0.29368,-0.13381 -0.49331,-0.14178 -0.56695,-0.0226 -0.0625,0.10115 -0.0445,0.1719 0.0399,0.15722 0.37721,-0.0655 0.63173,0.033 0.52621,0.20376 -0.0633,0.10248 -0.0313,0.18632 0.0712,0.18632 0.10247,0 0.23055,-0.0716 0.28462,-0.15907 z m -1.80768,-1.37585 c -0.0446,-0.231758 -0.0827,-0.08601 -0.0848,0.32388 -0.002,0.40989 0.0344,0.59951 0.081,0.42138 0.0466,-0.17814 0.0483,-0.513502 0.004,-0.74526 z m 1.85557,0.33423 c 0,-0.148018 -0.0489,-0.255968 -0.10868,-0.23989 -0.0598,0.01608 -0.28975,-0.07131 -0.51104,-0.194204 -0.33202,-0.184372 -0.39539,-0.175949 -0.3625,0.04818 0.0219,0.14939 0.11163,0.336925 0.19934,0.416743 0.0877,0.0798 0.0992,0.0403 0.0255,-0.08776 -0.0737,-0.12809 -0.0542,-0.232892 0.0434,-0.232892 0.0976,0 0.22564,0.125762 0.28462,0.279474 0.13683,0.35656 0.42946,0.36361 0.42946,0.0104 z m -0.41106,-1.34299 c -0.18882,-0.138068 -0.47401,-0.244413 -0.63375,-0.236323 -0.19376,0.0098 -0.21253,0.04612 -0.0564,0.10907 0.12873,0.0519 0.17866,0.183996 0.11095,0.293549 -0.07,0.113207 -0.0358,0.145238 0.0791,0.07421 0.11122,-0.06874 0.25573,-0.03841 0.32113,0.06741 0.0654,0.105816 0.20965,0.136306 0.32057,0.06776 0.13017,-0.08045 0.0799,-0.213633 -0.14164,-0.375667 z m 0.47317,-0.495995 c 0,-0.13473 -0.27947,-0.378234 -0.62105,-0.54112 -0.48515,-0.231349 -0.62105,-0.242788 -0.62105,-0.05227 0,0.140052 0.11878,0.198307 0.27899,0.13683 0.18135,-0.06959 0.23184,-0.03078 0.14426,0.110921 -0.12064,0.195199 0.099,0.302209 0.4928,0.240039 0.0769,-0.01214 0.13973,0.06178 0.13973,0.16425 0,0.102473 0.0419,0.186314 0.0932,0.186314 0.0512,0 0.0932,-0.110233 0.0932,-0.244963 z m -1.92218,-1.280482 c -0.0595,-0.148629 -0.10363,-0.10448 -0.11257,0.112565 -0.008,0.196406 0.0359,0.306447 0.0979,0.244537 0.0619,-0.06191 0.0685,-0.222607 0.0147,-0.357102 z m 1.56999,-0.03359 c -0.28487,-0.343249 -0.95206,-0.520179 -0.89906,-0.23842 0.0415,0.220826 0.91512,0.700462 1.0449,0.573693 0.0402,-0.03929 -0.0254,-0.190161 -0.14584,-0.335273 z m 0.35219,-0.655307 c 0,-0.09069 -0.20192,-0.297185 -0.4487,-0.458884 -0.41022,-0.268784 -0.47014,-0.26785 -0.69868,0.01088 -0.22004,0.26837 -0.20122,0.292321 0.1572,0.200003 0.25449,-0.06555 0.44442,-0.0078 0.50651,0.154004 0.10916,0.28446 0.48367,0.357242 0.48367,0.094 z m -1.92218,-1.174245 c -0.0595,-0.148629 -0.10363,-0.104481 -0.11257,0.112564 -0.008,0.196406 0.0359,0.306448 0.0979,0.244537 0.0619,-0.06191 0.0685,-0.222606 0.0147,-0.357101 z m 1.86007,0.120073 c 0,-0.163028 -0.10754,-0.246219 -0.24842,-0.192162 -0.13663,0.05243 -0.24842,0.01707 -0.24842,-0.07858 0,-0.09565 -0.1537,-0.256174 -0.34157,-0.356717 -0.25573,-0.136861 -0.34158,-0.117155 -0.34158,0.07841 0,0.143667 0.0699,0.218031 0.15526,0.165255 0.0854,-0.05278 0.15527,-0.01998 0.15527,0.07288 0,0.09286 0.18864,0.259818 0.4192,0.371014 0.23057,0.111197 0.4262,0.20785 0.43474,0.214786 0.009,0.0069 0.0155,-0.116761 0.0155,-0.274879 z m -1.85823,-1.152899 c -0.0472,-0.181277 -0.089,-0.07807 -0.0928,0.229347 -0.004,0.307418 0.0349,0.455736 0.0859,0.329595 0.051,-0.126141 0.0541,-0.377664 0.007,-0.558942 z m 1.73402,0.03048 c 0,-0.207239 -0.10819,-0.257688 -0.37263,-0.173758 -0.27695,0.0879 -0.3764,0.03133 -0.38733,-0.220337 -0.0106,-0.242692 -0.0442,-0.264044 -0.1188,-0.07538 -0.0572,0.144774 0.0492,0.375337 0.23664,0.512364 0.44812,0.327679 0.64212,0.314722 0.64212,-0.04289 z m -1.73975,-1.058749 c -0.0517,-0.128091 -0.094,-0.02329 -0.094,0.232892 0,0.256182 0.0423,0.360983 0.094,0.232892 0.0517,-0.12809 0.0517,-0.337694 0,-0.465784 z m 1.78517,0.295427 c -0.12873,-0.0519 -0.17866,-0.183996 -0.11095,-0.293549 0.0728,-0.117732 0.0351,-0.144824 -0.092,-0.06625 -0.11831,0.07312 -0.21511,0.04415 -0.21511,-0.06437 0,-0.249122 -0.49871,-0.259184 -0.65078,-0.01313 -0.0626,0.101299 0.003,0.139404 0.14547,0.08468 0.14262,-0.05473 0.36684,0.03008 0.49828,0.188448 0.13143,0.158372 0.33351,0.281331 0.44905,0.273241 0.13089,-0.0092 0.12186,-0.05028 -0.024,-0.10907 z m -1.77944,-1.502922 c -0.0472,-0.181278 -0.089,-0.07807 -0.0928,0.229346 -0.004,0.307418 0.0349,0.455736 0.0859,0.329596 0.051,-0.126141 0.0541,-0.377665 0.007,-0.558942 z m 1.88179,0.230024 c -0.03,-0.02554 -0.31312,-0.177797 -0.62908,-0.338338 -0.47628,-0.242004 -0.57447,-0.247455 -0.57447,-0.03189 0,0.143001 0.0699,0.216821 0.15526,0.164045 0.0854,-0.05278 0.15527,-0.0022 0.15527,0.112348 0,0.114568 0.0838,0.156489 0.18631,0.09316 0.10247,-0.06333 0.18631,-0.02899 0.18631,0.07631 0,0.105304 0.12938,0.141815 0.28751,0.08114 0.15813,-0.06068 0.26293,-0.131227 0.23289,-0.156772 z m -0.0153,-0.803622 c 0.0319,-0.423875 -0.98757,-0.875967 -1.13122,-0.501633 -0.0612,0.159469 0.0421,0.213281 0.31406,0.16354 0.2229,-0.04077 0.28778,-0.02007 0.14417,0.04602 -0.19639,0.09038 -0.15022,0.181594 0.18632,0.368092 0.24607,0.136367 0.45053,0.250911 0.45434,0.254542 0.004,0.0036 0.0184,-0.145119 0.0323,-0.330557 z m -1.86828,-0.256716 c -0.0595,-0.148629 -0.10363,-0.104481 -0.11257,0.112564 -0.008,0.196406 0.0359,0.306448 0.0979,0.244538 0.0619,-0.06191 0.0685,-0.222607 0.0147,-0.357102 z m 0,-0.93157 c -0.0595,-0.148629 -0.10363,-0.10448 -0.11257,0.112565 -0.008,0.196406 0.0359,0.306447 0.0979,0.244537 0.0619,-0.06191 0.0685,-0.222607 0.0147,-0.357102 z m 1.91759,0.174669 c -0.003,-0.12809 -0.29538,-0.377538 -0.65079,-0.554329 -0.62957,-0.313156 -0.64049,-0.312267 -0.42391,0.03453 0.12226,0.19578 0.28936,0.314519 0.37132,0.263863 0.082,-0.05066 0.14902,0.0016 0.14902,0.116204 0,0.114568 0.0839,0.156489 0.18632,0.09316 0.10247,-0.06333 0.18631,-0.02636 0.18631,0.08216 0,0.108521 0.0419,0.19731 0.0932,0.19731 0.0512,0 0.0911,-0.104802 0.0886,-0.232893 z m -0.0686,-0.972755 c -0.0221,-0.150743 -0.11199,-0.339386 -0.1997,-0.419206 -0.0877,-0.07982 -0.0992,-0.04033 -0.0254,0.08776 0.22468,0.390418 -0.15457,0.259138 -0.40367,-0.139736 -0.27023,-0.432702 -0.54008,-0.488123 -0.54008,-0.11092 0,0.158785 0.11602,0.220383 0.295,0.156629 0.16225,-0.05779 0.22949,-0.0332 0.14942,0.05466 -0.10781,0.118297 0.40824,0.566683 0.73461,0.638286 0.0165,0.0036 0.012,-0.116733 -0.0101,-0.267476 z m -1.84714,-1.538937 c -0.0472,-0.181277 -0.089,-0.07807 -0.0928,0.229347 -0.004,0.307418 0.0349,0.455735 0.0859,0.329595 0.051,-0.126141 0.0541,-0.377665 0.007,-0.558942 z m 1.92034,0.445567 c 0,-0.137261 -0.20961,-0.345067 -0.46579,-0.461791 -0.30962,-0.141072 -0.46578,-0.147412 -0.46578,-0.01891 0,0.106323 -0.0968,0.133492 -0.2151,0.06037 -0.13026,-0.0805 -0.16465,-0.0513 -0.0872,0.07402 0.0704,0.113831 0.26474,0.154458 0.43197,0.09028 0.19224,-0.07377 0.25814,-0.04236 0.17919,0.08538 -0.0687,0.111134 -0.0196,0.244525 0.10917,0.296423 0.39911,0.160903 0.51353,0.132876 0.51353,-0.125785 z m -0.0621,-0.961476 c 0,-0.262127 -0.19132,-0.361983 -0.56435,-0.294556 -0.0884,0.01597 -0.27823,-0.12082 -0.42191,-0.303986 -0.19608,-0.249979 -0.24894,-0.263335 -0.21195,-0.05356 0.0382,0.216697 0.51075,0.585787 1.18269,0.92376 0.009,0.0043 0.0155,-0.117952 0.0155,-0.271661 z m -0.67941,-1.486009 c -0.284,-0.342196 -0.62775,-0.376738 -0.50834,-0.05108 0.047,0.128091 0.17972,0.211932 0.295,0.186314 0.11528,-0.02562 0.2096,0.05124 0.2096,0.170788 0,0.119551 0.0539,0.163498 0.11971,0.09766 0.0658,-0.06584 0.0136,-0.247495 -0.11597,-0.40368 z m 0.74152,0.379121 c 0,-0.04519 -0.0839,-0.133978 -0.18632,-0.19731 -0.10247,-0.06333 -0.18631,-0.02636 -0.18631,0.08216 0,0.10852 0.0838,0.197309 0.18631,0.197309 0.10247,0 0.18632,-0.03697 0.18632,-0.08216 z m -0.18632,-0.93601 c 0,-0.386357 -0.60613,-0.677042 -0.94161,-0.451571 -0.232,0.155924 -0.2306,0.173707 0.01,0.127999 0.15371,-0.0292 0.30844,0.03019 0.34384,0.131967 0.0554,0.159255 0.39972,0.453005 0.54115,0.461667 0.0256,0.0016 0.0466,-0.119959 0.0466,-0.270062 z m -0.0233,-1.124439 c 0.0564,-0.22556 -0.23381,-0.160264 -0.31052,0.06987 -0.047,0.140899 -0.002,0.20378 0.10092,0.139735 0.10247,-0.06405 0.19679,-0.158367 0.2096,-0.209603 z m -0.34934,-0.290467 c 0,-0.09642 -0.12576,-0.175318 -0.27947,-0.175318 -0.28811,0 -0.37015,0.219843 -0.16032,0.429667 0.14885,0.148852 0.43979,-0.01941 0.43979,-0.254349 z m 0.21075,-0.611667 c -0.11413,-0.137519 -0.15803,-0.299521 -0.0975,-0.360005 0.0605,-0.06048 -0.087,-0.06646 -0.32767,-0.01327 -0.30886,0.06824 -0.36451,0.04474 -0.18912,-0.07985 0.20195,-0.14347 0.19323,-0.197763 -0.0466,-0.289785 -0.51689,-0.198351 -0.32784,0.396427 0.21727,0.68355 0.66776,0.351725 0.68859,0.354511 0.44364,0.05937 z m -1.57787,-0.914427 c -0.0517,-0.128091 -0.094,-0.02329 -0.094,0.232892 0,0.256182 0.0423,0.360984 0.094,0.232893 0.0517,-0.128091 0.0517,-0.337694 0,-0.465785 z m 1.84718,-0.07993 c -0.0517,-0.352104 -0.62611,-0.617315 -1.01807,-0.470033 -0.1689,0.06347 -0.0397,0.209025 0.37263,0.419836 0.34714,0.177477 0.64471,0.331761 0.66126,0.342852 0.0165,0.01109 0.009,-0.120604 -0.0158,-0.292655 z m -1.69565,-1.836094 c 0.008,-0.457659 -0.0416,-0.832108 -0.10939,-0.832108 -0.0678,0 -0.11342,0.413811 -0.10136,0.919579 0.0269,1.128856 0.19159,1.060506 0.21075,-0.08747 z m 1.77454,0.746537 c 0,-0.04126 -0.15371,-0.157285 -0.34158,-0.257829 -0.24626,-0.131793 -0.34158,-0.118037 -0.34158,0.04929 0,0.127654 0.15371,0.243677 0.34158,0.257828 0.18787,0.01415 0.34158,-0.008 0.34158,-0.04929 z m -0.93157,-0.367604 c 0,-0.153709 -0.0329,-0.279471 -0.0732,-0.279471 -0.0403,0 -0.12148,0.125762 -0.18046,0.279471 -0.059,0.153709 -0.026,0.279471 0.0732,0.279471 0.0993,0 0.18047,-0.125762 0.18047,-0.279471 z m 0.4999,-0.873347 c -0.0595,-0.148629 -0.10363,-0.10448 -0.11257,0.112565 -0.008,0.196406 0.0359,0.306448 0.0979,0.244537 0.0619,-0.06191 0.0685,-0.222606 0.0147,-0.357102 z m -0.31359,-0.244537 c 0,-0.02931 -0.11179,-0.09619 -0.24842,-0.148617 -0.13663,-0.05243 -0.24842,0.01445 -0.24842,0.148617 0,0.13417 0.11179,0.201047 0.24842,0.148617 0.13663,-0.05243 0.24842,-0.119307 0.24842,-0.148617 z m 0.68315,-0.364432 c 0,-0.149201 -0.0712,-0.227249 -0.1583,-0.17344 -0.0871,0.05381 -0.11006,0.175883 -0.0511,0.271275 0.15066,0.24377 0.20941,0.216321 0.20941,-0.09784 z m -1.67682,-0.186314 c 0,-0.149201 -0.0712,-0.227249 -0.1583,-0.17344 -0.0871,0.05381 -0.11007,0.175883 -0.0511,0.271275 0.15065,0.24377 0.20941,0.216322 0.20941,-0.09784 z m 1.3663,-0.183514 c 0,-0.04519 -0.0838,-0.133978 -0.18632,-0.19731 -0.10247,-0.06333 -0.18631,-0.02636 -0.18631,0.08216 0,0.10852 0.0838,0.197309 0.18631,0.197309 0.10248,0 0.18632,-0.03697 0.18632,-0.08216 z m -1.3663,-0.561742 c 0,-0.149201 -0.0712,-0.227249 -0.1583,-0.17344 -0.0871,0.05381 -0.11007,0.175884 -0.0511,0.271276 0.15065,0.243769 0.20941,0.216321 0.20941,-0.09784 z m 1.46929,-0.08544 c -0.0579,-0.09372 -0.0114,-0.201692 0.10329,-0.239937 0.11474,-0.03824 -0.0315,-0.17253 -0.32489,-0.298411 -0.49141,-0.210824 -0.50496,-0.206594 -0.17183,0.05362 0.26106,0.203917 0.28697,0.283292 0.0932,0.285352 -0.22646,0.0024 -0.22474,0.03114 0.011,0.183461 0.35204,0.2275 0.42247,0.231375 0.28931,0.01591 z m 0.0693,-1.328801 c -0.12739,-0.07873 -0.35778,-0.09474 -0.51197,-0.03557 -0.16985,0.06518 -0.23201,0.02936 -0.1577,-0.09087 0.0675,-0.109149 -0.003,-0.246528 -0.15575,-0.305286 -0.15312,-0.05876 -0.2784,-0.03038 -0.2784,0.06307 0,0.282428 0.76897,0.729176 1.06174,0.616833 0.20955,-0.08041 0.21941,-0.13858 0.0421,-0.248178 z m -0.35857,-1.242218 c 0,-0.05124 -0.12576,-0.0449 -0.27947,0.01409 -0.15371,0.05898 -0.27947,0.01206 -0.27947,-0.104275 0,-0.116336 -0.0503,-0.161203 -0.11181,-0.09971 -0.19573,0.195725 0.11287,0.497134 0.39725,0.388006 0.15043,-0.05772 0.2735,-0.146874 0.2735,-0.198111 z m -1.17692,-0.647165 c -0.0595,-0.148629 -0.10362,-0.104481 -0.11256,0.112564 -0.008,0.196406 0.0359,0.306448 0.0978,0.244537 0.0619,-0.06191 0.0685,-0.222606 0.0147,-0.357101 z m 1.5509,0.03745 c -0.12483,-0.233245 -0.36343,-0.356425 -0.64522,-0.333103 -0.24593,0.02035 -0.41119,0.09519 -0.36724,0.166304 0.044,0.07111 0.24751,0.08547 0.45236,0.0319 0.25895,-0.06772 0.37244,-0.0056 0.37244,0.203805 0,0.165661 0.0868,0.301201 0.19287,0.301201 0.1312,0 0.12953,-0.118337 -0.005,-0.370109 z m 0.18497,-0.747774 c -0.15371,-0.09934 -0.20057,-0.181892 -0.10413,-0.183461 0.0964,-0.0016 0.0126,-0.125949 -0.18631,-0.276399 -0.40439,-0.305865 -1.01376,-0.375908 -1.01376,-0.116525 0,0.09288 0.18864,0.133871 0.4192,0.09109 0.23057,-0.04278 0.30172,-0.02371 0.15811,0.04237 -0.19639,0.09038 -0.15022,0.181594 0.18632,0.368092 0.51356,0.2846 0.96101,0.346539 0.54057,0.07483 z m -0.0989,-1.108536 c 0.0602,-0.09733 -0.0467,-0.260485 -0.23742,-0.362564 -0.25862,-0.138408 -0.3468,-0.121616 -0.3468,0.06605 0,0.146942 0.11608,0.207102 0.27899,0.144589 0.18135,-0.06959 0.23184,-0.03078 0.14426,0.11092 -0.0741,0.119887 -0.0928,0.217976 -0.0416,0.217976 0.0512,0 0.14238,-0.07963 0.20253,-0.176966 z m -0.3597,-1.45028 c -0.27823,-0.14578 -0.5467,-0.224228 -0.5966,-0.174329 -0.0499,0.0499 0.0845,0.146338 0.29864,0.214309 0.21416,0.06797 0.34189,0.200427 0.28384,0.294348 -0.058,0.09392 0.0352,0.116757 0.20723,0.05075 0.26062,-0.100009 0.22842,-0.16421 -0.19311,-0.385074 z m -1.27723,-0.457141 c -0.0595,-0.148629 -0.10362,-0.104481 -0.11256,0.112564 -0.008,0.196406 0.0359,0.306448 0.0978,0.244538 0.0619,-0.06191 0.0685,-0.222607 0.0147,-0.357102 z m 1.73587,0.03493 c -0.23012,-0.14871 -0.23286,-0.181112 -0.0155,-0.183461 0.14517,-0.0016 0.21363,-0.05317 0.15213,-0.114667 -0.16735,-0.167349 -0.53201,0.110538 -0.40812,0.311002 0.059,0.09539 0.20705,0.172156 0.32909,0.170587 0.13333,-0.0017 0.11035,-0.07494 -0.0576,-0.183461 z m -0.47157,-0.36328 c 0.0602,-0.09733 -0.0607,-0.267964 -0.26847,-0.379183 -0.29403,-0.15736 -0.37785,-0.145657 -0.37785,0.05276 0,0.459127 0.43007,0.676334 0.64632,0.326427 z m -1.0218,-1.360124 c 0.005,-0.838837 -0.30627,-0.58071 -0.33666,0.279471 -0.0202,0.57258 0.0221,0.71445 0.15292,0.512363 0.0995,-0.153709 0.18217,-0.510034 0.18374,-0.791834 z m 1.58429,0.652099 c -0.0343,-0.179328 -0.0701,-0.367971 -0.0795,-0.419207 -0.009,-0.05124 -0.0952,0.03039 -0.19074,0.181397 -0.11451,0.181072 -0.0977,0.322834 0.0494,0.416353 0.29751,0.189131 0.29205,0.193542 0.22082,-0.178543 z m -0.81175,-0.296614 c -0.11413,-0.137519 -0.14536,-0.318644 -0.0694,-0.402499 0.076,-0.08386 0.0292,-0.08964 -0.10382,-0.01285 -0.18641,0.107567 -0.19186,0.19996 -0.0238,0.402499 0.12,0.144586 0.2601,0.262884 0.31133,0.262884 0.0512,0 -2.2e-4,-0.112516 -0.11435,-0.250035 z m 0.74632,-0.62564 c -0.1907,-0.07584 -0.19841,-0.135342 -0.0309,-0.238834 0.16044,-0.09916 0.1375,-0.170646 -0.0818,-0.254783 -0.17812,-0.06835 -0.25746,-0.04042 -0.19094,0.06723 0.0626,0.101298 0.004,0.185463 -0.13005,0.187032 -0.17722,0.0021 -0.1675,0.05222 0.0356,0.183461 0.15371,0.09933 0.36331,0.175273 0.46578,0.168752 0.10248,-0.0065 0.072,-0.05731 -0.0677,-0.112857 z m -0.63104,-0.723545 c -0.17755,-0.177549 -0.53351,0.110037 -0.40119,0.32413 0.0787,0.127253 0.18286,0.124039 0.31667,-0.0098 0.10969,-0.109694 0.14773,-0.251157 0.0845,-0.314362 z m 0.64201,-0.647739 c -0.0713,-0.05739 -0.38114,-0.205476 -0.68856,-0.329077 -0.49227,-0.197921 -0.51887,-0.193275 -0.22302,0.03895 0.24858,0.195123 0.2728,0.285633 0.0932,0.348109 -0.13353,0.04644 0.0252,0.07586 0.35263,0.0654 0.32748,-0.01047 0.53708,-0.06599 0.46579,-0.123381 z m -1.5899,-0.594329 c -0.0517,-0.12809 -0.094,-0.02329 -0.094,0.232893 0,0.256181 0.0423,0.360983 0.094,0.232892 0.0517,-0.128091 0.0517,-0.337694 0,-0.465785 z m 1.64527,-0.137601 c 0.0653,-0.105614 -0.01,-0.136849 -0.17531,-0.07322 -0.32278,0.123859 -0.38183,0.257403 -0.11383,0.257403 0.0964,0 0.22654,-0.08288 0.28914,-0.18418 z m -0.27815,-0.314698 c 0,-0.02582 -0.15371,-0.129216 -0.34157,-0.229759 -0.25404,-0.135957 -0.34158,-0.117329 -0.34158,0.07268 0,0.140519 0.15371,0.243911 0.34158,0.229759 0.18786,-0.01415 0.34157,-0.04686 0.34157,-0.07268 z m -1.36324,-0.840254 c -0.0595,-0.148628 -0.10362,-0.10448 -0.11256,0.112565 -0.008,0.196406 0.0359,0.306448 0.0979,0.244537 0.0619,-0.06191 0.0685,-0.222606 0.0147,-0.357102 z m 1.73587,0.115536 c 0,-0.212975 -0.10719,-0.258007 -0.39596,-0.166353 -0.25298,0.08029 -0.3528,0.05584 -0.27643,-0.06773 0.0657,-0.10637 0.0214,-0.254069 -0.0986,-0.328219 -0.13624,-0.0842 -0.16823,-0.05406 -0.0852,0.08028 0.0743,0.120174 0.0253,0.218015 -0.11095,0.221703 -0.13414,0.0036 -0.0343,0.126423 0.22189,0.272869 0.60446,0.345537 0.74526,0.343165 0.74526,-0.01256 z m -1.50894,-3.842463 c 0.0101,-0.685643 -0.0543,-1.291552 -0.14312,-1.346465 -0.0889,-0.05491 -0.16135,0.967195 -0.16111,2.27135 3.5e-4,1.866573 0.0308,2.153117 0.14313,1.346465 0.0785,-0.5636 0.15097,-1.585707 0.1611,-2.27135 z m 1.43574,2.928841 c -0.0566,-0.385802 -0.29943,-0.591616 -0.29943,-0.253811 0,0.243884 0.15819,0.527889 0.29404,0.527889 0.0251,0 0.0275,-0.123335 0.005,-0.274078 z m -0.48574,-0.482173 c 0,-0.09643 -0.12576,-0.175318 -0.27947,-0.175318 -0.28812,0 -0.37015,0.219843 -0.16033,0.429667 0.14885,0.148852 0.4398,-0.01941 0.4398,-0.254349 z m 0.55894,-0.71535 c 0,-0.189688 -0.94951,-0.622013 -1.07986,-0.491671 -0.0551,0.05507 0.0186,0.101417 0.16382,0.102986 0.21789,0.0024 0.21518,0.03621 -0.0155,0.194083 -0.24842,0.169982 -0.24842,0.187914 0,0.161386 0.55273,-0.05902 0.7651,0.01778 0.63431,0.229407 -0.0824,0.13327 -0.0511,0.164527 0.0822,0.08216 0.1183,-0.07312 0.2151,-0.198375 0.2151,-0.278352 z m -0.74526,-1.323108 c 0,-0.102472 -0.0888,-0.186314 -0.19731,-0.186314 -0.10852,0 -0.14549,0.08384 -0.0822,0.186314 0.0633,0.102473 0.15212,0.186314 0.19731,0.186314 0.0452,0 0.0822,-0.08384 0.0822,-0.186314 z m 0.18632,-0.942565 c 0,-0.09642 -0.12576,-0.175318 -0.27947,-0.175318 -0.28812,0 -0.37015,0.219843 -0.16033,0.429667 0.14885,0.148852 0.4398,-0.01941 0.4398,-0.254349 z m 0.34876,-1.870839 c -0.14058,-0.08905 -0.33945,-0.156578 -0.44192,-0.150057 -0.10247,0.0065 -0.072,0.05731 0.0677,0.112858 0.21442,0.08527 0.21442,0.12924 0,0.282337 -0.1944,0.138804 -0.1775,0.156736 0.0721,0.07645 0.18665,-0.06004 0.33233,-0.0078 0.34076,0.12216 0.01,0.151466 0.0484,0.142347 0.11586,-0.02739 0.0556,-0.139943 -0.0139,-0.327302 -0.15444,-0.416354 z m -0.44988,-0.900001 c 0.059,-0.09539 0.036,-0.217465 -0.0511,-0.271275 -0.0871,-0.05381 -0.15831,0.02424 -0.15831,0.17344 0,0.314157 0.0588,0.341605 0.20941,0.09783 z M 84.552333,58.064534 c -0.17092,-0.17092 0.485701,-0.768058 0.745256,-0.677743 0.12809,0.04457 0.233234,0.0092 0.233652,-0.07863 4.19e-4,-0.08782 3.231387,-0.191848 7.17993,-0.231178 3.948543,-0.03933 7.448579,-0.127351 7.777849,-0.195601 0.32927,-0.06825 -2.126166,-0.09775 -5.456528,-0.06556 -9.597354,0.09276 -9.708221,0.09839 -10.288658,0.522239 -0.520935,0.3804 -0.684391,0.835163 -0.300184,0.835163 0.119551,0 0.168458,-0.04891 0.108683,-0.108683 z m 78.017647,-0.0755 c 0.0653,-0.105614 -0.01,-0.136849 -0.17532,-0.07322 -0.32278,0.12386 -0.38183,0.257404 -0.11383,0.257404 0.0964,0 0.22654,-0.08288 0.28915,-0.18418 z m 0.46425,-0.991278 c -0.002,-0.133329 -0.0749,-0.110349 -0.18346,0.05757 -0.14981,0.231814 -0.18158,0.215929 -0.18632,-0.09316 -0.005,-0.309086 -0.0365,-0.324971 -0.18631,-0.09316 -0.14871,0.230113 -0.18111,0.232855 -0.18346,0.01553 -0.002,-0.145169 -0.0656,-0.201195 -0.1423,-0.124502 -0.1723,0.172305 0.50606,0.693624 0.72583,0.557797 0.0874,-0.054 0.15759,-0.198038 0.15602,-0.320081 z m -54.02789,-0.268475 c 1.6e-4,-0.07686 -1.19457,-0.118065 -2.65497,-0.09158 -4.84754,0.08792 -5.31028,0.156838 -1.3045,0.194294 2.17754,0.02036 3.9593,-0.02586 3.95947,-0.102715 z m 2.37132,-0.159144 c -0.0619,-0.06191 -0.22261,-0.06853 -0.3571,-0.01471 -0.14863,0.05948 -0.10448,0.103625 0.11256,0.112565 0.19641,0.0081 0.30645,-0.03595 0.24454,-0.09786 z m 1.31025,-0.01545 c -0.17813,-0.04663 -0.5135,-0.04832 -0.74526,-0.0038 -0.23175,0.04456 -0.086,0.08272 0.32388,0.08479 0.40989,0.0021 0.59951,-0.03439 0.42138,-0.08103 z m 1.49051,0 c -0.17813,-0.04663 -0.5135,-0.04832 -0.74525,-0.0038 -0.23176,0.04456 -0.086,0.08272 0.32387,0.08479 0.40989,0.0021 0.59951,-0.03439 0.42138,-0.08103 z m 1.02256,0.0046 c -0.12809,-0.05169 -0.3377,-0.05169 -0.46579,0 -0.12809,0.05169 -0.0233,0.09397 0.23289,0.09397 0.25619,0 0.36099,-0.04229 0.2329,-0.09397 z m 3.55828,-0.01634 c 0.0478,-0.07685 -0.42935,-0.116389 -1.06031,-0.08785 -2.05467,0.09292 -2.29773,0.167354 -0.64583,0.197772 0.89059,0.0164 1.65835,-0.03306 1.70614,-0.109918 z m 5.66426,-0.185476 c -0.99911,-0.0335 -2.63402,-0.0335 -3.63313,0 -0.9991,0.0335 -0.18165,0.06091 1.81657,0.06091 1.99821,0 2.81566,-0.02741 1.81656,-0.06091 z m 23.13398,-0.349979 c 0.11998,-0.108287 -8.65013,-0.03718 -14.05118,0.113921 -3.15893,0.08838 -1.57092,0.104321 4.56469,0.04583 5.17487,-0.04933 9.44379,-0.121219 9.48649,-0.159755 z m 15.37847,-0.269254 c -0.059,-0.09539 -0.91271,-0.17344 -1.89723,-0.17344 -2.12437,0 -2.24111,0.135037 -0.18301,0.211684 0.79713,0.02969 1.54715,0.114432 1.66671,0.188323 0.26971,0.166693 0.55871,0.0084 0.41353,-0.226567 z m -8.506,0.06041 c -0.99366,-0.03344 -2.67048,-0.03357 -3.72628,-3e-4 -1.05579,0.03327 -0.2428,0.06063 1.80665,0.06079 2.04946,1.64e-4 2.91329,-0.02706 1.91963,-0.06049 z M 82.127146,54.98276 c 0.126383,-0.12733 0.276721,-0.184576 0.334085,-0.127212 0.05736,0.05736 -0.04604,0.161543 -0.229787,0.23151 -0.265534,0.10111 -0.286935,0.07971 -0.104298,-0.104298 z m 84.772874,45.06944 c -0.0394,-0.438217 -0.0721,-0.126029 -0.0728,0.69375 -6.8e-4,0.81978 0.0315,1.17833 0.0716,0.79676 0.04,-0.38156 0.0406,-1.05229 0.001,-1.49051 z m 0.003,-27.593514 c -0.0276,-4.834064 -0.0503,-0.824287 -0.0502,8.910617 1e-5,9.734903 0.0226,13.690047 0.0503,8.789207 0.0276,-4.900839 0.0276,-12.86576 -2e-5,-17.699824 z m -5.5e-4,-14.787706 c -0.033,-1.107151 -0.0601,-0.252335 -0.0603,1.899591 -1.5e-4,2.151926 0.0268,3.057777 0.06,2.013002 0.0332,-1.044776 0.0333,-2.805443 2.8e-4,-3.912593 z m -0.01,-3.360232 c -0.0472,-0.181277 -0.089,-0.07807 -0.0928,0.229347 -0.004,0.307418 0.0349,0.455736 0.0859,0.329595 0.051,-0.126141 0.0541,-0.377664 0.007,-0.558942 z m 28.31788,-36.416277 c -0.0595,-0.148629 -0.10362,-0.10448 -0.11256,0.112565 -0.008,0.196406 0.0359,0.306447 0.0978,0.244537 0.0619,-0.06191 0.0685,-0.222607 0.0147,-0.357102 z m 0.008,-2.057761 c -0.0415,-0.334872 -0.0762,-0.10581 -0.0773,0.509026 -0.001,0.614836 0.0329,0.888822 0.0754,0.608857 0.0425,-0.279964 0.0434,-0.783012 0.002,-1.117883 z m 0.11637,-1.173766 c -0.14779,-0.385132 -0.2514,-0.339748 -0.2514,0.11012 0,0.210993 0.0802,0.334069 0.17817,0.273504 0.098,-0.06057 0.13095,-0.233196 0.0732,-0.383624 z m -23.6338,-1.387407 c 2.74066,-0.08891 1.09536,-0.104945 -4.56469,-0.04448 -4.86746,0.052 -9.0176,0.165806 -9.22254,0.25291 -0.36508,0.155163 5.1495,0.0718 13.78723,-0.208429 z m 10.48508,-0.325725 c -0.38156,-0.04003 -1.05229,-0.04059 -1.49051,-0.0012 -0.43822,0.03936 -0.12603,0.07211 0.69375,0.07279 0.81978,6.77e-4 1.17833,-0.03153 0.79676,-0.07156 z m 8.28605,-0.174276 c -0.12809,-0.05169 -0.3377,-0.05169 -0.46579,0 -0.12809,0.05169 -0.0233,0.09397 0.2329,0.09397 0.25618,0 0.36098,-0.04229 0.23289,-0.09397 z"
       id="path1" /></g></svg>
