<svg xmlns="http://www.w3.org/2000/svg" xml:space="preserve" width="960" height="960" viewBox="0 0 254 254"><path d="M143.818 252.212c-27.27-3.325-31.9-3.88-35.36-4.243a552 552 0 0 1-8.959-1.05 2962 2962 0 0 0-14.38-1.749c-4.927-.587-10.444-1.245-12.259-1.463-10.044-1.202-15.054-1.78-18.859-2.175-2.334-.243-4.986-.579-5.893-.747l-1.65-.307-.107-95.654-.106-95.654 2.935-1.177c3.306-1.326 5.374-1.439 13.522-.74 2.734.235 9.64.715 15.345 1.067 5.705.353 12.812.833 15.794 1.067s10.196.715 16.03 1.068 13.155.836 16.267 1.071c3.111.236 11.916.832 19.566 1.326 7.65.493 15.712 1.017 17.916 1.165l4.008.267.119 97.454c.131 107.403.43 98.921-3.557 100.842-3.522 1.697-3.414 1.699-20.372-.368m20.155-.764 2.474-1.13.001-97.312.001-97.312-2.475 1.264-2.475 1.264-.12 96.24c-.065 52.933-.294 96.4-.509 96.594-.41.37-2.43.187-17.76-1.612-5.186-.61-10.914-1.279-12.73-1.489-1.814-.21-5.846-.689-8.957-1.064a2143 2143 0 0 0-17.68-2.066c-9.816-1.115-20.455-2.366-23.81-2.799a721 721 0 0 0-9.195-1.087l-9.43-1.058c-8.372-.94-11.587-1.422-12.14-1.817-1.03-.737-.846-187.34.184-187.697.426-.148 5.783.048 11.905.434 27.643 1.746 37.468 2.394 42.957 2.834 7.503.601 33.552 2.388 49.67 3.407 6.067.383 6.658.353 8.337-.42 2.462-1.136 2.735-1.695.838-1.714-.858-.009-4.213-.19-7.454-.402-8.25-.541-25.473-1.663-32.768-2.135-6.404-.414-26.86-1.778-38.19-2.546-3.63-.246-11.056-.732-16.502-1.08-5.445-.347-11.068-.731-12.494-.853-2.205-.19-3.035-.033-5.544 1.044l-2.95 1.267.013 94.365c.01 74.18.137 94.458.593 94.796.32.237 2.49.646 4.824.909s5.834.673 7.779.911c6.337.775 14.31 1.73 17.68 2.115 1.816.208 5.847.68 8.959 1.047 3.112.368 7.249.848 9.194 1.066 3.195.358 7.46.877 17.916 2.177 1.945.242 5.87.711 8.722 1.043 2.853.332 6.778.806 8.723 1.052s6.082.732 9.194 1.08c9.579 1.072 13.099 1.484 15.794 1.847 3.218.433 4.305.263 7.425-1.163m-4.009-96.857c.08-63.681-.038-95.986-.351-96.076-.26-.075-5.351-.451-11.316-.836a3936 3936 0 0 1-16.266-1.08c-2.982-.21-8.604-.576-12.494-.815-3.89-.24-9.512-.621-12.494-.849-7.131-.544-15.91-1.15-28.053-1.935-5.446-.352-12.341-.823-15.324-1.047-2.982-.223-7.277-.532-9.545-.686l-4.123-.28-.12 93.296-.12 93.295 8.722.982c15.363 1.731 18.44 2.086 28.053 3.231 16.241 1.936 27.206 3.21 31.118 3.619 2.075.216 6.106.686 8.958 1.044 2.853.359 9.43 1.156 14.616 1.773 8.815 1.048 17.463 2.11 18.268 2.245.193.033.405-43.114.471-95.881M136.04 209.61a386 386 0 0 0-6.13-.78 14877 14877 0 0 1-21.452-2.61c-9.724-1.187-20.12-2.45-23.102-2.807-12.298-1.469-15.253-1.91-15.862-2.367-1.034-.775-.938-42.238.099-43.016.608-.456 2.676-.424 11.67.183 6.01.405 13.581.914 16.823 1.13 13.8.92 26.064 1.76 31.198 2.14 3.027.224 6.703.407 8.17.407 2.318 0 2.846.162 4.044 1.245l1.378 1.246v21.885c0 26.377.584 24.382-6.836 23.344m4.676-.675c1.005-.349 1.152-44.505.151-45.256-.327-.246-6.427-.841-13.555-1.324s-21.447-1.447-31.82-2.143a8021 8021 0 0 1-21.736-1.476c-3.43-.252-3.96.093-3.96 2.583v1.816l1.769-1.678 1.768-1.678 10.372.839c10.52.85 33.5 2.561 45.97 3.423 3.76.26 7.314.645 7.897.856 1.375.497 1.718 39.864.357 40.885-.931.698-1.447.643-36.256-3.86-36.021-4.659-31.356-1.704-31.523-19.965l-.13-14.314-.112 16.035c-.128 18.379-.562 16.794 4.774 17.421 1.98.233 5.246.624 7.255.868 2.01.244 5.988.716 8.84 1.048 2.853.333 9.112 1.098 13.91 1.7a2822 2822 0 0 0 15.794 1.936c7.296.865 19.27 2.403 19.41 2.492.044.028.415-.066.825-.208m-5.908-4.216c-1.176-.578-24.942-3.408-25.984-3.094-.431.13 5.892 1.02 21.794 3.065 5.747.74 5.635.739 4.19.029m2.882-19.177c0-10.43-.164-18.965-.364-18.965s-1.155.59-2.122 1.31l-1.757 1.31.007 16.695c.008 17.451-.011 17.275 1.878 18.064 2.467 1.03 2.358 1.884 2.358-18.414zm-5.186.445v-16.814l-1.533-.224c-2.05-.299-57.972-5.78-58.974-5.78-.846 0-1.26 32.498-.42 32.968.201.112 11.711 1.463 25.578 3.002 13.866 1.54 26.59 2.97 28.276 3.178s3.967.403 5.069.431l2.004.053zm-25.107 15.242c-.453-.107-1.196-.107-1.65 0s-.082.195.825.195c.908 0 1.28-.088.825-.195m-3.781-.39c-.157-.142-.564-.157-.904-.034-.376.136-.264.237.285.258.497.018.775-.082.619-.224m-3.3-.426c-.157-.142-.564-.157-.904-.034-.377.136-.265.237.284.258.497.018.776-.083.62-.224m34.349-33.303c2.817-1.612 2.763-1.646-3.205-1.973-2.908-.16-15.48-1.059-27.936-1.998-32.463-2.447-30.101-2.33-30.847-1.519-.538.586-.536.695.009.693.895-.004 59.264 5.777 59.756 5.919.096.028 1.097-.477 2.223-1.122m-64.397-3.303c0-.117-.106-.213-.236-.213s-.235.096-.235.213c0 .118.106.213.235.213.13 0 .236-.095.236-.213m60.35-30.928c-4.279-.432-18.494-1.748-31.59-2.926-30.41-2.734-28.643-2.537-29.467-3.283-1.078-.973-1.065-43.674.013-44.482.928-.696 5.766-.416 32.99 1.911 12.656 1.082 29.463 2.427 34.017 2.722 6.938.45 6.295-1.939 6.295 23.376 0 21.474 0 21.474-1.157 22.52-1.328 1.2-.87 1.194-11.101.162m10.608-22.543V88.401l-1.886-.286c-1.037-.157-4.856-.508-8.486-.78-18.442-1.377-23.238-1.747-30.175-2.33-4.15-.348-11.47-.931-16.266-1.296-4.798-.365-9.816-.77-11.153-.9-2.859-.278-2.782-.358-3.21 3.353l-.334 2.9 1.809-1.746 1.808-1.745 8.015.644c4.408.354 18.623 1.422 31.59 2.374 12.965.952 24.05 1.912 24.634 2.135 1.061.405 1.061.405 1.061 19.752 0 22.215.425 20.428-4.727 19.864-1.938-.212-7.873-.78-13.19-1.264-5.315-.484-12.529-1.163-16.03-1.51-12.706-1.256-23.409-2.275-26.638-2.535-4.578-.369-7.133-1.26-7.713-2.692-.413-1.021-.468-.907-.501 1.038-.052 3.069-1.113 2.836 23.065 5.058 12.058 1.108 26.592 2.455 32.297 2.995s11.645.95 13.201.911l2.83-.07zm-3.57.628c-.04-10.196-.214-18.538-.384-18.538s-1.101.589-2.068 1.31l-1.757 1.309v16.944c0 18.509-.14 17.513 2.456 17.513h1.827zm-5.152 1.102V95.058l-1.768-.251c-.973-.138-7.71-.823-14.97-1.52-7.26-.699-19.77-1.945-27.797-2.77s-15.085-1.5-15.682-1.5c-1.087 0-1.087 0-.963 16.726l.123 16.727 6.6.717c3.631.395 10.526 1.14 15.324 1.658 4.797.517 14.981 1.66 22.63 2.54 7.65.88 14.493 1.62 15.206 1.645l1.297.045zm-62.236 8.273c0-.117-.106-.213-.236-.213s-.235.096-.235.213.106.213.235.213c.13 0 .236-.096.236-.213m-.119-21.628c-.078-3.808-.142-.692-.142 6.926 0 7.617.064 10.733.142 6.925.079-3.81.079-10.042 0-13.85m64.698-5.949 2.058-1.368-29.429-2.235c-32.906-2.499-34.01-2.55-34.85-1.634-.428.466-.439.639-.039.639.786 0 57.134 5.507 58.267 5.694.518.086 1.166.182 1.439.214s1.422-.557 2.554-1.31M70.11 90.863c-.173-.156-.314-.028-.314.284 0 .313.141.44.314.284a.376.376 0 0 0 0-.568" style="fill:#000" transform="translate(6.565 -32.75)scale(1.10325)"/></svg>