<?xml version="1.0" encoding="UTF-8" standalone="no"?>
<!-- Created with Inkscape (http://www.inkscape.org/) -->

<svg
   width="960"
   height="960"
   viewBox="0 0 253.99999 254"
   version="1.1"
   id="svg1"
   xml:space="preserve"
   inkscape:version="1.4.4 (dcaf3e7, 2026-05-05)"
   sodipodi:docname="2gang.svg"
   xmlns:inkscape="http://www.inkscape.org/namespaces/inkscape"
   xmlns:sodipodi="http://sodipodi.sourceforge.net/DTD/sodipodi-0.dtd"
   xmlns="http://www.w3.org/2000/svg"
   xmlns:svg="http://www.w3.org/2000/svg"><sodipodi:namedview
     id="namedview1"
     pagecolor="#ffffff"
     bordercolor="#000000"
     borderopacity="0.25"
     inkscape:showpageshadow="2"
     inkscape:pageopacity="0.0"
     inkscape:pagecheckerboard="0"
     inkscape:deskcolor="#d1d1d1"
     inkscape:document-units="mm"
     inkscape:zoom="0.60662084"
     inkscape:cx="397.28276"
     inkscape:cy="561.30614"
     inkscape:window-width="1795"
     inkscape:window-height="1112"
     inkscape:window-x="0"
     inkscape:window-y="30"
     inkscape:window-maximized="0"
     inkscape:current-layer="layer1" /><defs
     id="defs1" /><g
     inkscape:label="Camada 1"
     inkscape:groupmode="layer"
     id="layer1"><path
       style="fill:#000000"
       d="m 169.07936,251.03856 c -34.53828,-0.19064 -73.618696,-0.94142 -106.379882,-2.04367 -10.899773,-0.36673 -12.031604,-0.4414 -12.99184,-0.85712 -0.918374,-0.39759 -2.432066,-1.83744 -2.728625,-2.5955 -0.431391,-1.10273 -0.549168,-19.63821 -0.75497,-118.81499 C 46.10738,70.506695 45.978422,22.825961 45.937469,20.770094 c -0.06834,-3.430867 -0.04387,-3.797897 0.297892,-4.467805 0.465336,-0.912136 1.326006,-1.649177 2.620896,-2.244425 0.939769,-0.432002 1.301688,-0.471071 5.768154,-0.62267 15.031574,-0.510193 66.992039,-1.565594 115.873349,-2.353574 3.69256,-0.05953 8.50093,-0.195501 10.68526,-0.302169 4.99939,-0.244135 6.83978,-0.06919 8.60495,0.81797 0.9662,0.485604 1.36026,0.820194 1.84132,1.563425 l 0.61203,0.945598 0.10217,31.772126 c 0.11916,37.051658 0.36331,92.15414 0.68809,155.29612 l 0.2307,44.85016 -0.60938,1.23783 c -0.73722,1.4975 -1.92296,2.60017 -3.40447,3.16595 -1.33718,0.51066 -4.41657,0.73554 -9.38924,0.68565 -1.97631,-0.0198 -6.82723,-0.0539 -10.77983,-0.0757 z m 18.56396,-2.73459 c 0.63347,-0.15951 0.95384,-0.37096 1.21775,-0.80376 0.34976,-0.57357 0.3575,-2.1321 0.33109,-66.68467 -0.0149,-36.35355 -0.0784,-88.776429 -0.14113,-116.495283 l -0.11409,-50.397917 -0.56736,-0.278101 c -0.36596,-0.179382 -1.27226,-0.294009 -2.55312,-0.322917 -1.59984,-0.03611 -1.80906,-0.01286 -1.07655,0.119633 1.03958,0.18803 1.3599,0.406216 1.77508,1.209092 0.2665,0.515353 0.30375,11.833023 0.38128,115.849643 l 0.0859,115.2785 -0.39789,0.62602 c -0.74792,1.17676 -0.56547,1.16178 -11.8404,0.97202 -5.61188,-0.0944 -19.13933,-0.30404 -30.06099,-0.46576 -21.69387,-0.32122 -59.148111,-0.9039 -79.997674,-1.24453 -14.514062,-0.23713 -14.176698,-0.20568 -14.794602,-1.37893 -0.283939,-0.53913 -0.323956,-4.58634 -0.471437,-47.67997 -0.186854,-54.59818 -0.0193,-177.052372 0.24365,-178.073527 0.177633,-0.689817 0.518353,-1.092838 1.237719,-1.464039 0.396407,-0.204551 5.112717,-0.347669 47.731672,-1.448432 10.037532,-0.25925 21.569112,-0.557897 25.625732,-0.663659 12.10699,-0.315649 28.76544,-0.736224 37.63484,-0.950165 4.5767,-0.110396 8.78934,-0.230395 9.36143,-0.266663 5.22845,-0.331467 -63.6295,0.904332 -100.422611,1.802293 -8.373278,0.204355 -16.330493,0.390454 -17.6827,0.413554 -2.846785,0.04863 -3.997775,0.413267 -4.525447,1.433673 -0.324548,0.627605 -0.394577,1.470531 -0.130471,1.570444 0.09545,0.03611 0.216769,32.660109 0.283996,76.372876 0.06455,41.970415 0.16704,92.522135 0.22776,112.337155 0.106736,34.83201 0.122279,36.05256 0.468465,36.78793 0.549248,1.16673 1.271925,1.50068 3.297458,1.5238 0.936142,0.0107 1.829733,0.0684 1.985757,0.12833 0.156024,0.0599 3.475076,0.20273 7.375672,0.31741 3.900596,0.11467 8.155791,0.2509 9.455989,0.30273 5.218905,0.20802 26.182911,0.74516 40.187952,1.0297 31.45356,0.63904 74.26975,0.94578 75.86726,0.54352 z m 2.90167,-12.31571 c 4.7e-4,-9.08651 -0.62621,-167.839841 -0.81523,-206.518299 -0.04,-8.192608 -0.11289,-14.935746 -0.1619,-14.984751 -0.049,-0.04901 -0.0833,52.338784 -0.0763,116.41731 l 0.0128,116.50641 0.52007,-0.58195 0.52008,-0.58196 z m -4.78508,10.73494 c 0.22321,-0.15634 0.51135,-0.60314 0.64031,-0.99288 0.18606,-0.56231 0.20863,-24.3999 0.10932,-115.46243 -0.10877,-99.735029 -0.16111,-114.839899 -0.39997,-115.411553 -0.16115,-0.385696 -0.47809,-0.735025 -0.7663,-0.8446 -0.4585,-0.174321 -10.73859,0.05497 -54.93891,1.225369 -5.8769,0.155617 -14.13197,0.370243 -18.34462,0.476946 -31.406672,0.795509 -38.321308,0.972989 -48.792902,1.252381 -6.500993,0.173453 -12.00702,0.384326 -12.235616,0.468607 -0.228596,0.08428 -0.569011,0.387294 -0.756479,0.673363 -0.32553,0.496747 -0.34662,2.879417 -0.469208,53.009263 -0.0706,28.869026 -0.06126,79.515674 0.02075,112.548114 0.140832,56.72556 0.167469,60.08701 0.479928,60.56388 0.199095,0.30386 0.604999,0.57211 1.019408,0.67371 0.378724,0.0928 7.241589,0.26531 15.250812,0.38326 8.009223,0.11795 22.434335,0.33837 32.055804,0.48983 9.621472,0.15145 28.982612,0.45009 43.024752,0.66363 14.04214,0.21354 26.85028,0.40967 28.46253,0.43584 10.71749,0.174 15.23692,0.12987 15.64039,-0.15273 z m -21.59767,-0.86894 c -5.09677,-0.0805 -18.92616,-0.2827 -30.73196,-0.44942 -58.769881,-0.82997 -81.323943,-1.22216 -81.694688,-1.42058 -0.210816,-0.11282 -0.516359,-0.40821 -0.678986,-0.65641 -0.264933,-0.40434 -0.315236,-5.4341 -0.483659,-48.36073 -0.187929,-47.89803 -0.04385,-174.909858 0.19944,-175.819567 0.07011,-0.262139 0.335645,-0.630625 0.590085,-0.818857 0.422689,-0.312702 1.409382,-0.36675 11.431566,-0.626187 6.032921,-0.15617 15.734766,-0.412839 21.559656,-0.570376 5.824889,-0.157538 20.845726,-0.541163 33.379646,-0.852501 23.62137,-0.586746 36.68506,-0.920886 55.64486,-1.423271 8.15847,-0.216178 11.21094,-0.238769 11.49808,-0.0851 0.21501,0.115069 0.48006,0.438077 0.58901,0.717797 0.13684,0.351338 0.23059,35.929406 0.3032,115.072568 l 0.10511,114.56399 -0.43977,0.46813 -0.43978,0.46812 -5.78247,-0.0307 c -3.18036,-0.0169 -9.95256,-0.0965 -15.04934,-0.17695 z m 21.02413,-0.42277 c 0.40043,-0.40118 0.19916,-229.055972 -0.20241,-229.942371 -0.0796,-0.175671 -0.37741,-0.370516 -0.66185,-0.432988 -0.28443,-0.06247 -5.14952,0.01814 -10.81131,0.179143 -10.22374,0.290725 -59.09783,1.546007 -95.870859,2.462347 -21.654638,0.539608 -25.83575,0.70393 -26.160266,1.02813 -0.152633,0.152485 -0.267314,1.946341 -0.367227,5.744242 -0.07991,3.037383 -0.147531,47.223428 -0.15028,98.191217 -0.0047,86.40487 0.126233,119.6224 0.47451,120.41997 0.07899,0.1809 0.454014,0.41209 0.833378,0.51375 0.774239,0.20748 12.320199,0.44621 41.539627,0.85887 19.754547,0.27899 33.281987,0.47545 64.678967,0.93934 18.09646,0.26737 26.45713,0.27938 26.69772,0.0384 z m -64.61624,-37.67538 c -12.53391,-0.1376 -27.724958,-0.32989 -33.757879,-0.42731 -11.847129,-0.1913 -11.776752,-0.18449 -12.744361,-1.23404 l -0.451575,-0.48981 -0.09548,-24.07285 c -0.05251,-13.24007 -0.03336,-24.73423 0.04257,-25.54258 0.12167,-1.29537 0.209002,-1.54474 0.736171,-2.10213 0.561269,-0.59345 0.697177,-0.63985 2.205643,-0.75301 1.858422,-0.13941 11.912558,-0.35592 40.660757,-0.8756 11.28572,-0.20401 25.48389,-0.47069 31.55148,-0.59261 l 11.03198,-0.22168 0.788,0.78796 0.78801,0.78796 v 26.61587 c 0,25.05134 -0.0196,26.65167 -0.33292,27.22491 -0.1831,0.33496 -0.52352,0.71793 -0.75648,0.85104 -0.59503,0.33997 -11.58857,0.35213 -39.66592,0.0439 z m 38.68028,-0.3115 c 1.12217,-0.51129 1.06163,1.09355 1.04146,-27.6104 -0.0204,-29.01874 0.0609,-27.14574 -1.20114,-27.66337 -0.48473,-0.19881 -2.15028,-0.21518 -8.54511,-0.084 -9.29111,0.19063 -44.68661,0.84277 -60.612892,1.11677 -13.523496,0.23265 -14.144779,0.2568 -14.812807,0.57558 -1.169203,0.55794 -1.103514,-1.04195 -1.080668,26.32016 0.02281,27.31627 -0.0444,25.72831 1.114319,26.32751 0.564688,0.29201 5.087898,0.36885 51.279278,0.87112 10.24556,0.1114 20.16017,0.22162 22.03245,0.24492 1.87229,0.0233 4.9533,0.0615 6.8467,0.085 2.35086,0.0291 3.59978,-0.029 3.93841,-0.18331 z m -6.34079,-2.12607 v -0.48478 l -1.84392,5.8e-4 c -1.01416,3.2e-4 -17.88324,-0.17468 -37.48685,-0.38889 -30.59557,-0.33431 -35.724149,-0.42926 -36.216441,-0.67046 -0.364871,-0.17877 -0.736592,-0.61601 -1.021801,-1.20189 l -0.448294,-0.9209 0.118976,-10.18193 c 0.175522,-15.02124 0.505859,-33.76022 0.603681,-34.24503 0.200521,-0.99378 -0.212235,-0.96171 16.348524,-1.27008 22.870635,-0.42586 35.096545,-0.64469 47.842455,-0.85632 6.29296,-0.10449 12.5087,-0.22615 13.81275,-0.27034 l 2.37101,-0.0804 0.4234,0.61792 0.42341,0.61792 0.12067,23.92969 0.12066,23.92968 -0.4952,0.4952 c -0.44587,0.44587 -0.63605,0.49521 -1.90905,0.49521 -1.32222,0 -1.41775,0.0276 -1.47427,0.42551 -0.0463,0.32614 -0.20399,0.43937 -0.67507,0.48479 -0.549,0.0529 -0.61464,0.007 -0.61464,-0.42552 z m 1.93847,-0.98827 c -0.13002,-0.0525 -0.34278,-0.0525 -0.4728,0 -0.13002,0.0525 -0.0236,0.0954 0.2364,0.0954 0.26004,0 0.36642,-0.0429 0.2364,-0.0954 z m -14.1737,-0.20482 c -1.06051,-0.0336 -2.84769,-0.0338 -3.97152,-2.8e-4 -1.12382,0.0335 -0.25613,0.061 1.9282,0.0612 2.18434,1.5e-4 3.10383,-0.0273 2.04332,-0.0609 z m -13.236,-0.18975 c -2.09936,-0.0304 -5.58862,-0.0305 -7.75391,-9e-5 -2.1653,0.0304 -0.44764,0.0553 3.81701,0.0553 4.26465,5e-5 6.03626,-0.0248 3.9369,-0.0552 z m 30.12551,-4.01906 c -0.0629,-1.92429 -0.11458,-11.57649 -0.11487,-21.44934 -3e-4,-9.87284 -0.036,-17.91516 -0.0793,-17.87182 -0.0433,0.0433 -0.13349,9.86575 -0.20046,21.82758 -0.11374,20.31819 -0.10101,21.7239 0.19358,21.37054 0.27904,-0.3347 0.30218,-0.78097 0.201,-3.87696 z m -50.42127,3.77215 c -4.73272,-0.0694 -12.392076,-0.11801 -17.020783,-0.10797 l -8.41583,0.0183 9.266869,0.1 c 5.096779,0.055 12.756134,0.10357 17.020784,0.10798 l 7.75391,0.008 z m 40.99805,-0.12851 c -0.49059,-0.0388 -1.34163,-0.0392 -1.8912,-8.9e-4 -0.54957,0.0383 -0.14818,0.0701 0.89198,0.0706 1.04016,5e-4 1.48981,-0.0309 0.99922,-0.0697 z m 7.60573,-0.21743 c 0,-0.55082 -0.64088,-0.61482 -0.88913,-0.0888 -0.19506,0.41331 -0.1709,0.44498 0.33957,0.44498 0.41214,0 0.54956,-0.0891 0.54956,-0.35619 z m -1.13472,-0.41145 c 0,-0.0979 -0.0851,-0.17796 -0.18912,-0.17796 -0.10401,0 -0.18912,0.13268 -0.18912,0.29484 0,0.16216 0.0851,0.24224 0.18912,0.17796 0.10402,-0.0643 0.18912,-0.19697 0.18912,-0.29484 z m -1.65627,-23.63243 0.0488,-23.26534 -1.32384,0.0983 c -0.72811,0.0541 -6.13221,0.18695 -12.00911,0.29531 -5.8769,0.10835 -14.30218,0.28082 -18.72286,0.38325 -9.95825,0.23075 -39.280401,0.45589 -39.137259,0.30051 0.0578,-0.0627 8.780952,-0.28722 19.384779,-0.49882 10.60383,-0.21161 25.13198,-0.51182 32.28479,-0.66715 7.15281,-0.15533 15.08875,-0.28241 17.63542,-0.28241 3.36149,0 4.63031,-0.0596 4.63031,-0.21733 0,-0.16176 -1.53551,-0.18539 -6.00455,-0.0924 -3.3025,0.0687 -17.57868,0.33639 -31.72484,0.59488 -30.896045,0.56453 -40.186424,0.77816 -40.574786,0.93298 -0.221218,0.0882 -0.29018,0.40254 -0.28368,1.29312 0.0047,0.64714 -0.09586,5.55947 -0.223519,10.91628 -0.399016,16.74351 -0.495549,31.98195 -0.205928,32.50745 0.20107,0.36483 0.430673,0.46429 1.194514,0.51742 0.52008,0.0362 14.434568,0.13508 30.921089,0.21977 16.48651,0.0847 33.14494,0.17099 37.01871,0.19178 l 7.04324,0.0378 z m -12.09193,8.90056 c -0.41584,-0.25356 -0.64107,-0.56409 -0.72199,-0.99547 -0.0647,-0.34482 -0.0906,-3.77431 -0.0575,-7.62109 0.0662,-7.70316 0.0789,-7.79038 1.23907,-8.46593 0.52379,-0.30501 0.7081,-0.32433 1.28326,-0.13451 1.33545,0.44074 1.32014,0.34084 1.32014,8.61486 0,8.06148 -0.0117,8.15655 -1.07136,8.70452 -0.70449,0.3643 -1.27422,0.33502 -1.99158,-0.10238 z m -0.26192,-7.76223 c -0.0828,-1.78184 -0.10965,-1.24626 -0.10914,2.17488 4.8e-4,3.20254 0.0328,3.89855 0.10982,2.364 0.06,-1.19619 0.0597,-3.23868 -6.8e-4,-4.53888 z m 0.77174,6.24096 c 0,-0.10402 -0.0851,-0.18912 -0.18912,-0.18912 -0.10402,0 -0.18912,0.0851 -0.18912,0.18912 0,0.10401 0.0851,0.18912 0.18912,0.18912 0.10402,0 0.18912,-0.0851 0.18912,-0.18912 z m 2.02156,-0.89832 c -0.0476,-0.18203 -0.0865,-0.0331 -0.0865,0.33096 0,0.36405 0.0389,0.51298 0.0865,0.33096 0.0476,-0.18203 0.0476,-0.4799 0,-0.66192 z m -2.64767,-9.45599 c -0.0476,-0.18203 -0.0865,-0.0331 -0.0865,0.33096 0,0.36405 0.0389,0.51298 0.0865,0.33096 0.0476,-0.18203 0.0476,-0.4799 0,-0.66192 z m 2.83168,-3.3096 c -0.0525,-0.13002 -0.0954,-0.0236 -0.0954,0.2364 0,0.26004 0.0429,0.36642 0.0954,0.2364 0.0525,-0.13002 0.0525,-0.34278 0,-0.4728 z m -2.8368,-0.37824 c -0.0525,-0.13002 -0.0954,-0.0236 -0.0954,0.2364 0,0.26004 0.0429,0.36642 0.0954,0.2364 0.0525,-0.13002 0.0525,-0.34278 0,-0.4728 z m 15.00433,29.75932 c 0,-0.19171 -0.57602,-0.45285 -0.70792,-0.32095 -0.0475,0.0475 -0.0303,0.1772 0.0382,0.28814 0.15088,0.24413 0.66969,0.26955 0.66969,0.0328 z m -1.13837,-10.09086 c -0.004,-11.54249 0.49094,-33.99026 0.7691,-34.86822 0.19675,-0.62102 0.0809,-1.20638 -0.23882,-1.20638 -0.11053,0 -0.13691,0.20908 -0.0634,0.50214 0.0693,0.27618 0.0478,0.55276 -0.0479,0.61464 -0.4077,0.26366 -1.03935,45.02845 -0.63536,45.02845 0.16458,0 0.2191,-2.5378 0.21637,-10.07063 z m 1.13837,9.21959 c 0,-0.15602 -0.0356,-0.28368 -0.0791,-0.28368 -0.0435,0 -0.21371,-0.0517 -0.37824,-0.11479 -0.19212,-0.0737 -0.29915,-0.0117 -0.29915,0.17336 0,0.26143 0.24022,0.45444 0.61464,0.49386 0.078,0.008 0.14184,-0.11273 0.14184,-0.26875 z m 0,-0.93895 c 0,-0.15236 -0.1702,-0.36811 -0.37824,-0.47945 -0.31819,-0.17029 -0.37824,-0.14382 -0.37824,0.16671 0,0.33191 0.21474,0.53274 0.61464,0.57484 0.078,0.008 0.14184,-0.10973 0.14184,-0.2621 z m 0,-1.11931 c 0,-0.14389 -0.1702,-0.30613 -0.37824,-0.36054 -0.28055,-0.0734 -0.37824,-0.006 -0.37824,0.26163 0,0.23445 0.13228,0.36053 0.37824,0.36053 0.20804,0 0.37824,-0.11773 0.37824,-0.26162 z m 0,-0.97359 c 0,-0.30196 -0.50261,-0.59466 -0.69344,-0.40383 -0.0604,0.0604 -0.0594,0.2411 0.002,0.40161 0.14504,0.37795 0.69122,0.37971 0.69122,0.002 z m 0,-1.01217 c 0,-0.19713 -0.1689,-0.40035 -0.37824,-0.45509 -0.27665,-0.0724 -0.37824,-0.006 -0.37824,0.24775 0,0.19067 0.14894,0.38559 0.33096,0.43316 0.18203,0.0476 0.35224,0.0964 0.37824,0.10842 0.026,0.0121 0.0473,-0.13834 0.0473,-0.33424 z m 0,-1.04198 c 0,-0.26572 -0.54386,-0.57957 -0.71235,-0.41108 -0.05,0.05 -0.0405,0.22218 0.0211,0.38269 0.13954,0.36361 0.69122,0.38627 0.69122,0.0284 z m 0,-0.95918 c 0,-0.15236 -0.1702,-0.36812 -0.37824,-0.47945 -0.31819,-0.17029 -0.37824,-0.14383 -0.37824,0.1667 0,0.33192 0.21474,0.53275 0.61464,0.57484 0.078,0.008 0.14184,-0.10973 0.14184,-0.26209 z m 0,-1.12114 c 0,-0.26572 -0.54386,-0.57957 -0.71235,-0.41108 -0.05,0.05 -0.0405,0.22218 0.0211,0.38269 0.13954,0.36361 0.69122,0.38627 0.69122,0.0284 z m 0,-0.95918 c 0,-0.15236 -0.1702,-0.36812 -0.37824,-0.47945 -0.31819,-0.17029 -0.37824,-0.14383 -0.37824,0.1667 0,0.33192 0.21474,0.53275 0.61464,0.57485 0.078,0.008 0.14184,-0.10973 0.14184,-0.2621 z m -0.21779,-1.44677 c -0.3727,-0.23619 -0.53869,-0.20326 -0.53869,0.10688 0,0.41566 0.64456,0.72724 0.72781,0.35183 0.0362,-0.16341 -0.0489,-0.36983 -0.18912,-0.45871 z m 0.21779,-0.63355 c 0,-0.15236 -0.1702,-0.36811 -0.37824,-0.47945 -0.31819,-0.17029 -0.37824,-0.14382 -0.37824,0.16671 0,0.33191 0.21474,0.53274 0.61464,0.57484 0.078,0.008 0.14184,-0.10973 0.14184,-0.2621 z m 0,-1.12113 c 0,-0.26572 -0.54386,-0.57957 -0.71235,-0.41109 -0.05,0.05 -0.0405,0.22219 0.0211,0.3827 0.13954,0.3636 0.69122,0.38626 0.69122,0.0284 z m 0,-1.03834 c 0,-0.19713 -0.1689,-0.40035 -0.37824,-0.45509 -0.27665,-0.0724 -0.37824,-0.006 -0.37824,0.24775 0,0.19067 0.14894,0.38559 0.33096,0.43316 0.18203,0.0476 0.35224,0.0964 0.37824,0.10842 0.026,0.0121 0.0473,-0.13834 0.0473,-0.33424 z m -0.0356,-1.10732 c -0.0791,-0.41088 -0.7209,-0.56546 -0.7209,-0.17364 0,0.25984 0.24624,0.45084 0.62851,0.48749 0.0856,0.008 0.12721,-0.13302 0.0924,-0.31385 z m -0.18221,-1.39502 c -0.39605,-0.25099 -0.53869,-0.19883 -0.53869,0.19698 0,0.42468 0.63043,0.62481 0.72781,0.23104 0.0362,-0.14652 -0.0489,-0.33913 -0.18912,-0.42802 z m 0.21779,-0.63354 c 0,-0.15236 -0.1702,-0.36812 -0.37824,-0.47945 -0.31819,-0.17029 -0.37824,-0.14383 -0.37824,0.1667 0,0.33192 0.21474,0.53275 0.61464,0.57485 0.078,0.008 0.14184,-0.10974 0.14184,-0.2621 z m -0.21779,-1.44677 c -0.3727,-0.2362 -0.53869,-0.20326 -0.53869,0.10688 0,0.41565 0.64456,0.72724 0.72781,0.35183 0.0362,-0.16341 -0.0489,-0.36983 -0.18912,-0.45871 z m 0.21779,-0.63355 c 0,-0.15236 -0.1702,-0.36812 -0.37824,-0.47945 -0.31819,-0.17029 -0.37824,-0.14382 -0.37824,0.1667 0,0.33192 0.21474,0.53275 0.61464,0.57485 0.078,0.008 0.14184,-0.10973 0.14184,-0.2621 z m -0.21779,-1.44677 c -0.3727,-0.23619 -0.53869,-0.20326 -0.53869,0.10688 0,0.41566 0.64456,0.72724 0.72781,0.35183 0.0362,-0.16341 -0.0489,-0.36983 -0.18912,-0.45871 z m 0.21779,-0.7127 c 0,-0.19713 -0.1689,-0.40035 -0.37824,-0.4551 -0.27609,-0.0722 -0.37824,-0.006 -0.37824,0.24587 0,0.31065 0.22159,0.50911 0.61464,0.55048 0.078,0.008 0.14184,-0.14535 0.14184,-0.34125 z m 0,-1.06222 c 0,-0.15602 -0.0356,-0.28368 -0.0791,-0.28368 -0.0435,0 -0.21371,-0.0517 -0.37824,-0.11479 -0.19212,-0.0737 -0.29915,-0.0117 -0.29915,0.17336 0,0.26144 0.24022,0.45445 0.61464,0.49386 0.078,0.008 0.14184,-0.11272 0.14184,-0.26875 z m 0,-1.0181 c 0,-0.19713 -0.1689,-0.40035 -0.37824,-0.45509 -0.42315,-0.11066 -0.51018,0.22544 -0.15129,0.58433 0.32825,0.32825 0.52953,0.27913 0.52953,-0.12924 z m 0,-1.04198 c 0,-0.1449 -0.12765,-0.31243 -0.28368,-0.37231 -0.19295,-0.074 -0.28368,0.0102 -0.28368,0.26345 0,0.20486 0.12759,0.3723 0.28368,0.3723 0.15603,0 0.28368,-0.11855 0.28368,-0.26344 z m -0.0653,-1.1468 c -0.0616,-0.16051 -0.19976,-0.29183 -0.30704,-0.29183 -0.27716,0 -0.24258,0.51886 0.0413,0.62026 0.32128,0.11475 0.39893,0.0188 0.2657,-0.32843 z m 0.0653,-0.93352 c 0,-0.1449 -0.12765,-0.31243 -0.28368,-0.3723 -0.19295,-0.074 -0.28368,0.0102 -0.28368,0.26344 0,0.20486 0.12759,0.37231 0.28368,0.37231 0.15603,0 0.28368,-0.11855 0.28368,-0.26345 z m 0,-1.04016 c 0,-0.1969 -0.12765,-0.40699 -0.28368,-0.46686 -0.28963,-0.11115 -0.41438,0.442 -0.1576,0.69879 0.23549,0.23549 0.44128,0.12733 0.44128,-0.23193 z m -0.0334,-1.092 c -0.092,-0.47446 -0.53395,-0.5396 -0.53395,-0.0787 0,0.2323 0.12212,0.394 0.29755,0.394 0.17612,0 0.27259,-0.12867 0.2364,-0.31529 z m -0.18438,-1.40643 c -0.16996,-0.10632 -0.27698,-0.0584 -0.32089,0.1438 -0.0362,0.16682 0.0489,0.3751 0.18912,0.46284 0.16996,0.10632 0.27698,0.0584 0.32089,-0.1438 0.0362,-0.16682 -0.0489,-0.3751 -0.18912,-0.46284 z m 0.21779,-0.63112 c 0,-0.3012 -0.34313,-0.58211 -0.50874,-0.41649 -0.15558,0.15557 0.0873,0.68901 0.31369,0.68901 0.10728,0 0.19505,-0.12263 0.19505,-0.27252 z m -0.0778,-1.38132 c -0.20659,-0.20659 -0.34826,0.12196 -0.19993,0.46369 0.14064,0.32403 0.15084,0.32373 0.2292,-0.007 0.0451,-0.19017 0.0319,-0.39584 -0.0293,-0.45704 z m 0.0778,-0.699 c 0,-0.14988 -0.0851,-0.32511 -0.18912,-0.3894 -0.10401,-0.0643 -0.18912,0.0584 -0.18912,0.27252 0,0.21417 0.0851,0.3894 0.18912,0.3894 0.10402,0 0.18912,-0.12263 0.18912,-0.27252 z m 0,-1.13471 c 0,-0.14989 -0.0851,-0.32512 -0.18912,-0.38941 -0.10401,-0.0643 -0.18912,0.0583 -0.18912,0.27252 0,0.21417 0.0851,0.3894 0.18912,0.3894 0.10402,0 0.18912,-0.12263 0.18912,-0.27251 z m -0.16784,-1.29482 c -0.15445,-0.15444 -0.2104,-0.13328 -0.2104,0.0796 0,0.15949 0.0621,0.35204 0.1379,0.42789 0.0759,0.0758 0.17053,0.04 0.2104,-0.0796 0.0399,-0.11962 -0.0222,-0.31217 -0.1379,-0.42789 z m 0.16784,-0.79666 c 0,-0.15603 -0.0851,-0.28368 -0.18912,-0.28368 -0.10401,0 -0.18912,0.12765 -0.18912,0.28368 0,0.15602 0.0851,0.28368 0.18912,0.28368 0.10402,0 0.18912,-0.12766 0.18912,-0.28368 z m -0.0778,-1.37016 c -0.20659,-0.2066 -0.34826,0.12195 -0.19993,0.46368 0.14064,0.32403 0.15084,0.32374 0.2292,-0.007 0.0451,-0.19017 0.0319,-0.39584 -0.0293,-0.45704 z m 0.0778,-0.71016 c 0,-0.15602 -0.0851,-0.28368 -0.18912,-0.28368 -0.10401,0 -0.18912,0.12766 -0.18912,0.28368 0,0.15602 0.0851,0.28368 0.18912,0.28368 0.10402,0 0.18912,-0.12766 0.18912,-0.28368 z m 0,-0.95676 c 0,-0.16216 -0.0865,-0.24139 -0.1922,-0.17605 -0.10571,0.0653 -0.14324,0.19801 -0.0834,0.29484 0.16212,0.26232 0.2756,0.2134 0.2756,-0.11879 z m -1.08072,-7.02191 c 0.11762,-0.199 -0.18611,-1.00446 -0.37886,-1.00472 -0.0814,-1e-4 -0.1117,1.72325 -0.0674,3.82968 l 0.0805,3.82987 0.13752,-3.25067 c 0.0756,-1.78787 0.17834,-3.31974 0.22823,-3.40416 z m 1.02079,5.76833 c -0.0604,-0.15087 -0.10518,-0.10605 -0.11426,0.11426 -0.008,0.19937 0.0365,0.31106 0.0993,0.24822 0.0628,-0.0628 0.0696,-0.22596 0.0149,-0.36248 z m 0,-0.9456 c -0.0604,-0.15086 -0.10518,-0.10605 -0.11426,0.11426 -0.008,0.19937 0.0365,0.31106 0.0993,0.24822 0.0628,-0.0628 0.0696,-0.22596 0.0149,-0.36248 z m 0,-0.9456 c -0.0604,-0.15086 -0.10518,-0.10605 -0.11426,0.11426 -0.008,0.19937 0.0365,0.31107 0.0993,0.24822 0.0628,-0.0628 0.0696,-0.22596 0.0149,-0.36248 z m 0,-1.13472 c -0.0604,-0.15086 -0.10518,-0.10605 -0.11426,0.11426 -0.008,0.19937 0.0365,0.31107 0.0993,0.24822 0.0628,-0.0628 0.0696,-0.22595 0.0149,-0.36248 z m 0,-0.94559 c -0.0604,-0.15087 -0.10518,-0.10606 -0.11426,0.11426 -0.008,0.19936 0.0365,0.31106 0.0993,0.24822 0.0628,-0.0628 0.0696,-0.22596 0.0149,-0.36248 z m 5.32307,38.04853 c 0.0343,-5.04477 0.003,-16.9359 -0.0702,-26.42474 -0.10956,-14.2577 -0.17803,-17.3107 -0.3944,-17.58814 -0.23613,-0.30275 -0.24552,-0.2893 -0.0957,0.13709 0.20891,0.59448 0.36322,52.68856 0.15797,53.33178 -0.14015,0.43924 -0.13344,0.44596 0.0946,0.0946 0.19029,-0.29327 0.25943,-2.43873 0.30777,-9.55055 z M 102.32007,110.44674 C 86.71181,110.28871 78.435914,110.0456 77.58035,109.72 c -0.292815,-0.11144 -0.834403,-0.20262 -1.203529,-0.20262 -0.934421,0 -2.060093,-0.68342 -2.465145,-1.49665 -0.319316,-0.6411 -0.33781,-2.07598 -0.33781,-26.2094 V 56.280158 l 0.423081,-0.593129 c 0.78154,-1.095663 1.476454,-1.232362 7.141711,-1.404872 8.294994,-0.252586 21.507492,-0.519219 70.644302,-1.425627 6.65486,-0.12276 6.94217,-0.11345 7.75391,0.251265 0.46364,0.208311 1.03749,0.590503 1.27523,0.849315 l 0.43226,0.470568 -0.054,27.024771 c -0.0535,26.754971 -0.0578,27.031381 -0.43752,27.686691 -0.21274,0.3672 -0.71798,0.83033 -1.13472,1.04016 -0.73706,0.37111 -1.14661,0.37858 -21.74351,0.39655 -11.54576,0.0101 -27.54529,-0.048 -35.55452,-0.12911 z m 57.12139,-0.98215 c 0.32343,-0.2782 0.55759,-0.73082 0.66043,-1.27656 0.0876,-0.46504 0.16521,-12.632419 0.17239,-27.038619 0.0125,-25.012701 -0.002,-26.218491 -0.33124,-26.756712 l -0.34429,-0.56362 -2.16257,0.05541 c -1.18941,0.03048 -19.82163,0.385633 -41.40492,0.789233 -33.692416,0.630037 -39.271369,0.696159 -39.447492,0.467537 -0.162015,-0.210309 -0.353422,-0.225337 -0.910599,-0.07149 -0.911778,0.251754 -1.367667,0.721942 -1.624389,1.675335 -0.146257,0.543158 -0.190784,8.048151 -0.151816,25.588428 0.05179,23.311186 0.07545,24.857016 0.389302,25.431286 0.654226,1.19708 -0.126626,1.13575 17.357664,1.3635 34.78104,0.45307 48.51273,0.56013 57.31383,0.44685 6.87577,-0.0885 9.22164,-0.0631 9.32309,0.1011 0.20776,0.33617 0.60872,0.26304 1.16061,-0.21168 z m -23.26894,-2.5302 c -0.93615,-0.0253 -10.93586,-0.13491 -22.22158,-0.24366 -11.28572,-0.10875 -24.089819,-0.25327 -28.453547,-0.32115 l -7.93405,-0.12342 -0.591423,-0.58655 -0.591422,-0.58655 0.01996,-23.07261 c 0.02095,-24.21552 0.0015,-23.65267 0.831064,-24.09662 0.33235,-0.177869 8.511074,-0.380027 31.42407,-0.776725 6.18894,-0.107151 15.59292,-0.276987 20.89773,-0.377415 5.30481,-0.100428 13.64938,-0.239497 18.54349,-0.309042 l 8.89839,-0.126446 0.41576,0.528562 0.41577,0.528562 V 81.71677 c 0,24.34327 -3e-5,24.34549 -0.39197,24.84375 l -0.39196,0.4983 -9.5841,-0.0392 c -5.27126,-0.0216 -10.35004,-0.0599 -11.28618,-0.0852 z m 4.12199,-0.58318 c -0.74936,-0.0358 -2.02591,-0.036 -2.83679,-4.8e-4 -0.81088,0.0355 -0.19777,0.0648 1.36247,0.0651 1.56024,2.6e-4 2.22369,-0.0288 1.47432,-0.0646 z m -13.51826,-0.1904 c -1.94345,-0.0307 -5.1774,-0.0308 -7.18655,-1e-4 -2.00915,0.0307 -0.41905,0.0558 3.53355,0.0558 3.9526,5e-5 5.59646,-0.025 3.653,-0.0557 z m -27.860333,-0.342 c -19.00464,-0.29192 -21.373302,-0.30723 -21.203144,-0.13707 0.143072,0.14307 17.40135,0.3584 29.429857,0.36719 4.69825,0.003 1.92152,-0.0742 -8.226713,-0.23012 z m 58.358813,-1.05033 -0.16304,-0.83013 -0.015,1.13471 c -0.0105,0.79328 0.0386,1.04307 0.16304,0.83013 0.10665,-0.18249 0.11265,-0.63735 0.015,-1.13471 z m -9.94415,0.95694 c -3.01646,-0.0698 -8.54821,-0.11915 -12.29278,-0.10958 l -6.80832,0.0174 6.80832,0.10175 c 3.74457,0.056 9.27632,0.10528 12.29278,0.10958 l 5.48448,0.008 z m 8.3744,-0.36868 c -0.009,-0.31204 -0.0883,-0.56735 -0.17647,-0.56735 -0.0882,0 -0.16034,0.0851 -0.16034,0.18911 0,0.10402 -0.12765,0.18912 -0.28368,0.18912 -0.15602,0 -0.28368,0.12057 -0.28368,0.26792 0,0.14736 -0.10638,0.31085 -0.2364,0.36331 -0.13002,0.0525 0.077,0.10211 0.46016,0.11032 0.6546,0.014 0.69557,-0.0192 0.68041,-0.55243 z m -32.72357,0.0475 c -1.9503,-0.0307 -5.14169,-0.0307 -7.09199,0 -1.9503,0.0307 -0.3546,0.0559 3.54599,0.0559 3.9006,0 5.4963,-0.0252 3.546,-0.0559 z m 31.8194,-0.62606 c 0,-0.0979 -0.0851,-0.17795 -0.18912,-0.17795 -0.10401,0 -0.18912,0.13267 -0.18912,0.29484 0,0.16216 0.0851,0.24224 0.18912,0.17795 0.10402,-0.0643 0.18912,-0.19696 0.18912,-0.29484 z m 0.9456,-0.45047 c 0,-0.0459 -0.0851,-0.136 -0.18912,-0.20028 -0.10401,-0.0643 -0.18912,-0.0268 -0.18912,0.0834 0,0.11016 0.0851,0.20029 0.18912,0.20029 0.10402,0 0.18912,-0.0375 0.18912,-0.0834 z m -2.88333,-23.414326 -0.048,-23.308601 -2.64768,0.05565 c -21.51434,0.452176 -40.62133,0.83763 -54.466499,1.098778 -9.361429,0.176575 -17.200295,0.386466 -17.419702,0.466423 -0.241161,0.08788 -0.444822,0.374885 -0.51499,0.725727 -0.240737,1.203681 -0.879985,30.785191 -0.882054,40.817422 l -6.73e-4,3.26055 9.40871,0.0509 c 5.17479,0.028 22.281008,0.0713 38.013818,0.0963 l 28.60512,0.0455 z m -11.91231,9.138859 -0.61762,-0.553118 0.0215,-7.261536 c 0.0236,-8.002404 0.0748,-8.428917 1.08549,-9.045179 0.7557,-0.460802 1.382,-0.459684 2.14217,0.0038 0.49435,0.301429 0.62579,0.52858 0.73828,1.275851 0.18285,1.214624 -0.0642,13.565396 -0.29057,14.525757 -0.37213,1.57885 -1.90679,2.10436 -3.0792,1.054401 z m 2.63205,-1.37354 c -0.0604,-0.150867 -0.10519,-0.106054 -0.11426,0.11426 -0.008,0.199363 0.0365,0.311062 0.0993,0.248219 0.0628,-0.06284 0.0696,-0.225958 0.0149,-0.362479 z m -2.83562,-1.241099 c -0.0476,-0.182028 -0.0865,-0.0331 -0.0865,0.33096 0,0.364055 0.0389,0.512987 0.0865,0.330959 0.0476,-0.182027 0.0476,-0.479891 0,-0.661919 z m 0.184,-2.931357 c -0.0525,-0.13002 -0.0954,-0.02364 -0.0954,0.2364 0,0.26004 0.0429,0.36642 0.0954,0.2364 0.0525,-0.13002 0.0525,-0.34278 0,-0.4728 z m 0.013,-7.759618 c -0.0397,-0.438929 -0.0717,-0.03212 -0.0711,0.904026 5.8e-4,0.936143 0.033,1.295267 0.0721,0.798053 0.0391,-0.497214 0.0386,-1.26315 -0.001,-1.702079 z m 2.73045,-2.638481 c -0.14034,-0.14034 -0.16495,-0.0665 -0.0827,0.24807 0.0669,0.255729 0.15261,0.341455 0.19982,0.199815 0.0455,-0.136439 -0.007,-0.337987 -0.11713,-0.447885 z m -2.08805,-0.287169 c 0.23524,-0.299955 0.22855,-0.306644 -0.0714,-0.0714 -0.18203,0.142756 -0.33096,0.291688 -0.33096,0.330959 0,0.155653 0.1553,0.05547 0.40236,-0.259556 z m 13.36328,16.075182 c 0.0217,-7.879203 0.15465,-18.240604 0.29536,-23.025334 0.14071,-4.784731 0.21683,-8.805891 0.16917,-8.935911 -0.23862,-0.650971 -0.33406,0.01848 -0.37754,2.648373 -0.0262,1.58586 -0.13192,6.500297 -0.2349,10.920973 -0.22361,9.598625 -0.25252,32.717728 -0.0409,32.717728 0.0821,0 0.16709,-6.446625 0.18883,-14.325829 z m 0.79658,13.675069 c 0,-0.14989 -0.0851,-0.32512 -0.18912,-0.3894 -0.10401,-0.0643 -0.18912,0.0583 -0.18912,0.27252 0,0.21417 0.0851,0.3894 0.18912,0.3894 0.10402,0 0.18912,-0.12264 0.18912,-0.27252 z m 0,-1.04016 c 0,-0.0979 -0.0851,-0.23056 -0.18912,-0.29484 -0.10401,-0.0643 -0.18912,0.0158 -0.18912,0.17796 0,0.16216 0.0851,0.29484 0.18912,0.29484 0.10402,0 0.18912,-0.0801 0.18912,-0.17796 z m 0,-1.05132 c 0,-0.15603 -0.0851,-0.28368 -0.18912,-0.28368 -0.10401,0 -0.18912,0.12765 -0.18912,0.28368 0,0.15602 0.0851,0.28368 0.18912,0.28368 0.10402,0 0.18912,-0.12766 0.18912,-0.28368 z m 0,-0.93444 c 0,-0.14988 -0.0851,-0.32511 -0.18912,-0.3894 -0.10401,-0.0643 -0.18912,0.0583 -0.18912,0.27252 0,0.21417 0.0851,0.3894 0.18912,0.3894 0.10402,0 0.18912,-0.12263 0.18912,-0.27252 z m 1.45421,-1.004039 c -0.0476,-0.182028 -0.0865,-0.0331 -0.0865,0.330959 0,0.36406 0.0389,0.51299 0.0865,0.33096 0.0476,-0.18203 0.0476,-0.479891 0,-0.661919 z m -1.62205,-0.290772 c -0.15445,-0.154448 -0.2104,-0.133284 -0.2104,0.07959 0,0.375943 0.25431,0.630253 0.3483,0.348296 0.0399,-0.119619 -0.0222,-0.312166 -0.1379,-0.427884 z m 0.16784,-0.796667 c 0,-0.156024 -0.0851,-0.28368 -0.18912,-0.28368 -0.10401,0 -0.18912,0.127656 -0.18912,0.28368 0,0.156024 0.0851,0.28368 0.18912,0.28368 0.10402,0 0.18912,-0.127656 0.18912,-0.28368 z m 0,-0.934438 c 0,-0.149885 -0.0851,-0.325115 -0.18912,-0.389401 -0.10401,-0.06428 -0.18912,0.05835 -0.18912,0.272519 0,0.21417 0.0851,0.389401 0.18912,0.389401 0.10402,0 0.18912,-0.122634 0.18912,-0.272519 z m -0.0653,-1.137723 c -0.0616,-0.16051 -0.20275,-0.291836 -0.31369,-0.291836 -0.13987,0 -0.13699,0.120934 0.009,0.394437 0.23476,0.438643 0.48025,0.355874 0.30431,-0.102601 z m 0.0653,-0.953756 c 0,-0.156024 -0.0851,-0.283679 -0.18912,-0.283679 -0.10401,0 -0.18912,0.127655 -0.18912,0.283679 0,0.156024 0.0851,0.28368 0.18912,0.28368 0.10402,0 0.18912,-0.127656 0.18912,-0.28368 z m -0.0334,-0.977207 c -0.0336,-0.173408 -0.16083,-0.348476 -0.28267,-0.389039 -0.14091,-0.04691 -0.18449,0.06781 -0.11978,0.315288 0.12088,0.462246 0.49095,0.530063 0.40245,0.07375 z m -0.0318,-1.094954 c -0.0616,-0.16051 -0.20275,-0.291836 -0.31369,-0.291836 -0.13987,0 -0.13699,0.120934 0.009,0.394437 0.23476,0.438643 0.48025,0.355874 0.30431,-0.102601 z m 0.0653,-0.953755 c 0,-0.156024 -0.0851,-0.28368 -0.18912,-0.28368 -0.10401,0 -0.18912,0.127656 -0.18912,0.28368 0,0.156023 0.0851,0.283679 0.18912,0.283679 0.10402,0 0.18912,-0.127656 0.18912,-0.283679 z m -0.0334,-0.977208 c -0.0336,-0.173408 -0.16083,-0.348476 -0.28267,-0.389039 -0.14091,-0.04691 -0.18449,0.06781 -0.11978,0.315288 0.12088,0.462247 0.49095,0.530063 0.40245,0.07375 z m 0.0334,-1.10311 c 0,-0.156024 -0.12498,-0.28368 -0.27774,-0.28368 -0.16919,0 -0.2352,0.110879 -0.16889,0.28368 0.0599,0.156024 0.18486,0.28368 0.27775,0.28368 0.0929,0 0.16888,-0.127656 0.16888,-0.28368 z m -0.0334,-0.977207 c -0.0336,-0.173409 -0.16083,-0.348476 -0.28267,-0.38904 -0.14091,-0.04691 -0.18449,0.06781 -0.11978,0.315288 0.12088,0.462247 0.49095,0.530064 0.40245,0.07375 z m 0.0334,-1.103111 c 0,-0.156024 -0.0851,-0.28368 -0.18912,-0.28368 -0.10401,0 -0.18912,0.127656 -0.18912,0.28368 0,0.156024 0.0851,0.28368 0.18912,0.28368 0.10402,0 0.18912,-0.127656 0.18912,-0.28368 z m 0,-0.945599 c 0,-0.156024 -0.0801,-0.283679 -0.17796,-0.283679 -0.23847,0 -0.40927,0.295327 -0.25817,0.446421 0.21298,0.212983 0.43613,0.129715 0.43613,-0.162742 z m -0.16784,-1.28365 c -0.15445,-0.154448 -0.2104,-0.133284 -0.2104,0.07959 0,0.375943 0.25431,0.630252 0.3483,0.348295 0.0399,-0.119618 -0.0222,-0.312166 -0.1379,-0.427883 z m 0.16784,-0.796668 c 0,-0.156023 -0.0851,-0.283679 -0.18912,-0.283679 -0.10401,0 -0.18912,0.127656 -0.18912,0.283679 0,0.156024 0.0851,0.28368 0.18912,0.28368 0.10402,0 0.18912,-0.127656 0.18912,-0.28368 z m 0,-0.934437 c 0,-0.149885 -0.0851,-0.325116 -0.18912,-0.389401 -0.10401,-0.06428 -0.18912,0.05835 -0.18912,0.272518 0,0.214171 0.0851,0.389401 0.18912,0.389401 0.10402,0 0.18912,-0.122633 0.18912,-0.272518 z m 0,-1.14588 c 0,-0.156024 -0.0851,-0.28368 -0.18912,-0.28368 -0.10401,0 -0.18912,0.127656 -0.18912,0.28368 0,0.156024 0.0851,0.283679 0.18912,0.283679 0.10402,0 0.18912,-0.127655 0.18912,-0.283679 z m 0,-0.934438 c 0,-0.149885 -0.0851,-0.325115 -0.18912,-0.389401 -0.10401,-0.06428 -0.18912,0.05835 -0.18912,0.272519 0,0.21417 0.0851,0.389401 0.18912,0.389401 0.10402,0 0.18912,-0.122634 0.18912,-0.272519 z m -0.16784,-1.294812 c -0.15445,-0.154448 -0.2104,-0.133284 -0.2104,0.07959 0,0.375943 0.25431,0.630253 0.3483,0.348296 0.0399,-0.119619 -0.0222,-0.312166 -0.1379,-0.427884 z m 0.16784,-0.796667 c 0,-0.156024 -0.0851,-0.28368 -0.18912,-0.28368 -0.10401,0 -0.18912,0.127656 -0.18912,0.28368 0,0.156024 0.0851,0.28368 0.18912,0.28368 0.10402,0 0.18912,-0.127656 0.18912,-0.28368 z m 0,-0.934438 c 0,-0.149885 -0.0851,-0.325115 -0.18912,-0.3894 -0.10401,-0.06429 -0.18912,0.05835 -0.18912,0.272518 0,0.21417 0.0851,0.389401 0.18912,0.389401 0.10402,0 0.18912,-0.122633 0.18912,-0.272519 z m -0.0778,-1.381322 c -0.20659,-0.206594 -0.34826,0.121956 -0.19993,0.463686 0.14064,0.324031 0.15084,0.323736 0.2292,-0.0066 0.0451,-0.190169 0.0319,-0.395837 -0.0293,-0.45704 z m 0.0778,-0.710157 c 0,-0.156023 -0.0851,-0.283679 -0.18912,-0.283679 -0.10401,0 -0.18912,0.127656 -0.18912,0.283679 0,0.156024 0.0851,0.28368 0.18912,0.28368 0.10402,0 0.18912,-0.127656 0.18912,-0.28368 z m -0.16784,-1.28365 c -0.15445,-0.154448 -0.2104,-0.133284 -0.2104,0.07959 0,0.375943 0.25431,0.630253 0.3483,0.348295 0.0399,-0.119618 -0.0222,-0.312166 -0.1379,-0.427883 z m -1.08405,-9.070658 c 0.0738,-5.901539 0.0481,-9.03047 -0.0741,-9.03047 -0.12064,0 -0.18699,3.231925 -0.18699,9.10927 0,5.010098 0.0333,9.07381 0.0741,9.03047 0.0407,-0.04334 0.12489,-4.142512 0.18698,-9.10927 z m 1.25189,8.273991 c 0,-0.156024 -0.0851,-0.28368 -0.18912,-0.28368 -0.10401,0 -0.18912,0.127656 -0.18912,0.28368 0,0.156024 0.0851,0.283679 0.18912,0.283679 0.10402,0 0.18912,-0.127655 0.18912,-0.283679 z m -0.0749,-1.178059 c -0.19224,-0.192243 -0.35086,0.09719 -0.19313,0.352402 0.11915,0.192792 0.1637,0.192941 0.22776,7.63e-4 0.0438,-0.131398 0.0282,-0.290322 -0.0346,-0.353165 z m 0.0149,-0.843159 c -0.0604,-0.150867 -0.10518,-0.106054 -0.11426,0.11426 -0.008,0.199364 0.0365,0.311062 0.0993,0.24822 0.0628,-0.06284 0.0696,-0.225959 0.0149,-0.36248 z m 0,-1.134719 c -0.0604,-0.150867 -0.10518,-0.106054 -0.11426,0.11426 -0.008,0.199364 0.0365,0.311063 0.0993,0.24822 0.0628,-0.06284 0.0696,-0.225959 0.0149,-0.36248 z m 0,-0.945599 c -0.0604,-0.150867 -0.10518,-0.106054 -0.11426,0.11426 -0.008,0.199364 0.0365,0.311063 0.0993,0.24822 0.0628,-0.06284 0.0696,-0.225959 0.0149,-0.36248 z m 0,-0.945599 c -0.0604,-0.150867 -0.10518,-0.106054 -0.11426,0.11426 -0.008,0.199364 0.0365,0.311063 0.0993,0.24822 0.0628,-0.06284 0.0696,-0.225959 0.0149,-0.36248 z m 0,-1.134719 c -0.0604,-0.150867 -0.10518,-0.106053 -0.11426,0.11426 -0.008,0.199364 0.0365,0.311063 0.0993,0.24822 0.0628,-0.06284 0.0696,-0.225959 0.0149,-0.36248 z m 0,-0.945598 c -0.0604,-0.150868 -0.10518,-0.106054 -0.11426,0.114259 -0.008,0.199364 0.0365,0.311063 0.0993,0.24822 0.0628,-0.06284 0.0696,-0.225959 0.0149,-0.362479 z M 77.293537,59.263798 c 0.118714,-0.231283 0.479256,-0.50042 0.801204,-0.59808 0.321947,-0.09766 3.43634,-0.228623 6.920872,-0.291027 12.88652,-0.230783 43.614387,-0.846715 61.653047,-1.235818 4.21265,-0.09087 8.29763,-0.125025 9.07775,-0.0759 1.11395,0.07014 1.34449,0.04283 1.07406,-0.127234 -0.33303,-0.209436 -8.9576,-0.09396 -42.68041,0.571484 -4.83674,0.09544 -14.878999,0.268355 -22.316135,0.384253 -7.437135,0.115897 -13.707597,0.247687 -13.934359,0.292867 -0.854718,0.170291 -1.008715,0.55356 -0.969063,2.411802 0.03388,1.587701 0.04217,1.622865 0.09712,0.412011 0.03304,-0.728111 0.157204,-1.513071 0.275918,-1.744355 z M 160.8338,81.232837 c 0.0165,-23.164987 -0.0164,-26.533958 -0.26223,-26.85501 -0.2594,-0.338786 -0.26635,-0.322802 -0.0901,0.207208 0.12592,0.378702 0.17335,9.674409 0.13924,27.292057 -0.0284,14.694759 0.004,26.521068 0.0713,26.280698 0.0676,-0.24038 0.13147,-12.356605 0.14184,-26.924953 z m 16.88822,-67.740226 c -0.96741,-0.03439 -2.49928,-0.03423 -3.40415,3.61e-4 -0.90488,0.03459 -0.11337,0.06273 1.75892,0.06253 1.87229,-1.98e-4 2.61264,-0.0285 1.64523,-0.06289 z"
       id="path1" /></g></svg>
