<svg xmlns="http://www.w3.org/2000/svg" xml:space="preserve" viewBox="0 0 1242.2 1417.3"><path d="M1086.7 162.1C997.1 60.5 853.6 15.2 621.4 15.2S245.8 60.5 156.2 162.1C64.3 266.3 23.3 435.2 23.3 709.7s41 443.4 132.9 547.6c89.6 101.6 233.1 146.9 465.3 146.9s375.7-45.3 465.3-146.9c91.9-104.2 132.9-273.1 132.9-547.6s-41.1-443.4-133-547.6M833.4 53.4c-59.4-10.7-129.8-14-211.9-14s-152.6 3.3-212 14C469.9 41.7 540 36 621.4 36c81.5 0 151.6 5.7 212 17.4m187.3 120c58.8 93.2 61 246.1 64.6 499.4l.5 32.4-.5 32.5c-3.6 253.4-5.8 406.3-64.6 499.4-65.3 103.4-195.9 123.7-399.3 123.7s-334-20.2-399.3-123.7c-58.8-93.2-61-246.1-64.6-499.4l-.5-32.4.5-32.5c3.6-253.3 5.8-406.3 64.6-499.4C287.4 70 418 49.8 621.4 49.8S955.5 70 1020.7 173.4m50.4 1070.1c-85.3 96.7-224 139.9-449.7 139.9s-364.4-43.1-449.7-139.9C83.5 1143.4 44.1 978.8 44.1 709.7S83.5 276 171.8 175.9c43.8-49.7 101.9-85.3 178.5-108.1-60.2 19.2-105.6 50.4-136.9 100.1-60.4 95.6-62.6 249.6-66.2 504.8l-.5 32.7.5 32.5c3.7 255.2 5.9 409.2 66.2 504.8 67.9 107.5 201 128.5 408.1 128.5s340.2-21 408.1-128.5c60.4-95.6 62.6-249.7 66.2-504.8l.5-32.7-.5-32.5c-3.7-255.2-5.9-409.2-66.2-504.8-31.4-49.7-76.8-80.9-137-100.1 76.6 22.8 134.6 58.3 178.5 108.1 88.3 100.1 127.7 264.8 127.7 533.8 0 269.1-39.4 433.7-127.7 533.8"/><path d="M281.7 1104.6c47.9 74 136.8 100.2 339.7 100.2s291.8-26.2 339.8-100.2c49.8-76.9 51.7-206.3 54.9-420.7l.4-27.4-.4-27.7c-3.2-214.4-5.1-343.8-54.9-420.7-47.9-74-136.8-100.2-339.8-100.2s-291.8 26.2-339.7 100.2C231.9 285 230 414.4 226.8 628.8l-.4 27.7.4 27.4c3.2 214.4 5.1 343.8 54.9 420.7m-34.1-475.4c3.1-210.7 5-337.8 51.5-409.7 43.4-67 127.7-90.7 322.3-90.7s278.9 23.7 322.3 90.7c46.6 71.9 48.4 199 51.5 409.7l.4 27.2-.4 27.2c-3.1 210.7-5 337.8-51.5 409.7-43.4 67-127.7 90.7-322.3 90.7s-278.9-23.7-322.3-90.7c-46.6-71.9-48.4-199-51.5-409.7l-.4-27.1z"/><path d="M621.4 811.9c56.3 0 102.1-45.8 102.1-102.1s-45.8-102.1-102.1-102.1-102.1 45.8-102.1 102.1 45.8 102.1 102.1 102.1m0-199.1c53.5 0 96.9 43.5 96.9 96.9s-43.5 96.9-96.9 96.9c-53.5 0-96.9-43.5-96.9-96.9s43.5-96.9 96.9-96.9"/><path d="M621.4 840.7c72.2 0 131-58.8 131-131s-58.8-131-131-131-131 58.8-131 131 58.8 131 131 131m0-251.6c66.5 0 120.6 54.1 120.6 120.6s-54.1 120.6-120.6 120.6-120.6-54.1-120.6-120.6S555 589.1 621.4 589.1"/><path d="m177.2 705.4.5 32.1c7.2 499.3 8.7 603.2 443.7 603.2 435.1 0 436.6-103.9 443.7-603.2l.5-32.1-.5-32.2C1058 173.9 1056.5 70 621.4 70S184.8 173.9 177.7 673.2zm10.9-32.1c3.6-248 5.7-397.7 59.9-483.5C299 109 396.7 80.4 621.4 80.4S943.8 109 994.8 189.8c54.2 85.9 56.4 235.6 59.9 483.5l.5 32-.5 32c-3.6 248-5.7 397.7-59.9 483.5-51 80.8-148.7 109.4-373.4 109.4S299 1301.6 248 1220.8c-54.2-85.9-56.4-235.6-59.9-483.5l-.5-31.9z"/><path d="m486.6 797.3 5 6.7c2.8 3.7 5.5 5.7 8.1 5.9 2.6.3 5-.5 7.2-2.1 1.3-1 2.3-2.1 3-3.5.7-1.3 1-2.7 1-4-.1-1.3-.5-2.7-1.2-4.1q-.75-1.5-2.7-4.2l-7.4-9.8-26.1 19.6 2.6 3.5zm12.4-9.4 5 6.7c1.2 1.6 1.9 2.7 2.2 3.4.4 1.1.5 2.2.1 3.3s-1.1 2.1-2.2 2.9c-1.5 1.1-3 1.5-4.6 1.2-1.5-.3-3.1-1.6-4.8-3.8l-5.1-6.7zM532.5 818.5 520 832.6c-2.7 3.1-5.1 4.7-7 4.9s-4.1-.8-6.5-2.9c-1.4-1.2-2.3-2.5-2.8-3.9s-.5-2.8 0-4.1c.5-1.4 1.7-3.1 3.6-5.2l12.5-14.1-3.2-2.9-12.6 14q-3.45 3.9-4.5 6.9c-.7 2-.7 4.1.1 6.2s2.3 4.1 4.6 6.2c2.4 2.1 4.7 3.3 6.9 3.7 2.3.4 4.3.1 6.1-.8s3.8-2.7 6-5.1l12.5-14.1zM539.7 861c2 .2 3.9-.1 5.5-1 1.6-.8 2.9-2 3.7-3.5.9-1.5 1.3-3.1 1.1-4.7-.1-1.6-.8-3.3-2-5-.8-1.2-2.6-3-5.2-5.4s-4.1-4.2-4.5-5.3-.2-2.1.3-3.1q1.05-1.8 3.3-2.1c1.5-.2 3.4.3 5.7 1.6 2.2 1.3 3.6 2.7 4.1 4.2.6 1.6.5 3.3-.4 5.2l3.7 1.8c.9-1.7 1.3-3.4 1.2-5.3-.1-1.8-.8-3.5-2-5.1s-2.9-3-5-4.2c-1.9-1.1-3.8-1.8-5.7-2-1.9-.3-3.7 0-5.2.8s-2.7 1.9-3.5 3.3c-.7 1.3-1.1 2.7-1 4.1s.6 2.9 1.5 4.4c.7 1.2 2.2 2.8 4.4 4.9s3.6 3.6 4.2 4.3c.9 1.1 1.4 2.2 1.6 3.1.1 1-.1 1.9-.6 2.8s-1.2 1.5-2.2 2c-1 .4-2.1.5-3.4.3s-2.7-.7-4.1-1.5q-2.4-1.35-3.9-3.3c-1-1.3-1.5-2.6-1.6-3.8-.1-1.3.2-2.6.8-4.2l-3.7-1.7c-1 1.9-1.5 3.9-1.4 6q.15 3.15 2.1 5.7c1.3 1.7 3.2 3.4 5.8 4.8 2.4 1 4.4 1.7 6.4 1.9M584 844.3l-4.2 12.7-16.1-5.3 4.2-12.7-4.1-1.4-10.3 31 4.1 1.3 4.9-14.5 16.1 5.3-4.9 14.6 4.1 1.4 10.3-31zM626.7 853.3l.2-3.8-25.8-1.4-.2 3.9 10.7.5-1.5 28.8 4.3.2 1.5-28.7zM638.3 879.4c2.6 1.1 5.4 1.5 8.5 1 2.8-.4 5.3-1.4 7.6-3.1 2.2-1.7 3.8-3.9 4.8-6.7.9-2.8 1.2-5.8.7-9.1-.5-3.2-1.5-6-3.1-8.4s-3.7-4.1-6.3-5.2-5.4-1.4-8.4-1c-4.6.7-8 2.7-10.5 6.1-2.4 3.4-3.3 7.8-2.5 13.2q.6 4.2 3 7.8c1.5 2.5 3.6 4.2 6.2 5.4m-3.1-24.5c1.9-2.4 4.3-3.8 7.4-4.2 2.1-.3 4.1 0 6 .8s3.4 2.2 4.5 4c1.2 1.8 1.9 4.1 2.3 6.7.6 4.2 0 7.5-1.7 10.1-1.8 2.6-4.2 4.1-7.5 4.5-3.2.5-5.9-.3-8.4-2.2-2.4-1.9-3.9-4.9-4.5-8.7-.6-5 0-8.6 1.9-11M692 831.2l-23.6 10.6 1.6 3.5 9.8-4.4 11.7 26.3 4-1.8-11.8-26.3 9.9-4.4zM713.2 816.6 693.8 830l18.7 26.8 20-13.9-2.2-3.2-16.5 11.5-6.3-9.1 14.8-10.3-2.2-3.2-14.8 10.3-5.7-8.2 15.8-11zM748.9 828c1.6-1.7 2.8-3.5 3.5-5.4s.8-3.8.4-5.6-1.2-3.3-2.5-4.5-2.7-2-4.3-2.3-3.4-.1-5.3.7c-1.3.5-3.5 1.8-6.5 3.7-3 2-5.1 3-6.2 3-1.1.1-2.1-.3-3-1.1-1-.9-1.4-2.2-1.2-3.7q.15-2.25 3-5.1 2.7-2.7 5.1-3c1.7-.2 3.3.4 4.9 1.6l2.7-3.2q-2.1-1.95-4.8-2.4c-1.8-.3-3.6-.1-5.4.7s-3.6 2-5.3 3.8c-1.5 1.6-2.7 3.3-3.4 5.1s-.9 3.5-.5 5.2 1.2 3.1 2.3 4.2c1.1 1 2.3 1.7 3.7 2s2.9.2 4.6-.4c1.3-.4 3.2-1.5 5.8-3.1s4.3-2.7 5.2-3c1.3-.6 2.5-.9 3.4-.8 1 .1 1.8.5 2.5 1.2s1.2 1.6 1.4 2.6 0 2.2-.5 3.4-1.4 2.5-2.5 3.6c-1.3 1.3-2.7 2.3-4.2 2.9s-2.9.8-4.1.6-2.5-.8-3.8-1.8l-2.6 3.2c1.6 1.5 3.4 2.4 5.4 2.8s4 .2 6.1-.7c2-.6 4-2.1 6.1-4.2M751.7 776l-3.2-2.2-14.3 21.6 3.2 2.1 5.9-8.9 24 15.9 2.4-3.6-24-15.9zM486.8 1022.8h18v31.6h16.5v-78.2h-16.5v27.4h-18v-27.4h-16.4v78.2h16.4zM548.6 1021.3h25.5v-16h-25.5v-12.4h27.5v-16.7h-44v78.2h44.8v-17.7h-28.3zM586.4 976.2h16.5v78.2h-16.5zM644.4 1023.8l-8.4-47.6h-21.6v78.2h13.5v-59.6l10.3 59.6h12.2l10.4-59.6v59.6h13.4v-78.2h-21.6zM699.3 976.2l-20 78.2h16.8l2.6-12.9h18.6l2.7 12.9h17.2l-20-78.2zm3 48.4 5.8-28.1 5.9 28.1zM742.5 976.2v78.2h15.4v-42.9l19.9 42.9h15.5v-78.2h-15.5v43.3l-20-43.3z"/></svg>