<?xml version="1.0" encoding="UTF-8" standalone="no"?>
<!-- Created with Inkscape (http://www.inkscape.org/) -->

<svg
   width="960"
   height="960"
   viewBox="0 0 253.99999 254"
   version="1.1"
   id="svg1"
   xml:space="preserve"
   inkscape:version="1.4.4 (dcaf3e7, 2026-05-05)"
   sodipodi:docname="6gang.svg"
   xmlns:inkscape="http://www.inkscape.org/namespaces/inkscape"
   xmlns:sodipodi="http://sodipodi.sourceforge.net/DTD/sodipodi-0.dtd"
   xmlns="http://www.w3.org/2000/svg"
   xmlns:svg="http://www.w3.org/2000/svg"><sodipodi:namedview
     id="namedview1"
     pagecolor="#ffffff"
     bordercolor="#000000"
     borderopacity="0.25"
     inkscape:showpageshadow="2"
     inkscape:pageopacity="0.0"
     inkscape:pagecheckerboard="0"
     inkscape:deskcolor="#d1d1d1"
     inkscape:document-units="mm"
     inkscape:zoom="0.60662084"
     inkscape:cx="395.63428"
     inkscape:cy="561.30614"
     inkscape:window-width="1924"
     inkscape:window-height="1112"
     inkscape:window-x="0"
     inkscape:window-y="30"
     inkscape:window-maximized="0"
     inkscape:current-layer="layer1" /><defs
     id="defs1" /><g
     inkscape:label="Camada 1"
     inkscape:groupmode="layer"
     id="layer1"><path
       style="fill:#000000"
       d="m 128.02062,230.4918 c -47.109818,-2.15551 -87.840124,-3.99705 -90.511788,-4.0923 -4.673813,-0.16664 -4.871475,-0.19036 -5.225108,-0.62708 -0.351891,-0.43457 -0.368786,-2.62759 -0.396883,-51.51645 -0.01614,-28.08441 -0.07023,-51.12871 -0.120195,-51.20956 -0.386561,-0.62547 -0.0749,-91.557269 0.315148,-91.94741 0.36818,-0.368274 0.716845,-0.423712 3.008025,-0.478278 9.018467,-0.214778 172.646201,-5.151803 176.888271,-5.337125 5.22892,-0.228435 5.22892,-0.228435 6.05481,0.292926 1.64283,1.037071 1.54758,0.210037 1.48946,12.933188 -0.0284,6.226092 0.12457,52.247813 0.34002,102.270489 0.32012,74.32259 0.34373,91.06604 0.12917,91.58325 -0.4343,1.04687 -2.22315,1.7098 -5.29822,1.96344 -0.56017,0.0462 -39.56288,-1.67958 -86.67271,-3.83509 z m 86.12273,2.31831 c 0.31426,-0.31426 0.36046,-205.094941 0.0464,-205.681777 -0.10892,-0.20352 -0.34632,-0.426939 -0.52756,-0.496486 -0.28814,-0.110573 -29.36948,0.729422 -101.42801,2.92968 -10.97922,0.335243 -32.290924,0.972067 -47.359345,1.415164 -29.1861,0.858237 -31.067244,0.926689 -31.653984,1.151842 -0.335717,0.128827 -0.364464,159.053847 -0.03411,188.602397 0.04782,4.27762 0.04782,4.27762 2.271244,4.34367 1.222882,0.0363 40.859484,1.83561 88.081339,3.99841 90.01665,4.12283 90.21032,4.13082 90.60404,3.7371 z m -10.24592,-1.90984 c -6.0967,-0.27931 -20.72015,-0.89645 -74.34909,-3.13767 -18.59745,-0.77721 -34.959343,-1.46451 -36.359754,-1.52734 -1.400411,-0.0628 -5.754415,-0.24915 -9.675566,-0.41403 -10.159555,-0.42722 -40.210675,-1.70504 -44.879242,-1.90834 -3.255638,-0.14176 -3.995339,-0.23042 -4.277619,-0.5127 -0.629431,-0.62943 -0.612359,-188.391282 0.01719,-189.020828 0.456167,-0.456166 0.56184,-0.4646 8.91236,-0.711302 4.647895,-0.137314 13.996346,-0.428125 20.774334,-0.646246 6.777989,-0.218121 18.327559,-0.582784 25.665712,-0.81036 26.840678,-0.832406 27.801228,-0.862561 87.487488,-2.746545 12.21158,-0.385456 23.94448,-0.752148 26.0731,-0.814871 2.12863,-0.06272 4.71016,-0.166113 5.73673,-0.229756 1.70627,-0.10578 1.903,-0.07922 2.29159,0.309363 0.76076,0.760763 0.64988,201.470455 -0.11164,202.069465 -0.29519,0.23219 -0.77642,0.40874 -1.0694,0.39232 -0.29299,-0.0164 -3.09927,-0.14744 -6.23619,-0.29116 z m 7.15811,-0.86891 c 0.63876,-1.34985 0.27103,-199.858155 -0.37023,-199.858089 -1.10676,1.15e-4 -12.98632,0.372779 -35.81458,1.123511 -11.81946,0.388696 -37.62267,1.211578 -57.34046,1.828628 -19.717782,0.617049 -44.375198,1.396085 -54.794255,1.731191 -10.419056,0.335106 -20.731173,0.66056 -22.915814,0.723232 -2.184641,0.06267 -4.26998,0.159257 -4.634087,0.214634 -1.013031,0.154073 -0.979344,187.156263 0.03376,187.383303 0.6913,0.15492 11.759463,0.63309 98.911639,4.27321 22.79869,0.95224 47.86859,2.00709 55.71089,2.34411 19.82959,0.85217 20.91596,0.86427 21.21314,0.23627 z m -31.39795,-36.84214 c -4.75334,-0.13844 -41.27525,-1.15255 -71.80288,-1.99376 -18.093311,-0.49858 -36.471794,-1.00505 -40.841076,-1.12549 -11.080065,-0.30543 -12.92289,-0.46955 -13.275423,-1.18231 -0.508246,-1.02757 -0.2803,-119.320761 0.230852,-119.800963 0.718003,-0.674529 2.422181,-0.742151 31.071678,-1.232924 29.534919,-0.50594 74.524979,-1.323853 91.079069,-1.655804 12.75876,-0.255845 13.13534,-0.238947 13.55518,0.608262 0.53425,1.078075 0.27251,125.680659 -0.26489,126.103379 -0.5616,0.44175 -2.38761,0.4941 -9.75251,0.27961 z m 9.47187,-0.6702 c 0.42056,-0.42056 0.66996,-124.768707 0.2515,-125.3954 -0.40356,-0.604388 -1.07043,-0.68337 -4.86486,-0.576185 -3.36654,0.0951 -35.33623,0.680675 -71.46714,1.309035 -6.49791,0.113007 -16.443371,0.295488 -22.101031,0.405515 -5.65766,0.110026 -16.107271,0.300411 -23.221358,0.423076 -12.381216,0.213484 -12.952137,0.240005 -13.342097,0.619767 -0.643781,0.626947 -0.643781,118.898262 0,119.526522 0.386185,0.37688 1.017102,0.41442 12.11992,0.72119 6.44189,0.17799 18.220618,0.50532 26.174952,0.7274 15.073864,0.42085 48.213634,1.32895 74.247234,2.03453 8.34645,0.22621 15.81701,0.43849 16.60124,0.47172 4.4848,0.19007 5.17744,0.15703 5.60164,-0.26717 z m -14.46242,-1.93443 c -4.98547,-0.14607 -18.45996,-0.50909 -29.94333,-0.8067 -23.91761,-0.61987 -21.91521,-0.48891 -22.71212,-1.48534 -0.99066,-1.23869 -1.07618,-37.66089 -0.0904,-38.50493 0.42616,-0.36488 0.53082,-0.85957 0.18186,-0.85957 -0.81074,0 -0.84102,-0.74129 -0.7855,-19.23295 0.0535,-17.82539 0.0943,-18.98294 0.68055,-19.31102 0.43592,-0.24395 0.40051,-0.55456 -0.12725,-1.11634 -0.4463,-0.47507 -0.4463,-0.47507 -0.44715,-19.133854 -0.001,-22.365802 -0.54634,-20.443635 5.79985,-20.443635 2.1514,0 8.64191,-0.09201 14.42336,-0.204458 46.48295,-0.904116 44.76746,-0.90239 45.21094,-0.04549 0.43661,0.843609 0.5078,120.299781 0.072,120.837941 -0.51673,0.63813 -0.74483,0.64383 -12.26282,0.30635 z m 8.55523,-20.36107 c 0,-19.24005 0,-19.24005 -0.66201,-19.33992 -1.94673,-0.29367 -60.10057,-0.73844 -60.37828,-0.46179 -0.22373,0.22288 -0.33667,30.53615 -0.12801,34.35676 0.16131,2.95359 0.16131,2.95359 3.11491,3.12331 3.33561,0.19168 49.90303,1.49556 54.84518,1.53566 l 3.20821,0.026 z m -10.65434,8.26843 c -1.28794,-0.8492 -1.26188,-0.67825 -1.26188,-8.27766 0,-7.80975 0.002,-7.82343 1.15524,-8.65896 1.35013,-0.97803 3.30361,-0.53073 4.03901,0.92484 0.43025,0.85157 0.45384,13.90097 0.027,14.91261 -0.56865,1.34763 -2.68953,1.93642 -3.95933,1.09917 z m 3.09064,-0.72298 c 0.96961,-0.9692 0.92853,-14.53614 -0.047,-15.51163 -1.15828,-1.15828 -2.83345,-0.91667 -3.61944,0.52204 -0.31741,0.58099 -0.52278,10.15338 -0.27513,12.82359 0.24779,2.67178 2.30472,3.80212 3.94154,2.166 z m -2.37077,-0.4598 c -2.00388,-0.80625 -1.09758,-15.34736 0.92491,-14.83975 1.35261,0.33948 1.42374,0.74661 1.39476,7.98294 -0.0277,6.92428 -0.28224,7.67657 -2.31967,6.85681 z m 13.09176,12.03935 c 0.40424,-0.10864 0.40699,-0.25927 0.35442,-19.47342 -0.053,-19.36393 -0.053,-19.36393 -0.50924,-19.24164 -0.25094,0.0673 -0.75325,0.12354 -1.11624,0.12507 -0.65997,0.003 -0.65997,0.003 -0.71293,19.35393 -0.0581,21.23614 -0.20377,19.82405 1.98399,19.23606 z m -1.0694,-39.12735 c 1.0153,-0.0959 1.37495,-0.20821 1.37495,-0.42942 0,-0.24792 -0.20188,-0.27124 -1.17125,-0.1353 -0.64419,0.0903 -1.40042,0.16025 -1.6805,0.15535 -29.26641,-0.51222 -60.90514,-0.78898 -60.90514,-0.53278 0,0.2927 5.98372,0.42105 31.67475,0.67941 11.76345,0.1183 21.61725,0.24195 21.89733,0.27477 1.04147,0.12205 7.48331,0.11325 8.80986,-0.012 z m -2.04,-20.28779 c 0.0297,-10.67113 0.054,-19.40792 0.054,-19.41509 0,-0.11838 -61.02294,0.26662 -61.14206,0.38575 -0.2223,0.2223 -0.36055,26.59468 -0.17123,32.66285 0.14731,4.72181 0.14731,4.72181 0.88882,4.83276 0.40783,0.061 9.17453,0.21299 19.48155,0.3377 16.69198,0.20196 35.65974,0.47356 39.46309,0.56508 1.37191,0.033 1.37191,0.033 1.42587,-19.36905 z m -10.9357,8.18016 c -1.13584,-0.99727 -1.76415,-14.07048 -0.76079,-15.82966 1.00813,-1.76754 3.87885,-1.66556 4.82885,0.17154 0.36658,0.70889 0.44485,13.21723 0.0907,14.49239 -0.5004,1.80164 -2.72445,2.42507 -4.15875,1.16573 z m 2.8995,-0.0956 c 1.02392,-0.71718 1.06265,-1.01363 1.06265,-8.13548 0,-7.85521 -0.16577,-8.45339 -2.34251,-8.45339 -1.91645,0 -2.08647,0.57128 -2.25072,7.56234 -0.20322,8.65043 0.71519,10.99851 3.53058,9.02653 z m -2.22485,-1.08975 c -0.72336,-0.58542 -0.87396,-13.03698 -0.16853,-13.9338 0.87189,-1.10842 2.6301,-0.49164 2.65095,0.92996 0.10639,7.25511 0.0801,11.9791 -0.0692,12.42976 -0.32973,0.99521 -1.53773,1.28258 -2.41318,0.57408 z m 13.21963,12.07466 c 1.52302,-0.40812 0.50881,-38.37065 -1.02446,-38.34605 -0.81002,0.013 -1.31236,0.0656 -1.1163,0.11679 0.3363,0.0879 0.35647,1.17551 0.35647,19.22565 0,21.15304 -0.15307,19.52275 1.78429,19.00361 z M 164.49921,110.0904 c 19.45732,-0.11892 22.118,-0.17191 22.118,-0.4405 0,-0.26979 -1.79148,-0.28962 -15.39603,-0.17041 -8.46782,0.0742 -22.79784,0.13497 -31.8445,0.13506 -14.48499,1.3e-4 -16.44846,0.0366 -16.44846,0.30569 0,0.36274 6.02491,0.3874 41.57099,0.17016 z m 17.89027,-1.21425 c 1.10232,-0.11378 1.10232,-0.11378 0.96781,-9.108565 -0.074,-4.947131 -0.13463,-13.615807 -0.13477,-19.263723 l -2.5e-4,-10.26894 -10.74497,0.132516 c -26.07455,0.321572 -49.96403,0.878475 -50.25716,1.171575 -0.25396,0.253932 -0.42702,28.196358 -0.20898,33.740857 0.14595,3.71118 0.14595,3.71118 2.51754,3.76838 4.21429,0.10165 56.72182,-0.0545 57.86078,-0.1721 z m -9.90003,-10.684186 c -1.34465,-0.861319 -2.02391,-14.304174 -0.81586,-16.146329 1.12441,-1.71463 3.61433,-1.740391 4.6463,-0.04807 0.89667,1.470426 0.52889,15.01346 -0.43126,15.880899 -0.98847,0.893017 -2.30492,1.014432 -3.39918,0.313501 z m 3.04008,-0.578428 c 1.01997,-0.911024 1.16164,-14.423168 0.16315,-15.560386 -0.97691,-1.112642 -2.58754,-1.114874 -3.46073,-0.0048 -0.48351,0.614677 -0.65953,13.977567 -0.19748,14.991655 0.56763,1.245811 2.40485,1.547293 3.49506,0.573527 z m -2.68097,-0.961017 c -0.78407,-0.996784 -0.63324,-13.134906 0.17324,-13.941384 2.1771,-2.177102 3.02341,2.324101 2.48279,13.204993 -0.0615,1.237641 -1.86782,1.738448 -2.65603,0.736391 z m 13.63285,-7.133337 c -0.10185,-19.31969 -0.10185,-19.31969 -1.01848,-19.37971 -0.91663,-0.06002 -0.91663,-0.06002 -0.86367,19.288596 0.0569,20.771842 -0.0125,20.055482 1.88215,19.443692 0.056,-0.0181 0.056,-8.72675 0,-19.352578 z M 151.64937,70.193841 c 9.35475,-0.160891 20.97654,-0.35488 25.8262,-0.431086 5.6689,-0.08908 8.74733,-0.208793 8.62088,-0.335245 -0.12645,-0.126452 -4.32982,-0.115718 -11.77116,0.03006 -6.36596,0.124711 -20.37415,0.371662 -31.1293,0.54878 -10.9264,0.179938 -19.73459,0.405989 -19.96223,0.512305 -0.25705,0.120059 1.77246,0.149209 5.4998,0.07899 3.24895,-0.0612 13.56107,-0.242917 22.91581,-0.403808 z M 111.41939,188.92171 c -0.78423,-0.0301 -5.0924,-0.15214 -9.57372,-0.27125 -8.145356,-0.2165 -23.298388,-0.64474 -36.156061,-1.0218 -3.753101,-0.11006 -7.270004,-0.20055 -7.815341,-0.20108 -2.659799,-0.003 -2.573161,0.6619 -2.573161,-19.73552 0,-17.88133 0.0061,-18.15902 0.407392,-18.56032 0.224066,-0.22406 0.407392,-0.49905 0.407392,-0.61109 0,-0.11203 -0.183326,-0.38702 -0.407392,-0.61108 -0.640996,-0.641 -0.640996,-36.59445 0,-37.17455 0.519151,-0.46982 0.519151,-0.95254 0,-1.27675 -0.918039,-0.57333 -0.573213,-36.704285 0.359847,-37.704901 0.853335,-0.915119 -1.967108,-0.799935 35.490671,-1.449405 6.329857,-0.109752 14.594103,-0.259436 18.364983,-0.332631 6.85616,-0.133082 6.85616,-0.133082 7.38399,0.394747 0.84217,0.842174 0.8334,117.60539 -0.009,118.26793 -0.55798,0.4389 -1.16395,0.46855 -5.87972,0.2877 z m 2.61632,-4.09222 c 0.0731,-1.54045 0.0238,-9.75142 -0.10957,-18.2466 -0.18773,-11.95628 -0.18766,-15.53362 3.1e-4,-15.83461 0.13356,-0.21386 0.24284,-0.46671 0.24284,-0.5619 0,-0.0952 -6.21019,-0.23517 -13.80042,-0.31109 -7.590222,-0.0759 -20.079341,-0.2327 -27.753592,-0.34841 -18.659172,-0.28135 -16.612204,-0.77372 -16.773239,4.03458 -0.159919,4.775 -0.128062,24.24371 0.04741,28.97445 0.150604,4.06024 -2.012398,3.51597 16.193183,4.07471 46.181816,1.41734 41.792406,1.60369 41.953076,-1.78113 z m -10.25493,-7.74077 c -2.10721,-1.05267 -2.51326,-14.76311 -0.48984,-16.5397 1.2061,-1.05897 3.10525,-0.74175 3.96093,0.66161 0.62336,1.02234 0.61173,13.94858 -0.0135,14.97403 -0.70939,1.16353 -2.17244,1.54608 -3.45762,0.90406 z m 2.49317,-0.49222 c 1.65696,-0.84894 1.45501,-15.07293 -0.22635,-15.9424 -1.21915,-0.63044 -2.367,-0.28182 -2.98091,0.90536 -0.68515,1.32491 -0.41563,13.7082 0.31649,14.54205 0.80063,0.91187 1.75738,1.07569 2.89077,0.49499 z m -2.03618,-0.82607 c -0.79438,-0.38303 -0.89418,-1.30376 -0.8263,-7.62297 0.0716,-6.66953 0.0995,-6.79395 1.52121,-6.79395 1.4941,0 1.49615,0.0101 1.49615,7.31828 0,7.47711 -0.18216,8.06729 -2.19106,7.09864 z m 12.98696,-7.06448 c 0,-18.92435 0,-18.92435 -0.86571,-18.82925 -1.62213,0.1782 -1.83369,0.25967 -1.65827,0.63852 0.0886,0.19137 0.29596,8.62055 0.46078,18.73152 0.29968,18.38357 0.29968,18.38357 1.18144,18.38357 0.88176,0 0.88176,0 0.88176,-18.92436 z m -3.66653,-19.47236 c 0,-0.22932 -0.24139,-0.30447 -0.96756,-0.30124 -0.53215,0.002 -13.276096,-0.14765 -28.31987,-0.33338 -25.416508,-0.31379 -27.842462,-0.30909 -27.480118,0.0533 0.123145,0.12314 24.343307,0.50887 52.744548,0.84 3.46105,0.0403 4.023,0.004 4.023,-0.25864 z m 0,-19.56463 v -18.8517 l -28.609186,0.0607 c -22.565047,0.0479 -28.663016,0.11457 -28.863987,0.31559 -0.317099,0.31718 -0.50728,21.06344 -0.27739,30.25959 0.150235,6.00977 0.150235,6.00977 0.891257,6.11351 0.407562,0.0571 8.257409,0.20937 17.444105,0.33845 14.070352,0.1977 30.365681,0.45013 37.632861,0.58295 1.78234,0.0326 1.78234,0.0326 1.78234,-18.81912 z m -10.12088,8.06594 c -1.18694,-0.72373 -1.18426,-0.70499 -1.18426,-8.26879 0,-7.69717 -0.0162,-7.59842 1.38602,-8.4534 1.19154,-0.72653 2.88988,-0.30085 3.62783,0.9093 0.5109,0.83783 0.59261,13.68724 0.0946,14.87913 -0.53305,1.27579 -2.56881,1.76019 -3.92419,0.93376 z m 3.03922,-0.60452 c 1.0465,-0.93504 1.0465,-14.37559 0,-15.31063 -1.23149,-1.10034 -3.24933,-0.59142 -3.62525,0.91432 -0.50418,2.01952 0.0525,13.83776 0.67809,14.39654 0.92016,0.82185 2.0272,0.82176 2.94716,-2.3e-4 z m -2.08065,-0.4835 c -0.96435,-0.48516 -1.01628,-0.85259 -1.01949,-7.21315 -0.003,-6.82604 0.12785,-7.39357 1.71052,-7.39357 1.27098,0 1.34191,0.38723 1.34191,7.32528 0,7.4619 -0.2062,8.20047 -2.03294,7.28144 z m 12.82897,-7.12089 c 1.3e-4,-18.79097 1.3e-4,-18.79097 -1.2731,-18.79097 -1.27323,0 -1.27323,0 -1.22021,18.79097 0.053,18.79097 0.053,18.79097 1.2731,18.79097 1.22008,0 1.22008,0 1.22021,-18.79097 z M 92.814334,110.22578 c 22.637996,0 24.410396,-0.0246 24.410396,-0.33917 0,-0.31514 -1.51779,-0.32957 -21.421827,-0.2037 -11.782004,0.0745 -25.393997,0.13548 -30.248874,0.13548 -8.09069,0 -8.827049,0.0282 -8.827049,0.33833 0,0.31058 0.478987,0.32729 5.838479,0.2037 3.211164,-0.074 16.823157,-0.13464 30.248875,-0.13464 z m 20.875606,-2.57693 c -0.0725,-0.85715 -0.13174,-9.336005 -0.13174,-18.841896 V 71.523516 l -6.16181,-4.2e-5 c -8.395814,-5.7e-5 -49.42474,0.797625 -50.509844,0.98201 -1.109749,0.188572 -1.114873,0.26679 -1.151249,17.572918 -0.04241,20.179028 -0.231233,18.901848 2.805574,18.976928 29.283917,0.72399 55.273129,0.0612 55.149069,-1.40648 z m -9.80731,-8.809614 c -1.59674,-0.703859 -1.73205,-1.380812 -1.72694,-8.63986 0.005,-7.748124 0.37353,-8.898445 2.84727,-8.898445 2.41429,0 2.7383,0.983477 2.81416,8.541845 0.0847,8.435984 -0.77042,10.391204 -3.93449,8.99646 z m 2.04136,-0.545418 c 1.26597,-0.600739 1.31963,-0.931023 1.31963,-8.122081 0,-7.70827 -0.15241,-8.259718 -2.28277,-8.259718 -1.98997,0 -2.08968,0.371185 -2.15541,8.024121 -0.0653,7.596336 -0.0311,7.826618 1.24315,8.380821 0.84151,0.365999 1.06106,0.363289 1.8754,-0.02314 z m -1.93433,-1.099408 c -0.84895,-0.848948 -0.91041,-13.042665 -0.07,-13.882546 0.58538,-0.584987 1.6627,-0.56677 2.1511,0.03637 0.63846,0.788467 0.53656,13.194887 -0.11339,13.805485 -0.58714,0.551589 -1.43921,0.569208 -1.96773,0.04069 z m 13.23507,-7.032697 c 0,-18.841893 0,-18.841893 -1.22218,-18.841893 -1.22217,0 -1.22217,0 -1.22217,17.89683 0,21.17081 -0.0945,19.78695 1.35171,19.78695 1.09264,0 1.09264,0 1.09264,-18.841887 z M 81.170515,71.317043 c 20.587185,-0.335893 35.540295,-0.641948 35.629845,-0.729258 0.13122,-0.127935 -5.45561,-0.08889 -16.27871,0.113775 -5.433597,0.101744 -16.75401,0.289657 -25.156475,0.417585 -8.402465,0.127927 -16.010515,0.31075 -16.906778,0.406272 -1.699899,0.181172 -0.474259,0.169927 22.712118,-0.208374 z M 53.162298,34.649636 c 7.05807,-0.219391 18.561809,-0.58213 25.563863,-0.806087 23.640399,-0.756127 38.338459,-1.221542 51.636969,-1.635089 7.28214,-0.226454 21.81076,-0.685267 32.28584,-1.019583 10.47507,-0.334317 24.82037,-0.789056 31.87844,-1.010532 16.50887,-0.518033 16.36114,-0.511938 16.5313,-0.682101 0.52107,-0.521061 -0.65338,-0.552841 -9.32062,-0.252213 -4.97417,0.172532 -14.91039,0.498866 -22.0805,0.725187 -7.1701,0.226321 -17.34472,0.54842 -22.61027,0.715776 -5.26554,0.167355 -17.04427,0.53402 -26.17495,0.814811 -9.13068,0.28079 -23.70514,0.739245 -32.387684,1.018788 -21.42032,0.689648 -46.326958,1.467704 -55.710891,1.740347 -8.40832,0.244297 -8.249693,0.230531 -8.249693,0.715904 0,0.298838 0.298668,0.319766 2.90267,0.203399 1.596468,-0.07134 8.677455,-0.309216 15.735526,-0.528607 z M 217.99633,232.44504 c 0.92256,-0.40809 0.92256,-0.40809 0.7894,-23.06972 -0.4171,-70.98687 -0.74614,-180.491049 -0.54296,-180.694237 0.86746,-0.867452 -0.27952,-1.901899 -2.30173,-2.075906 -1.60404,-0.138023 -1.60404,-0.138023 -1.2731,0.334452 0.41834,0.59727 0.52085,204.972061 0.10319,205.752451 -0.29742,0.55575 1.76803,0.39754 3.2252,-0.24704 z"
       id="path1" /></g></svg>
