<svg xmlns="http://www.w3.org/2000/svg" xml:space="preserve" width="960" height="960" viewBox="0 0 960 960"><path d="M773.462 893.872c-17.325-3.171-58.05-10.577-90.5-16.457s-73.85-13.398-92-16.707-42.9-7.76-55-9.893c-12.1-2.132-33.25-5.953-47-8.49s-31.3-5.718-39-7.067c-16.667-2.92-91.822-16.479-130.5-23.545-15.125-2.763-35.15-6.352-44.5-7.975-20.38-3.54-98.578-17.6-124.5-22.388a5858 5858 0 0 0-36-6.51c-20.688-3.66-22.364-4.228-24.992-8.48-2.001-3.238-2.008-4.492-2.008-346.233 0-244.657.312-343.878 1.088-346.105.599-1.717 2.511-3.989 4.25-5.048s12.837-4.499 24.662-7.643c24.933-6.63 16.269-6.518 77-.994 21.175 1.925 54.475 4.857 74 6.514 35.601 3.022 83.397 7.257 124.5 11.03 12.1 1.112 37.75 3.368 57 5.014 44.794 3.832 99.014 8.611 112.5 9.918 11.713 1.134 28.63 2.598 81.5 7.05 19.8 1.667 55.35 4.811 79 6.988 23.65 2.176 51.325 4.648 61.5 5.492 72.827 6.043 70.488 5.679 73.474 11.453 1.335 2.583 1.51 45.23 1.535 373.497.03 397.364.326 373.328-4.657 377.673-1.019.888-10.571 6.85-21.228 13.248-17.613 10.574-19.796 11.623-24 11.527-2.543-.057-18.8-2.699-36.124-5.87m41 .974c1.992-1.993 2-3.333 2-377.577V141.692l-2.786-2.785c-2.378-2.379-3.876-2.88-10.25-3.425-4.105-.351-22.314-1.98-40.464-3.619s-55.95-5.021-84-7.516-65.85-5.87-84-7.499c-120.389-10.807-181.772-16.283-207.5-18.51a10378 10378 0 0 1-56-5.026c-14.575-1.358-46.975-4.273-72-6.477-81.216-7.153-113.043-10.028-138.675-12.529-13.846-1.35-25.822-2.206-26.614-1.902-.792.303-1.893 1.545-2.445 2.758-.67 1.469-.883 116.924-.64 345.663.355 333.863.418 343.51 2.235 345.327 1.395 1.395 7.424 2.868 23.754 5.802 12.036 2.163 34.035 6.16 48.885 8.883s48.6 8.808 75 13.522c68.232 12.184 124.489 22.316 175 31.518 15.4 2.806 34.3 6.211 42 7.567 14.696 2.59 73.207 13.127 146.5 26.384 23.925 4.328 55.2 9.95 69.5 12.493s29.15 5.27 33 6.061 21.175 3.955 38.5 7.03 38.25 6.854 46.5 8.396c18.542 3.466 20.004 3.534 22.5 1.038m-23.5-11.629c-16.049-2.831-114.651-20.6-138-24.869-13.2-2.413-30.75-5.56-39-6.993-8.25-1.432-33.45-5.929-56-9.992s-63.95-11.481-92-16.485c-90.657-16.173-154.473-27.633-176-31.605-4.4-.812-23.3-4.181-42-7.488-18.7-3.306-37.375-6.633-41.5-7.393-7.966-1.468-18.688-3.402-63.5-11.457-15.4-2.768-31.048-5.607-34.773-6.31l-6.772-1.279.03-337.925c.018-185.86.257-338.15.531-338.425.275-.275 26.259 1.843 57.742 4.706s66.692 6.065 78.242 7.115 34.5 3.087 51 4.528 41.925 3.72 56.5 5.066c46.46 4.288 90.092 8.248 142.5 12.933 28.05 2.507 62.7 5.657 77 6.999s41.525 3.813 60.5 5.49c78.08 6.905 91.942 8.147 123.5 11.07 18.15 1.681 38.175 3.594 44.5 4.25l11.5 1.193.25 369.25.252 369.25-3.251-.109c-1.788-.06-6.851-.744-11.251-1.52m12.5-367.87c0-202.126-.205-367.5-.456-367.5-.724 0-63.912-5.738-87.544-7.95-11.825-1.106-59.3-5.399-105.5-9.54s-101.325-9.125-122.5-11.077-55.6-5.086-76.5-6.966-55.55-5.005-77-6.945-46.875-4.213-56.5-5.05c-25.04-2.177-124.67-11.171-149.553-13.501-11.579-1.085-21.816-1.972-22.75-1.972-1.593 0-1.697 20.635-1.697 336.43v336.428l5.25 1.042c7.338 1.455 30.353 5.619 91.75 16.597 14.025 2.508 32.7 5.884 41.5 7.501s28.825 5.22 44.5 8.006a25033 25033 0 0 1 53.5 9.577c35.411 6.39 59.927 10.783 83 14.87 26.404 4.68 98.342 17.54 126 22.527 12.1 2.182 36.175 6.486 53.5 9.564 36.23 6.44 41.671 7.418 102.5 18.44 24.75 4.486 51.3 9.287 59 10.67 7.7 1.385 18.5 3.33 24 4.325s11.237 1.857 12.75 1.916l2.75.107zm-124.5 225.427c-13.2-2.14-32.55-5.258-43-6.928-27.215-4.35-81.576-13.134-120.5-19.472-44.45-7.237-136.313-22.057-152-24.521-6.875-1.08-27.575-4.424-46-7.43-18.425-3.008-47.9-7.754-65.5-10.549-75.284-11.953-69.127-10.349-75.25-19.597l-3.25-4.908V426.351c0-140.75.354-222.254.976-224.422 1.325-4.62 4.65-7.922 8.755-8.692 3.675-.69 10.119-.114 90.769 8.116 29.15 2.974 69.875 7.018 90.5 8.986s48.3 4.685 61.5 6.037 34.8 3.567 48 4.922a7406 7406 0 0 0 51 5.005c14.85 1.398 46.8 4.562 71 7.03 49.345 5.034 64.802 6.59 94.745 9.533 22.197 2.182 22.802 2.299 27.02 5.222 6.202 4.298 5.752-15.159 5.739 247.906-.014 265.435.567 242.704-6.309 246.896-4.505 2.747-10.111 2.437-38.195-2.116m37.25-.976c2.28-1.677 4.368-3.814 4.64-4.75.945-3.245.356-476.64-.595-479.202-1.215-3.272-4.705-6.984-7.625-8.111-2.33-.9-11.895-1.974-52.17-5.861a6834 6834 0 0 1-40.5-4.047c-28.006-2.907-85.137-8.618-125-12.494-35.862-3.487-140.213-13.856-176-17.49-85.136-8.64-129.565-12.987-132.827-12.991-5.276-.008-9.673 4.322-9.673 9.524 0 3.112.271 3.574 1.75 2.975.962-.39 3.1-1.15 4.75-1.69 1.65-.539 3.9-1.402 5-1.919 1.362-.64 25.734 1.449 76.5 6.555 78.016 7.847 148.832 15.071 157.743 16.091 8.892 1.018 8.257-4.916 8.257 77.099 0 39.708-.274 72.907-.607 73.777-.334.87-1.234 1.582-2 1.582-1.893 0-1.751 1.018.357 2.559 1.635 1.195 1.767 6.124 2.019 74.986.251 68.922.156 73.789-1.463 74.973-1.532 1.12-1.563 1.468-.269 3.027 1.248 1.503 1.503 12.38 1.738 74.064l.275 72.303-2.775 2.945c-1.527 1.62-4.987 3.662-7.69 4.54-4.857 1.575-5.452 1.508-52-5.918a70934 70934 0 0 1-145.585-23.353c-23.375-3.772-42.69-6.692-42.921-6.488-.788.693 4.108 5.198 6.77 6.229 2.564.993 31.793 5.828 110.15 18.22 20.626 3.262 44.026 7.051 52 8.421 7.976 1.37 29.126 4.772 47 7.56 17.876 2.789 37.45 5.938 43.5 6.998s23.826 3.965 39.5 6.456c15.676 2.49 42 6.733 58.5 9.427s41.25 6.713 55 8.93 34.9 5.627 47 7.58c77.05 12.433 71.294 11.874 77.251 7.493m-46.75-9.02c-25.787-4.307-34.719-5.75-108-17.449-29.425-4.697-67-10.759-83.5-13.47-16.5-2.71-32.389-5.233-35.308-5.607-2.92-.373-6.295-1.477-7.5-2.453l-2.192-1.775-.303-75.173c-.197-48.903.045-75.592.693-76.373.64-.77.667-2.62.077-5.166-.513-2.211-.93-35.722-.944-75.747-.02-63.432.154-71.85 1.502-72.367 1.254-.481 1.298-.86.25-2.122-1.717-2.068-2.447-144.107-.757-147.265.602-1.124 3.56-3.212 6.575-4.64 6.476-3.065-1.963-3.569 78.407 4.68 31.625 3.246 73.925 7.506 94 9.466 57.867 5.65 85.228 8.446 89 9.096 4.556.784 7 3.064 7 6.53 0 1.531.337 2.994.75 3.249.412.255.68 15.244.597 33.309s-.197 50.68-.25 72.479l-.097 39.633-2.25.633c-2.232.628-2.234.646-.25 2.16 1.964 1.499 2.004 2.866 2.274 77.68.244 67.723.104 76.249-1.266 77.015-1.378.772-1.38 1.09-.024 3.026 1.322 1.889 1.516 12.042 1.516 79.72v77.558l-6.75 3.126c-3.713 1.719-7.65 3.323-8.75 3.564s-12.125-1.251-24.5-3.318m24-78.432c0-43.175-.113-78.5-.25-78.5-.138 0-16.9-2.263-37.25-5.028-20.35-2.766-46.675-6.34-58.5-7.942s-39.05-5.402-60.5-8.445c-53.021-7.521-97.22-13.585-99.023-13.585-1.31 0-1.459 9.187-1.234 75.73l.257 75.729 26 4.259c14.3 2.342 43.1 6.997 64 10.344s50.375 8.096 65.5 10.553a12068 12068 0 0 0 56.5 9.009c15.95 2.497 31.025 4.9 33.5 5.34s5.962.854 7.75.919l3.25.117zm8.05 74.974 2.95-1.525V570.943l-3.25 1.366-3.25 1.367-.257 77.585c-.14 42.672-.006 77.585.3 77.585s1.884-.686 3.506-1.526m-8.05-233.894v-77.42l-2.75-.528c-1.513-.29-5.675-.808-9.25-1.153-8.242-.793-50.003-5.595-82.5-9.486-13.75-1.647-28.825-3.445-33.5-3.997a73752 73752 0 0 1-62.625-7.5c-29.77-3.574-56.943-6.61-60.387-6.747l-6.263-.249-.302 72.845c-.176 42.425.08 73.849.612 75.25.635 1.668 1.693 2.405 3.452 2.405 1.396 0 13.67 1.573 27.275 3.496 25.522 3.606 33.333 4.694 100.238 13.959 52.96 7.333 81.061 11.17 95.5 13.04 6.6.854 14.25 1.939 17 2.411 2.75.473 6.912.912 9.25.977l4.25.117zm8.05 73.894 2.95-1.525V489.82c0-47.482-.358-75.974-.953-75.974-.525 0-2.1.522-3.5 1.16l-2.547 1.161v76.34c0 41.986.247 76.34.55 76.34.302 0 1.877-.687 3.5-1.527m-8.05-229.361V263.07l-9.75-1.12c-11.972-1.374-38.78-4.126-127.25-13.065-37.675-3.807-80.092-8.144-94.26-9.638-14.167-1.494-25.867-2.533-26-2.31-.132.225-.015 33.258.26 73.408l.5 73 7 .796c15.502 1.762 86.641 10.16 158.5 18.712 75.13 8.941 82.426 9.772 86.75 9.883l4.25.11zm9.25 71.157c1.646-.473 1.75-4.901 1.75-74.838v-74.335l-3.25 1.366-3.25 1.367-.257 74.194c-.243 70.43-.167 74.158 1.5 73.472.966-.397 2.544-.95 3.507-1.226m-3.566-150.427c3.214-1.32-4.692-2.309-62.184-7.773-29.44-2.798-55.807-5.458-154.884-15.624-32.423-3.327-36.182-3.54-38.974-2.218l-3.09 1.463 5.973.668c3.286.367 21.275 2.231 39.975 4.142s43.45 4.443 55 5.625c159.45 16.327 153.162 15.781 158.184 13.717M415.218 611.06l.256-75.12-3.256-.537c-1.791-.296-18.556-2.594-37.256-5.108-50.393-6.773-64.722-8.738-112-15.36-75.764-10.613-84.986-11.84-85.75-11.4-.413.236-.75 32.813-.75 72.393v71.962l2.25.932c1.237.512 16.875 3.236 34.75 6.052 57.3 9.03 75.795 11.966 110 17.465 18.425 2.963 42.275 6.775 53 8.472s23.325 3.7 28 4.453 8.95 1.267 9.5 1.143c.653-.148 1.088-26.294 1.256-75.347m10.256-2.712c-.02-40.623-.199-74.02-.396-74.217s-1.541.18-2.987.84l-2.63 1.197V684.75l3.026-1.272 3.025-1.273zm-10.256-150.25-.256-74.75-3-.27c-1.65-.149-12.225-1.376-23.5-2.728s-40.075-4.735-64-7.518c-54.376-6.325-97.595-11.427-119-14.048-9.075-1.11-19.2-2.114-22.5-2.228l-6-.209-.261 71c-.144 39.05.105 71.559.553 72.242.476.725 7.033 2.08 15.761 3.255 8.22 1.108 35.872 4.95 61.447 8.537 115.825 16.25 152.797 21.291 156.756 21.375l4.256.091zm8.578 71.494c1.596-1.167 1.714-6.392 1.679-74.18-.022-40.108-.2-73.085-.397-73.282s-1.541.181-2.987.84l-2.63 1.198v73.34c0 77.46-.127 75.346 4.335 72.084m-8.334-221.745c0-40.15-.365-73-.81-73-1.272 0-38.36-3.771-63.69-6.476a11994 11994 0 0 0-48.5-5.052c-36.874-3.754-67.831-6.941-97.75-10.064-14.439-1.507-26.433-2.553-26.656-2.324s-.56 32.092-.75 70.807c-.302 61.785-.161 70.488 1.156 71.189.825.439 12.075 1.943 25 3.344s40.15 4.555 60.5 7.01 54.775 6.545 76.5 9.088 46.025 5.44 54 6.44 15.962 1.867 17.75 1.928l3.25.11zm10.253-3.311c.136-39.43.201-71.69.146-71.689-.056 0-1.518.494-3.25 1.098l-3.15 1.098V378.75l3.004-1.263 3.004-1.263zm-5.753-73.107 3-1.328-2.5-.576c-1.375-.317-14.2-1.727-28.5-3.134-47.86-4.71-75.758-7.524-109.5-11.048-18.425-1.924-44.75-4.624-58.5-6s-27.033-2.77-29.517-3.097c-2.895-.381-5.768-.084-8 .828-3.452 1.41-3.384 1.433 7.517 2.565 6.05.628 36.875 3.84 68.5 7.136s77.525 8.02 102 10.498 45.85 4.678 47.5 4.89 3.45.432 4 .49 2.35-.494 4-1.224m414.176 652.328c6.503-3.966 13.729-8.372 16.057-9.793 2.523-1.54 4.644-3.76 5.25-5.499 1.64-4.705 1.392-739.722-.251-741.969-1.176-1.608-2.55-1.278-19.003 4.559-12.676 4.497-17.592 6.672-17.233 7.624.277.732.504 170.543.504 377.357 0 325.163.192 375.951 1.426 375.478.784-.301 6.746-3.792 13.25-7.757m-.845-756.043c13.298-4.67 18.294-6.867 15.613-6.867-.993 0-45.697-3.77-76.944-6.49-9.9-.862-37.575-3.344-61.5-5.516-23.925-2.171-59.7-5.321-79.5-7-19.8-1.678-46.125-3.95-58.5-5.049-12.375-1.098-55.575-4.895-96-8.437s-91.275-8.035-113-9.986a32849 32849 0 0 0-125.5-11.025c-16.5-1.422-39-3.443-50-4.492s-26.3-2.428-34-3.065l-14-1.159-16.459 4.61c-9.052 2.535-17.265 4.61-18.25 4.61s-1.791.347-1.791.773c0 .425 8.437 1.584 18.75 2.574 36.573 3.513 70.13 6.6 99.25 9.128 46.579 4.045 127.97 11.297 157.5 14.033 14.85 1.377 29.925 2.738 33.5 3.026s31.25 2.743 61.5 5.456 78.175 6.984 106.5 9.491c107.835 9.546 131.42 11.655 162 14.49 17.325 1.605 40.05 3.663 50.5 4.572s19.221 1.868 19.493 2.13c.87.845 5.835-.54 20.838-5.807" style="fill:#000"/></svg>