<?xml version="1.0" encoding="UTF-8" standalone="no"?>
<!-- Created with Inkscape (http://www.inkscape.org/) -->

<svg
   width="960"
   height="960"
   viewBox="0 0 253.99999 254"
   version="1.1"
   id="svg1"
   xml:space="preserve"
   inkscape:version="1.4.4 (dcaf3e7, 2026-05-05)"
   sodipodi:docname="6gang.svg"
   xmlns:inkscape="http://www.inkscape.org/namespaces/inkscape"
   xmlns:sodipodi="http://sodipodi.sourceforge.net/DTD/sodipodi-0.dtd"
   xmlns="http://www.w3.org/2000/svg"
   xmlns:svg="http://www.w3.org/2000/svg"><sodipodi:namedview
     id="namedview1"
     pagecolor="#ffffff"
     bordercolor="#000000"
     borderopacity="0.25"
     inkscape:showpageshadow="2"
     inkscape:pageopacity="0.0"
     inkscape:pagecheckerboard="0"
     inkscape:deskcolor="#d1d1d1"
     inkscape:document-units="mm"
     inkscape:zoom="0.60662084"
     inkscape:cx="395.63428"
     inkscape:cy="467.343"
     inkscape:window-width="1997"
     inkscape:window-height="1112"
     inkscape:window-x="10"
     inkscape:window-y="76"
     inkscape:window-maximized="0"
     inkscape:current-layer="layer1" /><defs
     id="defs1" /><g
     inkscape:label="Camada 1"
     inkscape:groupmode="layer"
     id="layer1"><path
       style="fill:#000000"
       d="m 217.4379,241.26394 c -0.17665,-0.33007 -0.15365,-0.50387 0.0939,-0.70929 0.47607,-0.3951 1.04944,-0.0969 0.9641,0.50134 -0.092,0.64481 -0.75448,0.77503 -1.05797,0.20795 z m -98.6247,-7.22434 c -53.064424,-2.4263 -97.597702,-4.41777 -98.962839,-4.42548 -2.612593,-0.0148 -3.783129,-0.26628 -4.07712,-0.87603 -0.09753,-0.20227 -0.211091,-23.50974 -0.252366,-51.79437 -0.04128,-28.28463 -0.135438,-75.9269 -0.20925,-105.871718 -0.07381,-29.944814 -0.07878,-54.696661 -0.01104,-55.004102 0.216671,-0.983382 1.257526,-1.303317 4.313982,-1.326019 3.49334,-0.02595 194.571103,-5.7976217 197.244563,-5.9579483 1.82147,-0.1092327 2.096,-0.071713 2.89426,0.395555 0.48506,0.283929 1.08165,0.8582133 1.32576,1.2761883 0.43344,0.742162 0.44269,1.160924 0.39479,17.887388 -0.027,9.42009 0.10379,52.142242 0.29058,94.938116 0.18679,42.79588 0.34875,85.70835 0.3599,95.36106 l 0.0203,17.55038 -0.77181,0.70732 c -0.79253,0.72629 -2.73527,1.29028 -5.07273,1.47262 -0.5534,0.0432 -44.42252,-1.90666 -97.48695,-4.33296 z m 97.03976,-110.23409 c 0,-112.358551 -0.001,-112.65786 -0.44719,-113.103864 -0.24595,-0.245954 -0.67357,-0.447432 -0.95027,-0.44773 -0.54175,-5.84e-4 -32.97803,0.976979 -85.24518,2.569114 -17.95459,0.546923 -49.799956,1.501545 -70.767475,2.121382 -38.294109,1.13204 -41.044334,1.234382 -41.548727,1.546114 -0.302935,0.187224 -0.31983,39.090473 -0.06512,149.944284 0.07544,32.83476 0.0637,60.05173 -0.02611,60.48215 -0.134814,0.64614 -0.07985,0.85235 0.315285,1.18279 0.263212,0.22012 0.560053,0.31873 0.659647,0.21914 0.0996,-0.0996 44.531163,1.84009 98.736815,4.31042 87.13282,3.97092 98.60109,4.45333 98.94703,4.16219 0.3717,-0.31283 0.39129,-5.96843 0.39129,-112.98599 z m -8.49657,110.92059 c -7.0046,-0.32903 -23.68504,-1.03958 -49.63785,-2.11447 -10.39152,-0.43039 -24.77979,-1.03191 -31.97393,-1.33672 -7.19413,-0.30482 -25.15431,-1.05832 -39.911511,-1.67446 -14.757198,-0.61614 -30.201948,-1.26595 -34.321666,-1.44402 -4.119718,-0.17807 -12.621876,-0.53109 -18.893686,-0.78448 -13.793841,-0.55729 -14.202607,-0.59512 -14.581557,-1.34937 -0.224169,-0.44617 -0.281511,-21.35139 -0.284142,-103.59004 l -0.0033,-103.031058 0.503473,-0.503473 c 0.496648,-0.496649 0.629231,-0.507128 9.782233,-0.773165 5.103319,-0.148331 18.636167,-0.56761 30.072996,-0.931731 11.436829,-0.364121 27.434973,-0.867944 35.551432,-1.119606 30.864864,-0.957011 50.663524,-1.579655 60.593954,-1.905609 5.65692,-0.185682 19.94457,-0.634537 31.75033,-0.997456 11.80576,-0.362919 22.49725,-0.713803 23.75886,-0.779741 2.08338,-0.108887 2.33469,-0.07904 2.73903,0.325296 0.44331,0.443311 0.44518,0.909018 0.44518,110.798943 V 233.8687 l -0.54882,0.54882 c -0.30185,0.30185 -0.72948,0.53376 -0.95028,0.51535 -0.22079,-0.0184 -2.06163,-0.11145 -4.09075,-0.20677 z m 4.76327,-0.85607 c 0.20682,-0.20679 0.28318,-25.18225 0.33622,-109.95699 l 0.0686,-109.689415 -5.09949,0.152684 c -2.80472,0.08398 -12.59548,0.396267 -21.75724,0.693978 -31.50213,1.023661 -58.9996,1.899988 -97.934132,3.121099 -64.810027,2.032649 -68.288204,2.146892 -68.83944,2.261077 l -0.531499,0.110097 0.09517,102.61789 c 0.05981,64.4951 0.174199,102.69471 0.307905,102.82467 0.291935,0.28376 11.979878,0.80096 116.593369,5.15934 20.72157,0.8633 44.61817,1.86988 53.10356,2.23684 22.15294,0.95803 23.1479,0.97774 23.65695,0.46873 z M 170.2398,193.01844 c -41.92226,-1.19572 -62.16541,-1.76212 -90.890924,-2.54311 -18.077568,-0.4915 -34.267273,-0.98847 -35.977123,-1.1044 -2.692673,-0.18255 -3.171555,-0.2735 -3.577502,-0.67944 l -0.468686,-0.46867 -0.05958,-65.35259 -0.05958,-65.352596 0.548085,-0.514898 c 0.506627,-0.475952 0.832476,-0.529662 4.30786,-0.710072 2.067877,-0.107344 15.833847,-0.400908 30.591045,-0.652362 33.523857,-0.571228 82.605717,-1.463486 99.789457,-1.814069 12.91913,-0.263577 13.04038,-0.261945 13.63922,0.18363 0.51029,0.379678 0.62623,0.672006 0.74578,1.880342 0.0779,0.786924 0.15332,31.835036 0.1677,68.995805 l 0.0261,67.56503 -0.58914,0.46342 c -0.54498,0.42868 -0.85921,0.46106 -4.19238,0.43197 -1.98179,-0.0173 -8.28195,-0.16488 -14.00037,-0.32799 z m 17.88752,-0.53494 c 0.44524,-0.44524 0.44718,-0.74532 0.44718,-68.93599 0,-58.942171 -0.0444,-68.549297 -0.31879,-68.922823 -0.38467,-0.523712 2.01049,-0.537876 -40.93428,0.242057 -16.60185,0.301511 -36.07129,0.651777 -43.26543,0.778369 -19.037304,0.334991 -47.488488,0.855054 -56.071702,1.024942 l -7.440028,0.147261 -0.442786,0.562912 c -0.439314,0.558497 -0.44234,1.072998 -0.385759,65.590942 0.05674,64.6942 0.05932,65.0303 0.504216,65.46833 0.427922,0.42131 1.169637,0.46027 17.216731,0.90413 9.223249,0.25511 23.812752,0.66346 32.421118,0.90745 8.608365,0.24398 30.54293,0.8492 48.74347,1.34494 18.20055,0.49573 35.70795,0.98319 38.90534,1.08323 10.06269,0.31485 10.11101,0.31396 10.62072,-0.19575 z m -15.53978,-2.13572 c -5.41097,-0.15464 -20.20171,-0.54839 -32.86831,-0.87501 -12.66659,-0.32662 -23.35616,-0.64244 -23.75459,-0.70182 -0.42907,-0.064 -0.9984,-0.40028 -1.39643,-0.82494 l -0.67201,-0.71697 -0.001,-20.62464 c -0.001,-20.38306 0.004,-20.62792 0.44615,-20.90392 0.24596,-0.1536 0.44719,-0.43394 0.44719,-0.62299 0,-0.18904 -0.20123,-0.51601 -0.44719,-0.7266 -0.44117,-0.37774 -0.44718,-0.65959 -0.44718,-20.93975 0,-21.74666 -0.0346,-20.96792 0.94628,-21.32199 0.19298,-0.0697 0.0872,-0.31193 -0.3314,-0.75888 l -0.61488,-0.65654 0.007,-20.558409 0.007,-20.558405 0.4975,-0.564091 c 1.15609,-1.31082 1.26604,-1.336416 5.74285,-1.336965 4.40784,-5.4e-4 49.49621,-0.773024 58.97215,-1.01035 l 5.63885,-0.141226 0.56588,0.565878 0.56588,0.565879 0.0318,32.710773 c 0.0175,17.990926 0.093,47.492426 0.1677,65.558896 0.0896,21.66401 0.0597,33.0814 -0.0877,33.53326 -0.28606,0.87655 -1.05297,1.25683 -2.45953,1.21957 -0.61488,-0.0163 -5.54513,-0.15613 -10.9561,-0.31076 z m 12.58082,-0.51039 c 0.2588,-0.16428 -5.6559,-0.10766 -6.43199,0.0616 -0.18446,0.0402 1.12356,0.0833 2.90672,0.0956 1.78316,0.0124 3.36953,-0.0584 3.52527,-0.15721 z m -9.83118,-0.20303 c -0.94723,-0.0418 -2.55711,-0.042 -3.5775,-5.1e-4 -1.0204,0.0415 -0.24539,0.0757 1.72223,0.076 1.96763,2.9e-4 2.8025,-0.0337 1.85527,-0.0755 z m -7.9482,-0.22393 c -1.01456,-0.0414 -2.67474,-0.0414 -3.6893,0 -1.01456,0.0414 -0.18446,0.0753 1.84465,0.0753 2.02911,0 2.85921,-0.0339 1.84465,-0.0753 z m -8.0384,-0.22342 c -1.00852,-0.0413 -2.71902,-0.0415 -3.8011,-4.7e-4 -1.08208,0.0411 -0.25693,0.0749 1.83367,0.0751 2.09061,2.6e-4 2.97595,-0.0333 1.96743,-0.0747 z m -8.17216,-0.22362 c -0.95307,-0.0419 -2.51264,-0.0419 -3.4657,0 -0.95307,0.0419 -0.17329,0.0762 1.73285,0.0762 1.90614,0 2.68592,-0.0343 1.73285,-0.0762 z m 30.46467,-20.62804 v -20.79423 h -33.0919 -33.0919 v -0.55898 -0.55899 l 13.80693,-0.0393 13.80692,-0.0393 -13.46817,-0.20978 c -7.4075,-0.11537 -13.80666,-0.14627 -14.22037,-0.0687 l -0.75219,0.14111 -0.14554,2.37872 c -0.18867,3.08348 -0.18956,32.50003 -0.001,36.00509 l 0.14446,2.6866 2.37097,0.13777 c 1.30404,0.0758 8.30739,0.29885 15.56302,0.49573 7.25562,0.19689 19.53093,0.5382 27.27846,0.75847 7.74752,0.22028 15.82206,0.4139 17.94341,0.43028 l 3.85699,0.0298 z m -11.78125,8.70288 c -1.36863,-0.87668 -1.45262,-1.47245 -1.37139,-9.72861 0.0535,-5.44111 0.14669,-7.48904 0.35747,-7.85786 0.39954,-0.6991 1.83241,-1.62532 2.51438,-1.62532 0.92317,0 2.53241,0.93372 2.88341,1.67304 0.37833,0.79687 0.62641,10.53556 0.35917,14.09997 -0.16327,2.17778 -0.1809,2.23122 -1.00955,3.05988 -0.74626,0.74625 -0.96873,0.84294 -1.93176,0.83961 -0.70911,-0.002 -1.33696,-0.163 -1.80173,-0.46071 z m 3.41884,-0.74293 0.76022,-0.76022 v -7.75871 -7.75871 l -0.76022,-0.76022 c -0.64046,-0.64046 -0.91953,-0.76022 -1.77155,-0.76022 -1.26496,0 -2.25022,0.8656 -2.46504,2.16565 -0.23484,1.42123 -0.16305,13.52683 0.0855,14.42183 0.31989,1.15175 1.35525,1.97082 2.49126,1.97082 0.72493,0 1.04718,-0.1476 1.6598,-0.76022 z m -2.6421,-0.52545 c -0.92028,-1.05502 -0.94744,-1.28939 -0.94235,-8.13063 0.004,-5.93414 0.0457,-6.6836 0.39774,-7.22088 0.55456,-0.84637 1.35425,-1.10708 2.14365,-0.69886 0.34711,0.1795 0.69362,0.48924 0.77001,0.68831 0.0764,0.19907 0.13889,3.56453 0.13889,7.47879 v 7.11684 l -0.68793,0.57886 c -0.80394,0.67647 -1.34492,0.73222 -1.82001,0.18757 z m 14.32722,9.50311 c -0.0786,-2.12155 -0.1541,-11.63004 -0.16769,-21.12999 -0.0218,-15.21537 0.0152,-17.27263 0.31069,-17.27263 0.18446,0 0.33539,-0.10408 0.33539,-0.2313 0,-0.2199 -2.19351,-0.0698 -2.45953,0.16835 -0.0615,0.055 -0.13943,9.60005 -0.1732,21.21114 l -0.0614,21.11106 1.17937,3.7e-4 1.17937,3.7e-4 z m -41.72496,3.46668 c -1.01456,-0.0414 -2.67475,-0.0414 -3.6893,0 -1.01456,0.0414 -0.18447,0.0753 1.84465,0.0753 2.02911,0 2.8592,-0.0339 1.84465,-0.0753 z m -8.03841,-0.22341 c -1.00851,-0.0413 -2.71901,-0.0416 -3.80109,-4.7e-4 -1.08209,0.0411 -0.25693,0.0749 1.83367,0.0752 2.0906,2.6e-4 2.97594,-0.0334 1.96742,-0.0747 z m -8.71952,-0.22386 c -1.13115,-0.0405 -3.04288,-0.0407 -4.24829,-3.9e-4 -1.20541,0.0403 -0.27992,0.0734 2.05663,0.0736 2.33656,2.1e-4 3.3228,-0.0327 2.19166,-0.0732 z m -7.71811,-0.2212 c -0.58002,-0.0459 -1.58619,-0.0464 -2.23594,-0.001 -0.64975,0.0453 -0.17519,0.0829 1.05458,0.0834 1.22976,5.8e-4 1.76138,-0.0365 1.18136,-0.0824 z m 65.17013,-42.01733 c 1.12575,-0.10632 1.50926,-0.22737 1.50926,-0.47638 0,-0.27764 -0.21645,-0.30439 -1.28567,-0.15889 -0.70711,0.0962 -1.4869,0.17279 -1.73285,0.17015 -0.24595,-0.003 -7.84256,-0.11474 -16.88134,-0.24909 -9.03878,-0.13436 -23.22582,-0.30411 -31.52674,-0.37722 -8.30093,-0.0731 -15.87238,-0.15879 -16.82544,-0.1904 -1.23894,-0.0411 -1.73286,0.0197 -1.73286,0.21325 0,0.38455 4.84473,0.49822 33.42729,0.78428 13.40446,0.13415 24.47236,0.27784 24.59533,0.31931 0.40978,0.13819 8.92103,0.10968 10.45302,-0.035 z m -2.29184,-21.67695 v -20.7047 l -12.57716,0.13342 c -6.91743,0.0734 -21.95971,0.19429 -33.42729,0.26869 l -20.85013,0.13528 v -0.56543 c 0,-0.35049 0.14875,-0.6043 0.39129,-0.66768 0.31509,-0.0823 0.29997,-0.10731 -0.0776,-0.12819 -0.44192,-0.0245 -0.47728,0.11895 -0.61387,2.48949 -0.18857,3.27256 -0.18855,32.07346 2e-5,35.77084 0.11894,2.33198 0.20973,2.86547 0.50218,2.95078 0.19635,0.0573 9.51317,0.21887 20.70404,0.35912 17.38933,0.21792 36.95689,0.49676 43.99211,0.62689 l 1.95644,0.0362 z m -11.29149,8.8645 c -0.73815,-0.30532 -1.47823,-1.25487 -1.69029,-2.16871 -0.3007,-1.29581 -0.22796,-13.84699 0.0872,-15.05129 0.372,-1.42137 1.39723,-2.09365 2.99706,-1.96527 1.31165,0.10526 1.96445,0.55285 2.43796,1.67159 0.37694,0.89057 0.43982,14.43597 0.0731,15.75618 -0.32719,1.17803 -1.35481,1.97441 -2.52479,1.95664 -0.51322,-0.008 -1.13436,-0.0974 -1.38031,-0.19914 z m 2.84729,-0.88631 0.73021,-0.65244 v -7.97427 -7.97427 l -0.73021,-0.65244 c -1.15244,-1.02971 -2.93466,-0.82112 -3.79443,0.44409 -0.3508,0.51624 -0.40239,1.32226 -0.46649,7.28824 -0.0396,3.6893 -0.005,7.15453 0.076,7.70052 0.33443,2.24277 2.6063,3.2311 4.18496,1.82057 z m -2.76662,-0.89273 -0.52786,-0.42719 -0.0647,-7.13372 c -0.0632,-6.97064 -0.0539,-7.14745 0.40752,-7.73399 0.58941,-0.74931 1.7814,-0.82372 2.45206,-0.15307 0.48321,0.48322 0.45711,-0.0944 0.47495,10.50891 0.008,4.64902 0.0306,4.41355 -0.47495,4.91907 -0.56496,0.56495 -1.58261,0.57393 -2.26707,0.02 z m 14.22758,-7.5071 -0.16674,-20.90275 0.53144,-0.21271 c 0.43247,-0.17309 0.29325,-0.21534 -0.74765,-0.22687 l -1.27909,-0.0142 -0.01,21.12963 -0.01,21.12962 h 0.92415 0.92415 z M 133.06731,102.6549 c -2.55176,-0.0359 -6.72738,-0.0359 -9.27914,0 -2.55177,0.0359 -0.46396,0.0652 4.63957,0.0652 5.10353,0 7.19134,-0.0293 4.63957,-0.0652 z m 46.63149,-0.2228 c -1.25383,-0.0398 -3.36679,-0.0399 -4.69547,-3.3e-4 -1.32869,0.0396 -0.30283,0.0721 2.27968,0.0723 2.58251,1.8e-4 3.66961,-0.0322 2.41579,-0.072 z m -13.2042,-0.42932 c 16.62902,-0.13029 18.94959,-0.18955 18.94959,-0.48387 0,-0.29665 -2.18858,-0.31824 -18.94959,-0.18691 -10.42227,0.0817 -26.16887,0.14855 -34.99244,0.14863 -14.1112,1.3e-4 -16.04287,0.0405 -16.04287,0.33554 0,0.29501 1.93154,0.33537 16.04287,0.33524 8.82357,-8e-5 24.57017,-0.067 34.99244,-0.14863 z m -1.77855,-1.19279 h 17.20907 l -0.1646,-20.850129 c -0.0905,-11.467573 -0.17914,-20.855568 -0.19691,-20.862212 -0.19629,-0.07338 -66.91672,0.429706 -66.99869,0.505184 -0.1813,0.166936 -0.28137,34.540849 -0.11066,38.011952 l 0.15625,3.177215 1.71006,0.0939 c 0.94053,0.0516 8.34224,0.0557 16.44824,0.009 8.106,-0.0467 22.48226,-0.0849 31.94724,-0.0849 z m 5.40048,-11.750183 c -0.37525,-0.185193 -0.87833,-0.660834 -1.11797,-1.05698 -0.40888,-0.675912 -0.43571,-1.181523 -0.43571,-8.210662 0,-4.119718 0.0762,-7.762569 0.16943,-8.095225 0.2265,-0.808552 1.51536,-1.758604 2.56122,-1.887938 1.09324,-0.135194 2.24009,0.482426 2.78602,1.500382 0.37349,0.696418 0.40857,1.436467 0.40857,8.62097 v 7.859156 l -0.89502,0.808597 c -0.73597,0.664902 -1.06378,0.807692 -1.84465,0.803505 -0.5223,-0.0028 -1.25665,-0.156613 -1.63189,-0.341805 z m 3.16415,-0.860511 0.76022,-0.760219 v -7.686598 c 0,-8.185185 -0.004,-8.217132 -1.10771,-9.05449 -1.00284,-0.760765 -2.77678,-0.389075 -3.51416,0.736317 -0.3746,0.571711 -0.4084,1.234251 -0.40868,8.012158 -3.4e-4,8.017024 0.0712,8.561822 1.20442,9.177741 0.32121,0.174573 0.97139,0.321435 1.44485,0.326358 0.68741,0.0071 1.014,-0.144205 1.62106,-0.751267 z m -2.93924,-0.906571 -0.54883,-0.548822 v -7.070571 -7.070571 l 0.65359,-0.653582 c 0.78414,-0.784142 1.3593,-0.824585 2.14028,-0.150496 0.57302,0.494587 0.58469,0.563526 0.69093,4.080589 0.0594,1.967626 0.0409,5.276274 -0.0413,7.35255 -0.12909,3.263577 -0.20587,3.831592 -0.56666,4.192386 -0.59299,0.592984 -1.66408,0.532491 -2.32805,-0.131483 z m 14.24453,-7.50056 c -0.0829,-19.270102 -0.0603,-21.017828 0.27209,-21.017828 0.19939,0 0.36253,-0.150926 0.36253,-0.335391 0,-0.247018 -0.25775,-0.335391 -0.97822,-0.335391 -0.91673,0 -0.98701,0.04392 -1.11797,0.698731 -0.18857,0.942843 -0.1795,41.669824 0.009,41.858644 0.082,0.082 0.46263,0.14906 0.84588,0.14906 h 0.69682 z m -38.0902,-21.855471 c -1.43792,-0.03889 -3.85274,-0.03901 -5.36625,-2.66e-4 -1.51352,0.03874 -0.33704,0.07055 2.6144,0.0707 2.95144,1.46e-4 4.18977,-0.03155 2.75185,-0.07044 z m 29.7527,-0.204998 c 5.5365,-0.09365 8.68678,-0.226516 8.55259,-0.360704 -0.17542,-0.17542 -27.07183,0.131752 -32.22518,0.368029 -2.9128,0.13355 15.68466,0.127795 23.67259,-0.0073 z M 103.49702,188.5389 c -0.86084,-0.0345 -5.690467,-0.17141 -10.732509,-0.30428 -8.754149,-0.23068 -33.814773,-0.93269 -44.718783,-1.25267 l -5.14266,-0.15092 -0.838478,-0.83676 -0.838477,-0.83676 v -19.92835 c 0,-19.65166 0.0062,-19.93367 0.447188,-20.31125 0.564756,-0.48356 0.564756,-0.83672 0,-1.40148 -0.440514,-0.44051 -0.447188,-0.74531 -0.447188,-20.42419 0,-19.69304 0.0064,-19.98275 0.447188,-20.3817 0.569864,-0.51572 0.569864,-1.04558 0,-1.40147 -0.441806,-0.27591 -0.447188,-0.52143 -0.447188,-20.40083 l 0,-20.121558 0.894376,-0.894375 c 0.676218,-0.676218 1.071629,-0.894455 1.621056,-0.8947 0.399674,-1.79e-4 6.109703,-0.09952 12.688954,-0.220751 45.259871,-0.833993 52.078201,-0.922893 52.523051,-0.684819 1.0817,0.578907 1.03088,-2.845614 0.97736,65.859923 l -0.0503,64.61864 -2.4092,0.0155 c -1.32506,0.009 -3.11351,-0.0127 -3.97435,-0.0472 z m 1.39746,-0.69251 c -0.70712,-0.0444 -1.86421,-0.0444 -2.57133,0 -0.70712,0.0444 -0.12857,0.0807 1.28567,0.0807 1.41423,0 1.99278,-0.0363 1.28566,-0.0807 z m 3.857,-0.0528 c 0,-0.12527 -0.30914,-0.15917 -0.72668,-0.0797 -1.01899,0.19396 -1.05145,0.29768 -0.0932,0.29768 0.45092,0 0.81985,-0.0981 0.81985,-0.218 z m -10.889988,-0.17141 c -0.88596,-0.0423 -2.395219,-0.0426 -3.353909,-5.7e-4 -0.95869,0.042 -0.233813,0.0766 1.610836,0.077 1.84465,3.1e-4 2.629033,-0.0341 1.743073,-0.0764 z m -8.160781,-0.22379 c -0.94723,-0.0418 -2.557106,-0.042 -3.577503,-5.1e-4 -1.020396,0.0415 -0.24539,0.0757 1.722236,0.076 1.967627,2.9e-4 2.802497,-0.0337 1.855267,-0.0755 z m -8.161575,-0.2234 c -0.88596,-0.0423 -2.395219,-0.0426 -3.353909,-5.7e-4 -0.95869,0.042 -0.233813,0.0767 1.610837,0.077 1.844649,3.2e-4 2.629032,-0.0341 1.743072,-0.0764 z m -7.937187,-0.22378 c -0.94723,-0.0418 -2.557106,-0.042 -3.577503,-5.2e-4 -1.020396,0.0415 -0.24539,0.0757 1.722237,0.076 1.967626,2.8e-4 2.802496,-0.0337 1.855266,-0.0755 z m 32.132651,-3.03321 c 0.088,-1.75956 0.0474,-9.38132 -0.0901,-16.93724 -0.13755,-7.55591 -0.24936,-15.05847 -0.24848,-16.67236 l 0.002,-2.93433 -26.998968,-0.14242 c -14.849431,-0.0783 -29.041945,-0.20415 -31.538919,-0.2796 l -4.539953,-0.13719 0.06808,-0.54806 0.06808,-0.54805 5.478051,0.0144 c 34.620794,0.0908 56.731559,0.31699 57.295939,0.58612 0.5489,0.26175 0.61488,0.25099 0.61488,-0.10019 0,-0.36976 -0.84987,-0.40233 -14.14231,-0.54195 -7.778274,-0.0817 -21.638302,-0.25746 -30.800062,-0.39057 -9.161761,-0.13311 -17.174978,-0.17751 -17.80715,-0.0987 l -1.149402,0.14336 -0.164737,5.05242 c -0.241073,7.39361 -0.03121,34.44006 0.269567,34.74083 0.344961,0.34496 5.528205,0.56591 28.354463,1.20869 11.067899,0.31167 21.029008,0.59489 22.135798,0.62938 1.10679,0.0345 4.492162,0.0834 7.523053,0.10869 l 5.5107,0.046 z m -11.293135,-8.37212 c -0.484696,-0.24213 -0.952797,-0.73138 -1.229767,-1.28532 -0.419238,-0.83847 -0.447187,-1.34156 -0.447187,-8.04938 0,-7.92299 0.01877,-8.04096 1.430527,-8.99131 0.944707,-0.63594 2.127128,-0.65818 3.110704,-0.0585 1.324926,0.80779 1.384045,1.20132 1.38366,9.21034 -3.89e-4,8.08605 -0.04677,8.35804 -1.561322,9.15557 -0.974647,0.51322 -1.686635,0.51816 -2.686615,0.0186 z m 2.340067,-0.37333 c 1.418743,-0.59279 1.46103,-0.84892 1.46103,-8.84957 0,-7.88038 -0.04227,-8.16007 -1.334245,-8.82818 -1.02104,-0.528 -1.915487,-0.42592 -2.742817,0.31303 l -0.730208,0.6522 -0.06445,7.50355 c -0.07147,8.32068 -0.04985,8.4685 1.338507,9.15272 0.91182,0.44937 1.117932,0.45496 2.072182,0.0563 z m -2.048106,-1.33981 -0.627352,-0.53963 v -7.03909 c 0,-6.6083 0.02607,-7.0679 0.425944,-7.50976 0.555811,-0.61416 1.766295,-0.62616 2.36898,-0.0235 0.428513,0.42851 0.447188,0.74531 0.447188,7.58596 v 7.13878 l -0.589139,0.46341 c -0.766995,0.60332 -1.257058,0.58489 -2.025621,-0.0762 z m 13.933724,4.28482 c -0.0752,-4.94981 -0.19943,-13.9614 -0.27598,-20.02575 l -0.13919,-11.02609 0.47334,-0.12379 c 0.33447,-0.0875 0.47334,-0.30071 0.47334,-0.72685 0,-0.60105 -0.005,-0.60275 -1.39746,-0.5061 -0.7686,0.0533 -1.4365,0.13234 -1.48421,0.17555 -0.0477,0.0432 0.0223,0.50909 0.15555,1.03527 0.15357,0.60629 0.34193,8.14269 0.51431,20.57705 l 0.272,19.62036 h 0.77255 0.77255 z m -43.114582,8.61005 c -0.94723,-0.0418 -2.557106,-0.042 -3.577503,-5.1e-4 -1.020396,0.0415 -0.24539,0.0757 1.722237,0.076 1.967626,2.8e-4 2.802496,-0.0337 1.855266,-0.0755 z m -7.948201,-0.2236 c -0.89158,-0.0424 -2.350531,-0.0424 -3.242111,0 -0.891581,0.0424 -0.162106,0.0772 1.621056,0.0772 1.783161,0 2.512636,-0.0347 1.621055,-0.0772 z m -7.602193,-0.2236 c -0.89158,-0.0424 -2.350531,-0.0424 -3.242111,0 -0.891581,0.0424 -0.162106,0.0772 1.621055,0.0772 1.783162,0 2.512637,-0.0347 1.621056,-0.0772 z m -5.586773,-0.21497 c -0.275007,-0.0531 -0.778093,-0.0544 -1.11797,-0.003 -0.339876,0.0514 -0.114871,0.0948 0.500012,0.0965 0.614883,0.002 0.892964,-0.0404 0.617958,-0.0934 z m 60.758569,-41.06163 c 0,-0.24544 -1.69048,-0.32817 -9.111449,-0.44593 -22.117115,-0.35097 -53.064305,-0.65217 -53.198706,-0.51777 -0.08089,0.0809 -0.07601,0.21814 0.01085,0.305 0.130469,0.13047 19.748212,0.46094 46.983125,0.79145 15.12457,0.18355 15.31618,0.18189 15.31618,-0.13275 z m 3.40981,0.0802 c 0.34128,-0.001 0.61509,-0.12683 0.61535,-0.28195 3.4e-4,-0.20266 -0.3992,-0.25889 -1.45336,-0.20452 -1.12992,0.0583 -1.45383,0.15197 -1.45383,0.42055 0,0.27489 0.17147,0.31722 0.83848,0.20697 0.46116,-0.0762 1.11517,-0.1397 1.45336,-0.14105 z m -3.40981,-21.14869 V 103.6835 l -3.29801,0.12717 c -1.8139,0.0699 -16.026091,0.24176 -31.582638,0.38182 -15.556547,0.14005 -28.334939,0.29985 -28.396427,0.3551 -0.185295,0.16651 -0.276974,28.66232 -0.108578,33.74843 l 0.156589,4.72951 0.702675,0.11978 c 0.386471,0.0659 8.550821,0.23223 18.143,0.36969 9.592179,0.13745 22.471188,0.3288 28.620021,0.42522 6.148833,0.0964 12.211018,0.19144 13.471538,0.21115 l 2.29183,0.0358 z m -11.085714,8.42698 c -1.263382,-0.77041 -1.323745,-1.18961 -1.323745,-9.19296 0,-8.08087 0.03108,-8.26848 1.520114,-9.1764 1.37157,-0.83629 3.219052,-0.30893 3.996559,1.14081 0.37195,0.69354 0.408565,1.42037 0.408565,8.11011 0,8.06134 -0.04982,8.40601 -1.323776,9.15856 -0.855809,0.50554 -2.414186,0.48646 -3.277717,-0.0401 z m 3.312301,-0.6778 0.730208,-0.6522 0.05725,-7.45308 c 0.04333,-5.64084 -0.01104,-7.58376 -0.223593,-7.99051 -0.668098,-1.27849 -2.206094,-1.78446 -3.431202,-1.1288 -1.169268,0.62577 -1.209725,0.92489 -1.209725,8.94428 v 7.41207 l 0.76022,0.76022 c 1.023285,1.02328 2.247467,1.06315 3.316842,0.10802 z m -2.52264,-0.51204 -0.771843,-0.95991 -0.06549,-6.69425 c -0.06988,-7.14273 -0.003,-7.69534 0.985499,-8.14574 0.765224,-0.34866 1.073127,-0.31856 1.667856,0.16302 0.451296,0.36544 0.546953,0.75012 0.792296,3.18621 0.515053,5.11412 0.267177,10.81645 -0.543232,12.49694 -0.545074,1.13028 -1.129576,1.11718 -2.065086,-0.0463 z m 14.004783,9.9403 c -0.0731,-1.56796 -0.15767,-10.87474 -0.18796,-20.68175 l -0.0551,-17.83092 -1.17387,-6.9e-4 -1.17387,-7e-4 v 20.68244 20.68244 h 1.36183 1.36183 z M 58.849185,102.87854 c -2.543487,-0.0358 -6.769412,-0.0359 -9.390944,-1e-4 -2.621532,0.0358 -0.540497,0.0651 4.624522,0.0652 5.16502,5e-5 7.30991,-0.0292 4.766422,-0.0651 z m 26.704422,-0.72652 c 20.868553,-4.1e-4 23.645053,-0.0398 23.645053,-0.33585 0,-0.39659 -8.25825,-0.43126 -44.439287,-0.18658 -19.295304,0.13048 -21.968102,0.18929 -21.968102,0.48338 0,0.29444 1.152665,0.31701 9.558639,0.18717 5.257252,-0.0812 20.198916,-0.14786 33.203697,-0.14812 z M 105.21013,80.742439 c -0.0459,-11.160131 -0.12659,-20.336517 -0.17928,-20.39197 -0.0527,-0.05545 -14.086526,0.138153 -31.186317,0.430234 -26.776218,0.457363 -31.11768,0.487127 -31.28618,0.214488 -0.159847,-0.258638 -0.248498,-0.263739 -0.484452,-0.02788 -0.229491,0.229403 -0.304652,3.741917 -0.365973,17.103066 -0.04244,9.247905 -0.0072,18.143909 0.07837,19.768898 l 0.155541,2.95453 2.045771,0.0735 c 1.125174,0.0404 15.379326,0.0944 31.675893,0.11989 l 29.630126,0.0464 z m -10.675105,8.894823 c -0.780147,-0.315603 -1.623061,-1.516152 -1.771737,-2.523459 -0.07706,-0.522066 -0.108304,-3.967729 -0.06944,-7.657029 0.07975,-7.570216 0.122052,-7.779065 1.743316,-8.606172 1.115347,-0.569007 1.63767,-0.565324 2.677123,0.01888 1.685053,0.947053 1.687258,0.959152 1.687258,9.258072 0,6.681026 -0.03802,7.448234 -0.402144,8.115167 -0.728544,1.334402 -2.464488,1.960853 -3.864377,1.394539 z m 2.103,-0.473929 c 0.383974,-0.133854 0.902075,-0.573354 1.151335,-0.976666 0.430627,-0.696769 0.453202,-1.09172 0.453202,-7.928911 0,-5.946562 -0.058,-7.30777 -0.334114,-7.841721 C 97.136007,70.9223 95.418703,70.60488 94.1655,71.724202 l -0.730208,0.652199 -0.06445,7.503548 c -0.07162,8.338373 -0.03412,8.591151 1.364584,9.19949 0.877828,0.381793 1.028932,0.388456 1.902598,0.08389 z m -1.445609,-0.974149 c -0.476597,-0.207382 -0.778069,-0.546008 -0.937752,-1.05332 -0.147061,-0.467212 -0.21907,-3.234085 -0.191966,-7.376036 0.04038,-6.16988 0.07284,-6.66092 0.46932,-7.099107 0.540406,-0.597252 1.765778,-0.626763 2.336276,-0.05626 0.325372,0.325372 0.447752,0.914246 0.569225,2.739025 0.194835,2.92684 0.195627,7.301105 0.0018,9.960288 -0.126304,1.732831 -0.231608,2.134856 -0.688162,2.627229 -0.61797,0.666452 -0.619789,0.666754 -1.558743,0.258186 z M 108.7874,80.35115 c -0.066,-15.014289 -0.0233,-20.458843 0.16065,-20.458843 0.13784,0 0.25061,-0.100617 0.25061,-0.223594 0,-0.122977 -0.45871,-0.223594 -1.01937,-0.223594 -0.66549,0 -0.96816,0.08284 -0.87187,0.238644 0.0812,0.131406 -0.0636,0.293836 -0.3222,0.361468 l -0.46968,0.122826 v 20.320968 20.320965 h 1.18091 1.18092 z M 70.628713,59.440501 c 22.267258,-0.359216 38.220577,-0.689452 38.324457,-0.793322 0.14605,-0.146054 -6.25946,-0.105201 -18.536396,0.118222 -6.087344,0.110781 -18.71481,0.318422 -28.061036,0.461425 -9.346225,0.143003 -17.546532,0.346171 -18.222904,0.451485 -1.263972,0.196805 0.581391,0.180242 26.495879,-0.23781 z m 41.197177,80.480519 c -0.5141,-0.29944 -0.4974,-0.93473 0.0373,-1.41862 0.8451,-0.7648 1.90165,0.58201 1.09185,1.39181 -0.32317,0.32317 -0.60869,0.32995 -1.12915,0.0268 z m 0.69873,-0.82057 c 0.0154,-0.0922 -0.0727,-0.20123 -0.19564,-0.24223 -0.12298,-0.041 -0.2236,0.0932 -0.2236,0.29813 0,0.35166 0.3593,0.30375 0.41924,-0.0559 z M 27.220804,27.136451 c -0.07727,-0.201356 -0.0372,-0.469392 0.08905,-0.595635 0.364481,-0.364482 1.059612,-0.118833 1.059612,0.374451 0,0.568749 -0.945426,0.750799 -1.148659,0.221184 z M 140.87447,25.756969 c -0.26695,-0.266946 -0.15735,-0.694288 0.21467,-0.837045 0.4618,-0.17721 0.98975,0.247699 0.82882,0.667065 -0.12599,0.328327 -0.7788,0.434668 -1.04349,0.16998 z M 25.686336,19.645724 c 3.566323,-0.121592 14.483296,-0.473677 24.25994,-0.782412 9.776644,-0.308734 24.013986,-0.761634 31.638539,-1.006446 12.953455,-0.415913 27.410995,-0.872831 53.215355,-1.681826 5.90288,-0.185061 24.76861,-0.784114 41.92386,-1.331228 17.15524,-0.547113 32.17237,-1.017287 33.37139,-1.04483 1.65281,-0.03797 2.18004,-0.122844 2.18004,-0.350958 0,-0.165484 -0.13952,-0.354418 -0.31004,-0.419853 -0.17052,-0.06544 -4.87438,0.03874 -10.45302,0.231495 -5.57863,0.192758 -18.09174,0.599622 -27.80689,0.904142 -9.71516,0.304521 -20.78306,0.656679 -24.59533,0.782574 -3.81228,0.125895 -15.23234,0.481937 -25.37791,0.791204 -10.14558,0.309267 -29.262856,0.90913 -42.482846,1.333028 -13.21999,0.423899 -32.639122,1.032167 -43.153626,1.351708 -10.514503,0.31954 -19.243051,0.62168 -19.396772,0.67142 -0.425479,0.137676 -0.333384,0.775405 0.111797,0.774157 0.215209,-6.04e-4 3.30919,-0.100583 6.875513,-0.222175 z M 218.8804,236.63288 c 0.73295,-0.1902 1.46034,-0.47242 1.61642,-0.62716 0.2293,-0.22734 0.19491,-21.67382 -0.17919,-111.7268 -0.32334,-77.8343 -0.39207,-111.469101 -0.22788,-111.523831 0.70195,-0.233983 -0.16624,-2.277037 -0.96762,-2.277037 -0.28624,0 -1.1559,-0.06642 -1.93256,-0.147595 l -1.41211,-0.147596 0.37314,0.532737 c 0.34726,0.495785 0.37314,8.331417 0.37314,112.965422 0,77.07511 -0.0728,112.5687 -0.23146,112.86518 -0.20727,0.38728 -0.15375,0.43249 0.51201,0.43249 0.40891,0 1.34316,-0.15562 2.07611,-0.34581 z"
       id="path1" /></g></svg>
